<svg height="2799.652" viewBox="0 0 1533.181 2799.652" width="1533.181" xmlns="http://www.w3.org/2000/svg"><path d="m1291.599 1091.509 96.146 1495.249c-136.024 37.317-264.644 21.43-352.648-38.248 0 0-20.313-320 21.082-583.665-73.25-258.014-104.765-335.593-115.675-480.746-13.923-185.25 119.086-393.998 351.096-392.591z" fill="#6f5490"/><path d="m1218.066 188.249c-56.297-39.26-30.345-99.583 2.918-118.829 21.837-12.634 44.591-20.444 57.283-3.72 7.047 9.286 5.186 30.565-2.311 39.792s-22.929 15.237-6.725 37.743c16.203 22.505-15.996 69.539-51.164 45.014z" fill="#fbb348"/><path d="m1238.11 197.801c-6.756 0-14.064-2.166-21.504-7.521-29.609-21.314-35.008-45.208-34.324-61.499 1.164-27.692 19.631-50.844 37.417-61.504 28.688-17.195 49.063-18.233 60.559-3.087 8.079 10.646 5.518 33.183-2.362 42.88-1.505 1.854-3.287 3.563-5.01 5.216-7.254 6.961-13.52 12.973-1.627 29.49 9.674 13.437 3.456 33.467-8.145 45.068-6.195 6.196-14.992 10.957-25.004 10.957zm-18.583-11.58c13.523 9.735 28.495 8.646 40.051-2.912 11.356-11.356 14.776-28.678 7.624-38.611-14.429-20.041-5.196-28.9 2.223-36.02 1.687-1.619 3.281-3.148 4.591-4.761 7.131-8.776 8.356-28.672 2.26-36.704-9.697-12.78-27.868-11.313-54.006 4.353-16.096 9.647-33.912 31.732-34.992 57.424-.907 21.6 10.247 41.392 32.249 57.231z"/><path d="m1318.062 162.696c29.077-7.72 65.278-27.297 67.466-66.264 1.666-29.68-18.016-62.864-50.212-68.74-37.894-6.916-67.619-1.579-73.281 19.457-8.569 31.834 17.441 56.885 17.441 56.885l-38.162 14.573s47.672 51.808 76.749 44.088z" fill="#fbb348"/><path d="m1311.222 166.139c-29.896 0-69.943-43.844-71.762-45.854-.554-.612-.77-1.458-.578-2.261.192-.802.769-1.458 1.539-1.753l34.69-13.247c-6.619-7.578-22.758-29.526-15.491-56.525 1.679-6.239 7.136-11.44 16.219-15.459 19.701-8.715 54.486-10.033 68.929-2.61 32.834 16.875 47.504 42.252 42.424 73.386-5.177 31.73-27.787 52.49-69.122 63.466-2.203.585-4.496.857-6.848.857zm-65.525-46.529c10.024 10.392 47.516 47.094 71.09 40.84 39.229-10.416 60.644-29.859 65.471-59.438 4.697-28.786-9.057-52.347-39.775-68.134-11.915-6.125-44.729-6.063-64.62 2.735-5.248 2.322-11.835 6.321-13.414 12.186-8.072 29.99 16.514 54.196 16.763 54.438.615.594.884 1.462.712 2.299-.171.838-.758 1.53-1.556 1.836l-34.671 13.239z"/><path d="m1335.316 27.692c-33.259-17.126-92.687 5.497-96.619 36.119-2.917 22.721 15.422 43.385 49.77 39.127 43.325-5.371 81.706-57.297 46.849-75.246z" fill="#fbb348"/><path d="m1282.496 105.652c-16.057 0-29.209-4.673-37.459-13.411-7.101-7.522-10.233-17.732-8.818-28.748 1.548-12.062 10.852-23.663 25.523-31.829 24.643-13.713 57.19-15.004 82.92-3.285 1.257.572 1.812 2.055 1.239 3.312-.572 1.257-2.055 1.809-3.311 1.239-24.333-11.084-55.114-9.864-78.416 3.104-13.27 7.386-21.651 17.626-22.996 28.097-1.22 9.502 1.442 18.267 7.495 24.679 8.231 8.72 22.308 12.855 39.62 11.636 24.389-1.713 43.28-8.563 43.468-8.632 1.296-.477 2.732.188 3.208 1.484s-.188 2.732-1.483 3.209c-.793.291-19.708 7.161-44.843 8.927-2.091.146-4.143.22-6.146.22z"/><path d="m1362.463 148.205c29.077-7.72 65.278-27.297 67.466-66.264 1.666-29.68-18.016-62.864-50.212-68.74-37.894-6.916-67.619-1.579-73.281 19.457-8.569 31.834 17.441 56.885 17.441 56.885l-38.162 14.573s47.672 51.808 76.749 44.088z" fill="#fbb348"/><path d="m1355.622 151.648c-29.896 0-69.943-43.844-71.762-45.854-.554-.612-.77-1.458-.578-2.261.192-.802.769-1.458 1.539-1.753l34.69-13.247c-6.619-7.578-22.758-29.525-15.491-56.525 1.679-6.239 7.136-11.439 16.217-15.458 19.701-8.716 54.487-10.033 68.929-2.611 32.834 16.875 47.505 42.252 42.425 73.386-5.178 31.73-27.788 52.49-69.122 63.466-2.203.585-4.496.857-6.848.857zm-65.525-46.529c10.023 10.391 47.514 47.092 71.09 40.84 39.229-10.417 60.644-29.859 65.471-59.438 4.697-28.786-9.058-52.347-39.775-68.134-11.916-6.125-44.731-6.063-64.621 2.736-5.247 2.321-11.833 6.32-13.412 12.185-8.072 29.991 16.514 54.196 16.763 54.438.615.594.884 1.462.712 2.299-.171.838-.758 1.53-1.556 1.836l-34.671 13.239z"/><path d="m1379.716 13.201c-33.259-17.126-92.687 5.497-96.619 36.119-2.917 22.721 15.422 43.385 49.77 39.127 43.325-5.371 81.706-57.297 46.849-75.246z" fill="#fbb348"/><path d="m1326.896 91.161c-16.057 0-29.21-4.673-37.46-13.412-7.101-7.521-10.233-17.731-8.818-28.747 1.549-12.063 10.852-23.663 25.524-31.829 24.643-13.715 57.189-15.002 82.919-3.285 1.257.572 1.812 2.055 1.239 3.312-.572 1.257-2.056 1.809-3.311 1.239-24.334-11.084-55.114-9.865-78.415 3.104-13.27 7.385-21.652 17.626-22.997 28.097-1.22 9.502 1.442 18.267 7.495 24.679 8.232 8.72 22.306 12.851 39.62 11.636 24.389-1.713 43.28-8.563 43.468-8.632 1.295-.478 2.732.188 3.208 1.484s-.188 2.732-1.483 3.209c-.793.291-19.708 7.161-44.843 8.927-2.091.146-4.143.22-6.146.22z"/><path d="m1405.859 142.284c29.077-7.72 65.278-27.297 67.466-66.264 1.666-29.68-18.016-62.864-50.212-68.74-37.894-6.916-67.619-1.579-73.281 19.457-8.569 31.834 17.441 56.885 17.441 56.885l-38.162 14.573s47.672 51.808 76.749 44.088z" fill="#fbb348"/><path d="m1399.017 145.727c-29.896 0-69.942-43.844-71.761-45.854-.554-.612-.77-1.458-.578-2.261.192-.802.769-1.458 1.539-1.753l34.69-13.247c-6.619-7.578-22.758-29.525-15.491-56.525 1.679-6.239 7.135-11.439 16.217-15.458 19.7-8.716 54.488-10.033 68.93-2.611 32.834 16.875 47.504 42.251 42.424 73.386-5.177 31.73-27.787 52.49-69.122 63.466l-.642-2.416.642 2.416c-2.203.585-4.497.857-6.849.857zm-65.524-46.529c10.024 10.393 47.514 47.092 71.09 40.84 39.229-10.416 60.644-29.859 65.471-59.438 4.697-28.786-9.057-52.347-39.775-68.134-11.917-6.127-44.732-6.063-64.622 2.736-5.248 2.322-11.833 6.32-13.412 12.185-8.091 30.062 16.512 54.195 16.762 54.436.616.594.886 1.461.715 2.3-.171.838-.758 1.531-1.558 1.837l-34.671 13.239z"/><path d="m1423.112 7.28c-33.259-17.126-92.687 5.497-96.619 36.119-2.917 22.721 15.422 43.385 49.77 39.127 43.325-5.371 81.706-57.297 46.849-75.246z" fill="#fbb348"/><path d="m1370.292 85.24c-16.057 0-29.21-4.672-37.459-13.411-7.101-7.522-10.233-17.731-8.818-28.748 1.548-12.062 10.852-23.663 25.523-31.828 24.642-13.715 57.189-15.006 82.919-3.286 1.257.572 1.812 2.055 1.239 3.312-.572 1.257-2.055 1.809-3.311 1.239-24.333-11.084-55.114-9.864-78.416 3.104-13.27 7.386-21.652 17.627-22.996 28.097-1.22 9.502 1.442 18.267 7.495 24.679 8.231 8.72 22.302 12.851 39.62 11.636 24.441-1.717 39.585-6.315 39.735-6.361 1.32-.407 2.719.334 3.125 1.651.407 1.319-.331 2.719-1.65 3.126-.633.195-15.792 4.812-40.86 6.572-2.091.146-4.143.22-6.146.22z"/><path d="m1422.366 136.683c-26.572 10.039-73.488 25.241-73.488 25.241l11.885 34.997c9.687 16.82-92.878 63.671-115.469 35.334l-21.53-43.332c-42.456-39.215-18.847-77.01 10.2-68.792 14.205-57.093 123.93-57.096 160.188-39.751l28.213 56.303z" fill="#fbb348"/><path d="m1233.967 122.632c-.174 0-.351-.019-.528-.057-1.35-.291-2.208-1.62-1.918-2.971 3.502-16.272 14.451-29.025 32.54-37.904 40.327-19.795 106.966-15.154 141.552 1.392 1.245.596 1.772 2.088 1.176 3.334-.596 1.245-2.088 1.772-3.334 1.176-33.484-16.018-99.27-20.027-137.191-1.413-16.646 8.17-26.691 19.768-29.855 34.469-.252 1.172-1.289 1.975-2.441 1.975z"/><path d="m1269.431 241.946c-10.43 0-20.809-1.844-26.05-8.083-.121-.145-.226-.302-.312-.47l-20.377-39.817c-2.225-.97-8.035-3.835-13.979-9.52-.998-.954-1.033-2.536-.079-3.534.953-.999 2.536-1.033 3.535-.079 6.619 6.33 13.132 8.805 13.197 8.829.585.218 1.072.649 1.356 1.205l20.661 40.372c11.929 13.44 67.61 2.752 96.766-14.79 11.071-6.66 16.282-13.294 14.296-18.201-.018-.044-.035-.089-.05-.134l-11.885-34.997c-.215-.634-.167-1.327.133-1.925s.827-1.051 1.464-1.257c.468-.152 47.164-15.299 73.375-25.202 1.293-.484 2.735.165 3.223 1.455.488 1.292-.164 2.734-1.455 3.223-22.882 8.645-61.243 21.248-71.191 24.495l11.049 32.536c2.119 5.333.965 13.855-16.381 24.292-14.478 8.71-36.208 16.262-56.714 19.71-5.65.95-13.13 1.892-20.583 1.892z"/><path d="m1327.346 169.632c-1.183 0-2.234-.843-2.456-2.048-.25-1.357.648-2.661 2.006-2.911.106-.02 10.763-1.994 21.263-5.144 1.325-.399 2.716.354 3.113 1.677.397 1.322-.354 2.716-1.676 3.112-10.772 3.23-21.351 5.19-21.795 5.272-.153.028-.305.041-.455.041z"/><path d="m1244.85 2609.356c-17.479 0-34.725-.954-51.715-2.865-60.383-6.792-115.516-26.126-159.44-55.912-.64-.434-1.043-1.14-1.092-1.911-.051-.801-5.082-81.373-4.987-193.118.087-103.019 4.674-254.342 26.011-390.565-18.305-67.461-34.388-122.888-48.581-171.8-36.876-127.082-59.134-203.788-67.034-308.897-7.822-104.08 29.972-211.715 101.1-287.924 31.441-33.688 68.143-60.008 109.083-78.229 44.121-19.636 92.366-29.447 143.421-29.125 1.313.008 2.396 1.029 2.48 2.34l96.145 1495.249c.076 1.184-.689 2.258-1.833 2.571-48.977 13.437-97.069 20.188-143.557 20.188zm-207.332-62.229c88.978 59.791 215.477 73.529 347.601 37.754l-95.864-1490.88h-.037c-122.036 0-201.323 57.418-246.453 105.772-70.192 75.206-107.489 181.426-99.769 284.138 7.861 104.591 30.064 181.108 66.85 307.879 14.235 49.058 30.37 104.661 48.745 172.399.092.339.112.694.057 1.042-39.595 252.198-22.431 559.93-21.13 581.896z"/><path d="m1218.711 926.437c17.222-12.657 206.802-132.292 272.769-234.608 90.513-140.389 4.697-376.442-60.753-459.758-32.674-41.593-88.947-63.523-159.836-26.915s-77.414 123.358-31.606 207.051c14.786 27.015 41.28 80.192 58.614 129.336-28.53 50.034-114.929 115.31-155.359 151.687s-66.818 92.284-51.83 150.75l128.002 82.458z" fill="#fff"/><path d="m1527.764 577.296c-69.954-14.251-125.293-32.239-165.7-45.374-35.003-11.378-65.232-21.207-74.376-17.42l-7.646-18.48c15.958-6.604 41.62 1.736 88.206 16.881 39.951 12.986 94.667 30.771 163.509 44.796l-3.992 19.598z" fill="#ffaac3"/><path d="m1340.577 425.406c-27.287 0-48.812-1.952-64.909-3.411-14.451-1.311-28.101-2.549-32.284-.668l-8.199-18.242c8.966-4.03 21.51-2.893 42.289-1.009 42.611 3.862 113.931 10.329 227.399-19.174l5.033 19.355c-70.999 18.461-127.066 23.148-169.329 23.148z" fill="#ffaac3"/><path d="m1455.504 737.01c-3.287-3.13-7.737-8.165-13.897-15.133-24.885-28.151-76.666-86.729-165.976-148.487l11.375-16.449c91.31 63.14 144.178 122.948 169.585 151.69 5.61 6.346 10.041 11.358 12.705 13.895z" fill="#ffaac3"/><path d="m1033.049 2531.569s-100.879 170.478-47.583 265.499h532.948s21.265-190.85-154.484-228.963c-139.418-30.227-200.086 67.179-330.88-36.536z" fill="#fff"/><path d="m1247.161 2568.151s159.884 138.617 225.464 64.177c0 .001-53.847-91.447-225.464-64.177z" fill="#fbb348"/><path d="m970.65 2740.045s1.519 30.122 14.816 57.022h532.947s2.525-22.147-1.544-56.431l-546.22-.591z" fill="#fbb348"/><path d="m1518.414 2799.568h-532.948c-.904 0-1.738-.488-2.181-1.277-12.397-22.104-17.566-50.016-15.363-82.961 1.751-26.18 8.138-55.603 18.983-87.45 18.428-54.116 43.739-97.156 43.993-97.585.368-.621.986-1.054 1.696-1.185s1.442.051 2.008.499c77.641 61.566 129.697 51.557 189.973 39.963 39.226-7.544 83.686-16.096 139.883-3.911 40.575 8.799 74.065 26.479 99.541 52.551 20.378 20.854 35.673 47.066 45.461 77.911 16.621 52.376 11.492 100.74 11.438 101.222-.141 1.267-1.211 2.224-2.484 2.224zm-531.471-5h529.182c.766-9.976 2.858-52.021-11.479-97.091-21.834-68.635-69.356-111.34-141.245-126.93-55.199-11.968-97.23-3.883-137.879 3.935-30.266 5.821-58.853 11.317-89.901 7.494-34.023-4.191-66.45-19.036-101.842-46.655-5.582 9.859-26.415 47.968-42.167 94.251-16.602 48.782-30.781 116.804-4.668 164.996z"/><path d="m1515.945 2742.944h-.002l-545.295-.399c-1.38 0-2.499-1.121-2.498-2.502 0-1.38 1.12-2.498 2.5-2.498h.002l545.295.399c1.38 0 2.499 1.121 2.498 2.502 0 1.38-1.12 2.498-2.5 2.498z"/><path d="m1056.739 2740.359-.56 54.713" fill="#fff"/><path d="m1056.179 2797.572h-.026c-1.381-.015-2.489-1.145-2.475-2.525l.56-54.713c.014-1.372 1.131-2.475 2.5-2.475h.026c1.381.015 2.489 1.145 2.475 2.525l-.56 54.713c-.014 1.372-1.131 2.475-2.5 2.475z"/><path d="m1093.654 2741.062-.56 54.714" fill="#fff"/><path d="m1093.095 2798.275h-.026c-1.381-.015-2.489-1.145-2.475-2.525l.56-54.714c.014-1.372 1.131-2.475 2.5-2.475h.026c1.381.015 2.489 1.145 2.475 2.525l-.56 54.714c-.014 1.372-1.131 2.475-2.5 2.475z"/><path d="m1124.467 2740.663-.56 54.713" fill="#fff"/><path d="m1123.908 2797.876h-.026c-1.381-.015-2.489-1.145-2.475-2.525l.56-54.713c.014-1.372 1.131-2.475 2.5-2.475h.026c1.381.015 2.489 1.145 2.475 2.525l-.56 54.713c-.014 1.372-1.131 2.475-2.5 2.475z"/><path d="m1217.662 2742.098-.56 54.714" fill="#fff"/><path d="m1217.103 2799.311h-.026c-1.381-.015-2.489-1.145-2.475-2.525l.56-54.714c.014-1.372 1.131-2.475 2.5-2.475h.026c1.381.015 2.489 1.145 2.475 2.525l-.56 54.714c-.014 1.372-1.131 2.475-2.5 2.475z"/><path d="m1251.46 2741.338-.56 54.713" fill="#fff"/><path d="m1250.9 2798.551h-.026c-1.381-.015-2.489-1.145-2.475-2.525l.56-54.713c.014-1.372 1.131-2.475 2.5-2.475h.026c1.381.015 2.489 1.145 2.475 2.525l-.56 54.713c-.014 1.372-1.131 2.475-2.5 2.475z"/><path d="m1376.134 2740.606-.56 54.703" fill="#fff"/><path d="m1375.575 2797.809h-.026c-1.381-.015-2.489-1.145-2.475-2.525l.56-54.703c.014-1.372 1.131-2.475 2.5-2.475h.026c1.381.015 2.489 1.145 2.475 2.525l-.56 54.703c-.014 1.372-1.131 2.475-2.5 2.475z"/><path d="m1448.704 2742.449-.56 54.703" fill="#fff"/><path d="m1448.145 2799.652h-.026c-1.381-.015-2.489-1.145-2.475-2.525l.56-54.703c.014-1.372 1.131-2.475 2.5-2.475h.026c1.381.015 2.489 1.145 2.475 2.525l-.56 54.703c-.014 1.372-1.131 2.475-2.5 2.475z"/><path d="m1480.352 2741.889-.568 54.714" fill="#fff"/><path d="m1479.785 2799.102h-.026c-1.381-.015-2.488-1.146-2.474-2.526l.568-54.713c.015-1.38 1.136-2.447 2.526-2.474 1.381.015 2.488 1.146 2.474 2.526l-.568 54.713c-.014 1.371-1.131 2.474-2.5 2.474z"/><path d="m1420.688 2656.794c-3.627 0-7.365-.2-11.218-.603-21.738-2.269-47.084-10.957-75.334-25.824-47.87-25.192-88.211-59.979-88.613-60.327-1.043-.904-1.156-2.483-.251-3.526.905-1.044 2.483-1.155 3.527-.251.398.345 40.36 34.797 87.733 59.715 27.672 14.556 52.398 23.049 73.491 25.244 25.91 2.696 46.34-4.215 60.727-20.546.912-1.038 2.492-1.139 3.529-.224 1.036.913 1.136 2.492.223 3.528-13.359 15.164-31.428 22.813-53.813 22.813z"/><path d="m1069.157 2032.428c-1.184 0-2.236-.845-2.457-2.051-.063-.344-6.349-34.7-12.854-65.009-.29-1.35.57-2.679 1.92-2.969 1.349-.289 2.679.569 2.969 1.92 6.521 30.385 12.821 64.815 12.884 65.159.248 1.358-.652 2.66-2.01 2.908-.152.028-.303.041-.452.041z"/><path d="m1211.774 325.63c-.531 0-1.051-.002-1.568-.005l.125-20c.554.004 1.125.006 1.691.006 61.613 0 189.382-20.416 236.413-48.231l10.182 17.215c-54.059 31.972-189.339 51.016-246.842 51.016z" fill="#ffaac3"/><path d="m1137.993 1471.879c-29.599 160.15-72.977 297.951-134.052 423.7-77.456 159.475-192.179 162.233-288.176 147.489-178.821-27.465-513.778-144.233-513.778-144.233-27.62-110.05 26.581-313.13 149.207-314.349 140.47 37.12 282.862 87.264 400.99 134.579 0 0 35.744-208.018 47.047-268.242 45.187-240.758 186.505-326.279 371.741-375.858l-32.977 396.914z" fill="#6f5490"/><path d="m1335.055 845.515c-8.276-8.575-12.275-25.072-18.329-50.044-11.098-45.776-27.868-114.954-83.012-182.013l15.447-12.703c58.054 70.598 75.475 142.455 87.002 190.004 4.512 18.614 8.774 36.195 13.283 40.867l-14.392 13.889z" fill="#ffaac3"/><path d="m781.332 2051.14c-24.707 0-47.497-2.768-65.947-5.602-177-27.185-510.87-143.174-514.222-144.343-.795-.276-1.397-.936-1.602-1.752-9.336-37.198-9.469-86.017-.366-133.938 9.651-50.806 28.719-96.598 53.69-128.941 27.283-35.337 61.269-54.21 98.283-54.578.222-.018.447.025.664.083 156.431 41.338 302.498 95.201 398.408 133.526 4.447-25.978 35.934-209.691 46.534-265.241 21.408-112.187 65.281-197.075 134.128-259.519 57.841-52.462 133.919-90.048 239.421-118.285 1.336-.354 2.704.435 3.062 1.769.357 1.334-.435 2.704-1.769 3.062-155.592 41.644-321.218 118.634-369.931 373.911-11.35 59.478-46.683 266.114-47.038 268.194-.127.745-.584 1.392-1.243 1.761-.66.369-1.45.421-2.151.139-95.658-38.314-242.734-92.718-400.371-134.396-35.297.464-67.81 18.657-94.04 52.63-54.352 70.397-69.611 187.909-52.755 257.299 22.876 7.918 341.058 117.415 512.056 143.679 91.161 14 205.33 11.383 279.643-134.357 60.939-119.513 109.263-269.869 139.748-434.814.251-1.357 1.558-2.255 2.913-2.004 1.358.251 2.255 1.555 2.004 2.912-30.571 165.414-79.055 316.241-140.21 436.178-17.769 34.849-38.79 63.598-62.478 85.449-21.301 19.648-45.49 34.381-71.897 43.787-28.349 10.098-57.582 13.393-84.534 13.393z"/><path d="m1218.713 928.936c-.769 0-1.526-.353-2.017-1.02-.817-1.112-.579-2.677.534-3.495 2.105-1.547 6.513-4.512 13.185-9 49.758-33.469 201.177-135.32 258.963-224.948 50.025-77.592 42.71-178.458 27.764-249.411-18.876-89.613-57.991-168.761-88.382-207.448-37.503-47.739-96.091-57.55-156.723-26.237-26.732 13.804-45.376 35.869-53.917 63.81-12.287 40.195-3.992 89.851 23.357 139.819 16.904 30.883 42.44 83.384 58.779 129.704.242.685.174 1.44-.186 2.07-22.258 39.034-77.783 85.898-122.398 123.555-12.491 10.542-24.29 20.5-33.46 28.752-45.33 40.787-64.426 96.215-51.081 148.271.343 1.338-.463 2.7-1.801 3.043-1.338.339-2.7-.464-3.043-1.801-7.137-27.841-5.333-57.29 5.217-85.164 9.556-25.248 25.934-48.784 47.363-68.065 9.23-8.305 21.058-18.287 33.58-28.856 41.614-35.123 98.476-83.117 120.711-121.224-16.253-45.773-41.384-97.404-58.066-127.884-28.001-51.159-36.437-102.187-23.752-143.682 8.944-29.258 28.448-52.354 56.405-66.791 33.758-17.433 66.039-22.846 95.947-16.084 26.004 5.877 49.173 20.98 67.002 43.677 16.955 21.582 34.767 52.757 50.156 87.782 17.024 38.747 30.575 80.838 39.187 121.723 15.139 71.871 22.492 174.132-28.455 253.151-58.344 90.493-210.405 192.777-260.375 226.388-6.382 4.294-10.994 7.396-13.015 8.881-.446.327-.964.485-1.479.485z"/><path d="m409.951 1599.707s-128.993-150.333-236.105-130.417l-171.346 504.651s173.88 81.496 266.475-72.669c73.446-122.298.717-211.062 140.977-301.566z" fill="#fff"/><path d="m306.473 1790.689s-182.662 106.829-133.258 192.86c0 0 103.904-21.587 133.258-192.86z" fill="#fbb348"/><path d="m232.605 1473.593s-29.011-8.247-58.758-4.303l-171.346 504.652s20.16 9.511 53.931 16.681l176.173-517.029z" fill="#fbb348"/><path d="m105.644 1997.966c-1.555 0-3.112-.016-4.68-.048-54.939-1.101-99.086-21.507-99.525-21.713-1.153-.54-1.716-1.861-1.306-3.067l171.347-504.651c.291-.856 1.021-1.489 1.91-1.654 24.917-4.631 53.009-.553 83.496 12.125 24.227 10.075 50.034 25.583 76.704 46.091 45.318 34.849 77.935 72.653 78.259 73.031.47.548.681 1.272.577 1.987s-.512 1.35-1.119 1.741c-83.261 53.725-90.517 106.235-98.918 167.038-5.468 39.569-11.665 84.418-41.27 133.715-21.377 35.591-48.886 61.619-81.764 77.36-25.024 11.98-53.168 18.045-83.71 18.045zm-100.041-25.389c9.199 3.933 48.341 19.432 95.627 20.346 72.014 1.372 127.726-29.876 165.602-92.937 29.079-48.421 34.938-90.82 40.604-131.825 4.219-30.53 8.203-59.367 21.807-87.537 14.908-30.869 39.389-56.801 76.921-81.435-7.541-8.455-36.928-40.435-75.69-70.23-40.854-31.404-100.706-66.709-154.734-57.467l-170.137 501.085z"/><path d="m56.911 1992.309c-.267 0-.539-.043-.806-.134-1.307-.445-2.006-1.865-1.561-3.173l175.694-516.215c.445-1.307 1.867-2.006 3.172-1.562 1.307.445 2.006 1.865 1.561 3.173l-175.693 516.216c-.354 1.04-1.326 1.695-2.366 1.695z"/><path d="m204.63 1555.011-51.628-18.121" fill="#fff"/><path d="m204.63 1557.511c-.275 0-.554-.046-.828-.142l-51.628-18.12c-1.303-.458-1.988-1.885-1.531-3.188.458-1.302 1.885-1.987 3.187-1.531l51.628 18.12c1.303.458 1.988 1.885 1.531 3.188-.361 1.028-1.327 1.673-2.359 1.673z"/><path d="m192.096 1589.74-51.629-18.121" fill="#fff"/><path d="m192.096 1592.241c-.275 0-.554-.046-.828-.142l-51.629-18.121c-1.303-.458-1.988-1.885-1.531-3.188.458-1.302 1.884-1.983 3.187-1.531l51.629 18.121c1.303.458 1.988 1.885 1.531 3.188-.361 1.028-1.327 1.673-2.359 1.673z"/><path d="m182.567 1619.046-51.628-18.121" fill="#fff"/><path d="m182.567 1621.547c-.275 0-.554-.046-.828-.142l-51.628-18.12c-1.303-.458-1.988-1.885-1.531-3.188.457-1.302 1.884-1.984 3.187-1.531l51.628 18.12c1.303.458 1.988 1.885 1.531 3.188-.361 1.028-1.327 1.673-2.359 1.673z"/><path d="m151.245 1706.831-51.629-18.121" fill="#fff"/><path d="m151.245 1709.332c-.275 0-.554-.046-.828-.142l-51.629-18.12c-1.303-.458-1.988-1.885-1.531-3.188.457-1.301 1.884-1.986 3.187-1.531l51.629 18.12c1.303.458 1.988 1.885 1.531 3.188-.361 1.028-1.327 1.673-2.359 1.673z"/><path d="m141.099 1739.079-51.628-18.121" fill="#fff"/><path d="m141.099 1741.58c-.275 0-.554-.046-.828-.142l-51.628-18.12c-1.303-.458-1.988-1.885-1.531-3.188.457-1.302 1.884-1.983 3.187-1.531l51.628 18.12c1.303.458 1.988 1.885 1.531 3.188-.361 1.028-1.327 1.673-2.359 1.673z"/><path d="m101.708 1857.369-51.619-18.118" fill="#fff"/><path d="m101.708 1859.87c-.275 0-.554-.046-.828-.142l-51.619-18.117c-1.303-.458-1.988-1.885-1.531-3.188.457-1.302 1.884-1.983 3.187-1.531l51.619 18.117c1.303.458 1.988 1.885 1.531 3.188-.361 1.028-1.327 1.673-2.359 1.673z"/><path d="m76.631 1925.493-51.619-18.118" fill="#fff"/><path d="m76.631 1927.995c-.275 0-.554-.046-.828-.142l-51.619-18.118c-1.303-.458-1.988-1.885-1.531-3.188.457-1.301 1.884-1.986 3.187-1.531l51.619 18.118c1.303.458 1.988 1.885 1.531 3.188-.361 1.028-1.327 1.673-2.359 1.673z"/><path d="m66.986 1955.641-51.626-18.129" fill="#fff"/><path d="m66.986 1958.142c-.275 0-.554-.046-.828-.143l-51.626-18.129c-1.303-.457-1.988-1.884-1.531-3.187.458-1.303 1.884-1.988 3.187-1.53l51.626 18.129c1.303.457 1.988 1.884 1.531 3.187-.361 1.029-1.327 1.673-2.359 1.673z"/><path d="m173.217 1986.05c-.866 0-1.708-.45-2.17-1.255-11.695-20.365-11.737-43.486-.124-68.719 9.138-19.855 25.514-41.062 48.674-63.032 39.245-37.229 85.155-64.244 85.614-64.513 1.191-.695 2.723-.296 3.42.896.697 1.191.296 2.723-.896 3.42-.455.266-45.926 27.029-84.751 63.876-22.679 21.522-38.671 42.205-47.532 61.473-10.884 23.666-10.907 45.235-.069 64.108.688 1.197.274 2.726-.923 3.413-.392.226-.82.332-1.242.332z"/><path d="m1232.558 839.876c8.88 37.842 88.508 122.601 77.144 214.545-14.014 113.38-202.478 152.958-294.403 88.486-55.448-38.889-48.225-125.94-50.887-189.637-7.281-143.488 246.855-245.666 268.146-113.393z" fill="#fff"/><path d="m1079.715 1112.755c-24.12 0-45.017-2.536-62.114-4.61-15.352-1.863-29.854-3.623-35.216-1.435l-7.559-18.516c10.172-4.153 24.858-2.371 45.184.096 37.369 4.536 93.842 11.387 161.646-13.659 62.053-22.921 90.508-47.857 105.795-61.254 8.549-7.491 13.71-12.014 20.553-12.014v20c1.058 0 1.685-.277 1.691-.28-1.424.642-5.482 4.198-9.063 7.336-16.26 14.249-46.524 40.771-112.047 64.974-40.855 15.091-77.575 19.362-108.871 19.362z" fill="#ffaac3"/><path d="m1033.821 1018.544c-13.239 0-27.082-.586-41.559-1.85l1.739-19.924c150.582 13.136 229.232-50.791 262.817-78.094 4.699-3.819 8.411-6.837 11.619-9.104l11.546 16.33c-2.659 1.88-6.315 4.853-10.549 8.294-32.229 26.199-103.763 84.348-235.613 84.348z" fill="#ffaac3"/><path d="m1123.842 1176.431c-41.944 0-82.095-10.581-111.719-31.236-48.98-34.151-50.253-102.998-51.375-163.74-.18-9.746-.35-18.951-.717-27.825-.057-1.38 1.016-2.544 2.395-2.602 1.358-.054 2.544 1.016 2.601 2.395.369 8.932.539 18.165.72 27.94 1.101 59.546 2.348 127.037 49.236 159.73 51.14 35.657 134.678 40.432 203.15 11.61 50.389-21.211 82.033-56.261 89.103-98.694 9.522-57.153-25.14-117.938-52.991-166.779-10.203-17.892-19.014-33.344-24.337-46.362-.522-1.278.09-2.738 1.368-3.261 1.278-.519 2.738.092 3.26 1.368 5.2 12.717 13.936 28.038 24.052 45.778 28.244 49.529 63.394 111.17 53.579 170.078-7.361 44.186-40.067 80.581-92.094 102.48-30.465 12.823-63.882 19.119-96.231 19.119z"/><path d="m1054.12 1264.505s64.828-61.432 109.642-60.971c46.396.478 32.813 106.737 9.575 136.818-13.632 17.645-46.256 92.182-113.579 85.39-50.715-5.117-69.737-69.864-69.737-69.864l64.099-91.372z" fill="#fbb348"/><path d="m1068.433 1428.683c-2.909 0-5.878-.147-8.926-.455-21.509-2.17-40.778-15.297-55.722-37.962-11.172-16.944-15.963-33.01-16.162-33.685-.215-.73-.085-1.519.352-2.141l64.099-91.372c.096-.137.206-.264.327-.379 2.667-2.527 65.59-61.659 110.857-61.659.177 0 .353 0 .53.003 11.489.118 20.566 6.379 26.25 18.105 7.105 14.657 9.022 38.239 5.259 64.697-3.459 24.327-11.116 46.567-19.982 58.043-2.123 2.747-4.849 7.127-8.005 12.198-16.488 26.49-46.44 74.605-98.877 74.605zm-75.653-72.386c2.823 8.523 22.417 62.436 67.229 66.956 54.905 5.531 86.23-44.782 103.057-71.817 3.361-5.4 6.016-9.666 8.293-12.613 16.443-21.283 29.409-86.089 14.181-117.503-4.869-10.045-12.205-15.188-21.803-15.286-.158-.002-.321-.003-.479-.003-42.138 0-103.454 56.588-107.238 60.12l-63.239 90.146z"/><path d="m1157.851 1203.818c40.23-1.467 94.555 45.189 101.311 76.373 6.307 29.11-9.801 46.643-20.248 61.496-10.447 14.852-33.137 31.172-50.587 23.409-13.306-5.919-24.566-32.506 6.357-72.301-17.692-7.053-30.401-16.792-43.715-30.555 0 0-6.857-57.921 6.881-58.421z" fill="#fbb348"/><path d="m1198.12 1369.623c-3.682 0-7.319-.69-10.809-2.243-6.522-2.902-11.679-9.669-13.794-18.101-2.288-9.118-2.964-28.231 17.215-55.414-10.162-4.362-19.053-9.813-27.758-16.998-1.065-.878-1.216-2.454-.337-3.519.878-1.066 2.455-1.217 3.52-.337 9.147 7.548 18.506 13.097 29.454 17.461.73.291 1.281.908 1.487 1.666.206.759.043 1.569-.438 2.19-20.898 26.893-20.431 45.209-18.292 53.733 1.745 6.953 5.848 12.467 10.977 14.749 16.446 7.316 38.083-9.14 47.526-22.563 1.127-1.603 2.321-3.237 3.544-4.913 10.171-13.932 21.699-29.721 16.305-54.615-6.2-28.614-57.278-76.147-98.622-74.409-2.407.375-8.62 1.397-10.652 1.966-1.331.37-2.709-.406-3.081-1.735-.372-1.33.405-2.709 1.735-3.081 2.782-.776 11.02-2.058 11.369-2.112.09-.014.182-.022.273-.027 19.489-.829 43.305 8.752 65.337 26.355 20.337 16.25 35.1 36.17 38.527 51.985 5.869 27.088-6.896 44.572-17.154 58.622-1.206 1.651-2.381 3.262-3.493 4.842-8.761 12.455-26.243 26.497-42.839 26.498z"/><path d="m1167.499 1249.857c26.71-5.517 77.159 35.312 83.9 71.579 6.145 33.064-24.245 54.177-41.567 58.845-18.11 4.88-51.08 6.591-56.776-11.414-4.979-15.739 1.489-28.184 25.057-36.913q-14.381-10.007-26.63-24.249s2.731-55.104 16.015-57.847z" fill="#fbb348"/><path d="m1183.376 1386.627c-15.128 0-28.125-4.963-32.657-16.872-3.365-8.842-4.667-25.21 22.333-38.251-7.949-5.722-15.33-12.71-23.465-22.17-.9-1.047-.781-2.625.265-3.525 1.047-.9 2.625-.782 3.526.266 9.062 10.536 17.114 17.873 26.108 23.79.77.507 1.198 1.395 1.116 2.312-.083.918-.662 1.716-1.51 2.077-25.981 11.08-27.229 24.455-23.702 33.724 6.764 17.775 37.461 15.418 57.097 8.067 21.962-8.221 36.835-27.355 37.01-47.613.248-28.688-39.043-66.608-69.677-75.063-1.331-.367-2.112-1.744-1.745-3.075.367-1.33 1.744-2.109 3.075-1.745 15.228 4.203 33.715 16.033 48.248 30.874 16.315 16.66 25.229 34.081 25.1 49.053-.193 22.313-16.371 43.313-40.257 52.254-10.003 3.744-20.898 5.899-30.866 5.899z"/><path d="m1225.475 1387.727c-10.2 31.283-31.789 36.22-49.934 35.517s-42.957-12.977-45.919-31.844c-2.258-14.387-1.07-29.087 39.155-25.374 15.826-1.484 66.589-8.634 56.697 21.701z" fill="#fbb348"/><path d="m1161.822 1287.267c23.08.959 70.524 47.507 66.26 86.04-3.276 29.605-42.105 39.591-64.321 7.095-11.974-14.807-26.113-26.725-34.14-40.051 0 0 18.464-53.655 32.201-53.084z" fill="#fbb348"/><path d="m1179.449 1425.722c-5.412 0-11.094-.747-16.992-2.253-6.94-1.771-24.094-7.687-33.452-24.341-.676-1.204-.249-2.728.955-3.404s2.728-.248 3.404.955c8.411 14.97 24.012 20.334 30.329 21.945 16.899 4.315 31.194 2.11 42.488-6.549 14.114-10.82 19.298-28.438 19.449-40.238.393-30.658-15.695-54.35-52.164-76.817-1.175-.725-1.541-2.265-.817-3.44s2.264-1.538 3.44-.817c37.622 23.18 54.952 48.962 54.541 81.14-.166 12.919-5.871 32.231-21.407 44.142-8.379 6.424-18.485 9.679-29.774 9.679z"/><path d="m1171.366 1393.199c-1.003 0-1.95-.608-2.333-1.601-5.813-15.063-19.602-23.759-19.741-23.845-1.173-.729-1.533-2.271-.805-3.443.728-1.173 2.269-1.533 3.442-.805.624.388 15.357 9.683 21.768 26.292.497 1.288-.144 2.735-1.432 3.232-.296.114-.601.169-.9.169z"/><path d="m1121.982 1408.622c-.775 0-1.54-.359-2.029-1.036-.808-1.12-.556-2.683.563-3.49 12.357-8.923 31.191-35.918 31.38-36.189.787-1.134 2.345-1.416 3.479-.626 1.134.788 1.414 2.346.626 3.479-.791 1.138-19.511 27.968-32.559 37.389-.442.32-.954.474-1.461.474z"/><path d="m1053.017 994.339c-33.307 17.791-152.437 91.015-188.482 114.696 35.614 18.321 139.254 67.204 165.616 98.345 55.976 66.125-.264 177.521-78.953 188.709-55.313 7.865-145.55-47.11-217.228-110.773-44.561-39.578-118.756-107.313-113.885-189.328 3.629-61.094 27.157-103.7 123.299-166.385 75.071-48.947 140.089-92.777 183.197-111.088 67.557-28.695 102.855-26.855 153.452 3.357l-27.015 172.467z" fill="#fff"/><g fill="#ffaac3"><path d="m760.522 1306.957-16.066-11.91c57.358-77.371 105.979-116.256 135.029-139.489 14.131-11.301 24.341-19.466 27.723-25.659l17.554 9.584c-5.307 9.72-16.238 18.462-32.785 31.695-28.292 22.626-75.644 60.495-131.455 135.779z"/><path d="m877.33 1381.803-18.016-8.686c47.44-98.412 94.021-148.541 119.046-175.473 7.33-7.888 13.119-14.117 16.341-18.728l16.394 11.455c-4.018 5.75-10.225 12.43-18.083 20.887-26.013 27.995-69.552 74.85-115.682 170.544z"/><path d="m885.286 1095.567c-22.104-34.068-98.992-75.092-144.93-99.603-33.531-17.891-44.706-24.165-48.696-30.002l16.511-11.287c-.197-.288-.338-.437-.339-.438 3.311 3.472 23.833 14.421 41.939 24.082 50.724 27.064 127.379 67.964 152.292 106.361z"/><path d="m978.814 1037.89c-33.79-53.914-100.501-92.918-140.36-116.223-25.086-14.667-36.342-21.468-40.279-28.954l17.702-9.309c-.091-.173-.155-.263-.156-.264 2.577 3.573 18.648 12.97 32.828 21.261 41.446 24.232 110.813 64.79 147.212 122.867l-16.946 10.621z"/><path d="m635.799 1165.467-9.204-17.756c53.347-27.652 114.063-34.229 158.396-39.031 16.029-1.735 29.873-3.235 40.226-5.385 13.111-2.721 15.067-5.471 15.144-5.586l18.196 8.288c-7.018 15.592-31.256 18.218-71.413 22.566-42.761 4.632-101.325 10.975-151.346 36.903z"/><path d="m1070.057 909.516c-34.491 0-65.299-8.205-88.969-17.382-46.249-17.931-80.623-45.715-86.703-58.064l17.943-8.834c2.842 5.644 31.163 30.911 76.175 48.322 37.995 14.696 95.982 26.71 156.469.479 40.446-17.54 68.393-55.146 74.759-100.595 6.073-43.354-8.917-85.695-39.122-110.498l12.692-15.457c18.103 14.866 31.879 35.028 39.84 58.308 7.546 22.065 9.758 46.417 6.396 70.422-7.34 52.406-39.718 95.834-86.609 116.17-28.722 12.455-56.847 17.129-82.873 17.13z"/></g><path d="m942.167 1400.161c-49.562 0-124.79-39.705-205.164-108.934-25.386-21.865-54.529-48.565-78.209-80.81-29.234-39.807-43.032-79.14-41.013-116.908 3.055-57.116 23.758-100.487 124.237-166 8.678-5.658 17.221-11.248 25.612-16.737 64.199-42.003 119.644-78.277 157.973-94.557 67.096-28.5 103.477-27.68 155.711 3.511 1.186.708 1.573 2.243.865 3.428-.708 1.186-2.242 1.574-3.428.865-50.563-30.192-85.889-30.94-151.193-3.202-37.919 16.106-93.191 52.268-157.19 94.139-8.393 5.491-16.938 11.082-25.619 16.741-98.691 64.349-119.008 106.607-121.975 162.08-4.19 78.344 60.589 144.649 117.492 193.661 38.952 33.551 78.339 61.258 113.903 80.126 40.929 21.714 74.477 30.706 99.714 26.725 38.958-6.145 74.259-38.009 89.936-81.177 14.181-39.05 8.583-77.174-15.356-104.597-24.498-28.063-113.263-71.75-155.922-92.745-3.374-1.661-6.433-3.166-9.116-4.495-.796-.395-1.324-1.183-1.384-2.069-.061-.888.354-1.74 1.09-2.239 35.317-23.979 155.244-96.957 188.708-114.832 1.218-.649 2.732-.19 3.383 1.027s.19 2.732-1.027 3.383c-32.33 17.27-145.58 86.109-184.686 112.159 1.646.812 3.396 1.673 5.24 2.58 42.95 21.139 132.323 65.125 157.48 93.942 13.044 14.943 20.909 32.711 23.376 52.811 2.236 18.222-.214 37.856-7.087 56.782-7.691 21.179-20.311 40.312-36.494 55.331-17.011 15.787-36.846 25.842-57.362 29.078-3.955.624-8.127.933-12.495.933z"/><path d="m1000.833 450.531c91.287-134.04 276.619 27.254 143.137 170.4 13.936 30.29-132.256 119.741-252.961 72.642-70.337-2.215-93.341-111.451-10.261-129.402-52.682-82.284 53.269-140.731 120.085-113.64z" fill="#6f5490"/><path d="m965.49 709.563c-23.798 0-49.445-3.604-74.992-13.506-17.644-.661-33.352-7.786-45.452-20.621-11.129-11.807-18.081-27.352-19.573-43.771-1.423-15.654 2.432-30.878 10.855-42.867 8.956-12.746 22.897-21.78 40.464-26.263-18.1-30.228-16.991-60.114 3.242-84.468 26.724-32.166 80.067-45.647 119.865-30.585 25.325-36.224 59.643-53.571 96.81-48.9 39.526 4.973 74.575 34.432 89.29 75.049 8.104 22.368 9.427 46.914 3.824 70.981-6.245 26.826-20.699 52.687-42.971 76.887 2.069 6.84-1.673 15.565-10.919 25.377-19.642 20.84-58.773 41.558-99.692 52.782-19.35 5.309-43.871 9.905-70.751 9.905zm-1.099-263.284c-30.462 0-62.112 12.839-80.51 34.983-19.393 23.342-19.758 52.308-1.028 81.562.441.689.518 1.552.203 2.308-.314.757-.979 1.311-1.78 1.483-40.996 8.857-53.133 39.177-50.823 64.597 2.625 28.882 24.295 58.719 60.634 59.863.284.009.565.066.83.17 53.257 20.781 107.16 13.422 143.001 3.592 40.096-10.999 78.319-31.171 97.376-51.391 8.234-8.736 11.662-16.563 9.404-21.47-.424-.922-.249-2.008.442-2.75 41.782-44.807 56.055-97.254 39.158-143.893-14.083-38.87-47.53-67.05-85.213-71.791-35.778-4.501-68.867 12.688-93.187 48.396-.662.973-1.915 1.353-3.006.909-10.994-4.457-23.153-6.569-35.502-6.569z"/><path d="m1232.469 615.243c-9.002-29.802-40.617-46.619-70.618-37.558-29.995 9.06-47.02 40.569-38.018 70.371 9.002 29.801 40.622 46.618 70.618 37.558 30-9.062 47.02-40.57 38.018-70.371z" fill="#fbb348"/><path d="m1177.979 690.558c-25.391 0-48.87-16.391-56.538-41.779-4.548-15.056-2.922-30.993 4.579-44.875 7.497-13.877 19.966-24.038 35.11-28.612 31.267-9.439 64.347 8.152 73.733 39.229 9.386 31.075-8.418 64.042-39.688 73.487-5.722 1.728-11.509 2.551-17.195 2.551zm.349-112.817c-5.211 0-10.509.754-15.753 2.338-13.871 4.189-25.291 13.494-32.156 26.201-6.862 12.702-8.351 27.282-4.191 41.054 8.589 28.437 38.869 44.536 67.502 35.887 28.629-8.647 44.933-38.819 36.348-67.255-7.016-23.228-28.508-38.225-51.749-38.225z"/><path d="m1177.979 690.558c-25.391 0-48.87-16.391-56.538-41.779-4.548-15.056-2.922-30.993 4.579-44.875 7.497-13.877 19.966-24.038 35.11-28.612 31.267-9.439 64.347 8.152 73.733 39.229 9.386 31.075-8.418 64.042-39.688 73.487-5.722 1.728-11.509 2.551-17.195 2.551zm.349-112.817c-5.211 0-10.509.754-15.753 2.338-13.871 4.189-25.291 13.494-32.156 26.201-6.862 12.702-8.351 27.282-4.191 41.054 8.589 28.437 38.869 44.536 67.502 35.887 28.629-8.647 44.933-38.819 36.348-67.255-7.016-23.228-28.508-38.225-51.749-38.225z"/><path d="m1159.159 657.057c-1.304 0-2.401-1.005-2.49-2.324-.073-1.072-1.348-26.665 36.566-61.061 1.022-.929 2.604-.851 3.531.172.928 1.022.851 2.604-.172 3.531-35.901 32.569-34.95 56.791-34.936 57.032.079 1.373-.966 2.559-2.339 2.645-.053.004-.106.005-.16.005z"/><path d="m1072.519 517.196c-.042 0-.083 0-.125-.003-1.378-.067-2.441-1.24-2.374-2.619.005-.101.461-10.164-2.057-20.199-.336-1.339.477-2.697 1.816-3.033 1.337-.332 2.697.477 3.033 1.816 2.705 10.781 2.223 21.224 2.201 21.663-.066 1.337-1.171 2.375-2.495 2.375z"/><path d="m1129.245 723.285 19.862 78.142s-42.711 66.435-115.063 27.944l-27.402-97.477z" fill="#fbb348"/><path d="m1078.113 843.809c-13.331 0-28.502-3.325-45.244-12.231-.603-.32-1.048-.873-1.232-1.53l-27.402-97.477c-.204-.724-.07-1.501.362-2.116.433-.614 1.119-1.002 1.869-1.055l122.603-8.609c1.207-.073 2.3.706 2.598 1.878l19.861 78.142c.171.672.055 1.385-.32 1.968-.449.698-11.225 17.239-31.219 29.2-10.462 6.259-24.627 11.831-41.877 11.831zm-41.954-16.149c28.834 15.03 56.168 15.041 81.264.027 16.449-9.84 26.51-23.219 28.982-26.737l-19.069-75.024-117.458 8.247 26.28 93.487z"/><path d="m1078.113 843.81c-13.331 0-28.502-3.325-45.244-12.231-.602-.32-1.047-.873-1.232-1.529l-26.57-94.382c-.196-.696-.081-1.442.315-2.048.396-.604 1.035-1.008 1.751-1.106l120.469-16.553c1.261-.173 2.448.628 2.763 1.858l21.164 82.99c.171.673.056 1.387-.319 1.97-.449.698-11.225 17.239-31.219 29.2-10.462 6.259-24.627 11.831-41.877 11.831zm-41.954-16.149c28.834 15.03 56.168 15.041 81.265.027 16.448-9.839 26.509-23.217 28.981-26.736l-20.334-79.734-115.413 15.858z"/><path d="m1183.396 641.593c-.958 0-1.873-.555-2.287-1.486-4.107-9.252-12.876-9.281-13.224-9.237h-.034c-1.36 0-2.48-1.089-2.506-2.453-.026-1.375 1.056-2.513 2.431-2.546.506-.022 12.414-.156 17.903 12.207.56 1.262-.009 2.739-1.271 3.3-.33.146-.674.216-1.013.216z"/><path d="m1072.517 514.697s42.115 1.258 73.364 53.699c24.725 50.464 49.325 150.763-54.39 193.289-2.62 1.073-5.462 1.912-8.24 2.425-78.177 14.474-110.976-41.153-110.976-41.153s-8.008 34.471-50.707 36.841c-34.912 2.882-53.169-19.055-58.946-44.216-12.357-53.816 50.609-88.235 77.733-60.066 26.964-3.671 58.474-31.466 47.308-62.15 35.751.473 85.397-32.282 84.853-78.669z" fill="#fbb348"/><path d="m1152.963 640.564c-4.178-13.833-18.776-21.657-32.607-17.479-13.825 4.175-21.652 18.773-17.473 32.606s18.776 21.657 32.602 17.481c13.831-4.178 21.657-18.775 17.479-32.608z" fill="#e79f33"/><path d="m1058.948 769.813c-38.174.002-70.191-22.09-85.801-41.546-3.415 8.365-13.466 25.313-40.282 32.043-35.156 8.826-64.106-13.756-71.783-40.687-9.608-33.709 8.777-58.208 27.44-68.946 19.022-10.943 40.009-10.021 52.709 2.181 15.81-2.582 32.314-13.595 40.482-27.123 4.29-7.104 8.396-18.337 3.602-31.514-.281-.771-.165-1.632.311-2.302.476-.669 1.206-1.07 2.071-1.053.25.004.502.005.754.005 20.07 0 43.506-10.498 59.927-26.895 10.018-10.002 21.903-26.666 21.638-49.251-.008-.682.263-1.337.75-1.814s1.143-.738 1.829-.714c.498.016 12.377.471 27.96 8.034 14.286 6.934 34.521 21.444 49.786 51.196 8.387 16.347 14.84 37.53 17.704 58.119 3.704 26.627 1.322 51.588-6.888 72.185-11.722 29.407-34.881 50.371-68.837 62.312-11.456 4.028-22.659 5.77-33.373 5.77zm-86.67-49.353c.803 0 1.569.386 2.042 1.059 17.167 24.397 63.932 56.236 116.342 37.808 32.532-11.439 54.688-31.44 65.851-59.446 18.715-46.952 1.237-103.061-10.62-126.169-24.041-46.854-60.925-54.916-70.901-56.257-.667 22.905-12.796 39.791-23.081 50.061-16.607 16.583-40.124 27.443-60.845 28.302 2.974 10.872 1.246 22.04-5.072 32.503-9.25 15.319-27.455 27.244-45.3 29.675-.794.103-1.585-.17-2.138-.743-10.967-11.39-30.071-12.29-47.54-2.24-17.101 9.839-33.942 32.306-25.125 63.241 7.024 24.642 33.542 45.298 65.757 37.208 32.342-8.117 37.961-32.021 38.185-33.034.213-.968.979-1.722 1.95-1.916.165-.033.331-.05.495-.05z"/><path d="m922.242 718.941c-1.271 0-2.359-.965-2.485-2.257-1.045-10.692 10.288-16.824 10.771-17.08 1.219-.648 2.733-.183 3.379 1.039.645 1.219.182 2.729-1.035 3.377-.119.063-8.856 4.85-8.14 12.178.134 1.374-.871 2.597-2.245 2.731-.083.008-.165.012-.246.012z"/><path d="m944.444 717.283c-.896 0-1.761-.483-2.21-1.329-.134-.248-11.694-20.994-51.707-30.561-1.343-.321-2.171-1.67-1.85-3.013s1.667-2.176 3.013-1.851c42.459 10.152 54.473 32.155 54.964 33.087.644 1.222.175 2.733-1.047 3.377-.372.195-.771.289-1.163.289z"/><path d="m1035.14 676.284c-4.21-13.94-18.919-21.824-32.859-17.614s-21.819 18.918-17.609 32.857c4.21 13.94 18.914 21.825 32.853 17.615 13.941-4.21 21.825-18.919 17.614-32.859z" fill="#e79f33"/><path d="m1055.921 649.064c-.414 0-.833-.103-1.22-.319-1.205-.675-1.634-2.198-.958-3.403 5.725-10.215 16.304-9.098 21.098-7.082 1.272.536 1.87 2.002 1.334 3.274-.535 1.271-1.998 1.867-3.267 1.338-1.016-.418-9.938-3.77-14.804 4.915-.458.817-1.308 1.277-2.183 1.277z"/><path d="m992.08 473.784c-.164 0-.33-.017-.497-.05-1.353-.273-2.229-1.59-1.957-2.943.111-.551 2.79-13.595 9.241-21.804.854-1.085 2.426-1.271 3.511-.421 1.085.854 1.274 2.425.421 3.511-5.708 7.263-8.246 19.578-8.271 19.701-.24 1.187-1.283 2.006-2.448 2.006z"/><path d="m892.907 578.926c-.571 0-1.145-.194-1.615-.593-.356-.302-8.772-7.455-12.568-12.694-.81-1.118-.561-2.681.558-3.491 1.118-.811 2.681-.561 3.491.558 3.441 4.748 11.669 11.743 11.752 11.813 1.053.893 1.184 2.47.291 3.523-.495.583-1.199.884-1.909.884z"/><path d="m987.664 595.867c-1.024 0-1.984-.635-2.352-1.653-2.55-7.075-6.117-10.961-6.153-11-.94-1.011-.883-2.593.128-3.533 1.011-.938 2.594-.883 3.533.129.174.188 4.303 4.683 7.196 12.709.468 1.299-.206 2.731-1.504 3.199-.28.102-.566.149-.848.149z"/><path d="m1071.638 688.536c-4.352 0-8.922-1.257-13.662-3.765-1.22-.646-1.686-2.159-1.04-3.379s2.159-1.685 3.379-1.041c6.115 3.236 11.759 4.002 16.777 2.278 8.458-2.906 12.624-12 12.665-12.091.564-1.259 2.041-1.825 3.301-1.262 1.259.562 1.826 2.034 1.267 3.294-.201.453-5.041 11.13-15.563 14.771-2.299.796-4.678 1.193-7.125 1.193z"/><path d="m1081.792 618.235c-.356 0-.718-.076-1.061-.238-1.248-.587-1.786-2.071-1.201-3.319.249-.531 6.227-13.041 18.743-17.092 7.588-2.452 15.829-1.259 24.496 3.554 1.207.671 1.642 2.192.972 3.399-.671 1.206-2.193 1.643-3.399.972-7.392-4.105-14.286-5.177-20.492-3.179-10.437 3.356-15.74 14.358-15.792 14.47-.427.903-1.327 1.434-2.264 1.434z"/><path d="m992.436 644.915c-.356 0-.718-.076-1.061-.238-1.248-.587-1.786-2.071-1.201-3.319.249-.531 6.227-13.041 18.742-17.092 7.588-2.452 15.829-1.26 24.496 3.554 1.207.671 1.642 2.192.972 3.399-.671 1.206-2.193 1.643-3.399.972-7.392-4.105-14.286-5.177-20.492-3.179-10.437 3.356-15.739 14.358-15.792 14.47-.427.903-1.327 1.434-2.264 1.434z"/><path d="m864.533 1111.536c-.366 0-.738-.081-1.09-.252-31.407-15.253-51.133-22.408-51.329-22.479-1.299-.468-1.973-1.9-1.504-3.199.468-1.3 1.902-1.975 3.2-1.504.198.071 20.174 7.317 51.818 22.685 1.242.604 1.76 2.1 1.157 3.341-.433.891-1.324 1.409-2.251 1.409z"/><path d="m791.446 1739.647c-.387 0-.779-.091-1.146-.28-.198-.103-20.035-10.337-39.049-17.982-1.281-.515-1.902-1.971-1.387-3.252s1.971-1.903 3.252-1.387c19.241 7.736 39.281 18.076 39.481 18.18 1.227.635 1.707 2.143 1.072 3.369-.444.859-1.318 1.353-2.223 1.353z"/><path d="m1302.408 556.185c-1.016 0-1.97-.623-2.344-1.631l-4.509-12.143c-.48-1.294.179-2.733 1.474-3.214 1.293-.479 2.733.179 3.214 1.474l4.509 12.143c.48 1.294-.179 2.733-1.474 3.214-.287.106-.581.157-.87.157z"/></svg>