<svg xmlns="http://www.w3.org/2000/svg" viewBox="0 0 3500 3500" width="3500" height="3500"><g transform="translate(1268.0 391.0) rotate(0.0 152.5 346.5) scale(1.148637452359791 1.1448376577249284)"><svg width="265.532" height="605.326" viewBox="0 0 265.532 605.326"><path d="M2.501 471.977c.315-71.944 58.897-130.011 130.838-129.693 71.951.322 130.009 58.899 129.691 130.845-.315 71.944-58.897 130.011-130.84 129.696C60.24 602.503 2.185 543.92 2.501 471.977z" fill="#fbb348"/><path d="m132.778 605.325-.598-.001C58.975 604.997-.32 545.173.001 471.966c.155-35.463 14.112-68.743 39.299-93.709 25.044-24.825 58.21-38.475 93.448-38.475l.603.001c73.208.328 132.503 60.151 132.18 133.356-.155 35.463-14.112 68.743-39.3 93.71-25.044 24.825-58.215 38.476-93.453 38.476zm-.029-260.543c-33.912 0-65.826 13.134-89.928 37.025-24.239 24.026-37.67 56.053-37.819 90.18-.31 70.452 56.752 128.023 127.2 128.337l.576.001c33.913.001 65.831-13.136 89.933-37.027 24.239-24.026 37.67-56.053 37.82-90.18.311-70.449-56.751-128.02-127.203-128.335l-.579-.001z"/><path d="m158.009 439.924 12.64-18.108s-13.112-11.223-31.966-10.716l.027-21.084-14.172-.065-.341 21.285s-32.815.835-32.894 33.419c-.088 32.131 34.054 35.953 34.054 35.953s27.612 2.52 28.112 18.853c.511 16.426-23.158 13.805-25.986 13.79-2.834-.008-17.314-2.78-23.882-10.945l-17.977 15.307s10.883 16.597 38.218 17.311l-.199 19.915 14.728.186-.018-19.868s41.016-3.128 41.162-35.936c.138-31.334-25.405-39.436-38.731-42.007-13.339-2.568-25.283-2.929-24.804-15.395.442-11.353 19.663-18.565 42.029-1.895z" fill="#fbb348"/><path d="M138.371 557.525h-.032l-14.728-.186a2.5 2.5 0 0 1-2.468-2.525l.175-17.497c-26.523-1.621-37.325-17.632-37.785-18.333a2.5 2.5 0 0 1 .47-3.274l17.977-15.307a2.498 2.498 0 0 1 3.568.336c5.933 7.376 19.484 10.006 21.941 10.013.258.001.661.02 1.187.046 3.646.185 14.739.735 19.764-4.196 1.795-1.762 2.623-4.072 2.529-7.062-.427-13.961-25.586-16.418-25.84-16.441-.415-.046-36.419-4.469-36.327-38.449.071-29.244 24.988-34.7 32.931-35.695l.305-19.042a2.5 2.5 0 0 1 2.5-2.46h.012l14.172.065a2.5 2.5 0 0 1 2.488 2.503l-.024 18.58c18.194.46 30.548 10.855 31.088 11.317a2.499 2.499 0 0 1 .424 3.33l-12.64 18.107a2.497 2.497 0 0 1-3.544.574c-13.905-10.366-25.8-10.742-32.294-7.639-3.526 1.685-5.619 4.465-5.742 7.627-.322 8.385 5.942 9.872 17.977 11.975 1.567.274 3.174.555 4.801.868 26.771 5.164 40.865 20.542 40.759 44.473-.133 29.999-32.179 36.814-41.16 38.134l.016 17.656a2.5 2.5 0 0 1-2.5 2.502zm-12.203-5.155 9.701.123-.016-17.334a2.5 2.5 0 0 1 2.31-2.495c.097-.007 10.024-.825 19.763-5.486 12.611-6.036 19.034-15.445 19.089-27.967.065-14.797-6.25-33.667-36.705-39.541a274.534 274.534 0 0 0-4.715-.853c-11.12-1.943-22.617-3.952-22.112-17.093.197-5.081 3.326-9.435 8.582-11.946 11.126-5.312 25.153-.289 35.339 6.646l9.813-14.058c-4.082-2.838-14.714-9.152-28.466-8.767-.671.039-1.329-.236-1.812-.709a2.5 2.5 0 0 1-.755-1.793l.024-18.593-9.208-.042-.301 18.813a2.5 2.5 0 0 1-2.436 2.459c-1.237.035-30.386 1.212-30.458 30.926-.034 12.314 5.221 21.66 15.616 27.78 7.974 4.694 16.138 5.674 16.219 5.683 1.164.105 29.768 2.926 30.33 21.261.137 4.399-1.217 8.028-4.025 10.784-6.59 6.468-19.328 5.831-23.516 5.622-.427-.021-.753-.039-.958-.04-3.188-.009-16.46-2.572-24.083-9.979l-14.306 12.181c1.323 1.508 3.633 3.818 7.035 6.137 5.296 3.609 14.417 7.986 27.792 8.336a2.5 2.5 0 0 1 2.435 2.524zm-48.78-271.626a2.5 2.5 0 0 1-2.5-2.5V123.011a2.5 2.5 0 1 1 5 0v155.233a2.5 2.5 0 0 1-2.5 2.5zm102.128-28.595a2.5 2.5 0 0 1-2.5-2.5V2.5a2.5 2.5 0 1 1 5 0v247.148a2.5 2.5 0 0 1-2.5 2.501z"/></svg></g><g transform="translate(2016.0 599.0) rotate(0.0 151.5 340.0) scale(1.141105403491858 1.1424846352617803)"><svg width="265.532" height="595.194" viewBox="0 0 265.532 595.194"><path d="M2.501 461.845c.315-71.944 58.897-130.011 130.838-129.693 71.951.322 130.009 58.899 129.691 130.845-.315 71.944-58.897 130.011-130.84 129.696-71.95-.321-130.005-58.904-129.689-130.848z" fill="#fbb348"/><path d="m132.778 595.194-.598-.001C58.975 594.866-.32 535.041.001 461.834c.155-35.463 14.112-68.743 39.299-93.709 25.044-24.825 58.21-38.475 93.448-38.475l.603.001c73.208.328 132.503 60.151 132.18 133.356-.155 35.463-14.112 68.743-39.3 93.71-25.044 24.825-58.215 38.477-93.453 38.477zm-.029-260.543c-33.912 0-65.826 13.134-89.928 37.025-24.239 24.026-37.67 56.053-37.819 90.18-.309 70.451 56.753 128.022 127.201 128.337 34.157.146 66.271-12.999 90.509-37.026 24.239-24.026 37.67-56.053 37.82-90.18.312-70.449-56.751-128.02-127.203-128.335l-.58-.001z"/><path d="m158.009 429.793 12.64-18.108s-13.112-11.223-31.966-10.716l.027-21.084-14.172-.065-.341 21.285s-32.815.835-32.894 33.419c-.088 32.131 34.054 35.953 34.054 35.953s27.612 2.52 28.112 18.853c.511 16.426-23.158 13.805-25.986 13.79-2.834-.008-17.314-2.78-23.882-10.945l-17.977 15.307s10.883 16.597 38.218 17.311l-.199 19.915 14.728.186-.018-19.868s41.016-3.128 41.162-35.936c.138-31.334-25.405-39.437-38.731-42.007-13.339-2.568-25.283-2.929-24.804-15.395.442-11.353 19.663-18.565 42.029-1.895z" fill="#fbb348"/><path d="M138.371 547.394h-.032l-14.728-.187a2.5 2.5 0 0 1-2.468-2.525l.175-17.497c-26.523-1.621-37.325-17.632-37.785-18.333a2.5 2.5 0 0 1 .47-3.274l17.977-15.307a2.538 2.538 0 0 1 1.855-.586c.672.063 1.29.396 1.713.923 5.932 7.375 19.483 10.005 21.94 10.012.258.001.661.02 1.187.046 3.646.186 14.739.736 19.764-4.196 1.795-1.762 2.623-4.072 2.529-7.062-.427-13.961-25.586-16.418-25.84-16.441-.415-.046-36.419-4.469-36.327-38.448.071-29.244 24.988-34.701 32.931-35.696l.305-19.041a2.5 2.5 0 0 1 2.5-2.46h.011l14.172.064a2.5 2.5 0 0 1 2.489 2.503l-.024 18.58c18.194.46 30.548 10.855 31.088 11.317a2.499 2.499 0 0 1 .424 3.33l-12.64 18.108a2.497 2.497 0 0 1-3.544.574c-13.906-10.366-25.8-10.741-32.294-7.639-3.526 1.685-5.619 4.464-5.742 7.626-.322 8.386 5.944 9.873 17.98 11.976 1.565.273 3.171.555 4.798.867 26.771 5.164 40.865 20.542 40.759 44.473-.133 29.999-32.179 36.814-41.16 38.134l.016 17.657a2.5 2.5 0 0 1-2.499 2.502zm-12.203-5.154 9.701.122-.016-17.334a2.5 2.5 0 0 1 2.31-2.495c.097-.007 10.024-.825 19.763-5.486 12.611-6.036 19.034-15.445 19.089-27.967.065-14.797-6.25-33.667-36.705-39.541-1.597-.308-3.174-.583-4.712-.852-11.121-1.943-22.621-3.952-22.116-17.094.197-5.08 3.326-9.434 8.583-11.945 11.126-5.317 25.153-.289 35.338 6.646l9.813-14.059c-4.081-2.839-14.714-9.146-28.466-8.767a2.447 2.447 0 0 1-1.812-.709 2.5 2.5 0 0 1-.755-1.793l.024-18.593-9.208-.042-.301 18.813a2.5 2.5 0 0 1-2.436 2.459c-1.237.035-30.386 1.213-30.458 30.927-.034 12.313 5.221 21.659 15.616 27.779 7.974 4.694 16.138 5.674 16.219 5.683 1.164.105 29.768 2.926 30.33 21.261.137 4.399-1.217 8.028-4.025 10.784-6.59 6.468-19.328 5.834-23.516 5.622-.427-.021-.753-.039-.958-.04-3.188-.009-16.46-2.572-24.083-9.979l-14.306 12.181c1.324 1.508 3.633 3.818 7.035 6.137 5.296 3.609 14.417 7.986 27.792 8.336a2.5 2.5 0 0 1 2.435 2.524zm57.466-261.495a2.5 2.5 0 0 1-2.5-2.5V123.01a2.5 2.5 0 1 1 5 0v155.234a2.5 2.5 0 0 1-2.5 2.501zM81.506 252.149a2.5 2.5 0 0 1-2.5-2.5V2.5a2.5 2.5 0 1 1 5 0v247.148a2.5 2.5 0 0 1-2.5 2.501z"/></svg></g><g transform="translate(864.0 1164.0) rotate(0.0 887.0 912.5) scale(1.111099976450192 1.1109278164759422)"><svg width="1596.616" height="1642.771" viewBox="0 0 1596.616 1642.771"><path d="m308.604 1042.262 440.795-822.7 422.014 226.112-440.796 822.7z" fill="#92acef"/><path d="M730.566 1270.844c-.408 0-.814-.1-1.181-.296l-421.994-226.092a2.5 2.5 0 0 1-1.023-3.385L747.125 218.41a2.499 2.499 0 0 1 3.384-1.024l421.994 226.092a2.5 2.5 0 0 1 1.023 3.385l-440.757 822.662a2.499 2.499 0 0 1-2.203 1.319zm-418.61-229.615 417.587 223.731 438.396-818.255-417.587-223.731z"/><path d="m655.035 1160.478-214.99-115.181.019-.036c14.815-27.652 5.162-61.874-21.447-77.84l329.259-614.575c28.032 13.308 61.871 2.387 76.686-25.265a2.84 2.84 0 0 0 .096-.191l214.999 115.186a2.61 2.61 0 0 0-.105.186c-14.844 27.707-5.123 62.017 21.615 77.936l-329.254 614.566c-28.065-13.441-62.015-2.528-76.859 25.178z" fill="#cad5f3"/><path d="M655.008 1162.971c-.392 0-.787-.092-1.153-.289l-214.99-115.181a2.502 2.502 0 0 1-1.031-3.37c14.167-26.443 5.149-59.175-20.502-74.566a2.499 2.499 0 0 1-.917-3.324l329.259-614.575a2.5 2.5 0 0 1 3.276-1.078c27.023 12.831 59.27 2.205 73.41-24.188a2.552 2.552 0 0 1 1.487-1.355 2.522 2.522 0 0 1 1.994.142l214.999 115.187a2.503 2.503 0 0 1 .934 3.538c-14.203 26.514-5.114 59.285 20.675 74.64a2.5 2.5 0 0 1 .925 3.329L734.12 1136.447a2.504 2.504 0 0 1-3.284 1.074c-27.069-12.966-59.387-2.377-73.575 24.104a2.574 2.574 0 0 1-2.253 1.346zm-211.621-118.72 210.668 112.866c15.626-26.581 48.49-37.334 76.761-25.099l327.041-610.435c-25.896-16.795-35.14-50.212-21.551-77.967L825.649 330.757c-15.527 26.595-48.395 37.448-76.672 25.328L421.924 966.543c25.705 16.795 34.891 50.076 21.463 77.708z"/><path d="M803.044 627.429c64.372 34.851 88.302 115.292 53.45 179.661-34.861 64.375-115.293 88.299-179.666 53.444-64.372-34.851-88.302-115.292-53.451-179.663 34.859-64.375 115.295-88.294 179.667-53.442z" fill="#92acef"/><path d="M739.708 879.001c-21.697 0-43.689-5.233-64.071-16.27-65.481-35.452-89.911-117.568-54.459-183.052 35.457-65.477 117.575-89.903 183.056-54.449 31.72 17.174 54.854 45.672 65.14 80.246s6.492 71.083-10.682 102.803c-24.422 45.097-70.977 70.722-118.984 70.722zm.443-265.04c-46.234 0-91.059 24.671-114.577 68.1-34.139 63.059-10.613 142.135 52.443 176.274 19.624 10.625 40.809 15.665 61.699 15.667 46.233.004 91.059-24.673 114.578-68.104 16.538-30.545 20.191-65.702 10.286-98.996s-32.182-60.737-62.728-77.275c-19.624-10.625-40.81-15.666-61.701-15.666z"/><path d="M636.361 932.288c25.9 14.022 35.529 46.389 21.506 72.288-14.027 25.902-46.389 35.528-72.289 21.504-25.9-14.022-35.529-46.389-21.506-72.288 14.024-25.903 46.388-35.527 72.289-21.504z" fill="#92acef"/><path d="M610.875 1035.004a55.478 55.478 0 0 1-26.488-6.727c-13.114-7.1-22.678-18.882-26.93-33.176s-2.684-29.388 4.416-42.501c14.657-27.069 48.605-37.169 75.678-22.512 13.114 7.1 22.678 18.882 26.93 33.176s2.684 29.388-4.417 42.501c-10.095 18.646-29.342 29.239-49.189 29.239zm.179-106.641c-18.071 0-35.592 9.644-44.784 26.619-6.464 11.938-7.892 25.681-4.02 38.694s12.579 23.741 24.519 30.205c24.645 13.345 55.554 4.15 68.9-20.496 6.464-11.938 7.892-25.681 4.021-38.694s-12.579-23.741-24.519-30.205a50.53 50.53 0 0 0-24.117-6.123z"/><path d="M889.73 459.383c25.9 14.022 35.529 46.388 21.506 72.288-14.027 25.901-46.389 35.528-72.289 21.504-25.9-14.022-35.529-46.389-21.506-72.288 14.026-25.903 46.389-35.526 72.289-21.504z" fill="#92acef"/><path d="M864.244 562.1a55.478 55.478 0 0 1-26.488-6.727c-27.071-14.656-37.171-48.605-22.514-75.678 14.657-27.067 48.607-37.169 75.678-22.511 13.114 7.1 22.678 18.882 26.93 33.176s2.684 29.388-4.417 42.501c-10.095 18.644-29.342 29.239-49.189 29.239zm.179-106.642c-18.072 0-35.592 9.644-44.784 26.618-6.464 11.939-7.892 25.682-4.02 38.695 3.872 13.014 12.579 23.741 24.518 30.205a50.532 50.532 0 0 0 24.115 6.123c18.071.002 35.592-9.644 44.786-26.619 6.464-11.938 7.892-25.681 4.021-38.694s-12.579-23.741-24.519-30.205a50.537 50.537 0 0 0-24.117-6.123z"/><path d="M181.498 237.49 598.628 2.522l458.061 813.18-417.13 234.968z" fill="#92acef"/><path d="M639.566 1053.121a2.506 2.506 0 0 1-2.178-1.273L179.305 238.706a2.505 2.505 0 0 1-.23-1.9 2.494 2.494 0 0 1 1.181-1.505L597.367.323a2.5 2.5 0 0 1 3.405.95l458.083 813.142a2.5 2.5 0 0 1-.951 3.405l-417.111 234.979a2.5 2.5 0 0 1-1.227.322zM184.889 238.43l455.628 808.786 412.754-232.525L597.643 5.906z"/><path d="M925.129 821.562 712.63 941.277l-.02-.036c-15.398-27.332-49.46-37.533-77.204-23.633l-342.22-607.454c26.264-16.526 35.189-50.946 19.791-78.277-.035-.062-.07-.124-.109-.184l212.508-119.72c.031.064.066.126.101.189 15.428 27.385 49.602 37.577 77.375 23.543L945.067 743.15c-26.394 16.483-35.385 50.991-19.957 78.377z" fill="#cad5f3"/><path d="M712.633 943.777a2.5 2.5 0 0 1-2.175-1.263c-14.723-26.134-47.187-36.07-73.933-22.67a2.5 2.5 0 0 1-3.298-1.009l-342.22-607.454a2.5 2.5 0 0 1 .847-3.343c25.32-15.932 33.641-48.847 18.944-74.935a2.55 2.55 0 0 1-.349-1.981 2.52 2.52 0 0 1 1.191-1.606l212.508-119.72a2.499 2.499 0 0 1 3.483 1.101c14.769 26.215 47.305 36.11 74.093 22.577a2.5 2.5 0 0 1 3.306 1.004l342.215 607.444a2.5 2.5 0 0 1-.854 3.348c-25.458 15.899-33.849 48.855-19.104 75.029.325.578.418 1.279.239 1.918a2.513 2.513 0 0 1-1.171 1.522L713.857 943.455a2.49 2.49 0 0 1-1.224.322zm-51.038-34.889c20.592 0 40.511 10.467 51.944 29.007l208.227-117.308c-14.064-27.422-5.517-60.941 19.973-78.252l-339.914-603.36c-28.061 12.855-61.226 2.738-77.367-23.614L316.241 232.663c14.125 27.37 5.662 60.93-19.73 78.3l339.927 603.385a60.738 60.738 0 0 1 25.157-5.46z"/><path d="M554.541 410.815c63.933-35.649 144.664-12.718 180.311 51.215 35.647 63.943 12.716 144.663-51.221 180.312-63.933 35.649-144.664 12.718-180.313-51.214-35.649-63.943-12.71-144.663 51.223-180.313z" fill="#92acef"/><path d="M619.309 661.599c-47.421.004-93.487-24.979-118.176-69.254-36.257-65.036-12.845-147.45 52.19-183.714 31.504-17.565 67.964-21.81 102.664-11.957 34.699 9.856 63.482 32.634 81.048 64.138 36.258 65.039 12.846 147.453-52.188 183.714-20.76 11.576-43.302 17.071-65.538 17.073zm-64.768-250.784 1.217 2.184C493.131 447.92 470.585 527.282 505.5 589.91c34.921 62.628 114.285 85.168 176.913 50.249 62.626-34.919 85.17-114.28 50.255-176.911-16.915-30.338-44.633-52.272-78.047-61.764s-68.524-5.402-98.863 11.515z"/><path d="M722.5 714.973c25.724-14.344 58.207-5.117 72.549 20.607 14.343 25.728 5.116 58.206-20.609 72.549-25.724 14.344-58.207 5.117-72.55-20.607-14.343-25.727-5.114-58.205 20.61-72.549z" fill="#92acef"/><path d="M748.553 817.406a56.093 56.093 0 0 1-15.338-2.15c-14.346-4.074-26.246-13.491-33.508-26.516-14.991-26.887-5.312-60.957 21.576-75.95 13.025-7.263 28.098-9.018 42.443-4.943s26.245 13.491 33.507 26.516c14.989 26.889 5.311 60.96-21.576 75.951-8.426 4.698-17.714 7.092-27.104 7.092zm-24.835-100.249c-24.479 13.649-33.292 44.67-19.644 69.147 6.612 11.858 17.446 20.432 30.507 24.142s26.784 2.112 38.642-4.5c24.479-13.648 33.291-44.668 19.644-69.148-6.611-11.858-17.446-20.432-30.506-24.142-13.061-3.708-26.784-2.113-38.643 4.501zm-1.218-2.184h.01z"/><path d="M459.174 247.54c25.724-14.344 58.207-5.117 72.549 20.607 14.342 25.728 5.116 58.206-20.609 72.549-25.724 14.344-58.207 5.117-72.55-20.607-14.344-25.728-5.114-58.206 20.61-72.549z" fill="#92acef"/><path d="M485.237 349.938c-19.605.002-38.649-10.326-48.856-28.631-14.991-26.888-5.312-60.959 21.576-75.951 13.024-7.263 28.098-9.019 42.443-4.943 14.345 4.074 26.245 13.491 33.507 26.516 14.989 26.89 5.311 60.961-21.576 75.951a55.51 55.51 0 0 1-27.094 7.058zm-.167-106.673c-8.551 0-17.004 2.179-24.678 6.458-24.479 13.649-33.292 44.67-19.644 69.148 13.65 24.479 44.669 33.291 69.148 19.641 24.478-13.647 33.29-44.668 19.644-69.149-6.611-11.857-17.446-20.431-30.506-24.141a51.078 51.078 0 0 0-13.964-1.957zm-25.896 4.274h.01z"/><path d="m430.052 733.191 734.877-575.283 295.098 376.964-734.876 575.283z" fill="#92acef"/><path d="M725.186 1112.637a2.5 2.5 0 0 1-1.969-.959L428.1 734.713a2.502 2.502 0 0 1 .427-3.51l734.879-575.319a2.5 2.5 0 0 1 3.509.428l295.117 376.964a2.502 2.502 0 0 1-.427 3.51l-734.879 575.32a2.494 2.494 0 0 1-1.54.531zM433.579 733.6l292.035 373.027 730.942-572.238-292.036-373.026z"/><path d="M699.522 980.981 549.169 788.936l.032-.025c24.701-19.339 29.656-54.549 11.736-79.883l548.986-429.801c20.293 23.476 55.664 27.115 80.365 7.777.056-.044.112-.088.165-.136l150.359 192.054c-.059.04-.115.084-.171.128-24.75 19.376-29.678 54.695-11.621 80.039L780.042 988.883c-20.27-23.61-55.739-27.302-80.489-7.926z" fill="#cad5f3"/><path d="M780.044 991.382a2.495 2.495 0 0 1-1.898-.871c-19.55-22.771-53.395-26.104-77.051-7.586-1.087.85-2.69.686-3.541-.402L547.201 790.477a2.5 2.5 0 0 1 .421-3.505c23.615-18.487 28.551-52.077 11.275-76.501a2.5 2.5 0 0 1 .5-3.412l548.986-429.802a2.498 2.498 0 0 1 3.432.334c19.564 22.632 53.356 25.9 76.933 7.443.516-.455 1.224-.704 1.91-.635.685.063 1.341.385 1.765.927l150.358 192.054a2.502 2.502 0 0 1-.566 3.611c-23.688 18.547-28.575 52.201-11.159 76.646a2.5 2.5 0 0 1-.495 3.42L781.583 990.851a2.49 2.49 0 0 1-1.539.531zm-44.375-25.419c16.447 0 32.745 6.64 44.677 19.506l545.287-426.905c-16.934-25.806-11.928-60.114 11.692-80.041l-147.322-188.175c-24.939 18.082-59.385 14.77-80.378-7.714L564.318 709.556c16.759 25.729 11.755 59.89-11.669 79.769L699.98 977.512c10.764-7.761 23.268-11.549 35.689-11.549z"/><path d="M1049.772 552.761c44.871 57.835 34.36 141.098-23.475 185.967-57.846 44.871-141.098 34.357-185.969-23.482-44.871-57.835-34.36-141.099 23.475-185.97 57.843-44.871 141.098-34.35 185.969 23.485z" fill="#92acef"/><path d="M945.203 768.991c-40.342.004-80.267-17.945-106.85-52.213-45.645-58.831-34.916-143.831 23.917-189.478 58.835-45.636 143.833-34.904 189.478 23.928 22.111 28.499 31.8 63.903 27.283 99.691s-22.701 67.674-51.2 89.784c-24.568 19.056-53.709 28.285-82.628 28.288zm-.305-264.979c-27.853 0-55.904 8.886-79.564 27.239-56.654 43.956-66.986 125.809-23.032 182.462 43.951 56.653 125.802 66.989 182.462 23.039 27.444-21.291 44.954-51.996 49.304-86.459s-4.98-68.557-26.272-96.001c-25.598-32.995-64.054-50.28-102.898-50.28z"/><path d="M774.379 764.611c18.055 23.27 13.825 56.772-9.445 74.825-23.275 18.054-56.772 13.824-74.826-9.448-18.055-23.27-13.825-56.772 9.445-74.826 23.273-18.054 56.771-13.821 74.826 9.449z" fill="#92acef"/><path d="M732.306 853.107c-16.676 0-33.184-7.421-44.173-21.586-9.142-11.782-13.147-26.419-11.279-41.215 1.868-14.795 9.385-27.978 21.167-37.119 24.322-18.868 59.463-14.432 78.333 9.892 9.142 11.782 13.147 26.419 11.279 41.215-1.868 14.795-9.385 27.978-21.167 37.118-10.158 7.879-22.203 11.695-34.16 11.695zm-.121-106.616c-10.887 0-21.852 3.474-31.1 10.647-10.727 8.322-17.571 20.324-19.271 33.794-1.7 13.471 1.947 26.797 10.269 37.524 17.18 22.145 49.173 26.186 71.318 9.004 10.727-8.321 17.571-20.323 19.271-33.794 1.7-13.47-1.947-26.796-10.269-37.523-10.005-12.896-25.035-19.652-40.218-19.652z"/><path d="M1196.823 433.891c18.054 23.27 13.825 56.772-9.445 74.825-23.275 18.054-56.772 13.824-74.826-9.448-18.054-23.27-13.825-56.772 9.445-74.826 23.274-18.054 56.772-13.821 74.826 9.449z" fill="#92acef"/><path d="M1154.75 522.386c-16.676 0-33.184-7.42-44.173-21.585-9.142-11.782-13.147-26.419-11.279-41.215 1.868-14.795 9.385-27.978 21.167-37.119 24.321-18.867 59.462-14.432 78.333 9.892 9.141 11.782 13.147 26.419 11.279 41.215-1.868 14.795-9.385 27.978-21.167 37.118-10.158 7.879-22.203 11.694-34.16 11.694zm-.121-106.615c-10.887 0-21.852 3.474-31.099 10.647-10.727 8.322-17.571 20.324-19.271 33.794-1.7 13.471 1.947 26.797 10.269 37.524 17.179 22.144 49.172 26.184 71.318 9.004 10.727-8.321 17.571-20.323 19.271-33.793 1.7-13.471-1.947-26.797-10.269-37.524-10.006-12.896-25.037-19.652-40.219-19.652z"/><path d="M182.683 409.019h1231.25s180.183 442.949 180.183 750.762c0 154.207-72.69 480.49-780.796 480.49-750.759 0-810.82-326.884-810.82-480.49 0-307.814 180.183-750.762 180.183-750.762z" fill="#ef4810"/><path d="M813.32 1642.771c-325.748 0-557.442-61.674-688.645-183.31-48.518-44.979-83.318-98.479-103.433-159.013C6.948 1257.432 0 1211.419 0 1159.781c0-70.375 9.489-153.697 28.202-247.653 14.961-75.116 35.819-157.169 61.996-243.88 44.564-147.618 89.719-259.063 90.169-260.171a2.502 2.502 0 0 1 2.316-1.558h1231.25a2.5 2.5 0 0 1 2.316 1.558c.451 1.108 45.605 112.553 90.169 260.171 26.177 86.711 47.036 168.764 61.997 243.88 18.713 93.956 28.202 177.278 28.202 247.653 0 49.761-7.589 97.18-22.557 140.941-20.627 60.311-55.31 113.788-103.084 158.948-128.532 121.497-349.799 183.101-657.656 183.101zM184.371 411.519c-5.615 13.999-47.763 120.289-89.401 258.221-26.127 86.55-46.943 168.439-61.87 243.39C14.454 1006.755 5 1089.74 5 1159.781c0 51.095 6.865 96.592 20.988 139.091 19.847 59.726 54.194 112.522 102.087 156.924 130.249 120.75 360.799 181.976 685.245 181.976 306.537 0 526.648-61.145 654.221-181.734 47.179-44.598 81.426-97.396 101.788-156.933 14.789-43.239 22.287-90.114 22.287-139.323 0-70.047-9.456-153.042-28.105-246.677-14.929-74.958-35.749-156.854-61.879-243.411-41.638-137.925-83.773-244.179-89.387-258.174H184.371z" fill="#161616"/><path d="M663.708 187.272c-28.454 17.057-37.689 53.95-20.631 82.389 11.397 19.025 31.653 29.19 52.343 28.92l66.052 110.197c.331.541 0 0 0 0l51.517-30.886c.541-.331.331.555 0 0l-66.052-110.197c9.986-18.109 10.571-40.767-.841-59.792-17.041-28.439-53.934-37.688-82.388-20.631z" fill="#fbb348"/><path d="M761.621 411.519a2.5 2.5 0 0 1-2.134-1.193l-.147-.24a.927.927 0 0 1-.025-.042l-65.31-108.959c-22.078-.191-41.837-11.382-53.073-30.138-8.593-14.327-11.09-31.145-7.032-47.355 4.059-16.211 14.188-29.871 28.522-38.464 14.333-8.592 31.154-11.088 47.367-7.026 16.21 4.062 29.865 14.188 38.451 28.518 11.249 18.752 11.806 41.453 1.571 61.009l64.79 108.091a2.621 2.621 0 0 1 1.142 2.861 2.618 2.618 0 0 1-2.365 1.994l-49.629 29.755a2.497 2.497 0 0 1-2.128 1.189zm-66.202-115.438c.878 0 1.692.461 2.145 1.215l64.767 108.053 47.229-28.315-64.768-108.054a2.496 2.496 0 0 1-.044-2.492c10.07-18.261 9.772-39.681-.796-57.298-7.899-13.185-20.463-22.502-35.377-26.238-14.917-3.735-30.394-1.442-43.581 6.465-13.188 7.906-22.509 20.474-26.243 35.389-3.734 14.914-1.437 30.388 6.47 43.57 10.555 17.621 29.317 27.952 50.166 27.706l.032-.001zm118.872 83.945-.021.013.021-.013zm.838-3.426.004.007-.004-.007z"/><path d="M932.903 187.272c28.454 17.057 37.689 53.95 20.631 82.389-11.397 19.025-31.653 29.19-52.343 28.92l-66.052 110.197c-.331.541 0 0 0 0l-51.517-30.886c-.541-.331-.331.555 0 0l66.052-110.197c-9.986-18.109-10.571-40.767.841-59.792 17.041-28.439 53.934-37.688 82.388-20.631z" fill="#fbb348"/><path d="M834.99 411.519c-.445 0-.896-.118-1.303-.368a2.494 2.494 0 0 1-.825-.822l-49.629-29.755a2.619 2.619 0 0 1-2.365-1.994 2.621 2.621 0 0 1 1.142-2.861l64.79-108.091c-10.235-19.556-9.678-42.257 1.571-61.01 8.585-14.328 22.24-24.455 38.45-28.517 16.212-4.06 33.034-1.566 47.367 7.026 14.334 8.593 24.463 22.253 28.522 38.464 4.059 16.21 1.562 33.028-7.032 47.356-11.235 18.754-30.997 29.943-53.073 30.137l-65.317 108.971-.017.029-.147.239a2.497 2.497 0 0 1-2.134 1.196zm-47.939-34.485 47.229 28.315 64.767-108.053a2.453 2.453 0 0 1 2.177-1.215c20.851.276 39.61-10.085 50.166-27.705 7.907-13.184 10.205-28.657 6.471-43.571-3.734-14.915-13.055-27.482-26.243-35.389-13.187-7.906-28.665-10.203-43.581-6.465-14.914 3.736-27.478 13.054-35.376 26.237-10.569 17.618-10.867 39.038-.797 57.299a2.5 2.5 0 0 1-.044 2.492zm-4.715 3.003.021.012zm-.858-3.432-.004.008z"/><path d="M117.232 348.957h1363.82c13.604 0 24.64 14.94 24.64 33.364v5.465c0 18.424-11.036 33.364-24.64 33.364H117.232c-13.604 0-24.64-14.94-24.64-33.364v-5.465c0-18.424 11.036-33.364 24.64-33.364z" fill="#fbb348"/><path d="M1481.052 423.65H117.232c-14.965 0-27.14-16.088-27.14-35.863v-5.466c0-19.775 12.175-35.864 27.14-35.864h1363.82c14.965 0 27.14 16.089 27.14 35.864v5.466c0 19.775-12.175 35.863-27.14 35.863zm-1363.82-72.194c-12.208 0-22.14 13.846-22.14 30.864v5.466c0 17.018 9.932 30.863 22.14 30.863h1363.82c12.208 0 22.14-13.846 22.14-30.863v-5.466c0-17.019-9.932-30.864-22.14-30.864z"/></svg></g><g transform="translate(1781.0 2602.0) rotate(0.0 613.0 193.5) scale(1.1060649528975113 1.1072961373390557)"><svg width="1108.434" height="349.5" viewBox="0 0 1108.434 349.5"><path d="M54.675 232.617h933.448V347H54.675z" fill="#92acef"/><path d="M988.123 349.5H54.675a2.5 2.5 0 0 1-2.5-2.5V232.616a2.5 2.5 0 0 1 2.5-2.5h933.448a2.5 2.5 0 0 1 2.5 2.5V347a2.5 2.5 0 0 1-2.5 2.5zm-930.948-5h928.448V235.116H57.175z"/><path d="M422.414 232.617h197.972V347H422.414z" fill="#cad5f3"/><path d="M620.385 349.5H422.413a2.5 2.5 0 0 1-2.5-2.5V232.616a2.5 2.5 0 0 1 2.5-2.5h197.972a2.5 2.5 0 0 1 2.5 2.5V347a2.5 2.5 0 0 1-2.5 2.5zm-195.472-5h192.972V235.116H424.913z"/><path d="M172.486 118.234h933.448v114.383H172.486z" fill="#92acef"/><path d="M1105.934 235.116H172.486a2.5 2.5 0 0 1-2.5-2.5V118.233a2.5 2.5 0 0 1 2.5-2.5h933.448a2.5 2.5 0 0 1 2.5 2.5v114.383a2.5 2.5 0 0 1-2.5 2.5zm-930.948-5h928.448V120.733H174.986z"/><path d="M540.224 118.234h197.972v114.383H540.224z" fill="#cad5f3"/><path d="M738.196 235.116H540.224a2.5 2.5 0 0 1-2.5-2.5V118.233a2.5 2.5 0 0 1 2.5-2.5h197.972a2.5 2.5 0 0 1 2.5 2.5v114.383a2.5 2.5 0 0 1-2.5 2.5zm-195.472-5h192.972V120.733H542.724z"/><path d="M2.5 2.5h933.448v114.383H2.5z" fill="#92acef"/><path d="M935.948 119.383H2.5a2.5 2.5 0 0 1-2.5-2.5V2.5A2.5 2.5 0 0 1 2.5 0h933.448a2.5 2.5 0 0 1 2.5 2.5v114.383a2.5 2.5 0 0 1-2.5 2.5zM5 114.383h928.448V5H5z"/><path d="M370.238 2.5H568.21v114.383H370.238z" fill="#cad5f3"/><path d="M568.21 119.383H370.238a2.5 2.5 0 0 1-2.5-2.5V2.5a2.5 2.5 0 0 1 2.5-2.5H568.21a2.5 2.5 0 0 1 2.5 2.5v114.383a2.5 2.5 0 0 1-2.5 2.5zm-195.472-5H565.71V5H372.738z"/></svg></g><g transform="translate(539.0 2687.0) rotate(0.0 280.0 151.5) scale(1.25037957951521 1.2571570823998008)"><svg width="447.864" height="241.02" viewBox="0 0 447.864 241.02"><path d="M345.023 238.52H38.5c-19.882 0-36-16.118-36-36v-46.01c0-19.882 16.118-36 36-36h306.523c19.882 0 36 16.118 36 36v46.01c0 19.883-16.118 36-36 36z" fill="#fbb348"/><path d="M345.023 241.02H38.5c-21.229 0-38.5-17.271-38.5-38.5v-46.01c0-21.229 17.271-38.5 38.5-38.5h306.523c21.229 0 38.5 17.271 38.5 38.5v46.01c0 21.229-17.271 38.5-38.5 38.5zM38.5 123.01c-18.472 0-33.5 15.028-33.5 33.5v46.01c0 18.472 15.028 33.5 33.5 33.5h306.523c18.472 0 33.5-15.028 33.5-33.5v-46.01c0-18.472-15.028-33.5-33.5-33.5z"/><path d="M409.364 120.51H102.84c-19.882 0-36-16.118-36-36V38.5c0-19.882 16.118-36 36-36h306.523c19.882 0 36 16.118 36 36v46.01c.001 19.882-16.117 36-35.999 36z" fill="#fbb348"/><path d="M409.364 123.01H102.84c-21.229 0-38.5-17.271-38.5-38.5V38.5c0-21.229 17.271-38.5 38.5-38.5h306.523c21.229 0 38.5 17.271 38.5 38.5v46.01c.001 21.229-17.27 38.5-38.499 38.5zM102.84 5c-18.472 0-33.5 15.028-33.5 33.5v46.01c0 18.472 15.028 33.5 33.5 33.5h306.523c18.472 0 33.5-15.028 33.5-33.5V38.5c0-18.472-15.028-33.5-33.5-33.5z"/></svg></g><g transform="translate(788.0 2517.0) rotate(39.80997303845671 237.0 237.0) scale(1.5436571648163406 1.543647110546627)"><svg width="307.063" height="307.065" viewBox="0 0 307.063 307.065"><path d="M34.028 245.871c-51-65.998-38.839-160.848 27.159-211.845 66.01-50.999 160.848-38.836 211.848 27.167 51 65.998 38.839 160.848-27.159 211.848-66.009 51-160.848 38.828-211.848-27.17z" fill="#fbb348"/><g fill="#111"><path d="M153.713 306.994c-45.961 0-91.45-20.498-121.663-59.595C6.975 214.951-3.961 174.681 1.254 134.005 6.469 93.33 27.211 57.121 59.659 32.048c66.99-51.756 163.597-39.367 215.355 27.616 25.074 32.448 36.011 72.719 30.796 113.395s-25.957 76.886-58.405 101.96c-27.888 21.547-60.91 31.975-93.692 31.975zm-.352-301.925c-31.72 0-63.661 10.087-90.646 30.936-31.39 24.256-51.456 59.285-56.502 98.636-5.045 39.351 5.536 78.31 29.794 109.701 29.225 37.82 73.241 57.65 117.7 57.654 31.72.003 63.657-10.086 90.641-30.934 64.804-50.077 76.785-143.539 26.709-208.341-29.223-37.819-73.236-57.652-117.696-57.652z"/><path d="M203.093 237.367a2.494 2.494 0 0 1-1.988-.983l-13.104-17.155c-26.384 18.331-48.508 11.121-49.461 10.797a2.5 2.5 0 0 1-1.643-2.871l5.743-27.88a2.502 2.502 0 0 1 3.022-1.929c11.281 2.656 26.34-4.999 28.714-6.841a36.76 36.76 0 0 1 1.142-.82c3.646-2.561 14.744-10.356 15.896-18.997.421-3.156-.542-6.095-2.944-8.985-11.022-13.278-37.168 3.255-37.431 3.423-.241.148-12.943 7.763-28.41 7.765-11.083.001-23.584-3.907-33.946-17.271-21.717-27.987-1.283-51.691 5.117-57.988L79.703 78.945a2.5 2.5 0 0 1 .468-3.484l13.522-10.445a2.5 2.5 0 0 1 3.502.444l14.061 18.08c17.6-13.257 37.162-12.528 38.021-12.488a2.5 2.5 0 0 1 2.382 2.365l1.406 26.587a2.5 2.5 0 0 1-2.441 2.632c-21.134.46-32.875 9.065-36.815 16.965-2.191 4.391-2.104 8.778.237 12.035 6.162 8.558 13.367 5.271 26.63-1.79 1.689-.9 3.423-1.822 5.199-2.729 29.029-14.811 53.611-10.69 71.081 11.921 10.517 13.612 11.582 29.77 3.079 46.728-4.761 9.495-11.195 16.647-14.202 19.708l13.368 17.112a2.5 2.5 0 0 1-.457 3.53l-14.14 10.742a2.508 2.508 0 0 1-1.511.509zm-14.579-24.083c.753 0 1.497.339 1.988.983l13.062 17.101 10.136-7.701-13.186-16.879a2.5 2.5 0 0 1 .286-3.387c.089-.081 8.974-8.264 14.823-19.996 7.624-15.289 6.741-29.188-2.626-41.31-19.976-25.854-46.291-19.992-64.852-10.525-1.749.894-3.457 1.803-5.122 2.689-12.362 6.583-24.038 12.799-33.038.297-3.463-4.815-3.7-11.079-.653-17.187 6.616-13.261 23.812-18.778 38.605-19.629l-1.146-21.661c-5.688.25-21.104 1.974-34.376 12.911a2.499 2.499 0 0 1-3.563-.395L94.778 70.496l-9.595 7.411 13.968 18.516a2.5 2.5 0 0 1-.409 3.437c-1.167.964-28.385 23.987-6.109 52.696 9.259 11.941 21.407 16.987 36.106 15.002 11.138-1.505 19.556-6.614 19.64-6.666 1.181-.76 30.094-19.052 43.937-2.384 3.297 3.967 4.661 8.288 4.054 12.841-1.441 10.812-13.888 19.555-17.978 22.427-.429.302-.758.531-.957.684-3.037 2.356-17.695 9.829-30.389 8.208l-4.768 23.146c6.054 1.221 24.255 3.098 44.752-12.041a2.496 2.496 0 0 1 1.484-.489z"/></g></svg></g><g transform="translate(1124.0 2845.0) rotate(0.0 184.0 72.0) scale(1.166199236266261 1.1706365336151532)"><svg width="315.555" height="123.01" viewBox="0 0 315.555 123.01"><path d="M277.055 120.51H38.5c-19.882 0-36-16.118-36-36V38.5c0-19.882 16.118-36 36-36h238.555c19.882 0 36 16.118 36 36v46.01c0 19.882-16.118 36-36 36z" fill="#fbb348"/><path d="M277.054 123.01H38.5c-21.229 0-38.5-17.271-38.5-38.5V38.5C0 17.271 17.271 0 38.5 0h238.554c21.229 0 38.5 17.271 38.5 38.5v46.01c0 21.228-17.271 38.5-38.5 38.5zM38.5 5C20.028 5 5 20.028 5 38.5v46.01c0 18.472 15.028 33.5 33.5 33.5h238.554c18.472 0 33.5-15.028 33.5-33.5V38.5c0-18.472-15.028-33.5-33.5-33.5z"/></svg></g></svg>