<svg height="60" viewBox="0 0 60 60" width="60" xmlns="http://www.w3.org/2000/svg"><path d="M7.154 34.545c-.007-.451 0-.9-.017-1.352q-.033-1.086-.089-2.167c-.039-.763-.077-1.527-.14-2.289-.034-.411-.128-.816-.181-1.226-.1-.735-.152-1.478-.281-2.207a1.4 1.4 0 0 0-.646-1.018 2.18 2.18 0 0 0-1 .781 5.066 5.066 0 0 0-.832 1.978 10.458 10.458 0 0 0 .362 5.18c.376 1.157.731 2.322 1.089 3.485a3.354 3.354 0 0 0 .138.585 13.884 13.884 0 0 1 1.277 3.024c.029.111.162.194.247.29l.12-.063v-1.137q-.022-1.933-.047-3.864zm5.721 13.087a6.451 6.451 0 0 0 2.825 2.129c.3.151.614.286.912.447a8.578 8.578 0 0 0 2.727 1.155c.794.124 1.591.23 2.465.355-.218-1.481-.658-2.682-2.089-3.245s-2.85-1.146-4.293-1.67c-.884-.321-1.8-.547-2.661-.8a.807.807 0 0 0-.2.957 4.18 4.18 0 0 0 .314.672zm3.661-14.924c.177-.237.32-.352.36-.5.161-.573.277-1.158.434-1.733s-.189-1.261.359-1.761c.009-.008 0-.041-.009-.062a7.69 7.69 0 0 1 .4-2.513 23.28 23.28 0 0 0 .57-2.955 12.5 12.5 0 0 1 .5-3.42.778.778 0 0 0-.007-.268c-.025-.452-.244-.936.22-1.308.02-.016 0-.083 0-.127 0-.308 0-.616-.011-.924-.007-.257-.026-.515-.04-.772l-.153-.044c-.125.174-.266.339-.373.523a10.862 10.862 0 0 0-1.1 2.814 25.067 25.067 0 0 0-.9 3.88c-.1 1.186-.22 2.371-.306 3.559-.044.612-.037 1.227-.043 1.842-.008.852-.018 1.7-.006 2.555a12.177 12.177 0 0 0 .105 1.214zm.528 1.018-.343-.4c-.053.209-.121.419.343.4z" fill="#329d93"/><path d="M55.754 24.308a4.991 4.991 0 0 0-3.419-.477c-.577.107-1.168.138-1.751.212a.452.452 0 0 1-.508-.24c-.335-.588-.682-1.169-1.017-1.741.148-.35.306-.638.734-.653a.664.664 0 0 0 .407-.2q.732-.765 1.425-1.564c.221-.252.386-.555.618-.8.341-.354.718-.674 1.083-1.006a10.243 10.243 0 0 0 1.782-2.481 9.164 9.164 0 0 0 1.013-2.5c.193-.789.347-1.587.521-2.38a.544.544 0 0 0-.35-.649 2.724 2.724 0 0 0-1.961-.306 25.158 25.158 0 0 0-4.07 1.244 12.649 12.649 0 0 0-3.621 2.021 2.283 2.283 0 0 1-.606-1.621.915.915 0 0 1 .2-.473 4.615 4.615 0 0 0 1.273-3.5c-.033-.69-.279-.928-.976-1.1a5.964 5.964 0 0 0-2.485.065c-.274.049-.542.141-.909.239.3.212.5.346.7.5a1.155 1.155 0 0 1 .572.952 3.6 3.6 0 0 0 .144.978c.077.528.086 1.065.174 1.59.084.5-.287.847-.359 1.283a7.8 7.8 0 0 1-1.415 2.957c-.07.106-.134.215-.238.384.526.083 1 .119 1.449.238a2.013 2.013 0 0 1 1.7 1.454 15.659 15.659 0 0 1 .3 2.068 7.364 7.364 0 0 1-.095 1.219c.3.228.586.452.882.657a1.857 1.857 0 0 1 .767 1.008A8.29 8.29 0 0 1 48.1 23.4c.065.99.054 1.987.02 2.979a5.581 5.581 0 0 1-.278 1.1 6.945 6.945 0 0 0-.421 1.736 2.007 2.007 0 0 1-.995 1.816 7.82 7.82 0 0 0-1.145 1.016c.237.087.379.148.525.191 2.466.725 3.113 2.977 2.574 5.073a3.3 3.3 0 0 1-.55.919 20.5 20.5 0 0 1-1.189 1.7 3.316 3.316 0 0 1-1.464.93c-.148.054-.286.136-.451.216a1.912 1.912 0 0 0 .149.175.246.246 0 0 0 .119.063 4.209 4.209 0 0 0 2.87-.663 1.594 1.594 0 0 1 .581-.332.573.573 0 0 0 .446-.365 3.291 3.291 0 0 1 .722-.871c1.207-1.269 1.692-2.57.844-4.165-.213-.4-.422-.685-.936-.481a7.025 7.025 0 0 1-.587-2.118c-.088-.507.272-.716.775-.58a1.351 1.351 0 0 0 .638.024c.675-.164 1.35-.337 2-.563a4.4 4.4 0 0 0 1.052-.563 8.3 8.3 0 0 0 1.837-1.659c.448-.572.986-1.072 1.458-1.627a1.7 1.7 0 0 0 .379-.711 1.6 1.6 0 0 0-.014-.912 2.842 2.842 0 0 0-1.305-1.42z" fill="#365574"/><path d="M46.221 36.559a4.767 4.767 0 0 0 .332-1.169c.207-1.046-.478-2.523-1.815-2.4a1.573 1.573 0 0 1-1.042-.174 4.081 4.081 0 0 1-1.412-1.7c-.141-.4 0-.725.4-.756.776-.062 1.167-.7 1.738-1.067.118-.075.144-.294.214-.446a2.226 2.226 0 0 1 .194-.406 1.139 1.139 0 0 0-.287-1.747 1.976 1.976 0 0 0-1.338-.393c-.585.042-1.17.094-1.752.165a.8.8 0 0 1-.743-.226c-.292-.315-.594-.622-.866-.955a1.139 1.139 0 0 1-.283-1.047c.879.021 1.268-.943 2.107-1.051.035-.005.066-.058.093-.093.562-.73 1.13-1.455 1.684-2.191a4.982 4.982 0 0 0 1.027-2.612 3.059 3.059 0 0 0-.5-2.132 7.392 7.392 0 0 0-2.769.915.464.464 0 0 1-.426-.005 3.873 3.873 0 0 1-1.39-1.535.584.584 0 0 1-.059-.38 2.861 2.861 0 0 1 .447-1.049 5.453 5.453 0 0 0 .993-1.883c.339-.884.736-1.748 1.059-2.638a2.765 2.765 0 0 0-.053-2.139 8.913 8.913 0 0 0-4.313.454 4.519 4.519 0 0 1-1.874.528c-.077-.008-.165.064-.243.109-.762.437-1.549.836-2.276 1.325a17.258 17.258 0 0 0-2.022 1.584c-.845.774-1.63 1.613-2.437 2.429a2.426 2.426 0 0 0-.185.284c-1.014 1.372-1.276 3.07-1.974 4.58-.288.621-.434 1.306-.687 1.945a11.64 11.64 0 0 0-.862 3.671 17.564 17.564 0 0 0 .337 4.761 38.335 38.335 0 0 0 1.922 6.335 6.273 6.273 0 0 0 4.232 3.793 19.956 19.956 0 0 0 2.934.5c.872.115 1.752.169 2.63.241 1.01.082 2.021.192 3.033.219a15.885 15.885 0 0 0 4.148-.606 1.224 1.224 0 0 0 .7-.478c.501-.833.963-1.69 1.384-2.56z" fill="#5d7eb7"/><path d="M23.175 31.072a31.106 31.106 0 0 0-4.012 2.515c-.055.037-.145.078-.149.123-.04.421-.33.529-.683.614a1.066 1.066 0 0 0-.446.3c-.738.714-1.494 1.413-2.192 2.166-.808.872-1.563 1.8-2.34 2.7-.382.443-.776.877-1.137 1.336-.417.53-.806 1.082-1.2 1.627-.437.6-.9 1.187-1.3 1.814a4.537 4.537 0 0 1-.839 1.233 5.336 5.336 0 0 0-.911 1.237c-.45.7-.9 1.4-1.3 2.126-.382.685-.681 1.417-1.065 2.1a6.2 6.2 0 0 0-.86 3.569 3.56 3.56 0 0 0 .1.444 1.744 1.744 0 0 0 .284-.267c.357-.6.745-1.192 1.048-1.821a50.233 50.233 0 0 1 2.95-5.8 6.225 6.225 0 0 0 .393-.914H8.6a6.653 6.653 0 0 0-.028-.137 2.682 2.682 0 0 1 .522-.194 2.2 2.2 0 0 0 1.5-.952c.379-.524.739-1.022 1.145-1.5 1.345-1.586 2.712-3.154 4.056-4.742.281-.331.5-.714.77-1.1a3.011 3.011 0 0 0 .607-.4 39.847 39.847 0 0 1 4.086-3.762 18.955 18.955 0 0 1 1.839-1.27c.551-.341.584-.354.394-1.142a3.169 3.169 0 0 0-.316.097z" fill="#329d93"/><path d="M18.836 37.473c-.052.1-.086.209-.133.312-.613 1.308-.676.88-.146 2.4a8.233 8.233 0 0 0 1.532 2.448 26.05 26.05 0 0 0 1.939 2.067 6.786 6.786 0 0 0 1.3 1.046 28.636 28.636 0 0 0 4.726 2.027c.478.174.979.284 1.47.424a6.835 6.835 0 0 1-.671-2.114 9.7 9.7 0 0 0-.249-.98 5.955 5.955 0 0 0-1.246-2.069 15.759 15.759 0 0 0-2.965-3.052c-.671-.456-1.284-1-1.936-1.481-.672-.5-1.348-.993-2.044-1.457a1.01 1.01 0 0 0-1.577.429z" fill="#329d93"/><path d="M58.91 28.09a2.784 2.784 0 0 0-.012-2.238 3.148 3.148 0 0 1-.189-.434 3.219 3.219 0 0 0-1.932-2.137 7.544 7.544 0 0 0-3.284-.756c-.26 0-.52-.021-.92-.038A16.881 16.881 0 0 1 54 20.874a12.667 12.667 0 0 0 3.018-4.1 12.932 12.932 0 0 0 1.442-4.748 2.3 2.3 0 0 0-.686-2.226 5 5 0 0 0-3.994-1.111 16.635 16.635 0 0 0-3.626 1.077c-.51.214-1.03.4-1.707.667.142-.484.237-.818.34-1.15a5.041 5.041 0 0 0 .271-2.069 1.384 1.384 0 0 0-.583-1.1 6.417 6.417 0 0 0-2.337-1.044 9.088 9.088 0 0 0-4.684.352 11.021 11.021 0 0 1-2.976.572 15.477 15.477 0 0 0-6.051 1.611 6.509 6.509 0 0 0-1.315.81c-.386.331-.969.491-1.066 1.108-.008.053-.089.1-.141.14a4.216 4.216 0 0 0-1.235 1.287 1.935 1.935 0 0 1-.574.714 8.869 8.869 0 0 0-1.348 1.44 8.559 8.559 0 0 0-.683.959c-.131.187-.258.376-.424.619a.745.745 0 0 1-.2.912 2.457 2.457 0 0 0-.807 1.846.893.893 0 0 1-.26.57 1.2 1.2 0 0 0-.424 1.208c.045.146-.057.346-.112.515-.1.317-.243.625-.332.946-.144.523-.509.989-.4 1.584.019.1-.115.237-.176.357a1.654 1.654 0 0 0-.106 1.3 1.78 1.78 0 0 1-.008.646c-.014.179-.065.354-.079.532-.118 1.448.47 2.808.55 4.235.009.171.216.361.055.542a1.592 1.592 0 0 1-.475.337c-.929.465-1.866.912-2.794 1.38-.275.138-.528.319-.912.556.235-1.379.474-2.613.649-3.856.213-1.52.365-3.048.558-4.571.094-.738.245-1.468.331-2.207.106-.915.193-1.835.246-2.755a6.477 6.477 0 0 0-.234-2.674.86.86 0 0 0-.711-.623 2.978 2.978 0 0 0-2.844 1.549c-.1.352-.347.54-.486.828a2.493 2.493 0 0 1-.411.674c-.291.3-.216.7-.361 1.034-.056.129-.154.277-.131.4.054.282.028.48-.261.612a.308.308 0 0 0-.137.264c.159.432-.14.774-.192 1.158-.119.887-.692 1.7-.417 2.653.01.033-.019.08-.034.119a2.465 2.465 0 0 0 0 2.022l-.434.2a4.2 4.2 0 0 1-.012.969c-.241.959.018 1.954-.235 2.908-.01.037.029.086.03.13.008.256.014.513.016.771 0 .109-.051.256 0 .32.356.443.2 1 .345 1.486a1.267 1.267 0 0 1 .083.643 1.337 1.337 0 0 0 .332 1.314l-5.53 6.938c-.023-.436-.045-.761-.058-1.086-.049-1.219-.173-2.442-.122-3.657a42.2 42.2 0 0 0-.014-5.042 115.81 115.81 0 0 1-.306-5.266 5.869 5.869 0 0 0-1.027-3.158 1.42 1.42 0 0 0-1.676-.673c-.242.053-.494.056-.734.113-1.079.26-2.158.519-2.591 1.74a.215.215 0 0 1-.068.112c-.225.145-.551.277-.421.6.171.42-.378.379-.371.714 0 .235-.13.445.116.655.088.075.056.29.077.433l-.4.176a1.118 1.118 0 0 1 .1 1.231c-.062.113-.137.311-.086.381.281.38.118.775.108 1.171a2.242 2.242 0 0 0 .11.664c.333 1.136.665 2.272 1.026 3.4a8.2 8.2 0 0 0 .482 1.023c.077.159.251.336.222.47a2.065 2.065 0 0 0 .718 1.882 2.2 2.2 0 0 1 .434 1.3c.008.345.208.569.264.867a4.936 4.936 0 0 0 .323.951c.374.9.748 1.8 1.148 2.693a.929.929 0 0 0 .751.651 1.43 1.43 0 0 1-.214 1.451 7.321 7.321 0 0 0-.835 1.3c-.7 1.341-1.362 2.7-2.062 4.046a9.931 9.931 0 0 0-.7 4.5 2.817 2.817 0 0 0 2.557-1.327A15.614 15.614 0 0 0 7.7 52.038 26.147 26.147 0 0 1 9.638 48.1a2.433 2.433 0 0 1 .671-.8c.382.557.7 1.115 1.1 1.59a15.376 15.376 0 0 0 3.987 3.13 12.77 12.77 0 0 0 4.327 1.508 4.951 4.951 0 0 0 2.078.027c.607-.152 1.237-.212 1.857-.309.654-.1 1.079-.325 1.083-1.289a3.922 3.922 0 0 0-.987-2.61 8.421 8.421 0 0 0-3.134-2.21q-1.748-.726-3.533-1.358a13.021 13.021 0 0 0-4.742-1.014.728.728 0 0 1-.23-.094 50.743 50.743 0 0 1 4.3-4.919c.493.957.943 1.834 1.4 2.709a15.958 15.958 0 0 0 3.313 4.181 3.532 3.532 0 0 0 .537.413 19.415 19.415 0 0 0 4.978 2.272 9.457 9.457 0 0 0 2.335.339 12.108 12.108 0 0 0 2-.267c.267-.039.539-.064.8-.129.477-.119.884-.866.609-1.253a3.174 3.174 0 0 1-.366-1.056 8.807 8.807 0 0 0-2.106-3.719c-.438-.45-.812-.963-1.233-1.432a9.62 9.62 0 0 0-1.258-1.31c-1.039-.793-2.132-1.517-3.2-2.268-.48-.336-.972-.656-1.443-1.006-.679-.505-1.343-1.03-2.011-1.544a13.52 13.52 0 0 1 3.554-2.659c.07.2.158.4.214.609.184.7.356 1.4.534 2.1a5.6 5.6 0 0 0 1.371 2.468c2.085 2.225 3.171 2.535 5.767 3.359 1.082.343 2.188.539 3.293.772 2.462.521 4.955.811 7.45 1.089a9.6 9.6 0 0 0 1.015-.028c.356 0 .713.017 1.069.037.226.013.45.062.675.065a6.482 6.482 0 0 0 3.766-1.138 27.918 27.918 0 0 0 1.58-1.157 4.446 4.446 0 0 0 1.806-3.146 4.55 4.55 0 0 0-1.145-3.519c-.155-.178-.3-.363-.525-.634.368-.085.6-.134.839-.2a6.215 6.215 0 0 0 2.758-1.225 18.189 18.189 0 0 1 1.6-1.293 7.247 7.247 0 0 0 2.519-3.092zM7.085 39.609c-.085-.1-.218-.179-.247-.29A14.149 14.149 0 0 0 5.561 36.3a3.354 3.354 0 0 1-.138-.585c-.358-1.165-.713-2.328-1.089-3.485a10.458 10.458 0 0 1-.362-5.18 5.059 5.059 0 0 1 .828-1.98 2.18 2.18 0 0 1 1-.781 1.411 1.411 0 0 1 .642 1.011c.129.729.185 1.472.281 2.207.053.41.147.815.181 1.226.063.762.1 1.526.14 2.289q.057 1.083.089 2.167c.015.45.01.9.017 1.352l.055 3.868v1.137zM12.763 46c.859.255 1.777.481 2.661.8 1.443.524 2.864 1.109 4.293 1.67s1.871 1.764 2.089 3.245c-.874-.125-1.671-.231-2.465-.355a8.663 8.663 0 0 1-2.727-1.155c-.3-.161-.609-.3-.912-.447a6.481 6.481 0 0 1-2.827-2.129 4.205 4.205 0 0 1-.313-.674.807.807 0 0 1 .201-.955zm3.665-17.056c.006-.615 0-1.23.043-1.842.086-1.188.2-2.373.306-3.559a24.615 24.615 0 0 1 .9-3.88 10.862 10.862 0 0 1 1.1-2.814c.107-.184.248-.349.373-.523l.153.044c.014.257.033.515.04.772.009.308.007.616.011.924 0 .044.022.111 0 .127-.464.372-.245.856-.22 1.308a.778.778 0 0 1 .007.268 12.817 12.817 0 0 0-.5 3.42 23.28 23.28 0 0 1-.57 2.955 7.744 7.744 0 0 0-.4 2.513c0 .021.018.054.009.062-.548.5-.2 1.182-.359 1.761s-.273 1.16-.434 1.733c-.04.145-.183.26-.36.5-.05-.508-.109-.859-.114-1.211-.003-.857.007-1.708.015-2.557zm.636 4.784c-.466.018-.4-.191-.343-.4zm5.4 4.771c.652.484 1.265 1.025 1.936 1.481a15.817 15.817 0 0 1 2.965 3.052 5.925 5.925 0 0 1 1.246 2.068 9.7 9.7 0 0 1 .249.98 6.827 6.827 0 0 0 .671 2.114c-.491-.14-.992-.25-1.47-.424a28.636 28.636 0 0 1-4.726-2.027 6.786 6.786 0 0 1-1.3-1.046 26.05 26.05 0 0 1-1.935-2.06 8.289 8.289 0 0 1-1.532-2.448c-.53-1.521-.467-1.093.146-2.4.047-.1.081-.212.133-.312a1.014 1.014 0 0 1 1.582-.433c.689.46 1.365.954 2.037 1.453zm.626-6.387a18.884 18.884 0 0 0-1.836 1.267 39.929 39.929 0 0 0-4.091 3.765 3.011 3.011 0 0 1-.607.4c-.268.387-.489.77-.77 1.1-1.344 1.588-2.711 3.156-4.056 4.742-.406.48-.78.99-1.145 1.5a2.205 2.205 0 0 1-1.5.952 2.682 2.682 0 0 0-.522.194l.028.137h.92a6.225 6.225 0 0 1-.393.914 49.6 49.6 0 0 0-2.95 5.8c-.3.629-.691 1.218-1.048 1.821a1.744 1.744 0 0 1-.284.267 3.56 3.56 0 0 1-.1-.444 6.163 6.163 0 0 1 .86-3.569c.384-.684.683-1.416 1.065-2.1.405-.725.852-1.427 1.3-2.126a5.336 5.336 0 0 1 .911-1.232 4.551 4.551 0 0 0 .841-1.236c.4-.627.858-1.213 1.3-1.814.4-.545.786-1.1 1.2-1.627.361-.459.755-.893 1.137-1.336.777-.9 1.532-1.824 2.34-2.7.7-.753 1.454-1.452 2.192-2.166a1.066 1.066 0 0 1 .446-.3c.353-.085.643-.193.683-.614 0-.045.094-.086.149-.123a30.97 30.97 0 0 1 4.012-2.515 3.053 3.053 0 0 1 .307-.1c.193.786.16.8-.391 1.14zM44.139 39.6a15.885 15.885 0 0 1-4.148.606c-1.012-.027-2.023-.137-3.033-.219-.878-.072-1.758-.126-2.63-.241a19.7 19.7 0 0 1-2.934-.5 6.265 6.265 0 0 1-4.232-3.793 38.335 38.335 0 0 1-1.922-6.335 17.564 17.564 0 0 1-.337-4.761 11.723 11.723 0 0 1 .862-3.671c.253-.639.4-1.324.687-1.945.7-1.51.96-3.208 1.974-4.58a2.426 2.426 0 0 1 .185-.284c.807-.816 1.592-1.655 2.437-2.429A17.266 17.266 0 0 1 33.07 9.86c.727-.489 1.514-.888 2.276-1.325.078-.045.166-.117.243-.109a4.562 4.562 0 0 0 1.874-.526 8.884 8.884 0 0 1 4.311-.453 2.767 2.767 0 0 1 .052 2.147c-.323.89-.72 1.754-1.059 2.638a5.453 5.453 0 0 1-.993 1.883 2.93 2.93 0 0 0-.447 1.049.584.584 0 0 0 .059.38 3.858 3.858 0 0 0 1.39 1.535.464.464 0 0 0 .426 0 7.345 7.345 0 0 1 2.769-.915 3.028 3.028 0 0 1 .5 2.132 4.982 4.982 0 0 1-1.027 2.612c-.554.736-1.122 1.461-1.684 2.191-.027.035-.058.088-.093.093-.839.108-1.228 1.072-2.107 1.051a1.153 1.153 0 0 0 .283 1.047c.272.333.574.64.866.955a.793.793 0 0 0 .743.226 35.413 35.413 0 0 1 1.752-.165 1.976 1.976 0 0 1 1.338.393 1.139 1.139 0 0 1 .287 1.747 2.226 2.226 0 0 0-.194.406c-.07.152-.1.371-.214.446-.571.363-.962 1.005-1.738 1.067-.4.031-.543.36-.4.756a4.093 4.093 0 0 0 1.412 1.7 1.55 1.55 0 0 0 1.042.179c1.337-.127 2.022 1.35 1.815 2.4a4.729 4.729 0 0 1-.332 1.169c-.425.87-.883 1.727-1.382 2.557a1.22 1.22 0 0 1-.7.47zm12.934-12.955a1.7 1.7 0 0 1-.379.711c-.472.555-1.01 1.055-1.458 1.627a8.3 8.3 0 0 1-1.836 1.659 4.367 4.367 0 0 1-1.052.563c-.655.226-1.33.4-2 .563a1.351 1.351 0 0 1-.638-.024c-.5-.136-.863.073-.775.58a6.766 6.766 0 0 0 .589 2.115c.514-.2.723.079.936.481.848 1.595.363 2.9-.844 4.165a3.291 3.291 0 0 0-.722.871.573.573 0 0 1-.446.365 1.617 1.617 0 0 0-.581.332 4.209 4.209 0 0 1-2.87.663.246.246 0 0 1-.119-.063 1.912 1.912 0 0 1-.149-.175 4.787 4.787 0 0 1 .451-.216 3.281 3.281 0 0 0 1.464-.93c.44-.53.8-1.125 1.189-1.7a3.342 3.342 0 0 0 .55-.919c.539-2.1-.108-4.348-2.574-5.073-.146-.043-.288-.1-.525-.191a7.82 7.82 0 0 1 1.145-1.016 2.011 2.011 0 0 0 1-1.816 6.859 6.859 0 0 1 .421-1.736 5.477 5.477 0 0 0 .278-1.1c.034-.992.045-1.989-.02-2.979a8.29 8.29 0 0 0-.377-1.715 1.861 1.861 0 0 0-.771-1.008c-.3-.2-.578-.429-.882-.657a7.389 7.389 0 0 0 .095-1.219 15.659 15.659 0 0 0-.3-2.068 2.021 2.021 0 0 0-1.7-1.454c-.451-.119-.923-.155-1.449-.238.1-.169.168-.278.238-.384a7.848 7.848 0 0 0 1.409-2.959c.072-.436.443-.783.359-1.283-.088-.525-.1-1.062-.174-1.59a3.486 3.486 0 0 1-.144-.978c.046-.392-.263-.7-.572-.952-.192-.152-.4-.286-.7-.5.367-.1.635-.19.909-.239a5.9 5.9 0 0 1 2.485-.058c.7.17.943.408.976 1.1a4.614 4.614 0 0 1-1.275 3.5.915.915 0 0 0-.2.473 2.283 2.283 0 0 0 .606 1.621 12.708 12.708 0 0 1 3.621-2.021 25.058 25.058 0 0 1 4.07-1.244 2.724 2.724 0 0 1 1.961.306.543.543 0 0 1 .35.649c-.174.793-.328 1.591-.521 2.38a9.164 9.164 0 0 1-1.013 2.5 10.223 10.223 0 0 1-1.782 2.481c-.365.332-.742.652-1.083 1.006-.232.24-.4.543-.618.8q-.694.8-1.421 1.563a.664.664 0 0 1-.407.2c-.428.015-.586.3-.734.653.335.572.682 1.153 1.017 1.741a.452.452 0 0 0 .508.24c.583-.074 1.174-.1 1.751-.212a5 5 0 0 1 3.419.477 2.842 2.842 0 0 1 1.3 1.422 1.6 1.6 0 0 1 .014.91z"/></svg>