<svg height="60" viewBox="0 0 60 60" width="60" xmlns="http://www.w3.org/2000/svg"><path d="M39.6 21.133c-.658.112-1.314.238-1.969.372a4.519 4.519 0 0 0-.63.2c-.033.012-.061.081-.062.124a.162.162 0 0 0 .059.123.557.557 0 0 0 .207.076 23.455 23.455 0 0 1 4.146 1.153c.752.256 1.456.624 2.19.917.717.286 1.4.625 2.087.974a3.719 3.719 0 0 1 1.329 1.172c.1.137.2.274.294.411a3.807 3.807 0 0 0-.554-1.826 14.025 14.025 0 0 0-1.549-1.9 5.567 5.567 0 0 0-2.6-1.636 6.461 6.461 0 0 0-2.948-.16zm3.18-6.614c-.147.134-.31.25-.448.392a13.366 13.366 0 0 1-2.8 2.081 7.762 7.762 0 0 1-2.822 1.09 1 1 0 0 0-.224.119 2.624 2.624 0 0 0 .419 1.043.9.9 0 0 0 .194-.03 22.747 22.747 0 0 0 3.459-1.884 9.231 9.231 0 0 0 2.178-2c.384-.486.806-.942 1.212-1.409a.762.762 0 0 0 .131-.858c-.16.171-.27.244-.318.347a3.692 3.692 0 0 1-.981 1.109zm.878 1.46a.8.8 0 0 0-.158.125 10.95 10.95 0 0 1-1.681 1.674 9.532 9.532 0 0 1-3.619 1.974c-.286.077-.572.155-.852.25a4.2 4.2 0 0 0-.45.213l.061.511c.192-.056.357-.093.514-.153a12.227 12.227 0 0 1 2.782-.781 3.716 3.716 0 0 0 .653-.137 5.519 5.519 0 0 0 2.545-1.848.572.572 0 0 0 .124-.263c.067-.439.123-.88.177-1.321.016-.086.063-.198-.096-.244zm-9.392-1.669a13.317 13.317 0 0 1 1.7-1.86 6.264 6.264 0 0 1 2.152-1.281c.677-.235 1.341-.506 2.006-.775.119-.048.295-.086.272-.34a2.156 2.156 0 0 0-.474-.043 8.946 8.946 0 0 0-1.1.193 8.514 8.514 0 0 0-4.695 3.072c-.243.309-.519.591-.773.891a3.552 3.552 0 0 0-.216.327l.7.325c.176-.209.31-.353.428-.509zm2.918-1.591a12.057 12.057 0 0 0-2.012 1.749 3.336 3.336 0 0 0-.624.714c.174.2.289.43.544.49 3.481-2.793 5.644-4.137 7.162-4.726-.1-.209-.222-.187-.335-.134a33.709 33.709 0 0 1-3.487 1.259 4.7 4.7 0 0 0-1.248.648z" fill="#e4ad3d"/><path d="M22.664 40.106a9.159 9.159 0 0 0-.872-2.045c-.344-.629-.734-1.233-1.071-1.866a6.536 6.536 0 0 0-1.872-1.989 2.3 2.3 0 0 0-1.231-.472c-.368-.034-.74-.007-1.148-.007a3.587 3.587 0 0 0-.767 2.114c.023.544.037 1.089.031 1.633a2.549 2.549 0 0 0 .29 1.139 7.681 7.681 0 0 0 1.466 2.044 4.139 4.139 0 0 0 .778.682 5.268 5.268 0 0 0 2.015.721 8.834 8.834 0 0 0 2.446-.1c.185-.024.366-.075.569-.117a2.061 2.061 0 0 1-.518-1.234 7.901 7.901 0 0 0-.116-.503zm5.094 9.842a13.967 13.967 0 0 0 2.96-.164q1.607-.3 3.215-.567a.748.748 0 0 0 .547-.332 4.392 4.392 0 0 0 .755-2.366 2.6 2.6 0 0 0-1.03-2.135 2.837 2.837 0 0 0-3.043-.548c-.228.095-.456.191-.678.3a5.892 5.892 0 0 0-2.491 2.264 7.658 7.658 0 0 0-.92 2.8 2.227 2.227 0 0 0 0 .4.841.841 0 0 0 .685.348zM20.934 48.7a9.4 9.4 0 0 0-2.321-1.958 4.433 4.433 0 0 0-2-.749 1.074 1.074 0 0 0-.775.163c-.119.088-.255.153-.38.234a1.994 1.994 0 0 0-.9 1.386 4.807 4.807 0 0 0 .545 3.089 1.875 1.875 0 0 0 .846.813c.311.151.629.287.945.429a2.863 2.863 0 0 0 1.3.27c.5-.019.992-.042 1.488-.043a10.936 10.936 0 0 0 3.79-.924 1.337 1.337 0 0 0-.17-.242 19.716 19.716 0 0 1-2.368-2.468z" fill="#2f472e"/><path d="M39.073 14c-.15.086-.289.192-.434.286-.6.388-1.205.778-1.809 1.163-.292.187-.6.357-.88.553a3.213 3.213 0 0 0-.366.353l.524.854a1.318 1.318 0 0 0 .235 0c.12-.029.239-.064.357-.1a12.748 12.748 0 0 0 4.83-2.975c.684-.642 1.314-1.34 2-2.05l-.348-.385c-.493.273-.947.521-1.4.774q-1.353.754-2.709 1.527z" fill="#e4ad3d"/><path d="M28.124 25.08a5.791 5.791 0 0 0 5.414-.458 3.033 3.033 0 0 0 1.241-1.445 5.391 5.391 0 0 0 .5-2.456c-.009-.173 0-.347 0-.521a3.518 3.518 0 0 0-.873-2.889 4.349 4.349 0 0 0-2.3-1.682 5.952 5.952 0 0 0-2.2-.306 2.381 2.381 0 0 0-1.2.354c-.349.226-.762.373-.96.784a2.736 2.736 0 0 0-.989.762.842.842 0 0 0-.189.227 8.721 8.721 0 0 0-.876 2.5 5.9 5.9 0 0 0 .4 2.973 3.658 3.658 0 0 0 2.032 2.157zm-.313-7.072a1.881 1.881 0 0 1 .8-.758 3.386 3.386 0 0 1 3.214-.056 2.387 2.387 0 0 1 1.211 1.858.509.509 0 0 1-.054.287 1.849 1.849 0 0 0-.028 1.5 1.5 1.5 0 0 1 .049.58 2.751 2.751 0 0 1-.125.5 1.53 1.53 0 0 1-.637 1.027c-.283.179-.457.51-.767.689a1.437 1.437 0 0 1-.7.213 3.8 3.8 0 0 1-1.735-.329 2.735 2.735 0 0 1-1.511-1.646 4.917 4.917 0 0 1-.291-1.823 4.2 4.2 0 0 1 .574-2.042z" fill="#f9c3ab"/><g fill="#e4ad3d"><path d="M32.564 11.539c.147-.367.278-.741.406-1.115a1.722 1.722 0 0 0 .075-.363 13.569 13.569 0 0 0-.054-3.487 1.157 1.157 0 0 0-.148-.314.823.823 0 0 0-.085.444 16.911 16.911 0 0 1 .027 1.855c-.1 1.049-.27 2.09-.409 3.139.07-.05.161-.092.188-.159zm-11.279-.347c.656.528 1.251 1.13 1.865 1.708s1.219 1.168 1.83 1.75c.072.069.155.121.268-.042-.266-.334-.539-.683-.818-1.028-.25-.308-.526-.6-.756-.92a7.938 7.938 0 0 0-1.362-1.46 11.068 11.068 0 0 0-3.958-2 .765.765 0 0 0-.261.019 1.147 1.147 0 0 1-.014.13c.133.059.266.119.4.177a12.294 12.294 0 0 1 2.806 1.666zm-1.05 2.356a20.663 20.663 0 0 0 1.891 1.431c.618.412 1.234.819 1.888 1.171.194.105.362.256.549.376.159.1.328.194.524.309l.224-.509a13.944 13.944 0 0 0-1.687-1.8c-.457-.417-.893-.857-1.342-1.284-.5-.479-.994-.968-1.512-1.428a17.1 17.1 0 0 0-2.527-1.7 1.721 1.721 0 0 0-.767-.319l-.4.63c.413.442.793.831 1.154 1.236a19.754 19.754 0 0 0 2.005 1.887zm2.777-2.811a7.248 7.248 0 0 1 1.231 1.275l1.05 1.319.109-.1q-.387-.906-.778-1.816a1.192 1.192 0 0 0-.436-.49c-.6-.43-1.2-.877-1.8-1.3a5.6 5.6 0 0 0-1.825-.776 3.636 3.636 0 0 0-.523-.028c.642.352 1.126.636 1.627.887a8.88 8.88 0 0 1 1.345 1.029zm8.812 3.44a2.7 2.7 0 0 0 .359-.031 1.534 1.534 0 0 0 .061-.233c.051-.49.108-.979.14-1.47a5.248 5.248 0 0 0-.024-.663 21.136 21.136 0 0 1-.851 2.321 1.807 1.807 0 0 0 .315.076zm-1.004-.658a25.43 25.43 0 0 0 1.044-5 16.381 16.381 0 0 0-.049-3.63 4.927 4.927 0 0 0-.315-1.216c-.14-.34-.233-.7-.367-1.114a.734.734 0 0 0-.613-.272 2.347 2.347 0 0 0-.036.354c.012.3.023.6.064.888a15.91 15.91 0 0 1 .19 3.255c-.072 1.163-.16 2.324-.225 3.487-.035.618-.022 1.24-.056 1.859s-.1 1.223-.156 1.9c.138-.037.28-.033.336-.1a1.112 1.112 0 0 0 .183-.411zm-1.599.407c.036.029.085.08.116.073.061-.015.147-.053.163-.1a1.682 1.682 0 0 0 .094-.434c.048-.69.106-1.382.124-2.074.025-.917.039-1.837.015-2.754a21.625 21.625 0 0 0 .01-3.338 14.809 14.809 0 0 1-.153-2.893c0-.039-.043-.078-.078-.136-.06.019-.162.021-.182.062a5.229 5.229 0 0 0-.218.552 16.228 16.228 0 0 0-.583 2.453 11.8 11.8 0 0 0-.147 1.325c-.024.345.01.7-.009 1.041a20.164 20.164 0 0 0 .808 6.163.119.119 0 0 0 .04.06zM26.417 10.9a6.138 6.138 0 0 0 1.614 3.578c.165 0 .284-.071.278-.259a1.468 1.468 0 0 0-.063-.291 32.541 32.541 0 0 1-.8-4 15.591 15.591 0 0 1-.2-2.589 14.2 14.2 0 0 1 .667-4.094.635.635 0 0 0 0-.213c-.045 0-.076-.009-.09 0A3.733 3.733 0 0 0 26.465 5.1a9.467 9.467 0 0 0-.226 4.848 9.59 9.59 0 0 1 .178.952zm-8.153 3.178c.443.4.851.829 1.292 1.226a9.174 9.174 0 0 0 2.2 1.615c.291.136.568.3.862.43.339.147.69.265 1.036.395.327-.178.608.061.942.137l.246-.47c-.335-.152-.629-.272-.911-.416-.264-.135-.517-.293-.772-.445-.276-.166-.553-.33-.821-.507-.248-.164-.488-.34-.728-.516-.259-.192-.511-.392-.77-.583-.239-.177-.489-.34-.721-.525-.251-.2-.492-.415-.727-.634-.217-.2-.416-.424-.633-.627-.235-.219-.491-.417-.722-.641-.213-.206-.4-.444-.608-.652s-.35-.524-.636-.657a.389.389 0 0 0-.138.5c.057.137.153.257.2.395a4.955 4.955 0 0 0 1.409 1.975z"/><path d="M21.481 18.445a12.265 12.265 0 0 0 2.709.331c.054.006.121-.1.221-.2a12.515 12.515 0 0 1-1.424-.323 11.674 11.674 0 0 1-2.894-1.491 18.307 18.307 0 0 1-2.535-2.381l-.663-.69-.128.084c.154.41.3.822.464 1.229a3.543 3.543 0 0 0 1.162 1.6c.338.25.664.517.992.78a6.581 6.581 0 0 0 2.096 1.061zm5.912 17.696c0 .006.03.011.046.017a.163.163 0 0 0 .011-.059c0-.009-.027-.014-.041-.02a.227.227 0 0 0-.016.062zm-1.735-10.966a3.578 3.578 0 0 0-.42.456 3.626 3.626 0 0 1-1.083 1c-.308.206-.632.39-.957.57a11.834 11.834 0 0 1-2.44 1.049c-.952.277-1.922.463-2.888.67-.212.045-.421.109-.646.168a.6.6 0 0 0 .641.44 10.985 10.985 0 0 0 3.582-.537 5.946 5.946 0 0 0 1.185-.423c.98-.53 1.937-1.1 2.9-1.666a3.274 3.274 0 0 0 1.072-.989zm1.242 3.744a4.672 4.672 0 0 1-.138.575 3.245 3.245 0 0 0-.215 1.233c.008.544.065 1.087.059 1.631a2.329 2.329 0 0 0 .247 1 11.537 11.537 0 0 0 .031-1.191 9.711 9.711 0 0 1 .228-2.433c.158-.672.323-1.341.484-2.012a2.1 2.1 0 0 0-.696 1.197zm-3.785.734a18.472 18.472 0 0 1-3.043.629c-.357.04-.71.113-1.166.187.16.11.235.166.315.214a3.791 3.791 0 0 0 1.4.45 4.716 4.716 0 0 0 3.036-.377 4 4 0 0 0 1.274-.875 1.171 1.171 0 0 0 .829-1.105 1.676 1.676 0 0 1 .158-.416 6.7 6.7 0 0 0 .268-.97c-.519.465-.927.82-1.323 1.189a4.243 4.243 0 0 1-1.748 1.074zm4.391 6.947a.7.7 0 0 0 .113.162l.058-.147-.127-.148c-.017.046-.056.099-.044.133zm-5.277-16.47a4.928 4.928 0 0 0-1.16-.122 9.876 9.876 0 0 1-1.1.112 1.855 1.855 0 0 0-1.258.562c-.358.332-.729.67-1.1 1-.235.211-.238.208-.424.665a12.037 12.037 0 0 1 5.062-2.071 1.767 1.767 0 0 0-.02-.146zm8.051 16.389c-.092-1.11-.2-2.22-.257-3.332-.041-.742-.022-1.488-.016-2.232a14.113 14.113 0 0 1 .149-2.446c.1-.529.15-1.066.222-1.6a2.951 2.951 0 0 0-1.589.009c-.206.86-.41 1.7-.609 2.545a10.148 10.148 0 0 0-.3 2.727 8.9 8.9 0 0 1 .019.966 8.249 8.249 0 0 0 .467 3.289 4.4 4.4 0 0 0 1.714 2.267 1.7 1.7 0 0 0 .371.134 2.387 2.387 0 0 0 .016-.328c-.061-.667-.131-1.333-.187-1.999z"/></g><path d="M25.274 49.236c-.039-2.183-.011-4.367-.02-6.55 0-.844.05-1.687.06-2.528.011-.892.025-1.782.067-2.673a9.058 9.058 0 0 0 .066-1.111 3.424 3.424 0 0 1 .069-1.034 3.729 3.729 0 0 0 0-1.622 3.893 3.893 0 0 1-.063-1.18c.048-.517.029-1.041.035-1.561 0-.09.028-.208-.181-.22a4.077 4.077 0 0 0-.245.662 33.585 33.585 0 0 0-.614 4.271c-.036.518-.11 1.035-.167 1.551a7.329 7.329 0 0 0-.079.738c-.01 1.639-.024 3.277 0 4.915.009.841.082 1.684.128 2.525q.093 1.709.19 3.419c.01.174.011.348.036.521.185 1.3.365 2.6.567 3.9.182 1.176.372 2.351.594 3.518.124.652.32 1.29.478 1.914a2.564 2.564 0 0 0 1.666-.08 5.509 5.509 0 0 1-.369-.452 6.01 6.01 0 0 1-.679-1.146 29.69 29.69 0 0 1-1.273-5.265 18.724 18.724 0 0 1-.266-2.512z" fill="#778e76"/><path d="M16.307 25.919a34.247 34.247 0 0 1 6.2-2.416c.477-.121.953-.253 1.424-.4a1.793 1.793 0 0 0 .358-.2l-.382-1.638c-.3.043-.546.061-.783.116-.6.141-1.194.3-1.791.448a7.072 7.072 0 0 0-3 1.54q-1.254 1.1-2.5 2.206c-.178.157-.167.34-.054.569.179-.071.356-.144.528-.225zm5.738.075c.85-.455 1.731-.853 2.6-1.282a3.794 3.794 0 0 0 .392-.259l-.365-.734a5.876 5.876 0 0 1-.815.538 12.975 12.975 0 0 1-2.3.813 9.164 9.164 0 0 0-2.1.708A13.981 13.981 0 0 1 16.194 27a2.652 2.652 0 0 0-.461.212c.109.271.18.482.278.681.163.331.3.389.655.228a28.938 28.938 0 0 1 2.716-1 17.391 17.391 0 0 0 2.663-1.127zm24.672 1.054a10.019 10.019 0 0 0-.758-.812 5.186 5.186 0 0 0-1.532-.9c-.733-.3-1.469-.59-2.2-.895a32.768 32.768 0 0 0-4.791-1.581.952.952 0 0 0-.685.019 1.219 1.219 0 0 0 .167.241 13.258 13.258 0 0 0 2.1 1.526q1.815 1.017 3.614 2.051a24.866 24.866 0 0 0 2.768 1.44 6.548 6.548 0 0 1 1.818 1.136 1.049 1.049 0 0 0 .281.123 1.924 1.924 0 0 0-.455-1.95c-.121-.114-.211-.269-.327-.398zm-1.454 5.077a5.338 5.338 0 0 0-.276-.1 19.121 19.121 0 0 1-4.436-2.073 9.37 9.37 0 0 1-3.056-3c-.517-.824-1.131-1.568-1.707-2.344a1.148 1.148 0 0 0-.223-.175.986.986 0 0 0 .182.879 24.209 24.209 0 0 1 1.981 3.394 3.894 3.894 0 0 0 1.077 1.214c.37.323.819.555 1.2.863a7.633 7.633 0 0 0 4.866 1.554 4.49 4.49 0 0 0 .518-.061c-.089-.115-.106-.143-.126-.151zm-10.434-1.719a13.618 13.618 0 0 0-.539-2.3c-.232-.6-.364-1.231-.545-1.847-.031-.108-.082-.209-.13-.332l-1.132.556.526 2.129c.054.217.11.432.158.65a8.146 8.146 0 0 1 .191.937c.136 1.377.274 2.755.372 4.136a11 11 0 0 1-.26 3.908c-.088.3-.161.606-.246.927a1.625 1.625 0 0 0 1.16-.165 12.876 12.876 0 0 0 .768-3.274 14.534 14.534 0 0 0-.03-1.478 21.738 21.738 0 0 0-.293-3.847zm1.939.557a6.79 6.79 0 0 0-.885-2.655 10.594 10.594 0 0 1-1.08-2.589 2.016 2.016 0 0 0-.187-.371c-.243.032-.265.159-.214.326.316 1.041.615 2.088.952 3.121a9.284 9.284 0 0 1 .646 3.48 8.74 8.74 0 0 0 .043 1.56 10.5 10.5 0 0 1-.166 3.838c-.024.1-.077.237.107.316a1.147 1.147 0 0 0 .2-.2 7.565 7.565 0 0 0 .953-2.71 6.674 6.674 0 0 0-.09-2.732 11.22 11.22 0 0 1-.279-1.384zm-4.528-1.444c-.13-.906-.282-1.808-.429-2.711-.006-.04-.062-.071-.108-.12l-.42.064c-.037.659-.031 1.23-.109 1.789a13.706 13.706 0 0 0-.116 2.446c.058 1.363.15 2.724.223 4.085.044.817.1 1.634.112 2.451.006.514-.066 1.029-.1 1.547a1.371 1.371 0 0 0 .807.137 1.4 1.4 0 0 0 .114-.294 29.338 29.338 0 0 0 .369-2.946 25.566 25.566 0 0 0-.137-4.678c-.088-.589-.122-1.184-.206-1.77z" fill="#e4ad3d"/><path d="M44.98 29a3.031 3.031 0 0 0-.6-.3 12.212 12.212 0 0 1-1.968-1.041c-.635-.388-1.279-.761-1.922-1.135-.878-.511-1.762-1.014-2.639-1.528-.309-.181-.6-.385-1.06-.678a3.243 3.243 0 0 0 .25.458q.971 1.125 1.929 2.261a9.191 9.191 0 0 0 1.978 1.793 15.667 15.667 0 0 0 2.886 1.531c.578.223 1.148.468 1.734.666.506.171 1.026.3 1.551.431a2.677 2.677 0 0 0 .3-1.311c-.062-.052-.094-.1-.137-.113A9.093 9.093 0 0 1 44.98 29zM32.376 11.7l-.02.014v.068l.012-.047a.125.125 0 0 0 .008-.035z" fill="#e4ad3d"/><path d="M49.21 26.954c-.021-.272-.058-.543-.09-.815a2.051 2.051 0 0 0-.548-1.181c-.083-.09-.2-.207-.2-.306.019-.38-.242-.63-.4-.914a7.354 7.354 0 0 0-1.228-1.759 14.734 14.734 0 0 0-1.162-1.042 6.327 6.327 0 0 0-1.663-.808 3.091 3.091 0 0 1-.818-.4 3.93 3.93 0 0 1 .435-.359 2.642 2.642 0 0 0 .951-1.028c.291-.516.5-1.075.747-1.617a.453.453 0 0 0 .047-.217 2.127 2.127 0 0 1 .308-1.2 7.058 7.058 0 0 1 .344-.811.675.675 0 0 0 .056-.433 5.208 5.208 0 0 0-.157-.635l.012.013c-.058-.109-.149-.217 0-.324l-.018.015a1.43 1.43 0 0 1-.071-.283 1.9 1.9 0 0 0-.717-1.6.429.429 0 0 1-.119-.185.981.981 0 0 0-.774-.718c-.1-.015-.163-.171-.251-.254a4.609 4.609 0 0 0-2.036-1.132 7.376 7.376 0 0 0-3.158-.155 6.914 6.914 0 0 0-3.579 1.678 2.389 2.389 0 0 1-.841.561c.051-.643.094-1.206.14-1.769a3.043 3.043 0 0 0 .059-.737 15.68 15.68 0 0 1-.139-1.982 2.248 2.248 0 0 0-.07-.588 12.505 12.505 0 0 0-1.659-3.55 2.659 2.659 0 0 0-.4-.435 3.832 3.832 0 0 0-2.448-.926 11.015 11.015 0 0 0-1.633.106 3.416 3.416 0 0 0-2.029 1 6.829 6.829 0 0 0-1.961 3.717 14.038 14.038 0 0 0-.2 2.806c0 .168.037.349-.135.466a.37.37 0 0 1-.143-.023c-.573-.344-1.131-.716-1.719-1.033a4.968 4.968 0 0 0-3.258-.4 4.378 4.378 0 0 0-1.4.649 4.222 4.222 0 0 0-1.813 1.917 5.123 5.123 0 0 0-.315 4.107c.287.8.655 1.55 1.012 2.313a3.384 3.384 0 0 0 1.049 1.326c.415.307.807.646 1.211.973-.479.452-.907.9-1.38 1.292a7.027 7.027 0 0 0-1.667 1.884 3.942 3.942 0 0 1-.472.667 3.365 3.365 0 0 0-.8 2.113c-.03.521-.016 1.043-.028 1.565a2.851 2.851 0 0 0 .308 1.291 6.982 6.982 0 0 0 .336.663 6.883 6.883 0 0 0 2.919 2.884 7.137 7.137 0 0 0 2.548.752c.549.038 1.084 0 1.627-.016a3.757 3.757 0 0 0 1.564-.408c.219-.106.442-.2.666-.3.035.093.071.14.066.182-.093.739-.184 1.478-.291 2.215a23.736 23.736 0 0 0-.362 3.774 4.241 4.241 0 0 1-.177 1.567 1.616 1.616 0 0 1-.133-.228c-.2-.585-.393-1.173-.6-1.755a4.425 4.425 0 0 0-.356-.814 10.469 10.469 0 0 0-2.339-2.771 2.835 2.835 0 0 0-1.269-.578c-.778-.143-1.568-.187-2.345-.339a1.6 1.6 0 0 0-1.745.818 4.01 4.01 0 0 0-.463 1.479 8.482 8.482 0 0 0-.187 2.291 7.335 7.335 0 0 0 1.3 3.363 4.173 4.173 0 0 0 .681.783 6.22 6.22 0 0 0 3.858 1.557 9.012 9.012 0 0 0 2.857-.441c.236-.06.472-.117.732-.181.059.818.116 1.582.169 2.346.01.148.006.3.007.447a26.017 26.017 0 0 0 .3 4.452c.051.29.072.585.116.956a1.406 1.406 0 0 1-.264-.211c-.3-.428-.58-.863-.872-1.293a11.056 11.056 0 0 0-1.142-1.553 12.349 12.349 0 0 0-2.091-1.668 6.658 6.658 0 0 0-3.194-.85.724.724 0 0 0-.222.02 6.715 6.715 0 0 0-1.953.679 3.433 3.433 0 0 0-.529.4c-.062.056-.125.2-.1.251.1.192-.009.33-.069.486-.177.462-.374.916-.522 1.387-.111.353-.148.727-.236 1.086a2.672 2.672 0 0 0 1.133 2.843 2.205 2.205 0 0 1 .577.464 1.747 1.747 0 0 0 .774.551 5.911 5.911 0 0 0 1.641.466 18.97 18.97 0 0 0 2.9.019 5.017 5.017 0 0 0 1.315-.228 9.031 9.031 0 0 0 2.6-1.244 3.8 3.8 0 0 1 .359-.2 2.592 2.592 0 0 1 .154.444c.133.958.322 1.9.441 2.866a9.528 9.528 0 0 0 .846 3.443c.023.044.067.1.055.136-.087.25.085.353.247.47a2.191 2.191 0 0 0 2.808-.43 5.453 5.453 0 0 1-.12-.567 5.154 5.154 0 0 0-.3-1.147 35.9 35.9 0 0 1-.687-2.2c-.074-.259-.032-.555-.123-.8a16.506 16.506 0 0 1-.381-2.2 4.6 4.6 0 0 1-.011-.964c.524.026 1.022.017 1.511.08a20.047 20.047 0 0 0 3.041-.085 5.13 5.13 0 0 0 1.16-.236c.5-.13 1-.281 1.495-.437a2.4 2.4 0 0 0 .527-.25 5.776 5.776 0 0 0 1.348-1.363 2.8 2.8 0 0 0 .4-3.009 5.489 5.489 0 0 0-2.54-2.767 3.377 3.377 0 0 0-.552-.211 4.571 4.571 0 0 0-2.636.135 5.115 5.115 0 0 0-1.346.617 5.548 5.548 0 0 0-2.387 2.371c-.093.2-.213.392-.318.589-.056.107-.1.227-.277.19-.01-.219-.008-.442-.034-.664-.162-1.381-.066-2.772-.132-4.157-.018-.371.069-.749.032-1.115a19.775 19.775 0 0 1 .025-3.2 1.43 1.43 0 0 1 .115-.308c.218.271.391.476.556.688a6.311 6.311 0 0 0 2.7 2.034 7 7 0 0 0 3.79.407 9.4 9.4 0 0 0 2.862-1.017 2.3 2.3 0 0 0 .306-.21 6.339 6.339 0 0 0 1.984-3.411 1.52 1.52 0 0 0 .031-.3 4.447 4.447 0 0 1 .12-.8 2.669 2.669 0 0 0 .068-1.393 34.54 34.54 0 0 1-.177-.951 1.291 1.291 0 0 1 .008-.7c.221.17.406.287.563.434a7.885 7.885 0 0 0 5.044 2.1 4.2 4.2 0 0 0 2.81-.77 8.119 8.119 0 0 0 .759-.6 2.135 2.135 0 0 0 .735-1.164 14.87 14.87 0 0 0 .379-1.885 2.294 2.294 0 0 0 .181-1.437c-.018-.3-.106-.576.119-.843.069-.077.047-.237.037-.356zm-26.481 15.01a9.153 9.153 0 0 1-2.446.1 5.268 5.268 0 0 1-2.015-.721 4.175 4.175 0 0 1-.778-.682 7.681 7.681 0 0 1-1.466-2.044 2.552 2.552 0 0 1-.29-1.139 30.674 30.674 0 0 0-.031-1.633 3.562 3.562 0 0 1 .767-2.114c.408 0 .78-.027 1.148.007a2.3 2.3 0 0 1 1.231.472 6.536 6.536 0 0 1 1.872 1.99c.337.633.727 1.237 1.071 1.866a9.159 9.159 0 0 1 .872 2.045c.044.168.084.337.116.507a2.061 2.061 0 0 0 .518 1.234c-.198.037-.384.088-.569.112zm-3.053 10.367c-.5 0-.992.024-1.488.043a2.863 2.863 0 0 1-1.3-.27c-.316-.142-.634-.278-.945-.429a1.875 1.875 0 0 1-.846-.813 4.8 4.8 0 0 1-.545-3.089 1.994 1.994 0 0 1 .9-1.386c.125-.081.261-.146.38-.234a1.074 1.074 0 0 1 .775-.163 4.456 4.456 0 0 1 2 .749 9.4 9.4 0 0 1 2.321 1.961 20.106 20.106 0 0 0 2.362 2.468 1.337 1.337 0 0 1 .17.242 10.894 10.894 0 0 1-3.784.921zm7.4-3.124a7.7 7.7 0 0 1 .92-2.8 5.892 5.892 0 0 1 2.491-2.267c.222-.107.45-.2.678-.3a2.837 2.837 0 0 1 3.043.548 2.6 2.6 0 0 1 1.03 2.135 4.4 4.4 0 0 1-.759 2.364.748.748 0 0 1-.547.332c-1.073.178-2.144.371-3.215.567a13.967 13.967 0 0 1-2.96.164.839.839 0 0 1-.684-.345 2.2 2.2 0 0 1 0-.4zm18.07-26.278a14.178 14.178 0 0 1 1.549 1.9 3.818 3.818 0 0 1 .554 1.826c-.1-.137-.2-.274-.294-.411a3.721 3.721 0 0 0-1.326-1.169 25.05 25.05 0 0 0-2.087-.974c-.734-.293-1.438-.661-2.19-.917a23.455 23.455 0 0 0-4.146-1.153.557.557 0 0 1-.206-.076.162.162 0 0 1-.059-.123c0-.043.029-.112.062-.124a4.656 4.656 0 0 1 .63-.2c.655-.134 1.311-.26 1.969-.372a6.459 6.459 0 0 1 2.941.16 5.558 5.558 0 0 1 2.603 1.633zm-1.388-6.71c-.054.441-.11.882-.177 1.321a.572.572 0 0 1-.124.263 5.519 5.519 0 0 1-2.545 1.848 3.716 3.716 0 0 1-.653.137 12.285 12.285 0 0 0-2.782.781c-.157.06-.322.1-.514.153l-.061-.511a4.2 4.2 0 0 1 .45-.213c.28-.1.566-.173.852-.25a9.451 9.451 0 0 0 3.618-1.974A10.731 10.731 0 0 0 43.5 16.1a.761.761 0 0 1 .155-.121c.162.046.115.158.103.24zm.318-3.156a.762.762 0 0 1-.131.858c-.406.467-.828.923-1.212 1.409a9.231 9.231 0 0 1-2.178 2 22.811 22.811 0 0 1-3.455 1.889.9.9 0 0 1-.194.03 2.648 2.648 0 0 1-.419-1.043 1 1 0 0 1 .224-.119A7.769 7.769 0 0 0 39.534 17a13.419 13.419 0 0 0 2.8-2.081c.138-.142.3-.258.448-.392a3.707 3.707 0 0 0 .979-1.106c.046-.107.156-.18.316-.351zm-.542-.991c-.691.71-1.321 1.408-2 2.05A12.717 12.717 0 0 1 36.7 17.1a4.979 4.979 0 0 1-.357.1 1.318 1.318 0 0 1-.235 0l-.524-.854a3.213 3.213 0 0 1 .366-.353c.285-.2.588-.366.88-.553l1.809-1.163c.145-.094.284-.2.434-.286q1.356-.768 2.715-1.53c.452-.253.906-.5 1.4-.774zm-1.615-1.253c.113-.053.234-.075.335.134-1.518.589-3.681 1.933-7.162 4.726-.255-.06-.37-.287-.544-.49a3.312 3.312 0 0 1 .624-.714 12.019 12.019 0 0 1 2.012-1.756 4.7 4.7 0 0 1 1.248-.648 33.9 33.9 0 0 0 3.487-1.252zm-8.561 3.348c.254-.3.53-.582.773-.891a8.514 8.514 0 0 1 4.7-3.072 8.946 8.946 0 0 1 1.1-.193 2.156 2.156 0 0 1 .474.043c.023.254-.153.292-.272.34-.665.269-1.329.54-2.006.775a6.264 6.264 0 0 0-2.157 1.281 13.317 13.317 0 0 0-1.7 1.86c-.118.156-.252.3-.428.508l-.693-.324a3.484 3.484 0 0 1 .209-.327zm-1-2.455.02-.014c.139-1.049.312-2.09.409-3.139A16.911 16.911 0 0 0 32.76 6.7a.823.823 0 0 1 .085-.444 1.157 1.157 0 0 1 .148.314 13.569 13.569 0 0 1 .054 3.487 1.722 1.722 0 0 1-.075.363c-.128.374-.259.748-.406 1.115-.027.067-.118.109-.188.159v.035l-.012.047a5.248 5.248 0 0 1 .024.663c-.032.491-.089.98-.14 1.47a1.534 1.534 0 0 1-.061.233 2.7 2.7 0 0 1-.359.031 1.807 1.807 0 0 1-.315-.076 21.211 21.211 0 0 0 .851-2.321.2.2 0 0 1-.008-.064zm-1.9.407c.034-.619.021-1.241.056-1.859.065-1.163.153-2.324.225-3.487a15.91 15.91 0 0 0-.19-3.255c-.041-.293-.052-.592-.064-.888a2.347 2.347 0 0 1 .036-.354.734.734 0 0 1 .613.272c.134.414.227.774.367 1.114a4.927 4.927 0 0 1 .315 1.216 16.381 16.381 0 0 1 .049 3.63 25.239 25.239 0 0 1-1.044 5 1.1 1.1 0 0 1-.183.4c-.056.067-.2.063-.336.1.056-.663.121-1.274.156-1.889zM28.373 7.7c.019-.346-.015-.7.009-1.041a11.8 11.8 0 0 1 .147-1.325 15.793 15.793 0 0 1 .583-2.453 5.229 5.229 0 0 1 .218-.552c.02-.041.122-.043.182-.062.035.058.079.1.078.136a14.809 14.809 0 0 0 .153 2.897 21.879 21.879 0 0 1-.01 3.338c.024.917.01 1.837-.015 2.754-.018.692-.076 1.384-.124 2.074a1.691 1.691 0 0 1-.094.434c-.016.049-.1.087-.163.1-.031.007-.08-.044-.116-.073a.12.12 0 0 1-.04-.062 20.113 20.113 0 0 1-.808-6.165zm-1.9-2.6a3.738 3.738 0 0 1 1.355-2.067c.014-.011.045 0 .09 0a.635.635 0 0 1 0 .213 14.069 14.069 0 0 0-.667 4.094 15.7 15.7 0 0 0 .2 2.589 31.319 31.319 0 0 0 .8 4 1.468 1.468 0 0 1 .063.291c.006.188-.113.257-.278.259a6.152 6.152 0 0 1-1.614-3.579c-.054-.317-.092-.64-.173-.951A9.4 9.4 0 0 1 26.47 5.1zM25.7 19.95a8.679 8.679 0 0 1 .876-2.5.82.82 0 0 1 .183-.231 2.736 2.736 0 0 1 .989-.762c.2-.411.611-.558.96-.784a2.381 2.381 0 0 1 1.2-.354 5.952 5.952 0 0 1 2.2.306 4.349 4.349 0 0 1 2.3 1.682 3.518 3.518 0 0 1 .873 2.889c0 .174-.008.348 0 .521a5.289 5.289 0 0 1-.5 2.456 3.036 3.036 0 0 1-1.237 1.446 5.791 5.791 0 0 1-5.414.458 3.664 3.664 0 0 1-2.03-2.155 5.913 5.913 0 0 1-.4-2.97zm-5.141-11.1a5.59 5.59 0 0 1 1.828.784c.61.42 1.2.867 1.8 1.3a1.192 1.192 0 0 1 .436.49l.778 1.816-.109.1-1.05-1.319a7.248 7.248 0 0 0-1.231-1.275 8.759 8.759 0 0 0-1.353-1.029c-.5-.251-.985-.535-1.627-.887a2.81 2.81 0 0 1 .527.019zm-2.465.37a.765.765 0 0 1 .261-.019 11.051 11.051 0 0 1 3.958 1.993 7.938 7.938 0 0 1 1.362 1.463c.23.322.506.612.756.92.279.345.552.694.818 1.028-.113.163-.2.111-.268.042-.611-.582-1.215-1.172-1.83-1.75s-1.209-1.18-1.865-1.708a12.294 12.294 0 0 0-2.806-1.662c-.134-.058-.267-.118-.4-.177l.013-.131zm-.617.578a1.721 1.721 0 0 1 .767.319 16.8 16.8 0 0 1 2.527 1.7c.518.46 1.011.949 1.512 1.428.449.427.885.867 1.342 1.284a14.01 14.01 0 0 1 1.687 1.8l-.224.509c-.2-.115-.365-.2-.524-.309-.187-.12-.355-.271-.549-.376-.654-.352-1.27-.759-1.888-1.171a20.663 20.663 0 0 1-1.891-1.431 19.748 19.748 0 0 1-2-1.881c-.361-.4-.741-.794-1.154-1.236zm-.677 1.407c.286.133.418.443.636.657s.395.446.608.652c.231.224.487.422.722.641.217.2.416.425.633.627.235.219.476.433.727.634.232.185.482.348.721.525.259.191.511.391.77.583.24.176.48.352.728.516.268.177.545.341.821.507.255.152.508.31.772.445.282.144.576.264.911.416l-.246.47c-.334-.076-.615-.315-.942-.137-.346-.13-.7-.248-1.036-.395-.294-.127-.566-.29-.866-.427a9.121 9.121 0 0 1-2.207-1.619c-.441-.4-.849-.831-1.292-1.226a4.954 4.954 0 0 1-1.4-1.974c-.052-.138-.148-.258-.2-.395a.4.4 0 0 1 .144-.5zm1.588 5.395a3.511 3.511 0 0 1-1.162-1.6c-.162-.407-.31-.819-.464-1.229l.128-.084.663.69a19.218 19.218 0 0 0 2.54 2.383 11.674 11.674 0 0 0 2.894 1.491 12.417 12.417 0 0 0 1.424.323c-.1.093-.167.2-.221.2a12.664 12.664 0 0 1-2.709-.331 6.589 6.589 0 0 1-2.1-1.064c-.329-.257-.655-.525-.993-.775zm-.774 5.081q.552-.5 1.1-1a1.841 1.841 0 0 1 1.258-.562 9.876 9.876 0 0 0 1.1-.112 4.928 4.928 0 0 1 1.16.122l.023.146a12.037 12.037 0 0 0-5.062 2.071c.183-.453.186-.45.421-.661zm-1.781 3.9 2.5-2.206a7.072 7.072 0 0 1 3-1.54c.6-.148 1.192-.307 1.791-.448.237-.055.482-.073.783-.116l.382 1.638a1.793 1.793 0 0 1-.358.2c-.471.142-.947.274-1.424.4a34.019 34.019 0 0 0-6.2 2.416c-.172.082-.349.154-.528.232-.113-.235-.121-.415.054-.572zm.176 2.3c-.1-.2-.169-.41-.278-.681a2.832 2.832 0 0 1 .461-.212 14.072 14.072 0 0 0 3.258-1.22 9.116 9.116 0 0 1 2.1-.708 13.116 13.116 0 0 0 2.3-.813 5.733 5.733 0 0 0 .815-.538l.361.739a3.794 3.794 0 0 1-.392.259c-.865.429-1.746.827-2.6 1.282a17.385 17.385 0 0 1-2.665 1.119c-.915.311-1.835.6-2.716 1-.347.17-.486.114-.649-.219zm10.8 29.127a6.017 6.017 0 0 0 .679 1.147 5.331 5.331 0 0 0 .369.451 2.558 2.558 0 0 1-1.666.08c-.158-.623-.354-1.261-.478-1.913a104.498 104.498 0 0 1-.594-3.518c-.2-1.3-.382-2.6-.567-3.9-.025-.172-.026-.347-.036-.52q-.1-1.71-.19-3.419c-.046-.842-.119-1.684-.128-2.526-.019-1.638 0-3.276 0-4.914a7.329 7.329 0 0 1 .079-.738c.057-.517.131-1.033.167-1.552a33.6 33.6 0 0 1 .614-4.27 4.173 4.173 0 0 1 .245-.662c.209.011.182.13.181.22-.006.52.013 1.044-.035 1.561a3.893 3.893 0 0 0 .063 1.18 3.729 3.729 0 0 1 0 1.622 3.424 3.424 0 0 0-.069 1.034 9.058 9.058 0 0 1-.066 1.111 76.843 76.843 0 0 0-.067 2.673c-.01.841-.063 1.684-.06 2.528.009 2.183-.019 4.367.02 6.55a18.573 18.573 0 0 0 .265 2.513 29.624 29.624 0 0 0 1.277 5.27zm-.891-28.653a1.676 1.676 0 0 0-.158.416 1.171 1.171 0 0 1-.829 1.105 4 4 0 0 1-1.274.875 4.716 4.716 0 0 1-3.036.377 3.791 3.791 0 0 1-1.4-.45 4.81 4.81 0 0 1-.315-.214c.456-.074.809-.147 1.166-.187a18.472 18.472 0 0 0 3.043-.629 4.36 4.36 0 0 0 1.751-1.074c.4-.369.8-.724 1.323-1.19a6.547 6.547 0 0 1-.268.979zm-.394-1.458c-.962.562-1.919 1.136-2.9 1.666a5.76 5.76 0 0 1-1.185.423 10.853 10.853 0 0 1-3.582.537.6.6 0 0 1-.641-.44c.225-.059.434-.123.646-.168.966-.207 1.936-.393 2.888-.67a11.828 11.828 0 0 0 2.45-1.056c.325-.18.649-.364.957-.57a3.526 3.526 0 0 0 1.083-1 3.37 3.37 0 0 1 .42-.456l.938.738a3.277 3.277 0 0 1-1.068 1zm1.912 9.256c-.016-.006-.046-.011-.046-.017a.227.227 0 0 1 .016-.062c.014.006.04.011.041.02a.167.167 0 0 1-.008.067zm-.327-6.422a9.711 9.711 0 0 0-.228 2.433 11.537 11.537 0 0 1-.031 1.191 2.329 2.329 0 0 1-.247-1c.006-.544-.051-1.087-.059-1.631a3.236 3.236 0 0 1 .214-1.223 4.672 4.672 0 0 0 .138-.575 2.094 2.094 0 0 1 .7-1.2c-.161.672-.326 1.341-.484 2.013zm.507 7.027a.682.682 0 0 1-.113-.162c-.012-.035.027-.088.044-.133l.127.148c-.022.072-.038.111-.055.155zm2.83 2.083a1.7 1.7 0 0 1-.371-.134 4.4 4.4 0 0 1-1.714-2.267 8.249 8.249 0 0 1-.467-3.289 8.9 8.9 0 0 0-.019-.966 10.148 10.148 0 0 1 .3-2.727c.2-.843.4-1.685.609-2.545a2.954 2.954 0 0 1 1.589-.009c-.072.532-.125 1.069-.222 1.6A14.212 14.212 0 0 0 30 30.947c-.006.744-.025 1.49.016 2.232.061 1.112.165 2.222.257 3.332.056.668.126 1.334.185 2a2.5 2.5 0 0 1-.011.335zm2.129-2.879a29.193 29.193 0 0 1-.369 2.946 1.4 1.4 0 0 1-.114.294 1.371 1.371 0 0 1-.807-.137c.037-.518.109-1.033.1-1.547-.01-.817-.068-1.634-.112-2.451-.073-1.361-.165-2.722-.223-4.085a13.741 13.741 0 0 1 .118-2.449c.078-.559.072-1.13.109-1.789l.42-.064c.046.049.1.08.108.12.147.9.3 1.8.429 2.711.084.589.117 1.185.2 1.773a25.066 25.066 0 0 1 .144 4.686zm2.574-.236A12.876 12.876 0 0 1 34.381 39a1.63 1.63 0 0 1-1.16.165c.085-.321.158-.626.246-.927a11 11 0 0 0 .26-3.908 158.74 158.74 0 0 0-.372-4.136 7.962 7.962 0 0 0-.191-.941c-.048-.218-.1-.433-.158-.65l-.526-2.129 1.135-.552c.048.123.1.224.13.332.181.616.313 1.251.545 1.847a13.8 13.8 0 0 1 .539 2.3 21.738 21.738 0 0 1 .293 3.847 14.746 14.746 0 0 1 .03 1.486zm1.982-.656a7.565 7.565 0 0 1-.953 2.71 1.147 1.147 0 0 1-.2.2c-.184-.079-.131-.22-.107-.316a10.5 10.5 0 0 0 .166-3.838 8.74 8.74 0 0 1-.043-1.56 9.284 9.284 0 0 0-.643-3.48c-.337-1.033-.636-2.08-.952-3.121-.051-.167-.029-.294.214-.326a2.016 2.016 0 0 1 .187.371 10.544 10.544 0 0 0 1.08 2.59 6.79 6.79 0 0 1 .885 2.655 11.121 11.121 0 0 0 .276 1.38 6.679 6.679 0 0 1 .093 2.74zm7.743-2.731a7.633 7.633 0 0 1-4.866-1.554c-.385-.308-.834-.54-1.2-.863a3.928 3.928 0 0 1-1.077-1.214c-.3-.627-.632-1.238-.981-1.837a26.068 26.068 0 0 0-1-1.557.986.986 0 0 1-.182-.879 1.159 1.159 0 0 1 .22.187c.576.776 1.19 1.52 1.707 2.344a9.37 9.37 0 0 0 3.056 3 19.121 19.121 0 0 0 4.436 2.073 2.926 2.926 0 0 1 .276.1c.02.008.032.036.132.158a4.474 4.474 0 0 1-.518.05zm2.244-.891a19.38 19.38 0 0 1-1.551-.431c-.586-.2-1.156-.443-1.734-.666a15.667 15.667 0 0 1-2.886-1.531 9.191 9.191 0 0 1-1.978-1.793q-.96-1.134-1.929-2.261a3.44 3.44 0 0 1-.25-.458c.456.293.751.5 1.06.678.877.514 1.761 1.017 2.639 1.528.643.374 1.287.748 1.922 1.135a12.377 12.377 0 0 0 1.968 1.041 3.031 3.031 0 0 1 .6.3 9.091 9.091 0 0 0 2.3 1.033c.043.014.075.061.137.113a2.689 2.689 0 0 1-.295 1.32zm.381-2.052a1.082 1.082 0 0 1-.281-.123 6.525 6.525 0 0 0-1.818-1.139 24.626 24.626 0 0 1-2.768-1.44q-1.8-1.035-3.614-2.051a13.321 13.321 0 0 1-2.1-1.526 1.219 1.219 0 0 1-.167-.241.936.936 0 0 1 .685-.019 32.768 32.768 0 0 1 4.791 1.581c.73.3 1.466.6 2.2.895a5.186 5.186 0 0 1 1.532.9 10.019 10.019 0 0 1 .758.812c.116.129.206.284.33.4A1.931 1.931 0 0 1 47.5 29.4z"/><path d="M29.044 23.519a3.786 3.786 0 0 0 1.732.333 1.437 1.437 0 0 0 .7-.213c.31-.179.484-.51.767-.689a1.527 1.527 0 0 0 .637-1.027 2.751 2.751 0 0 0 .125-.5 1.5 1.5 0 0 0-.049-.58 1.829 1.829 0 0 1 .028-1.5.509.509 0 0 0 .054-.287 2.389 2.389 0 0 0-1.216-1.856 3.38 3.38 0 0 0-3.214.056 1.881 1.881 0 0 0-.8.758 4.207 4.207 0 0 0-.569 2.043 4.917 4.917 0 0 0 .291 1.823 2.734 2.734 0 0 0 1.514 1.639z"/></svg>