<svg height="60" viewBox="0 0 60 60" width="60" xmlns="http://www.w3.org/2000/svg"><path d="M35.965 25.509c-.044-.363-.1-.725-.158-1.087-.112-.745-.205-1.494-.346-2.233-.076-.4-.266-.777-.35-1.177a12.235 12.235 0 0 0-.982-2.558 6.259 6.259 0 0 0-.662-1.04 1.581 1.581 0 0 0-.737-.587 3.979 3.979 0 0 0 .209.585 13.8 13.8 0 0 0 .82 1.348 3.486 3.486 0 0 1 .542 1.1 15.334 15.334 0 0 1 .763 3.257 1.317 1.317 0 0 0 .078.262 10.744 10.744 0 0 1 .264 2.377 9 9 0 0 1-.15 2.308.905.905 0 0 0-.025.2c-.012.777-.011 1.554-.036 2.331-.017.5-.06 1.005-.112 1.506-.057.546-.166 1.087-.2 1.634a16.56 16.56 0 0 1-.6 3.645 14.662 14.662 0 0 0-.438 1.8 19.738 19.738 0 0 1-.678 2.583 3.953 3.953 0 0 1-.145.385c-.307.712-.658 1.408-.914 2.138a24.651 24.651 0 0 1-1.164 2.479 7.336 7.336 0 0 0-.794 1.813.25.25 0 0 1-.042.129 3.361 3.361 0 0 0-.595 1.072q-.792 1.479-1.544 2.981a18.794 18.794 0 0 1-2.212 3.625 8.456 8.456 0 0 0-.5.739 1.831 1.831 0 0 0 .571.594.606.606 0 0 0 .945-.138 4.906 4.906 0 0 0 .829-1.414 5.074 5.074 0 0 1 .256-.562c.537-1.009 1.088-2.012 1.616-3.027.338-.649.669-1.3.957-1.975.468-1.094.9-2.2 1.344-3.306.248-.615.511-1.225.737-1.847.266-.731.486-1.477.75-2.208.288-.8.6-1.58.9-2.37.18-.47.385-.931.531-1.411.265-.874.513-1.753.736-2.639a28.676 28.676 0 0 0 .862-6.592c.011-.733.017-1.469-.035-2.2-.064-.841-.188-1.68-.291-2.52z" fill="#344a3d"/><path d="M40.437 19.16c.143-.233.326-.442.487-.665a2.355 2.355 0 0 0 .262-.4c.228-.524.449-1.051.654-1.585a2.993 2.993 0 0 0 .1-1.422.3.3 0 0 0-.451-.264 4.148 4.148 0 0 0-1.435.775A9.963 9.963 0 0 0 37.4 19.7a4.919 4.919 0 0 0-.314 1.4 3.1 3.1 0 0 1-.139.449 1.824 1.824 0 0 0 .013.391 2.759 2.759 0 0 0 .279-.079 6.893 6.893 0 0 0 3.198-2.701z" fill="#88c4b2"/><path d="M32.693 53.625a3.474 3.474 0 0 0 3.323 1.515.49.49 0 0 0 .482-.367c-.25-.453-.46-.83-.665-1.209-.131-.241-.271-.479-.38-.731a4.523 4.523 0 0 0-.842-1.072c-.131-.154-.4-.185-.61-.279-.187-.085-.364-.2-.556-.267-.321-.12-.646-.231-.976-.318a.674.674 0 0 0-.659.115.641.641 0 0 0-.046.187 2.889 2.889 0 0 0 .617 1.978 4.6 4.6 0 0 1 .312.448z" fill="#344a3d"/><path d="M33.536 30.845c-.046-.05-.089-.105-.138-.153a24.955 24.955 0 0 0-2.338-2.5c-.236-.176-.43-.406-.657-.6a.509.509 0 0 0-.3-.129 16.032 16.032 0 0 0-1.625.083 2.424 2.424 0 0 0-1.251.661 1.606 1.606 0 0 0-.018.353 3.386 3.386 0 0 0 1.2 2.017 9.339 9.339 0 0 0 1.242.864 3.144 3.144 0 0 0 .685.3 14.684 14.684 0 0 0 2.471.528c.334.051.666.116 1.016.177a1.493 1.493 0 0 0-.287-1.601z" fill="#88c4b2"/><path d="M32.92 21.507a2.061 2.061 0 0 0-1.243-.5c-.681-.056-1.365-.066-2.048-.085A.871.871 0 0 0 29.3 21c-.446.176-.9.345-1.33.547a7.185 7.185 0 0 0-.729.43c-.033.213-.062.371-.079.53-.012.114 0 .229-.01.343a1.73 1.73 0 0 0 1.759 1.85c.39-.008.781.014 1.169-.006a3.156 3.156 0 0 0 .807-.124 7.616 7.616 0 0 0 2.656-1.662 1.958 1.958 0 0 0-.623-1.401zm-.562 19.305a4.015 4.015 0 0 0-.149-.876 6.932 6.932 0 0 0-.414-1.01c-.14-.284-.324-.547-.49-.818-.262-.426-.567-.82-.8-1.269a3.6 3.6 0 0 0-1.011-1.011c-1.023-.845-1.2-.626-2.142-.519a1.569 1.569 0 0 0-.515.178.492.492 0 0 0-.3.5 3 3 0 0 0 .588 1.646 2.886 2.886 0 0 1 .378.569 5.831 5.831 0 0 0 1.942 1.965 1.92 1.92 0 0 0 .672.331 8.848 8.848 0 0 1 2.136.789 1.8 1.8 0 0 0 .105-.475z" fill="#344a3d"/><path d="M29.237 47.538a4.834 4.834 0 0 0-.913-1.663 6.994 6.994 0 0 1-.482-.578 3.613 3.613 0 0 0-1.97-1.38.932.932 0 0 0-.907.127 1.432 1.432 0 0 0 .046.729c.15.454.3.907.474 1.355a2.933 2.933 0 0 0 1.558 1.723 4.8 4.8 0 0 0 2.024.406c.259-.431.267-.433.17-.719z" fill="#88c4b2"/><path d="M32.859 11.32a3.073 3.073 0 0 1-.133-.389 9.929 9.929 0 0 0-.361-1.031 12.365 12.365 0 0 0-1.554-2.581c-.232-.284-.481-.554-.714-.836a19.451 19.451 0 0 0-2.4-2.351 4.68 4.68 0 0 0-2.455-.972.8.8 0 0 0-.952.569 1.57 1.57 0 0 0-.012 1.077c.139.412.278.823.425 1.232a1.257 1.257 0 0 0 .161.3c.171.243.371.468.521.723a1.749 1.749 0 0 0 1.1.953l.132.617a4.13 4.13 0 0 1-.444.538 8.352 8.352 0 0 1-.712.5c-.42-.044-.869.138-1.2-.17-.2.027-.256.259-.466.169-.084-.037-.209.014-.314.033-.29.05-.578.119-.869.155a1.437 1.437 0 0 0-.96.467c-.26.292-.372.526-.238.838a4.117 4.117 0 0 0 1.334 1.794 1.407 1.407 0 0 0 .734.337 2.084 2.084 0 0 1 .693.243 2.348 2.348 0 0 1-.759.437c-.508.124-1 .295-1.513.421a.849.849 0 0 0-.655.709 1.391 1.391 0 0 0 .237 1.174 3.287 3.287 0 0 0 1.11 1A5.455 5.455 0 0 0 26.02 18a2.1 2.1 0 0 1 .412-.02 3.879 3.879 0 0 0 1.346-.224 4.327 4.327 0 0 1 .594-.168 6.9 6.9 0 0 0 1.578-.46 6.316 6.316 0 0 0 2.065-1.2 2.216 2.216 0 0 0 .476-.579 5.266 5.266 0 0 0 .546-1.471 4.133 4.133 0 0 0-.178-2.558zm-1.739 3.137a1.614 1.614 0 0 1-.884.726 4.759 4.759 0 0 1-1.538.3 2.462 2.462 0 0 0-.673.081 1.971 1.971 0 0 1-1.334-.143 1.537 1.537 0 0 1-.841-1.182.428.428 0 0 1 .353-.565c.055-.01.1-.079.166-.137a2.389 2.389 0 0 1-.173-1.4c.065-.483.123-.675.741-.832a7.31 7.31 0 0 1 .78-.107v-1.066c.349-.23.661-.457.992-.651a1.407 1.407 0 0 1 1.824.383 4.7 4.7 0 0 1 1.05 2.9 2.825 2.825 0 0 1-.463 1.693z" fill="#5d7eb7"/><path d="M43.094 28.862a3.178 3.178 0 0 0-.665-.154 1.563 1.563 0 0 0-.6.073c-.347.117-.679.277-1.019.413a4.547 4.547 0 0 0-1.764 1.274 9.949 9.949 0 0 0-1.424 2.268c.335.083.592.17.857.208a4.351 4.351 0 0 0 1.776-.052A6.245 6.245 0 0 0 42.4 31.85a2.721 2.721 0 0 0 1.2-2.206.715.715 0 0 0-.506-.782z" fill="#344a3d"/><path d="M34.6 45.241a2.193 2.193 0 0 0 .407.453c.376.331.763.649 1.152.965a2.134 2.134 0 0 0 .351.208 9.26 9.26 0 0 0 2.932.9 3.1 3.1 0 0 0 1.983-.321 1.321 1.321 0 0 0 .736-.926c.033-.133.051-.269.078-.4a.815.815 0 0 0-.14-.647c-.347-.51-.672-1.035-1.019-1.544a3.978 3.978 0 0 0-1.68-1.469 1.714 1.714 0 0 0-.66-.154 5.6 5.6 0 0 0-2.449.558c-.521.232-1.025.5-1.532.75-.086.2-.175.386-.246.578a1.132 1.132 0 0 0 .087 1.049z" fill="#88c4b2"/><path d="M43.332 27.69a8.57 8.57 0 0 1-1.355.192 3.33 3.33 0 0 0-.466.1 7.331 7.331 0 0 0-3.49 2.213c-.082.093-.138.261-.371.137 0-.2-.017-.428 0-.651a26.746 26.746 0 0 0-.031-3.35 8.686 8.686 0 0 0-.028-.956c-.089-.61-.233-1.213-.325-1.823-.046-.307-.225-.6-.11-.953a2.069 2.069 0 0 1 .322-.088 4.258 4.258 0 0 0 1.8-.64c.563-.346 1.085-.76 1.613-1.16a2.783 2.783 0 0 0 .6-.562c.37-.514.7-1.055 1.049-1.588a1.527 1.527 0 0 0 .1-.256c.193-.487.418-.965.57-1.465a3.729 3.729 0 0 0 .166-1.14 4.35 4.35 0 0 0-.233-1 .879.879 0 0 0-.288-.553c-.073-.013-.165-.021-.252-.045a3.638 3.638 0 0 0-3.46.848 8.229 8.229 0 0 0-2.643 4.173c-.039.138-.084.275-.156.511-.147-.33-.263-.552-.346-.786a11.31 11.31 0 0 0-1.413-2.659c-.272-.39-.6-.74-.916-1.125a11.491 11.491 0 0 1 .412-1.15 1.169 1.169 0 0 0 .124-.66 10.394 10.394 0 0 0-.261-1.621c-.219-.744-.543-1.456-.792-2.192-.222-.654-.7-1.171-.939-1.814a2.414 2.414 0 0 0-.441-.684c-.787-.918-1.526-1.879-2.372-2.743a7.723 7.723 0 0 0-3.487-2.08 1.357 1.357 0 0 0-.538-.03 4.029 4.029 0 0 0-1.326.535 1.9 1.9 0 0 0-.7.632 2.524 2.524 0 0 0-.408 1.9 6.675 6.675 0 0 0 .98 2.532c.068.114.175.219.065.354-.362.083-.718.158-1.07.248A11.01 11.01 0 0 0 21.8 8.6a5.918 5.918 0 0 0-1.047.5 1.267 1.267 0 0 0-.5.543 2.756 2.756 0 0 0-.174 1.685 3.023 3.023 0 0 0 .8 1.5c.091.089.228.156.211.3a4.473 4.473 0 0 0-.55.632 3.776 3.776 0 0 1-.383.555 1.013 1.013 0 0 0-.21.7 3.359 3.359 0 0 0 .9 2.082 5.425 5.425 0 0 0 1.244 1.07 4.727 4.727 0 0 0 1.968.754 12.353 12.353 0 0 0 4.16-.229 8.572 8.572 0 0 0 2.766-.973 4.413 4.413 0 0 1 .582-.227 9.039 9.039 0 0 0 1.109 2.4c-.352-.02-.6-.056-.851-.044-.75.039-1.5.079-2.249.152a4.862 4.862 0 0 0-2.491 1.061 1.893 1.893 0 0 0-.624.8 3.694 3.694 0 0 0-.223 1.685 1.409 1.409 0 0 0 .176.58 2.425 2.425 0 0 0 1.682 1.183 13.4 13.4 0 0 0 1.777.184 4.189 4.189 0 0 0 2.729-.749c.289-.222.568-.457.854-.683.1-.08.184-.214.362-.127a.718.718 0 0 1 .079.171c.115.7.258 1.4.325 2.1a9.132 9.132 0 0 1-.039 1.44c-.039.594-.1 1.186-.153 1.779a.088.088 0 0 1-.031.056.535.535 0 0 1-.107.047 4.039 4.039 0 0 1-.392-.327c-.172-.184-.322-.388-.484-.581a7.568 7.568 0 0 0-2.282-1.847 2.4 2.4 0 0 0-1.389-.268 7.017 7.017 0 0 0-2.018.631.982.982 0 0 0-.544.5c-.177.4-.387.782-.522 1.192a1.229 1.229 0 0 0 .064 1.055 4.943 4.943 0 0 0 .942 1.176c.26.225.529.441.77.685a3.107 3.107 0 0 0 1.355.783c.721.217 1.452.4 2.183.582a3.6 3.6 0 0 0 1.565.124 1.089 1.089 0 0 1 .206-.005c.356.011.457.126.412.465-.033.248-.071.495-.1.744-.115 1.023-.2 2.051-.4 3.062-.016.082 0 .192-.113.215-.033 0-.066.009-.074 0a21.635 21.635 0 0 1-1.768-2.26 3.114 3.114 0 0 0-1.051-1.065 6.3 6.3 0 0 1-.575-.374 1.144 1.144 0 0 0-.9-.235 6.091 6.091 0 0 0-1.141.209 7.107 7.107 0 0 0-1.091.566.612.612 0 0 0-.173.209c-.15.23-.3.458-.439.7a3.471 3.471 0 0 0-.262.555c-.1.3-.189.61-.276.918a.489.489 0 0 0-.029.259 5.971 5.971 0 0 0 .7 1.7c.211.3.448.579.673.868a5.179 5.179 0 0 0 2.126 1.579 9.046 9.046 0 0 0 2.712.69c.111.01.222.028.369.047-.054.178-.088.333-.147.476-.422 1.014-.963 1.975-1.322 3.017a1.6 1.6 0 0 1-.487.778 5.546 5.546 0 0 0-1.09-2.06 10.369 10.369 0 0 0-.885-.954 2.193 2.193 0 0 0-2.206-.748 2.186 2.186 0 0 1-.411.034 1.14 1.14 0 0 0-.731.334 5.469 5.469 0 0 0-.89 1.678.991.991 0 0 0-.037.2 4.836 4.836 0 0 0 .5 2.252 4.3 4.3 0 0 0 3.145 2.095c.374.073.755.11 1.164.168a12.057 12.057 0 0 1-.762 1.659c-.524 1.044-1.041 2.09-1.575 3.128a52.128 52.128 0 0 1-1.051 1.93c-.193.337-.436.645-.636.979a.806.806 0 0 0 .321 1.211 4.251 4.251 0 0 0 .474.269 1.212 1.212 0 0 0 .522.122 2.364 2.364 0 0 0 1.589-.715 5.463 5.463 0 0 0 1-1.553 13.809 13.809 0 0 1 1.06-2c.328-.494.581-1.038.871-1.558a3.113 3.113 0 0 1 .206-.281c.077.265.14.461.191.659a3.979 3.979 0 0 0 2.811 2.848 4.449 4.449 0 0 0 1.408.263 3.529 3.529 0 0 0 2.392-1.056.8.8 0 0 0 .255-.741 1.577 1.577 0 0 0-.27-.889 1.036 1.036 0 0 1-.116-.318 3.194 3.194 0 0 0-.969-1.622 3.927 3.927 0 0 1-.326-.353 2.246 2.246 0 0 0-.41-.35 5.185 5.185 0 0 0-2.839-.9c-.2.009-.408.026-.612.035h-.362a2.615 2.615 0 0 1 .091-.369c.148-.36.315-.712.459-1.073.331-.829.652-1.661.98-2.491.047-.119.063-.274.276-.276.048.051.112.114.171.181a6.924 6.924 0 0 0 3.441 2.271c.177.049.349.114.522.173a6.574 6.574 0 0 0 2.85.212 1 1 0 0 0 .2-.052 5.381 5.381 0 0 0 2.057-1.2 2.146 2.146 0 0 0 .733-1.342 2.694 2.694 0 0 0-.467-2.011c-.319-.444-.69-.851-1.037-1.275a.653.653 0 0 1-.149-.211 1.693 1.693 0 0 0-1.169-1.149 4.024 4.024 0 0 0-1.334-.243 7.145 7.145 0 0 0-2.94.554c-.545.229-1.078.483-1.638.736a1.179 1.179 0 0 1 .145-.87c.347-.846.715-1.684 1.069-2.527a3.894 3.894 0 0 0 .178-.517c.154-.6.271-1.208.454-1.8.245-.786.288-1.62.594-2.39a1.82 1.82 0 0 0 .025-.272 1.327 1.327 0 0 1 .208-.59c.79.1 1.539.2 2.29.273a3.22 3.22 0 0 0 1.3-.1 6.857 6.857 0 0 0 2.688-1.467 2.986 2.986 0 0 0 .986-1.911 3.313 3.313 0 0 1 .154-.736 1.5 1.5 0 0 0-.266-1.49 1.09 1.09 0 0 0-1.26-.464zM31.81 51.012a.673.673 0 0 1 .659-.115c.33.087.655.2.976.318.192.071.369.182.556.267.205.094.479.125.61.279a4.523 4.523 0 0 1 .842 1.072c.109.252.249.49.38.731.2.379.415.756.665 1.209a.49.49 0 0 1-.482.367 3.474 3.474 0 0 1-3.323-1.515 4.6 4.6 0 0 0-.312-.448 2.889 2.889 0 0 1-.617-1.978.641.641 0 0 1 .046-.187zm.681-35.664a2.216 2.216 0 0 1-.476.579 6.3 6.3 0 0 1-2.065 1.2 6.9 6.9 0 0 1-1.578.46 4.327 4.327 0 0 0-.594.168 3.879 3.879 0 0 1-1.346.224 2.1 2.1 0 0 0-.412.02 5.462 5.462 0 0 1-3.425-.721 3.285 3.285 0 0 1-1.11-1 1.392 1.392 0 0 1-.239-1.176.849.849 0 0 1 .655-.709c.508-.126 1-.3 1.513-.421a2.348 2.348 0 0 0 .759-.437 2.084 2.084 0 0 0-.693-.243 1.407 1.407 0 0 1-.734-.337 4.127 4.127 0 0 1-1.334-1.794c-.134-.312-.022-.546.238-.838a1.437 1.437 0 0 1 .96-.467c.291-.036.579-.1.869-.155.1-.019.23-.07.314-.033.21.09.266-.142.466-.169.335.308.784.126 1.2.17a8.352 8.352 0 0 0 .712-.5 4.13 4.13 0 0 0 .444-.538 98.557 98.557 0 0 0-.132-.617 1.759 1.759 0 0 1-1.1-.953c-.15-.255-.35-.48-.521-.723a1.257 1.257 0 0 1-.161-.3c-.147-.409-.286-.82-.425-1.232a1.57 1.57 0 0 1 .012-1.077.8.8 0 0 1 .952-.569 4.67 4.67 0 0 1 2.455.972A19.592 19.592 0 0 1 30.1 6.48c.233.282.482.552.714.836A12.469 12.469 0 0 1 32.363 9.9a9.537 9.537 0 0 1 .361 1.032 3.073 3.073 0 0 0 .133.389 4.155 4.155 0 0 1 .178 2.557 5.235 5.235 0 0 1-.544 1.473zm-1.6 9.228a3.2 3.2 0 0 1-.807.124c-.388.02-.779 0-1.169.006a1.73 1.73 0 0 1-1.764-1.855c.009-.114 0-.229.01-.343.017-.159.046-.317.079-.53a7.244 7.244 0 0 1 .729-.437c.435-.2.884-.371 1.33-.547a.89.89 0 0 1 .334-.076c.683.019 1.367.029 2.048.085a2.055 2.055 0 0 1 1.243.5 1.959 1.959 0 0 1 .623 1.407 7.568 7.568 0 0 1-2.66 1.665zm1.909 7.691a14.552 14.552 0 0 1-2.471-.528 3.144 3.144 0 0 1-.685-.3 9.412 9.412 0 0 1-1.239-.856 3.386 3.386 0 0 1-1.2-2.017 1.606 1.606 0 0 1 .018-.353 2.428 2.428 0 0 1 1.251-.661 16.032 16.032 0 0 1 1.625-.083.509.509 0 0 1 .3.129c.227.19.421.42.657.6A23.62 23.62 0 0 1 33.4 30.7c.049.048.092.1.138.153a1.483 1.483 0 0 1 .278 1.6c-.353-.068-.685-.133-1.019-.184zm-2.686 8.228a1.92 1.92 0 0 1-.672-.331A5.786 5.786 0 0 1 27.5 38.2a2.886 2.886 0 0 0-.378-.569 2.97 2.97 0 0 1-.588-1.646.5.5 0 0 1 .3-.5 1.569 1.569 0 0 1 .515-.178c.947-.107 1.119-.326 2.142.519a3.553 3.553 0 0 1 1.009 1.01c.231.449.536.843.8 1.269.166.271.35.534.49.818a6.932 6.932 0 0 1 .414 1.01 4.015 4.015 0 0 1 .149.876 1.727 1.727 0 0 1-.106.472 8.933 8.933 0 0 0-2.131-.786zm-3.07 7.351a2.933 2.933 0 0 1-1.558-1.723c-.169-.448-.324-.9-.474-1.355a1.432 1.432 0 0 1-.046-.729.934.934 0 0 1 .907-.127 3.618 3.618 0 0 1 1.97 1.38 6.994 6.994 0 0 0 .482.578 4.831 4.831 0 0 1 .913 1.668c.1.286.089.288-.17.714a4.759 4.759 0 0 1-2.022-.406zm7.717-4.236c.507-.249 1.011-.518 1.532-.75a5.6 5.6 0 0 1 2.449-.558 1.714 1.714 0 0 1 .66.154 3.978 3.978 0 0 1 1.684 1.464c.347.509.672 1.034 1.019 1.544a.816.816 0 0 1 .14.647c-.027.135-.045.271-.078.4a1.321 1.321 0 0 1-.736.926 3.108 3.108 0 0 1-1.987.325 9.235 9.235 0 0 1-2.932-.9 2.134 2.134 0 0 1-.351-.208 37.933 37.933 0 0 1-1.152-.965 2.193 2.193 0 0 1-.407-.453 1.134 1.134 0 0 1-.091-1.053c.072-.192.161-.378.247-.578zm1.528-13.38a28.676 28.676 0 0 1-.862 6.592 57.289 57.289 0 0 1-.736 2.639c-.146.48-.351.941-.531 1.411-.3.79-.616 1.575-.9 2.37-.264.731-.484 1.477-.75 2.208-.226.622-.489 1.232-.737 1.847-.445 1.1-.876 2.212-1.344 3.306a29.188 29.188 0 0 1-.957 1.975c-.528 1.015-1.079 2.018-1.616 3.027a5.074 5.074 0 0 0-.256.562 4.906 4.906 0 0 1-.829 1.414.606.606 0 0 1-.945.138 1.835 1.835 0 0 1-.582-.594c.17-.252.317-.512.5-.739a18.7 18.7 0 0 0 2.212-3.625q.753-1.5 1.544-2.981a3.323 3.323 0 0 1 .6-1.072c.029-.026.034-.084.042-.129a7.287 7.287 0 0 1 .794-1.813 25.8 25.8 0 0 0 1.164-2.479c.256-.73.607-1.426.914-2.138a3.953 3.953 0 0 0 .145-.385 19.821 19.821 0 0 0 .678-2.583 14.662 14.662 0 0 1 .438-1.8 16.679 16.679 0 0 0 .6-3.645c.038-.547.147-1.088.2-1.634.052-.5.095-1 .112-1.506.025-.777.024-1.554.036-2.331a.905.905 0 0 1 .025-.2 9 9 0 0 0 .15-2.308 10.8 10.8 0 0 0-.249-2.377 1.317 1.317 0 0 1-.078-.262 14.978 14.978 0 0 0-.763-3.257 3.486 3.486 0 0 0-.542-1.1 13.8 13.8 0 0 1-.82-1.348 3.979 3.979 0 0 1-.209-.585 1.581 1.581 0 0 1 .737.587 6.259 6.259 0 0 1 .662 1.04 12.518 12.518 0 0 1 .982 2.558c.084.4.274.777.35 1.177.141.739.234 1.488.346 2.233.054.362.114.724.158 1.087.1.84.227 1.679.288 2.522.048.729.042 1.465.031 2.2zm.652-8.682a3.39 3.39 0 0 0 .139-.449 4.919 4.919 0 0 1 .314-1.4 9.963 9.963 0 0 1 2.659-4.1 4.148 4.148 0 0 1 1.435-.775.3.3 0 0 1 .451.264 2.943 2.943 0 0 1-.1 1.422c-.2.534-.426 1.061-.654 1.585a2.355 2.355 0 0 1-.262.4c-.161.223-.344.432-.487.665a6.917 6.917 0 0 1-3.205 2.7 2.759 2.759 0 0 1-.279.079 1.824 1.824 0 0 1-.014-.391zm5.464 10.3a6.245 6.245 0 0 1-2.149 1.042 4.353 4.353 0 0 1-1.776.052c-.265-.038-.522-.125-.857-.208a9.949 9.949 0 0 1 1.424-2.268 4.55 4.55 0 0 1 1.765-1.274c.34-.136.672-.3 1.019-.413a1.563 1.563 0 0 1 .6-.073 3.178 3.178 0 0 1 .665.154.712.712 0 0 1 .509.782 2.732 2.732 0 0 1-1.2 2.208z"/><path d="M30.533 9.864a1.407 1.407 0 0 0-1.824-.383c-.331.194-.643.421-.992.651V11.2a7.31 7.31 0 0 0-.78.107c-.618.157-.677.349-.741.832a2.4 2.4 0 0 0 .173 1.4c-.067.058-.111.127-.166.137a.43.43 0 0 0-.353.565 1.532 1.532 0 0 0 .841 1.182 1.971 1.971 0 0 0 1.334.143 2.462 2.462 0 0 1 .673-.081 4.641 4.641 0 0 0 1.538-.3 1.614 1.614 0 0 0 .884-.726 2.823 2.823 0 0 0 .463-1.69 4.7 4.7 0 0 0-1.05-2.905z"/></svg>