<svg height="60" viewBox="0 0 60 60" width="60" xmlns="http://www.w3.org/2000/svg"><path d="M12.324 18.05c-.086-.643.058-1 .663-1.224-.377-.513-.315-.864.254-1.06.307-.105.613-.217.911-.347a6.35 6.35 0 0 1 5.615-.061c.333.164.693.271 1.129.439.413-.462.76-.865 1.123-1.252a19.126 19.126 0 0 1 1.887-1.94 31.175 31.175 0 0 1 2.712-1.794c.446-.284.552-.5.26-.91a5.254 5.254 0 0 0-3.817-2.337 7.227 7.227 0 0 0-4.061.63 5.718 5.718 0 0 0-2.731 2.182 1.3 1.3 0 0 1-.6.573c-.6.233-.839.786-1.213 1.219-.14.163-.247.408-.424.479-.753.3-.9 1.052-1.255 1.64-.384.642-.683 1.336-1.016 2.009a4.824 4.824 0 0 0-.872 2.914 1.6 1.6 0 0 1-.127.541c-.076.321-.148.643-.224.974l1.559-.148a4.476 4.476 0 0 0 .227-2.527z" fill="#e88b7f"/><path d="M12.258 30.1a1.911 1.911 0 0 0 .327-.456c.261-.432.512-.869.791-1.346l.443.07a2.538 2.538 0 0 0-.171-2.076c-.211-.329-.228-.779-.42-1.126-.334-.6-.13-1.488-1.007-1.79.051-.169.086-.283.12-.4s.062-.2.1-.321c-.1-.009-.14-.023-.164-.012a.872.872 0 0 0-.155.1 5.439 5.439 0 0 0-2.014 4.167 3.946 3.946 0 0 0 1.258 3.19c.309.34.606.257.892 0z" fill="#ee7558"/><path d="M38.9 13.074c.368-.27.548-.815 1.15-.755.06.006.152-.237.216-.371a2.471 2.471 0 0 1 .357-.738c.158-.151.462-.149.8-.24.367-.975 1.891-.835 2.314-1.969.47.063.9.114 1.329.185.079.013.144.109.228.177-.485.575-.984 1.12-1.43 1.707-.749.985-1.4 2.052-2.215 2.978a8.927 8.927 0 0 0-1.447 1.935c-.1.2-.369.314-.692.572a5.107 5.107 0 0 0 .341 1.232c.231.426-.481.992.374 1.338a27.916 27.916 0 0 0 2.718-1.131c.891-.475 1.684-1.11 2.564-1.7l-.344-.218a6.95 6.95 0 0 1 .945-.869c.44-.276.395-.781.667-1.132.6-.775 1.161-1.581 1.727-2.382.1-.144.251-.374.2-.483-.223-.485.078-.867.171-1.291A1.512 1.512 0 0 1 49.7 8.68c.091-.041.112-.244.164-.369l-.64-.211a1.253 1.253 0 0 0 .268-1.779c.543-.314.528-.747.406-1.274a6.735 6.735 0 0 1-.021-1.43A6.968 6.968 0 0 0 46.76 4a8.806 8.806 0 0 0-3.079 1.737.654.654 0 0 1-.241.145 4.809 4.809 0 0 0-1.9 1.588 16.911 16.911 0 0 0-1.44 2.069 19.554 19.554 0 0 0-1.311 2.686c-.156.4-.289.653-.782.6.242.614.571.489.893.249z" fill="#2f472e"/><path d="M33.7 29.988c-.888.827-1.422 1.108-3.086.234-.641-.337-.987-.222-.988.488 0 1.326-.3 2.636-.177 3.967a1.064 1.064 0 0 1-.067.361c-.168.587-.34 1.172-.53 1.823a3.947 3.947 0 0 0 3.259.564 9.371 9.371 0 0 1 1.076-.335 5.224 5.224 0 0 0 3.742-2.576c.3-.547.828-.962.874-1.685a2.981 2.981 0 0 1 .492-1.585 1.4 1.4 0 0 0 .3-1.319 1.2 1.2 0 0 1 .051-.557 4.582 4.582 0 0 0-1.009-4.336 5.96 5.96 0 0 1-.307 1.119 6.077 6.077 0 0 1-1.015 1.649c-.81.792-1.791 1.413-2.615 2.188z" fill="#ee7558"/><g fill="#e88b7f"><path d="M36.524 21.457c-.38.359-.486.7-.164 1.1.001-.352.631-.6.164-1.1z"/><path d="M25.905 14.629c-.076.188-.278.325-.424.485-.356.39-.741.758-1.061 1.176-.4.52-.754 1.074-1.107 1.627a3.264 3.264 0 0 0-.232.6c.335.084.6.161.877.218a2.946 2.946 0 0 0 .364.014 1.13 1.13 0 0 1 1.132 1.087c.041.739.006 1.483 0 2.225v2.16c.187-.062.36-.128.538-.178a14.314 14.314 0 0 1 1.811-.489c.95-.14 1.936-.3 2.707.536.881.087 1.206.789 1.579 1.434.1.177.182.368.339.691a8.3 8.3 0 0 0 1.234-1.253 5.143 5.143 0 0 1 2.672-2.388c-.354-.106-.809.193-1.043-.21.3-.7.611-1.338.843-2.008a11.956 11.956 0 0 0 .579-4.053c-.023-2.21-.55-3.627-2.838-4.465a6.279 6.279 0 0 0-5.012.336c-.6.292-1.095.811-1.677 1.161a2.767 2.767 0 0 0-1.281 1.294zm-6.161 2.88a2.107 2.107 0 0 0-2.412-.994c-.612.079-1.374.182-1.625.912a11.433 11.433 0 0 0-.625 2.448 13.909 13.909 0 0 0 .894 5.52 10.161 10.161 0 0 0 .827 1.582c.343-.313.644-.474.759-.721a1.4 1.4 0 0 1 .615-.777.576.576 0 0 0 .306-.339c.1-.833.822-1.117 1.361-1.578l-.212-.405.725-.146a4.187 4.187 0 0 1 1.23-2.992 24.28 24.28 0 0 1-1.843-2.51z"/></g><path d="M19.746 26.965c-.453 1.162-.914 2.328-1.26 3.525a3.048 3.048 0 0 0 .527 2.494c.4.631.679.644 1.323.225a8.016 8.016 0 0 0 2.287-2.576 1.106 1.106 0 0 0 .012-1.308c-.1-.15-.205-.292-.407-.577l.7.24.12-.16-2.712-2.545c-.212.236-.489.424-.59.682z" fill="#ee7558"/><path d="m26.612 40.77-.6.23a1.946 1.946 0 0 1-1.538 1.752c-1.071.349-1.413.891-1.073 1.966.205.65.378 1.311.554 1.971.383 1.433.394 2.958 1.094 4.318.1.2-.029.509-.05.748-.791.148-1.224-.342-1.726-.624-.741-.416-.8-.681-.688-1.545a3.1 3.1 0 0 0-.165-1.064 5.2 5.2 0 0 0-.245-.482c-.493-1.365-.978-2.733-1.431-4.005l-2.3.163c-.04.253-.064.494-.117.73a15.608 15.608 0 0 0-.412 1.789 9.933 9.933 0 0 0 1.395 6.242 8.088 8.088 0 0 0 2.427 2.78c.772.516.985.551 1.749-.028a10.117 10.117 0 0 0 2.807-3.564 5.671 5.671 0 0 0 .833-2.354c.006-.151.04-.368.14-.436.53-.357.336-.862.329-1.337a6.406 6.406 0 0 1 .063-.706l.56.125c-.22-.736-.462-1.359-.081-2a.586.586 0 0 0 .011-.37c-.178-.951-.339-1.906-.558-2.847a1.9 1.9 0 0 0-.978-1.452z" fill="#2f472e"/><path d="M29.665 26.657c.3-.44.381-1.517.139-1.679a1.578 1.578 0 0 0-1.679.072 73.232 73.232 0 0 0-3.061 1.587 10.379 10.379 0 0 0-1.2.908 3.346 3.346 0 0 0 1.536 1.242 4.827 4.827 0 0 0 2.213.025c.46-.049.749-.2.827-.709.031-.206.269-.387.428-.566a10.436 10.436 0 0 0 .797-.88zM18.661 42.265c.519-.1 1.063-.071 1.592-.136a3.989 3.989 0 0 0 2.913-1.514 13.745 13.745 0 0 1 1.012-1.459 6.121 6.121 0 0 0 1.246-1.945 11.9 11.9 0 0 0 .712-3.764c.054-.738.125-1.476.184-2.155l-1.473-.992c-.1.38-.191.645-.252.917a4.371 4.371 0 0 1-2.773 3.451 2.771 2.771 0 0 1-2.273-.021 5.786 5.786 0 0 1-2.888-2.832 2 2 0 0 1-.1-.775c-.008-.5.355-1.092-.244-1.587a2.775 2.775 0 0 0-.779.426c-.486.519-.916 1.093-1.357 1.654a1.287 1.287 0 0 0-.262.487 11.187 11.187 0 0 0-.242 5.07 8.1 8.1 0 0 0 2.2 4.16 2.982 2.982 0 0 0 2.784 1.015z" fill="#e88b7f"/><path d="M22.567 25.2a5.594 5.594 0 0 0 .955-5.215c-.19.29-.275.581-.46.675A2.025 2.025 0 0 0 22 22.817a9.151 9.151 0 0 1 .051 1.4.982.982 0 0 0 .516.983z" fill="#ee7558"/><path d="M36.355 22.557v.01l-.015.006a.06.06 0 0 1 .034.007c-.009-.005-.012-.012-.019-.023z" fill="#e88b7f"/><path d="M7.563 25.422a1.36 1.36 0 0 1 .172.546A4.074 4.074 0 0 0 8.559 29a9.1 9.1 0 0 0 2.8 2.606c-.916 1.079-.335 2.361-.612 3.5a.092.092 0 0 0 .041.08c.628.315.1.977.418 1.385-.31 1.262.445 2.21.966 3.22a9.416 9.416 0 0 0 2.94 3c.055.2-.344.44.067.683.471.278.292.593-.058.889a2.844 2.844 0 0 0-.4.6h.842l-.763.625c.144.4.4.849-.037 1.274-.066.064.018.281.033.428a1.786 1.786 0 0 1 .058.628 2.266 2.266 0 0 0 .267 1.631c.2.423.333.873.512 1.3 1.361 3.276 3.381 5.843 7.073 6.658a2.553 2.553 0 0 0 1.974-.3 11.076 11.076 0 0 0 3.383-3.466 27.355 27.355 0 0 0 1.728-3.614 10.725 10.725 0 0 0 .5-2.043 10.809 10.809 0 0 0 0-5.722 2.969 2.969 0 0 1-.211-.615 3.971 3.971 0 0 0-1.7-3c-.1-.084-.119-.273-.244-.587.516.244.847.415 1.188.56a6.037 6.037 0 0 0 3.665.495 8.33 8.33 0 0 0 1.167-.34c.822-.3 1.619-.681 2.454-.936.684-.208 1.06-.83 1.707-1.095.336-.137.558-.576.806-.9q.543-.7 1.048-1.431a6.833 6.833 0 0 0 1.466-3.854c.007-.681-.2-1.366-.171-2.045a9.328 9.328 0 0 0-.953-4.061c-.324-.745-.62-1.711-1.776-1.71.027-.185.043-.3.062-.422.123-.783.317-.883 1.033-.587a1.884 1.884 0 0 0 .806.178 8.323 8.323 0 0 0 4.939-1.774c.515-.429.927-.982 1.448-1.4a12.49 12.49 0 0 0 1.622-1.914c.617-.736.678-1.75 1.437-2.436a4.4 4.4 0 0 0 .911-1.77c.206-.564.256-1.182.413-1.766.111-.414.338-.8.421-1.217.251-1.245.464-2.5.676-3.75a3.383 3.383 0 0 0-1.512-3.551 6.17 6.17 0 0 0-5.073-.456 12.627 12.627 0 0 0-3.729 1.891c-.4.3-.915.427-.815 1.119-.6-.242-.806.22-1.1.5-.125.116-.194.377-.317.4-.6.1-.852.563-1.149.99-.237.343-.491.676-.7 1.033-.439.735-.886 1.469-1.272 2.232a.9.9 0 0 1-1.276.451 10.578 10.578 0 0 0-5.738-.994 1.733 1.733 0 0 1-1.542-.59 13.073 13.073 0 0 0-1.976-1.71 10.92 10.92 0 0 0-4.565-1.644c-1.234-.173-2.571-.383-3.589.707-.675-.508-1.052-.417-1.81.423l-.4-.345-1.188.8.253.725c-.383.523-.765.355-1.284-.067.132.434.2.648.278.919-.8.153-.555.951-.912 1.367a.766.766 0 0 0-1.068.428c-.128.487-.449.42-.733.468-.046.409.046.906-.159 1.126a3.538 3.538 0 0 0-.8 1.424c-.115.366-.576.525-.573 1.029 0 .337-.177.871-.421.974-.565.239-.3.718-.38 1.027a4.06 4.06 0 0 0-.208 2.714c.086.2.171.528-.281.5-.033 0-.107.128-.108.2-.006.4 0 .806.01 1.209a2.462 2.462 0 0 1-.334 1.641c-.535.716-.222 1.625-.583 2.374-.017.018.093.072.112.123zm6.115 11.666a11.184 11.184 0 0 1 .242-5.07 1.287 1.287 0 0 1 .262-.487c.441-.561.871-1.135 1.357-1.654a2.831 2.831 0 0 1 .779-.426c.6.5.236 1.089.244 1.587a1.8 1.8 0 0 0 .1.775 5.79 5.79 0 0 0 2.888 2.832 2.771 2.771 0 0 0 2.273.021 4.367 4.367 0 0 0 2.777-3.451c.061-.272.147-.537.252-.917l1.473.994c-.059.679-.13 1.417-.184 2.155a11.931 11.931 0 0 1-.712 3.764 6.111 6.111 0 0 1-1.247 1.946 14.522 14.522 0 0 0-1.012 1.459 3.989 3.989 0 0 1-2.913 1.514c-.529.065-1.073.033-1.592.136a2.988 2.988 0 0 1-2.786-1.017 8.124 8.124 0 0 1-2.201-4.161zM22 22.817a2.018 2.018 0 0 1 1.059-2.161c.185-.094.27-.385.46-.675a5.594 5.594 0 0 1-.955 5.215.981.981 0 0 1-.513-.976A10 10 0 0 0 22 22.817zm1.041 6.011-.12.16-.7-.24c.2.285.311.427.407.577a1.106 1.106 0 0 1-.012 1.308 8.028 8.028 0 0 1-2.287 2.576c-.644.419-.921.406-1.323-.225a3.048 3.048 0 0 1-.527-2.494c.346-1.2.807-2.363 1.26-3.525.1-.258.377-.446.586-.682zm-2.687-5.82-.725.149.212.408c-.539.461-1.256.745-1.361 1.578a.576.576 0 0 1-.306.339 1.4 1.4 0 0 0-.615.777c-.115.247-.416.408-.759.721a10.342 10.342 0 0 1-.827-1.582 13.815 13.815 0 0 1-.894-5.52 11.359 11.359 0 0 1 .625-2.448c.251-.73 1.013-.833 1.625-.912a2.107 2.107 0 0 1 2.412.994 24.072 24.072 0 0 0 1.843 2.507 4.175 4.175 0 0 0-1.23 2.989zm7.794 22.064a.586.586 0 0 1-.011.37c-.381.638-.139 1.261.081 2l-.56-.125a6.406 6.406 0 0 0-.063.706c.007.475.2.98-.329 1.337-.1.068-.134.285-.14.436a5.728 5.728 0 0 1-.826 2.354 10.039 10.039 0 0 1-2.807 3.564c-.764.579-.977.544-1.749.028a8.125 8.125 0 0 1-2.427-2.78 9.933 9.933 0 0 1-1.395-6.242 15.657 15.657 0 0 1 .412-1.789c.053-.236.077-.477.117-.73l2.3-.163c.453 1.272.938 2.64 1.431 4.005.061.168.2.312.245.482a3.1 3.1 0 0 1 .165 1.064c-.112.864-.053 1.129.688 1.545.5.282.935.772 1.726.624.021-.239.15-.552.05-.748-.7-1.36-.711-2.885-1.094-4.318-.176-.66-.349-1.321-.554-1.971-.34-1.075 0-1.617 1.073-1.966A1.946 1.946 0 0 0 26.015 41l.6-.23a1.914 1.914 0 0 1 .981 1.455c.216.938.377 1.893.555 2.844zm-.539-16.261a4.773 4.773 0 0 1-2.213-.025 3.346 3.346 0 0 1-1.538-1.242 10.92 10.92 0 0 1 1.2-.908c1-.559 2.032-1.076 3.061-1.587a1.584 1.584 0 0 1 1.679-.072c.242.162.164 1.239-.139 1.679a9.442 9.442 0 0 1-.8.88c-.159.179-.4.36-.428.566-.073.513-.362.66-.822.709zm11.177-16.586A19.554 19.554 0 0 1 40.1 9.539a16.911 16.911 0 0 1 1.44-2.065 4.83 4.83 0 0 1 1.9-1.588.654.654 0 0 0 .241-.145A8.79 8.79 0 0 1 46.757 4a6.968 6.968 0 0 1 3.117-.391 6.732 6.732 0 0 0 .021 1.43c.122.527.137.96-.406 1.274a1.253 1.253 0 0 1-.268 1.787l.635.211c-.052.125-.073.328-.164.369a1.527 1.527 0 0 0-.82 1.239c-.093.424-.394.806-.171 1.291.05.109-.1.339-.2.483-.566.8-1.127 1.607-1.727 2.382-.272.351-.227.856-.667 1.132a6.823 6.823 0 0 0-.945.869l.344.218a29.36 29.36 0 0 1-2.564 1.7 28.928 28.928 0 0 1-2.718 1.131c-.855-.346-.143-.912-.374-1.338a5.132 5.132 0 0 1-.341-1.232c.323-.258.595-.372.692-.572a8.927 8.927 0 0 1 1.447-1.935c.814-.926 1.466-1.993 2.215-2.978.446-.587.945-1.132 1.43-1.707-.084-.068-.149-.164-.228-.177-.428-.071-.859-.122-1.329-.185-.423 1.134-1.947.994-2.314 1.969-.335.091-.639.089-.8.24a2.471 2.471 0 0 0-.357.738c-.064.134-.156.377-.216.371-.6-.06-.782.485-1.15.755-.326.24-.655.365-.9-.252.501.056.631-.196.787-.597zm-1.462 13.926a5.96 5.96 0 0 0 .307-1.119 4.582 4.582 0 0 1 1.009 4.336 1.2 1.2 0 0 0-.051.557 1.406 1.406 0 0 1-.3 1.319 2.981 2.981 0 0 0-.492 1.585c-.046.723-.57 1.138-.874 1.685a5.224 5.224 0 0 1-3.742 2.576 9.371 9.371 0 0 0-1.076.335 3.946 3.946 0 0 1-3.259-.564c.19-.651.362-1.236.53-1.823a1.064 1.064 0 0 0 .067-.361c-.119-1.331.181-2.641.181-3.967 0-.71.347-.825.988-.488 1.664.874 2.2.593 3.086-.234.831-.775 1.809-1.4 2.621-2.188a6.011 6.011 0 0 0 1.005-1.649zm-8.457-13.975a6.278 6.278 0 0 1 5.012-.336c2.288.838 2.815 2.255 2.838 4.465a11.956 11.956 0 0 1-.579 4.053c-.232.67-.547 1.311-.843 2.008.234.4.689.1 1.043.21l.015-.006v-.01c-.322-.4-.216-.742.164-1.1.472.494-.158.746-.164 1.1l.017.023a.06.06 0 0 1-.034-.007 5.143 5.143 0 0 0-2.672 2.388 8.164 8.164 0 0 1-1.234 1.253c-.157-.323-.236-.514-.339-.691-.373-.645-.7-1.347-1.579-1.434-.771-.834-1.757-.676-2.707-.536a14.438 14.438 0 0 0-1.811.489c-.178.05-.351.116-.538.178v-2.16c0-.742.036-1.486 0-2.225a1.136 1.136 0 0 0-1.132-1.087 2.946 2.946 0 0 1-.364-.014c-.273-.057-.542-.134-.877-.218a3.156 3.156 0 0 1 .232-.6c.353-.553.708-1.107 1.107-1.627.32-.418.7-.786 1.061-1.176a2.011 2.011 0 0 0 .424-.485 2.744 2.744 0 0 1 1.285-1.292c.58-.352 1.071-.871 1.675-1.163zm-18.111 7.575a1.6 1.6 0 0 0 .127-.541 4.822 4.822 0 0 1 .872-2.914c.333-.673.632-1.367 1.016-2.009.35-.588.5-1.337 1.255-1.64.177-.071.284-.316.424-.479.374-.433.61-.986 1.213-1.219a1.3 1.3 0 0 0 .605-.573A5.723 5.723 0 0 1 19 8.194a7.227 7.227 0 0 1 4.061-.63A5.238 5.238 0 0 1 26.877 9.9c.292.409.186.626-.26.91a30.726 30.726 0 0 0-2.712 1.794 19.126 19.126 0 0 0-1.887 1.94c-.363.387-.71.79-1.123 1.252-.436-.168-.8-.275-1.129-.439a6.35 6.35 0 0 0-5.615.061c-.3.13-.6.242-.911.347-.569.2-.631.547-.254 1.06-.605.228-.749.581-.663 1.224a4.459 4.459 0 0 1-.232 2.527l-1.559.148c.076-.33.148-.652.224-.973zm-.651 7.159a5.436 5.436 0 0 1 2.014-4.167.872.872 0 0 1 .155-.1c.024-.011.06 0 .164.012-.035.117-.066.219-.1.321s-.069.229-.12.4c.877.3.673 1.187 1.007 1.79.192.347.209.8.42 1.126a2.538 2.538 0 0 1 .171 2.076l-.443-.07c-.279.477-.53.914-.791 1.346a1.911 1.911 0 0 1-.327.456.566.566 0 0 1-.9-.006 3.956 3.956 0 0 1-1.25-3.184z"/></svg>