<svg xmlns="http://www.w3.org/2000/svg" viewBox="0 0 3000 3000" width="3000" height="3000"><g transform="translate(184.79999999999998 672.0) rotate(0.0 1237.1999999999998 944.3999999999999) scale(1.4024825709913278 1.4023312792337959)"><svg width="1764.3" height="1346.9" viewBox="0 0 1764.3 1346.9"><path d="M371.3 1042.5C262.6 990 55.4 872.4 6.7 929.9c-39 56.9 93.7 139.2 364.6 112.6zm856.8 87.2c65.5-149.5 291.9-274.4 350.3-226.7 48.7 48.8-80.4 199.3-350.3 226.7z" fill="#5b2448"/><path d="M1542.9 971.7C1385 677.5 1255.5 477.5 1092.7 528c-92.7 28.7 137.2 614.1 137.2 614.1 41.2 99.3 107.1 223 303.1 202.6 159.7-16.7 51.3-295.7 9.9-373z" fill="#f4ada2"/><path d="M1380.7 1105.2c-.4 0-.7-.1-1.1-.2-2.1-.6-3.4-2.8-2.8-4.9 23.7-85.2 54.4-140.2 78.4-178.6 1.1-1.9 3.6-2.5 5.5-1.4s2.5 3.6 1.4 5.5c0 .1-.1.1-.1.2-23.8 37.9-54.1 92.3-77.5 176.5-.4 1.7-2 2.9-3.8 2.9z" fill="#9b3c82"/><path d="M1531.6 953.6c-86.7 24.8-199.1 81.4-301.8 188.5 4.4-75.2 157.4-222.3 248.7-273.4 8.3 10.3 34.5 46.9 53.1 84.9z" fill="#9a3c81"/><path d="M1580.3 905c-87.6-39.8-308.8 145.1-350.4 237.2-4.7 35.2 4.6 154.9 4.6 154.9-266 35-536.7 32.5-825.2.4l42.5-77.9 51.3-99s-206.2-117.4-314.7-162.1h-.1C104.8 924 31 904.6 7 929.6c0 .1-.1.1-.2.2 4.7-6 127.5-162.3 282.2-286.5 75.7-60.8 159.1-113.9 240-137.9 74-22 156.3-18.2 218.8 31.1.3.2 243.8 15 243.8 15 96.7-63.5 215.6-52.8 307.7 13.7 138.5 100 281.4 339.4 281 339.8z" fill="#f84f46"/><path d="M1092.7 41c-20.7-8.6-44.2-7.4-63.4 4.1-25.7-69-118-51.4-127.6 2.7-67.1-45.5-142 31-112.3 88.3 10.9 21.1 29.5 65.3 21.8 102.4 32.2 12.5 95.2 86.1 95.2 86.1s125.7-129.8 178.5-149c65.9-24 54.6-115.2 7.8-134.6z" fill="#5b2448"/><path d="M1134.5 385.5c1.6 19-8.5 38.9-28.5 50.2-52 29.4-120.5 13.7-120.5 13.7s-2.6 39.8 6.1 102.1c-8.9 12.4-54.9 40.7-121.3 38-57.5-2.3-103.5-31-124.1-53.7 15.4-37.5 41.6-99 77-172.4-36.8-4.8-93.8-43.2-84.9-93 5.1-28.4 35.2-51.7 64.7-43.3 28.6 8.2 39.5 25.2 62.7 50.3 21.5 23.2 27.7 10.1 41.9-18.1 12.6-25 31.9-47 46.2-59.1 32.4-27.4 92-28.2 131.5-24.2.1 30 2.1 59.9 6.1 89.6 6.8 52.1 39.4 75.4 43.1 119.9z" fill="#f3aca1"/><path d="m948.4 227.7.1-3.1c0-.9.1-1.9.3-2.8.2-1.8.6-3.6 1.1-5.4 1-3.5 2.4-6.9 4.1-10.1 3.7-6.7 9-12.4 15.3-16.7 3.3-2.3 7-4.1 10.8-5.4 3.9-1.3 7.9-2 12-2.1 4-.1 8 .5 11.8 1.7s7.2 3.1 10.2 5.7c3.8 3.4 4.1 9.1.7 12.9-.6.7-1.4 1.3-2.2 1.8l-1.5.9c-2.9 1.7-5.4 2.7-7.6 3.9s-4.2 2.2-6 3.1c-3.6 2-6.7 3.7-10.2 5.6s-7 4.4-11.1 7.1l-6.3 4.4c-1.1.8-2.3 1.6-3.4 2.3-2.6 1.9-5.7 3.1-9 3.4-1.7.2-3.4-.1-5-.7-2.1-.9-3.7-2.9-4.1-5.1v-1.4zm15.4 25.9c8.6-1.8 29.3-5.7 48.5-15.5 2.7-1.4 5.9-.3 7.3 2.4v.1c3.5 7 7.1 19.2-6.8 24.2-17.1 6.1-44.7.7-50.7-6.7-.9-1.2-.7-3 .5-3.9.3-.4.7-.6 1.2-.6zm117.4-17.3c-8.7 1.1-15.2.5-31.1-1.4-3-.4-5.7 1.7-6.1 4.7-1 7.7 2.8 15.5 15.2 16.9 13.8 1.5 22.5-8.8 25-16.5.5-1.5-.3-3.1-1.8-3.5-.4-.2-.8-.2-1.2-.2z" fill="#5b2448"/><path d="M848 362c-8.2 2.1-16.7 2.9-25.2 2.4-.9 2.1-1.8 4.2-2.6 6.2 9.9.9 19.9.1 29.5-2.5 1.7-.5 2.7-2.3 2.2-4-.6-1.5-2.3-2.5-3.9-2.1z" fill="#9a3c81"/><path d="M1049.4 198.1c.7.5 1.5.8 2.4 1l1.5.4c2.9.8 5.3 1.1 7.6 1.6s4.2.9 6 1.3c3.6.9 6.7 1.6 10.2 2.4 2.8.7 5.8 1.6 9.1 2.7-.5-10.5-.8-21-.8-31.6-6-.6-12.5-1.1-19.3-1.4-.6.1-1.1.2-1.7.4-3.5.9-6.8 2.4-9.9 4.4-3 1.9-5.5 4.5-7.5 7.4-2.5 3.8-1.5 8.9 2.4 11.4zm-63.9 251.2s-44.4-13.5-67.4-37c-9 5.4-10.7 67.2 61 88.4 2.5.7 4.8 1.3 6.9 1.7-1.2-29.4-.5-53.1-.5-53.1z" fill="#5b2448"/><circle cx="946.1" cy="318.4" fill="#e47280" opacity=".52" transform="matrix(.2158 -.9764 .9764 .2158 431.0377 1173.5623)" r="36.5"/><path d="M1061.7 334.4c-4.1 2.8-9 4.3-13.9 4.4-4.9.3-9.9-.6-14.4-2.6-4.4-2.1-8.3-5.3-11.2-9.2-2.9-4.1-4.6-8.8-5-13.8v-.1c-.1-1.6-1.4-2.8-3-2.7-1.3.1-2.4 1.1-2.7 2.4-1 6.5.3 13.1 3.8 18.6 1.7 2.8 3.8 5.3 6.2 7.5 7.4 6.6 17.3 9.6 27.1 8 3.2-.4 6.3-1.3 9.2-2.7 3-1.4 5.7-3.3 7.8-5.8 1-1.2.9-3-.4-4-1-.8-2.4-.9-3.5-.1zM840 318.1c1.7.4 3.4-.7 3.8-2.4.1-.5.1-1.1-.1-1.6-16.8-53.7-63.5-50.5-64-50.4-1.8.1-3.1 1.7-2.9 3.5s1.7 3.1 3.5 2.9c1.7-.1 42.1-2.7 57.4 46 .3.9 1.2 1.8 2.3 2z" fill="#9a3c81"/><path d="M1056.2 298.7c.7.2 1.4 0 2-.4 8.6-5.9 12.6-10.8 13.2-15.9.7-6.4-4.5-11.9-10.5-18.1-13.4-14.1-10.7-23.6-10.7-23.6.4-1.3-.3-2.8-1.7-3.2-1.3-.4-2.8.3-3.2 1.6-.2.5-3.9 12.2 11.9 28.8 5.9 6.2 9.5 10.2 9.1 14.1-.3 3.4-3.9 7.4-11 12.2-1.2.8-1.4 2.4-.6 3.6.3.4.8.8 1.5.9z" fill="#5b2448"/><path d="M420.8 1077.5c-.5 0-1-.1-1.5-.3-2.1-.8-3.1-3.1-2.2-5.2.6-1.5 60-149.9 110.1-227.2 1.1-1.9 3.6-2.5 5.5-1.3 1.9 1.1 2.5 3.6 1.3 5.5 0 .1-.1.1-.1.2-49.6 76.6-108.8 224.4-109.4 225.8-.6 1.5-2.1 2.5-3.7 2.5z" fill="#fbb5b0"/><path d="M1012.8 826.5c-2.6 1.3-5.4 2.2-8.3 2.5-3.4.5-6.9.6-10.3.3h-.3c7.9 9.1 8.2 19.9-3.9 31.7-2.5 2.4-5.4 4.4-8.6 5.8-2.6 1.2-5.2 2.1-8 2.7-.1 0-.1.1-.2 0 11.9 12 12.8 24.7-5.5 34.5-3.6 1.9-7.4 3.5-11.3 4.6-3.2.9-6.4 1.6-9.6 1.9h-.1c8.9 11.6 9.7 24.2-2.8 36-14.5 13.6-59.1 18.3-72.2 19.8-23.6 2.6-41 3.4-54.2 2.7-4-.2-7.7-.6-11-1.1-.1 0-.3 0-.4-.1-4.2 3.9-8.2 8-12 12-35.1 37.9-155.5 276-382 349.4-149.8 48.6-284.9-24.8-325.6-119.5-47.6-110.7-6.9-221 20.9-280 19 4.8 97.6 35.3 129.6 47.3 85 31.8 115.9 48.7 125.7 53.1 200-173.3 378.9-286.7 517.2-289.5 124-2.4 181.8 62.9 132.9 85.9z" fill="#f3aca1"/><path d="M90.7 969.1c90.3 9.7 193.8 45.1 271.7 61.1-18.6-11.5-173.8-79-255.7-100.9-4.5 9.7-7.1 14.2-16 39.8z" fill="#9a3c81"/><path d="M362.4 1030.2c-1.7-.8-4.1-1.9-7.3-3.5-13.1 12.2-32.8 30.6-55.2 51.4-1.6 1.5-1.7 4-.2 5.7 1.5 1.6 4 1.7 5.7.2 30.8-28.8 56.5-52.7 67.1-62.5-3.4 2.9-6.8 5.8-10.1 8.7zM1005.3 829c-15-22.2-39.2-36.4-70.3-41.1-15.1-2.3-30.4-2.3-45.5-.1-2.2.5-3.5 2.6-3 4.8.5 2 2.4 3.4 4.4 3.1 14.3-2 28.9-1.9 43.2.2 27.2 4.2 48 15.5 61.8 33.7 2.9.1 5.8 0 8.6-.4zm-87 6.7c-14.2-1.7-28.6-1.5-42.8.7-2.2.4-3.6 2.5-3.2 4.6.4 2.2 2.4 3.6 4.6 3.2.7-.1 64.2-10.7 97.6 25.1 2.4-.6 4.7-1.4 6.9-2.5.4-.2.7-.4 1.1-.5-14.4-16.8-36.5-27.4-64.2-30.6zm-17.7 48.7c-12.8-1-25.7-.6-38.3 1.5-2.2.4-3.6 2.5-3.2 4.7s2.5 3.6 4.7 3.2c.6-.1 56.3-9.8 83.2 16.9 3.1-.4 6.1-1 9.1-1.8-11.6-14-30.6-22.4-55.5-24.5zm12.8 54.9c-24.6-7.9-52.2-4.2-79.9 10.6-9.5 5.1-18.5 11.1-26.8 18 3.2.5 6.7.8 10.6 1h1.1c18.9-13.9 54.9-34.1 92.6-22.1 2.1.7 4.4-.5 5-2.6.7-2-.5-4.2-2.6-4.9z" fill="#9a3c81"/><path d="M886.2 589.5c-2 0-3.9 0-5.9-.1-1.1 17.4-3.8 34.7-7.8 51.7-7.7 31.9-19.4 55.1-33 65.3-8.6 6.5-17.8 7.9-28.1 4.1-55.3-20.2-63.8-146.7-65-175.3-2.5-2.2-5.3-4.2-8.2-5.9v.3c.9 28.2 4 56.4 9.4 84.1 11.9 58.8 32.5 93.8 61 104.3 4.4 1.7 9 2.5 13.7 2.6 7.8 0 15.1-2.6 22-7.8 27.7-20.9 41.2-80.9 43.9-123.3z" fill="#fbb5b0"/><path d="M897.5 632.8c8.9 24 19.1 43 30.2 56.4 13.6 16.4 28.8 24.7 45.1 24.7 1 0 2 0 3.1-.1 10.3-.6 18.5-5.3 24.5-13.8 21.5-30.7 8.5-107.2-2-152.9-2.3 1.4-4.6 2.8-6.8 4.3 0 0-.1.2-.3.5 2.5 11.3 5.2 24.2 7.4 37.7 8.6 52.4 6.9 89-4.8 105.7-4.1 6.3-11 10.2-18.4 10.5-44.8 2.8-70.7-69.1-82.8-116.4-2.1 0-4.2.1-6.3.1h-2c3.5 14.6 7.9 29.1 13.1 43.3z" fill="#fbb5b0"/><path d="M898.8 740.9c2.7 0 5.4.1 8.1.1l-17.1-151.6h-8z" fill="#fbb5b0"/><circle cx="875.6" cy="723.1" fill="#fbb5b0" r="8"/><path d="M999.5 87.2c2.2.5 4.3-.8 4.8-3 .1-.3 6-24.8 25.3-39.3l-.3.2c-1-2.6-2.1-5.1-3.3-7.6-22.5 15.9-29.2 43.4-29.5 44.9-.5 2.2.8 4.3 3 4.8z" fill="#9a3c81"/><path d="M1138.2 913.7c-.6-2.1-2.9-3.3-5-2.7-2 .6-3.2 2.6-2.8 4.7 16.3 62.3 58.1 154.4 85.7 215.4 4.8 10.6 9 20 12.7 28.1.2-6 .5-11.8 1.1-17.1-2-4.5-4.2-9.3-6.5-14.3-27.5-60.7-69.1-152.5-85.2-214.1z" fill="#fbb5b0"/><g fill="#f4ada2"><path d="M1750.4 713.7c25.5 133.3 44.6 603.9-217.4 631-209.2 21.7-167.6-181.2-138.2-277.8 42.2-138.8 165.1-249.6 169.1-354.7 1.6-43.7 172.3-73 186.5 1.5zm-141.5-69.2c-.8.2-5.9 1-7.7 1.1-1.1.1-14.2-.2-18.5-.7-9-.9-19.4-2.5-30.5-4.8l-1.7-.3c-14.9-3-30.9-7.1-46.6-11.8-15.2-4.5-30.1-9.5-43.3-14.7l-2.2-.9-2.3-1-.4-.2-.3-.1c-6.8-2.8-13.1-5.6-18.6-8.4l-.6-.3c-.8-.4-1.5-.7-2.2-1.1-13.6-7.1-21.9-14-21.3-19.5.9-8.5 22.7-14.7 48.7-16.4 3-.2 6.1-.3 9.2-.4 2.9-.1 5.8-.1 8.8 0 1.1 0 2.2 0 3.3.1 7.4.2 14.8.9 22.1 1.9 2.4.4 4.8.8 7.2 1.3 2 .4 4.1.8 6.1 1.3 2.9.7 5.8 1.4 8.6 2.3 16.2 4.8 31.7 11.7 46.1 20.6 4.3 2.7 8.4 5.4 12.1 8.2 21.6 15.8 33.9 32.4 30.6 39.4-.9 2.1-3.2 3.5-6.6 4.4z"/><path d="M1704.2 768.2c28.5-15.3 46.2-54.5 46.2-54.5-13-68.3-34.7-127.4-101.5-184.9-39.5-34-102.3 30.2-102.5 67.3s31 100.3 27.3 114.6c-4.7 18.3.2 50.7 38.7 69.3 21 10.1 63.2 3.5 91.8-11.8z"/><path d="M1577.8 542.7s-35.8-14.1-40.4-15c-57-10.8-103.5-34.3-101.5-48 2.6-17.6 70.8-13.5 95.1-8.5 54.1 9.9 78 26.8 117.9 57.7"/><path d="M1592.1 623c-8.2-1.2-31-26.5-43.4-33.8-10.9-6.4-31.8-12.8-48.1-17.8-42.3-11.7-66-26.2-66.1-26.2-11.5-6.5-18.3-12.6-17.8-17.6 1.3-13.1 52.7-20.7 92.1-14.8 42.2 6.2 78.4 31.4 90.9 42.2 74.8 63.3-6.1 68.3-7.6 68zm11.3 87.9c-13-1.2-29-4-45.9-7.9-10.9-2.5-22.1-5.5-33.2-8.7-2.9-.9-5.9-1.7-8.8-2.6h-.1c-.6-.2-85.1-32.1-83.9-43.8.8-7.5 17.8-13.2 39.6-15.6 6.8-.8 14-1.2 21.3-1.2h5.5c3 0 6.1.2 9.1.3 5.6.3 11.2.9 16.5 1.7 9 1.4 18 3.5 26.7 6.3 1 .3 2 .7 3.1 1 13.5 4.6 26.4 10.8 38.5 18.3.5.3 46.3 39.3 42.5 47.4-2.5 5.1-14.2 6.3-30.9 4.8z"/></g><path d="M1586.5 539.5c2.2 0 4-1.8 4-4 0-1.5-.9-2.9-2.2-3.6-47.4-23.8-109.6-29.8-131.7-31.3 7 3.8 14.2 7.2 21.6 10.1h-.2c28.5 3.4 72.2 11.1 106.7 28.4.6.3 1.2.4 1.8.4zm3.9 50.3c2.2 0 4-1.7 4.1-3.9 0-1.5-.8-2.8-2.1-3.6-40.8-22.7-101.7-25.5-136.4-26.3 7.7 3.2 15.7 6.2 23.5 8.9 33.5 1.9 78.2 7.3 108.9 24.4.6.3 1.3.5 2 .5zm-1.5 68.2c2.2 0 4-1.8 4-4 0-1.3-.6-2.5-1.6-3.2-33.7-24.8-76.4-28.4-108.5-29.3 18.3 5.9 32.5 9.8 36.1 10.7 23 3.2 47.2 10 67.6 25 .7.5 1.6.8 2.4.8zm25.1 118.3c-46.8-18.9-36.8-62.8-36.3-64.7.5-2.1-.8-4.3-2.9-4.8h-.1l-27.3-6.3c-2.1-.6-4.3.7-4.9 2.9-.6 2.1.7 4.3 2.9 4.9h.2l23.6 5.5c-1.1 8.3-.8 16.7 1 24.8 3.3 14.4 13 33.9 40.8 45.2 2 .9 4.4 0 5.3-2s0-4.4-2-5.3c-.2-.1-.3-.1-.3-.2z" fill="#9b3c82"/></svg></g><g transform="translate(1761.6 1096.8) rotate(0.0 360.5999999999999 397.79999999999995) scale(1.3975931631881864 1.3972602739726026)"><svg width="516.03" height="569.4" viewBox="0 0 516.03 569.4"><g fill="#ffcf2d"><path d="M183.64 108.33a5.19 5.19 0 0 1-1.59-.26c-9.86-3.31-16.79-11.84-19.52-24-2.43-10.8-1.42-23.75 2.84-36.45a5 5 0 1 1 9.48 3.19c-3.69 11-4.6 22-2.57 31.07 1.37 6.1 4.73 14 12.95 16.71a5 5 0 0 1-1.59 9.74zm117.5-5.27a5.25 5.25 0 0 1-1.6-.26c-18.94-6.37-26.11-32.35-16.67-60.45a5 5 0 1 1 9.48 3.18c-6.57 19.57-4.49 42.79 10.38 47.79a5 5 0 0 1-1.59 9.74zm117.97-5.3a4.9 4.9 0 0 1-1.59-.26c-18.94-6.36-26.11-32.35-16.67-60.44a5 5 0 1 1 9.48 3.18C403.75 59.81 405.84 83 420.7 88a5 5 0 0 1-1.59 9.74z"/></g><path d="M383.17 553.13 21 569.38A20.06 20.06 0 0 1 .43 545.27L95.26 87.56a20.06 20.06 0 0 1 18.74-16l362.21-16.22a20.06 20.06 0 0 1 20.54 24.11l-94.83 457.71a20.06 20.06 0 0 1-18.75 15.97z" fill="#b0dcf7"/><path d="M402 552.28 39.81 568.53a20.06 20.06 0 0 1-20.54-24.11l94.84-457.71a20.07 20.07 0 0 1 18.74-16l362.21-16.22A20.06 20.06 0 0 1 515.6 78.6l-94.83 457.71A20.06 20.06 0 0 1 402 552.28z" fill="#66b0f0"/><circle cx="200.08" cy="105.64" fill="#5b2448" r="18.75"/><circle cx="317.6" cy="100.36" fill="#5b2448" r="18.75"/><circle cx="435.13" cy="95.09" fill="#5b2448" r="18.75"/><path d="M194.82 108.89a29.38 29.38 0 0 1-9.38-1.52 5 5 0 0 1 3.19-9.48c14.66 4.93 32.34-8.18 39.4-29.22s.89-42.16-13.77-47.08c-6.81-2.29-14.59-.71-21.89 4.46-7.78 5.5-14 14.3-17.52 24.76a5 5 0 0 1-9.48-3.19c4.19-12.45 11.72-23 21.22-29.73 10-7.06 20.93-9.12 30.86-5.78 19.88 6.68 28.89 33.48 20.06 59.75-7.46 22.21-25.32 37.03-42.69 37.03zm117.67-5.23a30 30 0 0 1-9.55-1.56 5 5 0 0 1 3.18-9.48c6.82 2.29 14.59.7 21.9-4.46 7.78-5.51 14-14.3 17.51-24.76s3.86-21.22 1-30.31c-2.71-8.53-7.95-14.48-14.76-16.77-14.67-4.93-32.34 8.18-39.41 29.21a5 5 0 0 1-9.48-3.18c8.81-26.26 32.17-42.19 52.06-35.51 9.92 3.33 17.42 11.58 21.11 23.23 3.51 11.09 3.14 24.06-1 36.51s-11.72 23-21.22 29.74c-6.89 4.85-14.21 7.34-21.34 7.34zm117.98-5.3a29.74 29.74 0 0 1-9.56-1.56 5 5 0 1 1 3.19-9.47c6.81 2.28 14.59.7 21.89-4.47 7.78-5.5 14-14.29 17.52-24.75 7.06-21 .88-42.16-13.78-47.09s-32.34 8.18-39.4 29.22a5 5 0 1 1-9.48-3.18c8.82-26.27 32.15-42.2 52.07-35.52S481.81 35 473 61.29c-4.19 12.46-11.72 23-21.22 29.74-6.87 4.85-14.18 7.33-21.31 7.33z" fill="#ffcf2d"/></svg></g><g transform="translate(1560.0 387.59999999999997) rotate(1.9800055866478572 628.8 319.80000000000007) scale(1.537596283164201 1.5363920249819845)"><svg width="817.9" height="416.3" viewBox="0 0 817.9 416.3"><g fill="#fff"><path d="M374 304.5c7 60.6 61.8 104.1 122.5 97.2 26.6-3.1 51.2-15.7 69.1-35.5 13.3 37.3 54.4 56.7 91.7 43.4 24.6-8.8 42.5-30.3 46.7-56h.9c61 0 110.5-49.5 110.5-110.6 0-31.6-13.6-61.7-37.2-82.7 22.8-40.4 8.5-91.6-31.9-114.4-29.7-16.7-66.5-13.9-93.3 7.2-33.2-51.3-101.6-66.1-152.9-33-16.9 10.9-30.6 26.3-39.4 44.4-69.1-16.1-138.2 27-154.2 96.1-13.5 57.8 14.4 117.3 67.5 143.9z"/><circle cx="234.4" cy="70.7" r="46.2"/><circle cx="102.6" cy="74.6" r="30.7"/><circle cx="24.7" cy="154.1" r="21.9"/></g><path d="M817.8 237.8c-1.4-30-14.4-57.7-36.5-78 6.7-12.5 10.2-26.6 10.2-40.7 0-23.1-9-44.8-25.4-61.2-16.3-16.3-38-25.3-61.1-25.3h-.3c-18.3 0-36.4 6-51.1 16.9-10.7-15.8-25.4-28.7-42.5-37.3-55.5-28.1-123.5-5.9-151.8 49.5-57.9-12.5-117.2 15.5-144.2 68.3-32.9 64.2-7.5 143.2 56.6 176.2 3.2 25.5 15.2 49.3 33.7 67.2 21.8 20.9 50.4 32.1 80.5 31.6 29.9-.6 57.9-12.7 78.8-34.1 11.6 27.4 38.1 45.2 67.8 45.5v.1h.6c35.6 0 66.2-25.3 72.9-60.2 31.3-.3 61.3-13.8 82.4-36.9 20.4-22.5 30.8-51.5 29.4-81.6zM656.4 407.2c-36 12.8-75.6-6-88.5-41.9-.3-.8-1-1.4-1.9-1.6h-.5c-.7 0-1.4.3-1.8.8-17.6 19.4-41.6 31.7-67.6 34.7-59.2 6.8-112.9-35.8-119.7-95-.1-.8-.6-1.6-1.4-2-21-10.4-38.5-26.5-50.8-46.4s-18.8-42.8-18.7-66.2c0-9.5 1.1-19.1 3.2-28.3 15.7-67.7 83.5-110 151.2-94.4 1.1.3 2.3-.3 2.8-1.3 8.6-17.7 22-32.7 38.5-43.4 50.1-32.3 117.1-17.8 149.4 32.2.4.6 1 1 1.7 1.1s1.4-.1 2-.5c14.2-11.3 32-17.5 50.2-17.5h.3c14 0 27.8 3.6 39.9 10.5 39.2 22 53.1 71.8 31.1 111-.6 1-.4 2.3.5 3.1 23.2 20.5 36.5 50 36.5 80.9 0 59.6-48.5 108-108 108h-.8c-1.3 0-2.3.9-2.5 2.1-4.1 24.9-21.3 45.6-45.1 54.1zM227.2 22.6c-23.7 3.5-41.5 24.2-41.5 48.1 0 13 5 25.2 14.2 34.4s21.4 14.3 34.4 14.3h.1c2.4 0 4.8-.2 7.1-.5 26.5-3.9 44.9-28.7 41-55.3s-28.7-45-55.3-41zm7.3 4.4c21.8.1 39.9 15.7 43.1 37.3 3.5 23.8-13 46.1-36.8 49.6-11.5 1.7-23.1-1.2-32.4-8.1-9.4-6.9-15.5-17.1-17.2-28.7-3.5-23.8 13-46.1 36.8-49.6 2.1-.3 4.3-.5 6.5-.5zM102.6 41.4c-8.9 0-17.2 3.5-23.5 9.7-6.3 6.3-9.7 14.6-9.7 23.5 0 18.3 14.9 33.2 33.2 33.2 1.6 0 3.2-.1 4.8-.4 18.1-2.7 30.7-19.6 28.1-37.7-2.5-16.1-16.6-28.3-32.9-28.3zm-4.2 5.3c1.4-.2 2.8-.3 4.2-.3 13.9 0 25.9 10.4 27.9 24.1 1.1 7.5-.8 14.9-5.3 21s-11.1 10-18.5 11.1c-15.4 2.3-29.8-8.4-32.1-23.8-1.1-7.5.8-14.9 5.3-21 4.4-6.1 11-10 18.5-11.1zm-73.8 82.7c-6.6 0-12.8 2.6-17.4 7.2C2.5 141.3 0 147.5 0 154s2.6 12.7 7.2 17.4c4.6 4.6 10.8 7.2 17.4 7.2 1.2 0 2.4-.1 3.6-.3 11.9-1.8 20.9-12.3 20.9-24.4.1-13.5-11-24.5-24.5-24.5zm11.7 9.1c4.9 3.7 7.9 9.5 7.9 15.7 0 5.2-2 10.1-5.7 13.7-3.7 3.7-8.6 5.7-13.8 5.7s-10.1-2-13.7-5.7-5.7-8.6-5.7-13.8c0-10.7 8.7-19.4 19.4-19.4 4.2 0 8.3 1.3 11.6 3.8z" fill="#66b0f0"/></svg></g><g transform="translate(1369.2 1486.8) rotate(111.07990682977193 146.39999999999998 274.79999999999995) scale(0.9990753093960164 1.0003986304586434)"><svg width="293.071" height="549.381" viewBox="0 0 293.071 549.381"><path d="m69.497 526.327-60.75-29.333L232.325 33.95l60.75 29.332z" fill="#21A0AA"/><path d="m232.32 33.935 29.912-18.853c7.98-5.029 15.95-10.054 23.93-15.082l3.071 28.119c1.278 11.713 2.56 23.436 3.839 35.148z" fill="#fff"/><g fill="#5b2448"><path d="M262.232 15.082c7.98-5.029 15.95-10.054 23.93-15.082l3.071 28.119zM16.89 480.118l60.751 29.332-15.516 32.135c-3.311 6.857-11.554 9.732-18.411 6.421L7.796 530.664c-6.857-3.311-9.732-11.554-6.421-18.411z"/></g></svg></g><g transform="translate(1137.6 1710.0) rotate(0.0 245.39999999999998 172.20000000000005) scale(1.2365835222978079 1.247374139804419)"><svg width="396.9" height="276.1" viewBox="0 0 396.9 276.1"><path d="M377.3 97.1c-3 1.4-6.1 2.5-9.4 2.9-3.9.5-7.7.6-11.6.4h-.4c9 10.2 9.2 22.5-4.4 35.8-2.9 2.7-6.1 4.9-9.7 6.5-2.9 1.3-5.9 2.4-9 3.1-.1 0-.2.1-.2.1 13.4 13.5 14.5 27.9-6.3 39-4 2.2-8.3 3.9-12.8 5.2-3.6 1-7.2 1.8-10.9 2.2h-.1c10.1 13.1 11 27.4-3.1 40.6-16.4 15.4-66.8 20.7-81.6 22.3-26.7 3-46.4 3.8-61.3 3-4.6-.3-8.7-.7-12.4-1.2-.1 0-.3 0-.4-.1-4.7 4.4-9.3 9-13.6 13.6C90.3 313.2-77.3 103.6 42.4 48.9 109.1 18.4 170.9 1.2 226.8.1c140.5-2.9 205.8 71 150.5 97z" fill="#f4ada2"/><g fill="#9a3c81"><path d="M289.4 53.9c-27.8-4.1-50.4-.3-51.3-.1-2.1.4-3.6 2.4-3.2 4.6.4 2.1 2.4 3.6 4.6 3.2.2 0 22.2-3.8 48.7.2 31.2 4.7 52 17.7 67.8 38.7 3.5.2 9.3-.2 9.7-.3-16.9-24.8-41.4-41-76.3-46.3zm-19 54.1c-26.1-3.1-47.3.5-48.2.7-2.1.4-3.6 2.4-3.2 4.6s2.4 3.7 4.6 3.3c.8-.2 71.1-11.6 109 29.3 3.8-.7 8.1-2.7 8.4-2.8-16.2-18.8-39.4-31.4-70.6-35.1zm-20 55c-23.1-2-42.4 1.5-43.2 1.6-2.2.4-3.6 2.5-3.2 4.7s2.5 3.6 4.7 3.2c.7-.1 63.4-11.2 93.9 19.8 3.1-.4 7.1-1.1 10.1-2-13-15.5-34.4-25-62.3-27.3zm12.1 69.6c2.1.7 4.3-.5 5-2.6s-.5-4.3-2.6-5c-27.7-8.9-58.8-4.8-89.9 11.9-12.9 7-24.6 14.4-31.3 20 3.5.4 8.6 1 12.8 1.3h.1c21.2-15.8 62.5-39.5 105.9-25.6z"/></g></svg></g><g transform="translate(2157.6 1323.6) rotate(0.0 240.5999999999999 243.60000000000002) scale(1.4245958908165073 1.4271068279680132)"><svg width="337.78" height="341.39" viewBox="0 0 337.78 341.39"><path d="M196.28 181.05c-.83.22-5.89 1-7.73 1.12-1.11.06-14.22-.22-18.53-.66-9-.9-19.4-2.55-30.48-4.79l-1.66-.34c-14.88-3-30.93-7.12-46.65-11.76-15.23-4.47-30.12-9.5-43.34-14.62l-2.22-.88-2.34-.94-.39-.16-.26-.11c-6.81-2.77-13.07-5.59-18.57-8.37l-.55-.28c-.75-.37-1.48-.75-2.18-1.12C7.8 130.94-.54 124.1 0 118.55c.86-8.49 22.72-14.68 48.71-16.38 3-.2 6.08-.33 9.16-.41 2.9-.07 5.83-.08 8.76 0 1.12 0 2.23 0 3.34.07a189.9 189.9 0 0 1 22.1 2q3.63.54 7.2 1.26c2 .39 4.08.84 6.1 1.33 2.91.69 5.79 1.46 8.63 2.29a191.31 191.31 0 0 1 46 20.61c4.32 2.65 8.37 5.4 12.15 8.16 21.59 15.78 33.86 32.38 30.58 39.35-.79 1.92-3.07 3.32-6.45 4.22Z" style="fill:#f4ada2"/><path d="M291.55 304.74c28.54-15.31 46.23-54.51 46.23-54.51-13-68.28-34.69-127.42-101.46-184.85-39.53-34-102.32 30.15-102.47 67.3s31 100.3 27.32 114.61c-4.72 18.31.23 50.72 38.73 69.32 20.93 10.11 63.1 3.44 91.65-11.87Z" style="fill:#f4ada2"/><path d="M165.18 79.23s-35.81-14.09-40.4-15c-57-10.84-103.54-34.3-101.49-48 2.64-17.59 70.84-13.54 95.13-8.56 54.11 9.93 78 26.81 117.9 57.71" style="fill:#f4ada2"/><path d="M179.47 159.63c-8.2-1.19-31-26.45-43.4-33.76-10.9-6.44-31.81-12.82-48.07-17.87-42.27-11.69-66.06-26.2-66.1-26.22C10.42 75.33 3.58 69.19 4.09 64.15 5.43 51 56.82 43.43 96.2 49.36c42.16 6.22 78.44 31.35 90.87 42.19 74.85 63.35-6.07 68.29-7.6 68.08Zm11.34 87.86c-13-1.17-29-4-45.93-7.9-10.86-2.5-22.09-5.45-33.2-8.69-2.94-.86-5.88-1.74-8.79-2.64a.53.53 0 0 1-.15-.05c-.62-.19-85.07-32.08-83.88-43.86.77-7.48 17.82-13.18 39.65-15.59a213.53 213.53 0 0 1 21.32-1.25h5.56c3 .05 6.08.15 9.11.34 5.6.31 11.15.87 16.48 1.67a168.91 168.91 0 0 1 26.65 6.34c1 .33 2.06.67 3.07 1a191.86 191.86 0 0 1 38.51 18.27c.46.28 46.29 39.34 42.5 47.38-2.5 5.24-14.22 6.49-30.9 4.98Z" style="fill:#f4ada2"/><path d="M173.91 76.11a4 4 0 0 0 1.79-7.58C128.29 44.78 66.12 38.7 44 37.24a187.24 187.24 0 0 0 21.6 10.08h-.22c28.53 3.36 72.23 11.06 106.74 28.35a3.93 3.93 0 0 0 1.79.44Zm3.84 50.26a4 4 0 0 0 1.94-7.5C138.93 96.22 78.06 93.36 43.34 92.55c7.67 3.23 15.74 6.25 23.53 8.92 33.45 1.9 78.17 7.3 108.94 24.39a3.88 3.88 0 0 0 1.94.51Zm-1.45 68.25a4 4 0 0 0 2.37-7.22c-33.74-24.79-76.4-28.37-108.48-29.29 18.33 5.95 32.52 9.79 36.11 10.75 23 3.18 47.2 10 67.63 25a4 4 0 0 0 2.37.76Zm25.1 118.28c-46.82-18.9-36.79-62.8-36.34-64.66a4 4 0 0 0-3-4.85l-27.32-6.33a4 4 0 0 0-1.81 7.8l23.62 5.47a70.73 70.73 0 0 0 1 24.82c3.25 14.41 13 33.94 40.8 45.17a3.91 3.91 0 0 0 1.49.29 4 4 0 0 0 1.5-7.71Z" style="fill:#9b3c82"/></svg></g><g transform="translate(2247.6 528.0) rotate(0.0 214.20000000000005 184.8) scale(1.3995883563657752 1.3973534971644614)"><svg width="306.09" height="264.5" viewBox="0 0 306.09 264.5"><rect fill="#fff" height="61.26" rx="8.17" width="65.12" x="2.5" y="10.72"/><path d="M59.46 74.48H10.67A10.68 10.68 0 0 1 0 63.81V18.89A10.69 10.69 0 0 1 10.67 8.22h48.79a10.68 10.68 0 0 1 10.66 10.67v44.92a10.67 10.67 0 0 1-10.66 10.67zM10.67 13.22A5.67 5.67 0 0 0 5 18.89v44.92a5.67 5.67 0 0 0 5.67 5.67h48.79a5.67 5.67 0 0 0 5.66-5.67V18.89a5.67 5.67 0 0 0-5.66-5.67z" fill="#66b0f0"/><path d="M34.49 58.77a4 4 0 0 1-3.05-1.42L11 33.18A4 4 0 1 1 17.09 28L34.4 48.47l37.45-47a4 4 0 1 1 6.25 5L37.62 57.26a4 4 0 0 1-3.07 1.51z" fill="#f94f46"/><path d="M288.69 45.31h-70.21a4 4 0 1 1 0-8h70.21a4 4 0 0 1 0 8zm-97.22 0h-96a4 4 0 1 1 0-8h96a4 4 0 0 1 0 8z" fill="#66b0f0"/><rect fill="#fff" height="61.26" rx="8.17" width="65.12" x="2.5" y="105.73"/><path d="M59.46 169.49H10.67A10.68 10.68 0 0 1 0 158.82V113.9a10.69 10.69 0 0 1 10.67-10.67h48.79a10.68 10.68 0 0 1 10.66 10.67v44.92a10.67 10.67 0 0 1-10.66 10.67zm-48.79-61.26A5.67 5.67 0 0 0 5 113.9v44.92a5.67 5.67 0 0 0 5.67 5.67h48.79a5.67 5.67 0 0 0 5.66-5.67V113.9a5.67 5.67 0 0 0-5.66-5.67z" fill="#66b0f0"/><path d="M34.49 153.78a4 4 0 0 1-3.05-1.41L11 128.19a4 4 0 0 1 6.1-5.16l17.3 20.45 37.45-47a4 4 0 1 1 6.25 5l-40.48 50.79a4 4 0 0 1-3.07 1.51z" fill="#f94f46"/><path d="M272.42 139.05H161.06a4 4 0 0 1 0-8h111.36a4 4 0 0 1 0 8zm-137.73-.39h-39.1a4 4 0 0 1 0-8h39.1a4 4 0 0 1 0 8z" fill="#66b0f0"/><rect fill="#fff" height="61.26" rx="8.17" width="65.12" x="2.5" y="200.74"/><g fill="#66b0f0"><path d="M59.46 264.5H10.67A10.68 10.68 0 0 1 0 253.83v-44.92a10.69 10.69 0 0 1 10.67-10.67h48.79a10.68 10.68 0 0 1 10.66 10.67v44.92a10.67 10.67 0 0 1-10.66 10.67zm-48.79-61.26A5.67 5.67 0 0 0 5 208.91v44.92a5.67 5.67 0 0 0 5.67 5.67h48.79a5.67 5.67 0 0 0 5.66-5.67v-44.92a5.67 5.67 0 0 0-5.66-5.67zm291.42 30.82h-57.23a4 4 0 0 1 0-8h57.23a4 4 0 0 1 0 8zm-83.61-.39H95.59a4 4 0 0 1 0-8h122.89a4 4 0 0 1 0 8z"/></g></svg></g></svg>