<svg height="60" viewBox="0 0 60 60" width="60" xmlns="http://www.w3.org/2000/svg"><path d="M25.558 50.053c.051-.12.013-.24-.13-.452-.334.443-.663.876-.988 1.31q-.321.429-.637.862a2.039 2.039 0 0 1-.886.684c-.209.088-.409.2-.613.3l.032.14a2.573 2.573 0 0 0 2.023-.785 6.319 6.319 0 0 0 1.199-2.059z"/><path d="M26.14 5.26a14.271 14.271 0 0 0-1.79 1.864 13 13 0 0 0-2.013 2.961c-.11.249-.267.477-.389.721a6.167 6.167 0 0 0-.614 1.583c-.154.806-.29 1.614-.426 2.423a1.629 1.629 0 0 0-.006.441c.086.751.176 1.5.278 2.251a2.5 2.5 0 0 0 .152.546c.213.547.445 1.087.654 1.635a1.05 1.05 0 0 1 .057.43c-.01.159-.1.272-.337.242a5.27 5.27 0 0 0-.7-1.445c-.029-.055-.068-.106-.1-.161a6.168 6.168 0 0 0-1.424-1.905c-.3-.258-.57-.56-.866-.827-.532-.479-1.1-.924-1.606-1.424a4.085 4.085 0 0 0-2.737-1.12 3.109 3.109 0 0 0-2.493 1.147 2.784 2.784 0 0 0-.415.551c-.161.292-.284.605-.418.9a2.47 2.47 0 0 1-.14 1.533 1.641 1.641 0 0 0-.061.179 2.88 2.88 0 0 1-1.694 1.76c-.553.2-1.1.436-1.661.6a16.689 16.689 0 0 0-2.332.956 1.414 1.414 0 0 0-.4.3c-.191.194-.358.413-.541.615a1.25 1.25 0 0 0-.32.66 4.25 4.25 0 0 1-.2.855 2.681 2.681 0 0 0-.012 2.082c.059.135.106.275.167.409.255.551.516 1.1.769 1.653a7.1 7.1 0 0 0 1.293 1.847 12.983 12.983 0 0 0 2.11 1.694 22.47 22.47 0 0 0 2.089 1.3 7.615 7.615 0 0 0 2.919.954 6.2 6.2 0 0 0 1.382.007c.416-.05.845 0 1.261-.053a9.922 9.922 0 0 1 2.2.053 1.674 1.674 0 0 1 .382.169 2.515 2.515 0 0 1-.4.2c-.746.211-1.492.422-2.243.613a3.556 3.556 0 0 1-.809.108q-1.294.021-2.589 0a1.647 1.647 0 0 0-.844.2 3.179 3.179 0 0 1-.821.313 4.38 4.38 0 0 0-2.042 1.309 4.2 4.2 0 0 0-1.134 2.276 3.778 3.778 0 0 0 .137 2.113 7.568 7.568 0 0 0 2.156 3.14c.626.53 1.267 1.049 1.838 1.635.439.451.983.869 1.023 1.592a.19.19 0 0 0 .063.106.97.97 0 0 1 .209.768 4.29 4.29 0 0 0 .042 1 .547.547 0 0 1-.056.362.581.581 0 0 0-.026.539.971.971 0 0 1 .052.37 4.966 4.966 0 0 0 .582 2.1 7.39 7.39 0 0 0 2.124 2.546 2.178 2.178 0 0 0 .361.251 11.111 11.111 0 0 0 2.285.892 7.761 7.761 0 0 0 3.563.117 23.58 23.58 0 0 0 1.655-.4 5.334 5.334 0 0 0 1.063-.384c.764-.4 1.509-.835 2.255-1.266a1.239 1.239 0 0 0 .321-.3c.576-.7 1.066-1.458 1.573-2.206a10.514 10.514 0 0 0 1.154-2.165 10.807 10.807 0 0 0 .611-2.248c.118-.769.222-1.543.4-2.3a9.822 9.822 0 0 0 .127-3.922c-.074-.5-.122-1-.161-1.5a.729.729 0 0 1 .2-.647.548.548 0 0 1 .552.421 3.265 3.265 0 0 1 .259 1.1 2.77 2.77 0 0 0 .124.676c.157.568.376 1.122.484 1.7a15.03 15.03 0 0 0 .893 2.753 11.051 11.051 0 0 0 1.218 2.417c.207.287.323.637.517.935.334.51.679 1.014 1.05 1.5a4.286 4.286 0 0 0 2.548 1.74c.349.072.7.156 1.047.222a7.862 7.862 0 0 0 3.011 0 8.941 8.941 0 0 0 3.186-1.149 5.339 5.339 0 0 0 1.084-.853c.326-.358.609-.753.918-1.125a.7.7 0 0 0 .148-.529c-.035-.5-.047-1.01-.088-1.513a2.628 2.628 0 0 0-.133-.678 14.307 14.307 0 0 1-.518-2.009 3.324 3.324 0 0 1-.061-1 8.942 8.942 0 0 1 .719-2.859 8.934 8.934 0 0 0 .872-1.944 6.56 6.56 0 0 0 .762-2.255 2.532 2.532 0 0 0-.1-1.428 14.8 14.8 0 0 0-1.381-2.76 7.215 7.215 0 0 0-4.338-2.944 12.293 12.293 0 0 0-3.888-.189 5.43 5.43 0 0 1-.817.046 1.2 1.2 0 0 1-.348-.115 1.692 1.692 0 0 1 .689-.826c.541-.363 1.1-.709 1.625-1.088a11.474 11.474 0 0 0 2.3-2.237c.275-.346.559-.685.825-1.038.355-.47.714-.937 1.038-1.428.649-.983 1.238-2 1.917-2.968a13.163 13.163 0 0 0 2.073-4.158 4.5 4.5 0 0 0 .113-2.061 1.789 1.789 0 0 1-.042-.438 2.565 2.565 0 0 0-.415-1.5c-.259-.432-.55-.847-.779-1.294a6.157 6.157 0 0 0-1.784-2.018 25.681 25.681 0 0 0-2.5-1.6 6.368 6.368 0 0 0-.677-.337 2.9 2.9 0 0 0-1.594-.276c-.788.1-1.588.119-2.369.257a9.285 9.285 0 0 1-1.884.132 8.175 8.175 0 0 1-4.244-1.233c-.355-.224-.693-.479-1.058-.688a12.638 12.638 0 0 0-1.182-.59 1.105 1.105 0 0 0-.5-.074 5.283 5.283 0 0 0-1.9.4A8.969 8.969 0 0 0 26.14 5.26zM9.745 29.485a11.549 11.549 0 0 0 2.574 1.161 3.914 3.914 0 0 1 .933.413c-.054.06-.09.137-.13.14a4.688 4.688 0 0 1-3.487-1.169 2.066 2.066 0 0 1-.346-.443c-.039-.059-.026-.152-.046-.292a3.485 3.485 0 0 1 .502.19zm5.076 3.474a3.851 3.851 0 0 1-2.3-.085 11.514 11.514 0 0 1-3.265-1.609c-.532-.408-1.111-.757-1.673-1.127a4.218 4.218 0 0 1-.8-.71 7.957 7.957 0 0 1-1.1-1.452.708.708 0 0 1-.122-.656 1.486 1.486 0 0 1 .17.185 4.227 4.227 0 0 0 1.058 1.239 1.251 1.251 0 0 1 .185.171 8.579 8.579 0 0 0 2.082 1.617c.583.374 1.162.762 1.776 1.079a11.048 11.048 0 0 0 2.458.965 3.468 3.468 0 0 0 1.866-.019 2.934 2.934 0 0 1 .308-.046.994.994 0 0 1-.643.448zm-1.127 5.3c-.461.2-.918.408-1.383.594a2.219 2.219 0 0 1-1.1.14.991.991 0 0 1 .175-.241 2.235 2.235 0 0 1 .44-.24 5.062 5.062 0 0 1 1.716-.372.352.352 0 0 1 .154.061c.01 0 0 .036 0 .054zm1.778-1.539a8.414 8.414 0 0 0-2.708.523c-.354.13-.712.251-1.071.367a2.134 2.134 0 0 0-1.162.814c-.154.223-.357.413-.532.622a1.582 1.582 0 0 0-.259.349c-.146.336-.4.382-.753.326a4.861 4.861 0 0 1 .99-1.7c.058-.061.133-.106.189-.167a5.094 5.094 0 0 1 3.239-1.511 6.237 6.237 0 0 1 1.943-.011.992.992 0 0 1 .651.332c-.249.025-.388.049-.527.052zm25.979-13.669c.2-.264.421-.52.626-.785.4-.514.785-1.033 1.18-1.548.216-.283.432-.567.66-.84a1.95 1.95 0 0 1 .3-.233c.133.236 0 .4-.083.55a6.775 6.775 0 0 1-2.74 3.105c-.094-.1.006-.179.057-.249zm-2.31 3.449a1 1 0 0 1 .523-.526 4.342 4.342 0 0 0 1.492-1.134c.747-.8 1.529-1.56 2.206-2.423a11.894 11.894 0 0 0 1.675-2.948 11.105 11.105 0 0 0 .629-2.755 1.027 1.027 0 0 1 .344-.775.5.5 0 0 1 .377.517 5.485 5.485 0 0 1-.055 1.7 9.879 9.879 0 0 1-2.051 4.2 42.892 42.892 0 0 1-2.893 3.163 5.037 5.037 0 0 1-2.275 1.245.98.98 0 0 1 .028-.264zM23.617 15.439c.064-.308.117-.619.176-.928a6.821 6.821 0 0 1 2.046-3.686 1.075 1.075 0 0 1 .241-.1 1.945 1.945 0 0 1-.266.78c-.138.284-.28.567-.445.835a10.038 10.038 0 0 0-1.23 3.94 5.894 5.894 0 0 0 .118 2 1.22 1.22 0 0 1-.137 1.074c-.2-.058-.234-.235-.293-.386a6.1 6.1 0 0 1-.21-3.529zM17.45 17.2c-.44-.476-.859-.972-1.275-1.469a.521.521 0 0 1-.194-.463 1.59 1.59 0 0 1 .769.4c.576.547 1.149 1.1 1.707 1.663a.868.868 0 0 1 .274.911.26.26 0 0 1-.159.163.238.238 0 0 1-.2-.1 6.693 6.693 0 0 0-.922-1.105zm10.938 31.991a7.193 7.193 0 0 1-1.2 2.058q-.42.553-.783 1.147a2.448 2.448 0 0 1-.817.78 8.717 8.717 0 0 0-.875.616 4.622 4.622 0 0 1-1.861.89c-.472.1-.932.258-1.4.387a3.689 3.689 0 0 1-.486.126 4.927 4.927 0 0 1-2.4-.322 1.359 1.359 0 0 1 .329-.1c.167 0 .334.033.5.043a4.5 4.5 0 0 0 1.563-.141c.6-.175 1.209-.357 1.815-.53a7.236 7.236 0 0 0 2.273-1.332 2.871 2.871 0 0 0 .5-.567 13.546 13.546 0 0 0 1.482-2.115 12.65 12.65 0 0 0 1.048-2.764c.163-.67.2-1.37.363-2.042.151-.635.194-1.282.308-1.919.033-.184.093-.364.158-.615.089.131.18.2.186.283.039.543.16 1.077.153 1.627a13.056 13.056 0 0 1-.856 4.49zm-6.083 3.563c.2-.1.4-.209.613-.3a2.039 2.039 0 0 0 .886-.684q.315-.434.637-.862c.325-.434.654-.867.988-1.31.143.212.181.332.13.452a6.26 6.26 0 0 1-1.2 2.056 2.574 2.574 0 0 1-2.023.785l-.032-.137zm23.217-4.924a.526.526 0 0 1-.122-.083c-.011-.013.02-.063.033-.1l.132.055zm1.046-13.171a1.911 1.911 0 0 0-1.249-1.015c-.508-.189-.985-.46-1.476-.694a.426.426 0 0 1-.279-.333 3.482 3.482 0 0 1 1.17.215 5.344 5.344 0 0 1 1.508.754 1.179 1.179 0 0 1 .545.811c.018.133-.008.25-.22.262zm-5.24-3.922a6.358 6.358 0 0 1 2.694-.048 4.675 4.675 0 0 1 2.183 1.063 3.151 3.151 0 0 1 .8 1.2c.076.193.127.4.218.684a1.665 1.665 0 0 1-.787-.516c-.292-.272-.57-.561-.875-.818a4.793 4.793 0 0 0-2.549-1 4.5 4.5 0 0 0-1.442-.03 1.389 1.389 0 0 1-.927-.093 2.389 2.389 0 0 1-.3-.242c.374-.076.679-.14.984-.2zM39.9 49.754a1.983 1.983 0 0 1 .289.2.356.356 0 0 1-.44.131 4.611 4.611 0 0 1-1.416-.662 9.156 9.156 0 0 1-1.214-.988 9.511 9.511 0 0 1-1.462-1.967 5.5 5.5 0 0 0-.449-.692 12.98 12.98 0 0 1-1.286-2.306 1.657 1.657 0 0 1-.12-.358 21.682 21.682 0 0 0-.8-2.586 5.575 5.575 0 0 1-.319-2.028c.15-.046.2.04.246.141.155.367.316.731.465 1.1.109.271.2.55.3.823a4.89 4.89 0 0 0 .211.526 13.262 13.262 0 0 1 .9 2.347 2.8 2.8 0 0 0 .212.524 19.854 19.854 0 0 0 1.9 2.968q.669.837 1.377 1.64a4.475 4.475 0 0 0 1.606 1.187zm-.425-2.854a.181.181 0 0 1 .093.141c0 .114-.1.125-.181.113a2 2 0 0 1-.86-.36 5.675 5.675 0 0 1-1.255-1.225c-.333-.43-.645-.878-.949-1.329a3.32 3.32 0 0 1-.511-1.47 3.157 3.157 0 0 1 .3.408 9.783 9.783 0 0 0 1.745 2.365c.179.2.377.392.571.585a2.717 2.717 0 0 0 1.047.772zm-9.568-27.55a.35.35 0 0 1 .129.265.668.668 0 0 1-.334.639c-.178.107-.365.2-.547.3l-.168 1.448 1.135.277c.386-.525.5-1.169.866-1.675-.1-.3-.326-.539-.208-.9a1.928 1.928 0 0 1 1.382-.362 1.125 1.125 0 0 1 .784.477c.1.134.184.282.289.445l-.4.64-.835.125c-.146.263-.283.546-.456.806-.16.241-.358.456-.546.69a1.733 1.733 0 0 0 .756.61 10.69 10.69 0 0 1 1.754-1.74 1.192 1.192 0 0 1 .146-.808 1.731 1.731 0 0 1 1.208 0 .917.917 0 0 1 .5.8.736.736 0 0 1-.6.716 1.726 1.726 0 0 1-1.076-.127l-1.4 1.628c.311.41.75.645 1.025 1.079a16.762 16.762 0 0 1 1.983-1.232c.024-.237.036-.445.066-.65a.324.324 0 0 1 .329-.322 1.317 1.317 0 0 1 1.217.3l.252.715a5.96 5.96 0 0 1-.3.571.561.561 0 0 1-.819.193 4.182 4.182 0 0 1-.41-.3l-1.871 1.153a3.025 3.025 0 0 0 .475 1.161 4.406 4.406 0 0 0 .98-.356c.332-.113.668-.248 1.043-.389l.151-.512a2.922 2.922 0 0 1 1.063-.006.323.323 0 0 1 .3.285c.019.124.067.244.079.368a.935.935 0 0 1-.018.365 3.3 3.3 0 0 1-.222.52.684.684 0 0 1-.853.351.535.535 0 0 1-.242-.183 4.394 4.394 0 0 1-.268-.407l-1.825.468c-.007.363.285.636.276 1 .182.035.321.073.464.088.355.037.715.045 1.068.1.257.041.478.1.671-.167.064-.086.269-.089.411-.093a2 2 0 0 1 .436.064.744.744 0 0 1 .532.627 2.5 2.5 0 0 1-.127.675.538.538 0 0 1-.545.356.569.569 0 0 1-.6-.258c-.093-.163-.178-.33-.279-.519l-2.028-.232c-.253.3-.223.7-.368 1.083.522.3 1.118.366 1.59.648.346-.077.65-.164.96-.208a.668.668 0 0 1 .75.876 1.012 1.012 0 0 1-.613.678.667.667 0 0 1-.725-.253.614.614 0 0 1-.1-.226.376.376 0 0 0-.3-.291L34.1 30.15c-.342.322-.268.762-.459 1.14l1.186.909c.343-.09.639-.186.942-.24a1.668 1.668 0 0 1 .564.013.422.422 0 0 1 .349.324 1.451 1.451 0 0 1-.48 1.589.714.714 0 0 1-1.126-.175 8.456 8.456 0 0 1-.345-.8l-1.676-.96-.452.626 1.265 1.505c.217.023.487.039.752.084a1.24 1.24 0 0 1 .4.154.357.357 0 0 1 .139.2.851.851 0 0 1-.689.956 3.857 3.857 0 0 1-.656-.118.759.759 0 0 1-.076.519 5.55 5.55 0 0 1-.6.959.612.612 0 0 1-.551.231.839.839 0 0 1-.853-1.06 1.287 1.287 0 0 0-.2-.953 6.3 6.3 0 0 1-.336-.608c-.109-.2-.214-.407-.322-.614a1.786 1.786 0 0 0-.962.2 2.991 2.991 0 0 0 .065.342c.12.4.254.8.369 1.207.075.26.126.527.194.82l.752.51a6.937 6.937 0 0 1-.132.76.589.589 0 0 1-.943.345 1.1 1.1 0 0 1-.437-1.61.7.7 0 0 0 .059-.138c-.16-.7-.325-1.408-.5-2.154l-.572.057c-.187.019-.375.036-.583.056-.159.718-.021 1.436-.159 2.155.115.076.223.139.32.215a.84.84 0 0 1 .335.893.8.8 0 0 1-.7.638 1.928 1.928 0 0 1-1.052-.1.9.9 0 0 1-.529-.859.752.752 0 0 1 .421-.721.169.169 0 0 1 .053-.033c.4-.065.473-.347.492-.689.025-.459.126-.914.109-1.387-.365-.236-.8-.1-1.155-.294a4.491 4.491 0 0 0-.583.853c-.194.268-.372.558-.551.829.049.248.1.471.136.7a.642.642 0 0 1-.449.8 1.293 1.293 0 0 1-.82.117 1.355 1.355 0 0 1-.371-.953c-.007-.352.108-.486.449-.588.12-.035.245-.055.413-.092l.968-1.831-1.4-.942A12.445 12.445 0 0 0 23 34.13a1.854 1.854 0 0 1 .214 1.007.809.809 0 0 1-.108.419.693.693 0 0 1-1.168.156 1.491 1.491 0 0 1-.343-1.521c.018-.068.106-.122.17-.171a.176.176 0 0 1 .121-.027c.526.091.807-.218 1.058-.616.222-.353.48-.684.729-1.033a4.326 4.326 0 0 0-.71-.922l-1.382.754c-.017.231-.02.44-.051.645-.05.332-.246.491-.662.566a.629.629 0 0 1-.735-.347.993.993 0 0 1 .348-1.382.659.659 0 0 1 .416-.069.523.523 0 0 0 .359-.066c.207-.144.41-.3.627-.425s.444-.229.685-.35a4.677 4.677 0 0 0-.419-1.314l-1.725.256c-.159.272-.306.545-.474.8a.475.475 0 0 1-.831-.015 1.447 1.447 0 0 1 .094-1.491.437.437 0 0 1 .611-.144 1.692 1.692 0 0 0 1.33.107c.281-.075.592.007.846-.153l.251-1.646-2.351-.808c-.064.047-.159.126-.261.192a.914.914 0 0 1-1.351-.467.824.824 0 0 1 .127-.722 1.109 1.109 0 0 1 .712-.482c.18-.036.363-.059.554-.089.338.242.348.648.479 1.018a11.644 11.644 0 0 1 2.336.761l.68-1.458c-.294-.248-.585-.482-.864-.73s-.554-.515-.844-.786a1.569 1.569 0 0 1-.4.288.872.872 0 0 1-.493-.02 1.488 1.488 0 0 1-.5-.258 1.438 1.438 0 0 1-.3-.4.489.489 0 0 1-.006-.483 1.477 1.477 0 0 1 1.3-.867.42.42 0 0 1 .453.273 2.246 2.246 0 0 1 .13.482 3.266 3.266 0 0 1 0 .464c.678.476 1.277 1.068 1.957 1.532a2.557 2.557 0 0 0 1.091-1.016l-1.092-1.5a1.217 1.217 0 0 1-1.145-.406.7.7 0 0 1-.139-.716c.176-.137.353-.283.54-.416a1.022 1.022 0 0 1 1.284.013c.277.224.333.373.173.7-.082.169-.192.324-.3.511l1.111 1.368 1.342-.717-.657-1.516a1.47 1.47 0 0 1-.916-.451.5.5 0 0 1-.058-.63 1.467 1.467 0 0 1 1.587-.429.5.5 0 0 1 .317.5.7.7 0 0 1-.23.626.314.314 0 0 0-.11.392c.111.294.237.584.367.87.068.15.158.29.24.438.489.029.927-.152 1.422-.16a8.183 8.183 0 0 0 .134-1.371 4.002 4.002 0 0 1-.318-.22 1.789 1.789 0 0 1-.309-.312c-.34-.484-.2-.907.374-1.043a2.394 2.394 0 0 1 1.593.244z" fill="#329d93"/><path d="M32.536 33.447a2.055 2.055 0 0 0-.489-.5 3.368 3.368 0 0 0-.592.474c.086.24.161.427.221.618a2.609 2.609 0 0 0 .723 1.327l1.387-.039a2.535 2.535 0 0 0-.241-.612c-.315-.439-.671-.845-1.009-1.268z" fill="#329d93"/><path d="M28.121 23.137a.9.9 0 0 0-.768.163c-.137.1-.286.174-.423.269-.549.381-1.189.6-1.734 1a9.045 9.045 0 0 0-1.414 1.427 1.2 1.2 0 0 0-.129.285 6.215 6.215 0 0 0-.469 2.2 3.309 3.309 0 0 0 .433 1.882 7.824 7.824 0 0 0 1.71 2.071 3.785 3.785 0 0 0 2.438.914 9.259 9.259 0 0 0 2.833-.48 4.076 4.076 0 0 0 2.045-1.8c.363-.638.668-1.309 1-1.964a1.278 1.278 0 0 0 .129-.669 4.65 4.65 0 0 0-.474-1.816 7.986 7.986 0 0 0-2.752-3.14 2.566 2.566 0 0 0-1.745-.347 1.788 1.788 0 0 1-.68.005zm-3.015 6.517a.586.586 0 0 1-.888-.08 2.148 2.148 0 0 1-.264-.426c-.1-.208-.181-.425-.265-.641a.746.746 0 0 1 .335-1.011c.124-.079.247-.159.374-.235a.619.619 0 0 1 .475-.092.841.841 0 0 1 .775.844 3.682 3.682 0 0 0 .05.365 1.6 1.6 0 0 1-.592 1.276zm.919 2.23a.406.406 0 0 1-.545-.169 1.374 1.374 0 0 1 .012-1.48.789.789 0 0 1 .994.319.678.678 0 0 1 .1.225 1.165 1.165 0 0 1-.561 1.105zm.112-5.45a1.177 1.177 0 0 1-.3.229.243.243 0 0 1-.37-.1 1.7 1.7 0 0 1-.122-.48 1.762 1.762 0 0 1 .489-1.322.882.882 0 0 1 1.08-.152 1.116 1.116 0 0 1-.238 1.134c-.188.222-.349.468-.539.691zM27.5 26.2c.126.01.25.026.373.048.306.056.44.224.388.524a2.293 2.293 0 0 1-.564 1.1c-.143.166-.44.2-.71.309a2.282 2.282 0 0 1-.3-1.254.83.83 0 0 1 .813-.727zm0 5.09a1.2 1.2 0 0 1-.576-1.237c.038-.269.05-.541.071-.787a1.151 1.151 0 0 1 1.144-.529.511.511 0 0 1 .386.183 2.544 2.544 0 0 1 .522.921 1.344 1.344 0 0 1-.662 1.5.785.785 0 0 1-.883-.051zm2.125 1.405a.914.914 0 0 1-1.252-.016.581.581 0 0 1-.162-.515.4.4 0 0 1 .333-.32c.268-.042.535-.09.8-.116a.444.444 0 0 1 .51.487.5.5 0 0 1-.227.48zm2.507-1.895c-.35.307-.573.814-1.13.736a.975.975 0 0 1-1.021-1.21 1.815 1.815 0 0 1 .354-.8c.059-.059.144-.13.147-.2.018-.374.324-.486.579-.586a2.292 2.292 0 0 1 .8-.1c.158-.007.255.116.321.261a2.745 2.745 0 0 1-.048 1.9zm.982-2.93a4.161 4.161 0 0 1-.244.371.567.567 0 0 1-1.01-.122.931.931 0 0 1-.077-.426 4.363 4.363 0 0 1 .126-.679.3.3 0 0 1 .527-.173 1.786 1.786 0 0 1 .68 1.029zm-2.2-2.566c.045-.1.094-.2.147-.289a.963.963 0 0 1 .717-.062.716.716 0 0 1 .514.759 1.041 1.041 0 0 1-.321.723.584.584 0 0 1-.981-.164 1.169 1.169 0 0 1-.079-.967zm-.514 1.423c.411.3.461.459.213.89a7.642 7.642 0 0 1-.577.819.472.472 0 0 1-.446.184c-.144-.017-.285-.059-.443-.094-.11-.194-.182-.347-.279-.482a1.9 1.9 0 0 1-.236-1.023c-.007-.1.1-.215.186-.3.052-.056.164-.054.223-.107a.9.9 0 0 1 1.255.042c.031.02.067.046.1.071zm-1.254-3.243a2.523 2.523 0 0 0 .369.052 1 1 0 0 1 .6.9 3.1 3.1 0 0 1-.106.38 1.94 1.94 0 0 1-.81.931.768.768 0 0 1-1.059-.246.882.882 0 0 1-.051-.1 1.674 1.674 0 0 1 .152-1.615.656.656 0 0 1 .9-.306z" fill="#d88c1f"/><path d="M29.069 2.2a.3.3 0 0 1-.061.015c-.267.056-.536.106-.8.171a4.9 4.9 0 0 0-1.378.439c-.452.268-.891.561-1.319.866a11.188 11.188 0 0 0-2.3 2.412 21.791 21.791 0 0 0-2.07 3.68c-.255.931-.571 1.851-.749 2.8a12.037 12.037 0 0 0-.141 3.021c.022.332.09.66.155 1.113-.315-.336-.523-.567-.742-.789-.309-.313-.634-.611-.937-.931-.245-.259-.468-.54-.7-.813a6.383 6.383 0 0 0-1.832-1.207 17.159 17.159 0 0 0-2.155-.449 5.924 5.924 0 0 0-4.311 1.448 9.743 9.743 0 0 0-1.716 1.934 86.513 86.513 0 0 0-1.219 1.768 2.774 2.774 0 0 1-1.035.9 8.505 8.505 0 0 0-2.491 2 2.227 2.227 0 0 0-.579 1.171c-.047.4-.089.793-.169 1.182a4.93 4.93 0 0 0 .273 2.788c.132.353.284.7.406 1.056.184.537.345 1.083.524 1.622A5.694 5.694 0 0 0 5 30.559a12.538 12.538 0 0 0 2.421 2.011c.659.412 1.349.775 2.024 1.162.07.04.132.095.237.172l-.734.43a1.575 1.575 0 0 0-.322.194c-.4.4-.791.812-1.18 1.225-.128.136-.239.289-.356.435a4.551 4.551 0 0 0-1.064 2.323 9.444 9.444 0 0 0-.059 1.513 5.783 5.783 0 0 0 .221 1.426 7.639 7.639 0 0 0 1.1 2.263c.423.576.871 1.134 1.313 1.7a2.813 2.813 0 0 1 .64 1.35 4.644 4.644 0 0 1 .025.882 9.7 9.7 0 0 0 .178 1.941A1.131 1.131 0 0 0 9.58 50a3.646 3.646 0 0 1 .327.882 11.546 11.546 0 0 0 .823 2.043 14.141 14.141 0 0 0 1.711 2.336 4.944 4.944 0 0 0 .689.645 8.855 8.855 0 0 0 2.043 1.232A9.968 9.968 0 0 0 19.2 58a10.639 10.639 0 0 0 2.122-.281 9.073 9.073 0 0 0 2.874-1.1c.415-.248.8-.541 1.2-.812a2.2 2.2 0 0 1 .371-.233 4.888 4.888 0 0 0 1.833-1.069.6.6 0 0 1 .158-.1 1.45 1.45 0 0 0 .635-.676 1.773 1.773 0 0 1 .481-.656 1.71 1.71 0 0 0 .6-.871 9.76 9.76 0 0 1 .548-1.2c.262-.524.453-1.084.662-1.633a1.336 1.336 0 0 0 .073-.434 1.865 1.865 0 0 1 .189-.725 1.637 1.637 0 0 0 .17-.665 2.422 2.422 0 0 1 .243-1.34 1.593 1.593 0 0 0 .1-.429 2.738 2.738 0 0 1 .108-.277c.223.577.406 1.087.623 1.588a25.151 25.151 0 0 0 2.581 4.477 12.781 12.781 0 0 0 .98 1.155 1.841 1.841 0 0 0 .353.263 8.171 8.171 0 0 0 3.818 1.189 11.585 11.585 0 0 0 3.88-.354 8.759 8.759 0 0 0 1.067-.381 6.264 6.264 0 0 0 2.053-1.057c.068-.048.156-.092.19-.16a1.325 1.325 0 0 1 .5-.47 2.562 2.562 0 0 0 .664-.749 2.494 2.494 0 0 1 .486-.725.317.317 0 0 0 .1-.156c.112-.358.214-.719.328-1.076a.845.845 0 0 0 .044-.609.419.419 0 0 1 .063-.35.955.955 0 0 0 .159-.777 4.561 4.561 0 0 1-.034-.438 1.375 1.375 0 0 0-.175-.841.6.6 0 0 1-.088-.362 14.027 14.027 0 0 1 .03-2.069c.084-.338.041-.7.313-.984.066-.068.068-.2.1-.294a7.239 7.239 0 0 1 .381-1.059 8.453 8.453 0 0 1 .7-.964 1.074 1.074 0 0 0 .172-.256 7.784 7.784 0 0 0 .607-2.341 4.588 4.588 0 0 1 .073-.56 3.264 3.264 0 0 0-.259-2.086c-.066-.129-.091-.277-.144-.413a8.044 8.044 0 0 0-.5-1.218c-.222-.374-.382-.779-.573-1.167a5.643 5.643 0 0 0-1.323-1.747 15.513 15.513 0 0 0-1.664-1.243 6.35 6.35 0 0 0-1.171-.609 9.46 9.46 0 0 0-1.995-.578 7.654 7.654 0 0 0-2.261-.118c-.22.03-.444.027-.724.042.161-.247.39-.261.558-.368a16.71 16.71 0 0 0 1.8-1.156 10.728 10.728 0 0 0 1.816-1.835c.573-.779 1.17-1.539 1.733-2.325.4-.563.758-1.161 1.153-1.732a11.587 11.587 0 0 0 1.513-2.528 2.379 2.379 0 0 1 .168-.266c.131-.24.274-.475.381-.726.246-.581.474-1.169.706-1.755a.9.9 0 0 0 .089-.3 7.756 7.756 0 0 0 .018-1.938 4.692 4.692 0 0 0-.658-1.685c-.33-.486-.7-.946-1.037-1.426a1.317 1.317 0 0 1-.346-.794.382.382 0 0 0-.1-.286c-.312-.237-.443-.609-.7-.886a9.794 9.794 0 0 0-1.471-1.363c-.529-.382-1.077-.74-1.58-1.151A9.2 9.2 0 0 0 43.116 4.3a1.248 1.248 0 0 0-1.016-.222.478.478 0 0 1-.3-.06 2.692 2.692 0 0 0-.8-.137 11.745 11.745 0 0 0-2.513.166 20.515 20.515 0 0 1-2.389.194 8.787 8.787 0 0 1-1.9-.385.748.748 0 0 1-.217-.125A8.241 8.241 0 0 0 32.048 2.7a.6.6 0 0 1-.165-.094 2.445 2.445 0 0 0-1.371-.385 3.287 3.287 0 0 0-1.443-.021zm1.54 1.422a12.587 12.587 0 0 1 1.179.59c.365.209.7.464 1.058.688a8.186 8.186 0 0 0 4.244 1.233A9.285 9.285 0 0 0 38.974 6c.781-.138 1.581-.159 2.369-.257a2.9 2.9 0 0 1 1.594.276 6.368 6.368 0 0 1 .677.337 26.283 26.283 0 0 1 2.5 1.6A6.157 6.157 0 0 1 47.9 9.975c.229.447.52.862.779 1.294a2.549 2.549 0 0 1 .415 1.5 1.784 1.784 0 0 0 .042.438 4.5 4.5 0 0 1-.113 2.061 13.226 13.226 0 0 1-2.073 4.158c-.679.966-1.268 1.985-1.917 2.968-.324.491-.683.958-1.038 1.428-.266.353-.55.692-.825 1.038a11.5 11.5 0 0 1-2.3 2.237c-.53.379-1.084.725-1.625 1.088a1.692 1.692 0 0 0-.689.826 1.2 1.2 0 0 0 .348.115 5.43 5.43 0 0 0 .817-.046 12.293 12.293 0 0 1 3.888.189 6.637 6.637 0 0 1 3.021 1.5 6.731 6.731 0 0 1 1.314 1.444 14.8 14.8 0 0 1 1.381 2.76 2.55 2.55 0 0 1 .1 1.428 6.546 6.546 0 0 1-.762 2.255 8.763 8.763 0 0 1-.872 1.944 8.942 8.942 0 0 0-.719 2.859 3.324 3.324 0 0 0 .061 1 14.307 14.307 0 0 0 .518 2.009 2.62 2.62 0 0 1 .133.678c.041.5.053 1.009.088 1.513a.7.7 0 0 1-.148.529c-.309.372-.592.767-.918 1.125a5.339 5.339 0 0 1-1.085.855 8.941 8.941 0 0 1-3.186 1.149 7.862 7.862 0 0 1-3.011 0c-.351-.066-.7-.15-1.047-.222a4.286 4.286 0 0 1-2.548-1.742 24.11 24.11 0 0 1-1.05-1.5c-.194-.3-.31-.648-.517-.935a11.051 11.051 0 0 1-1.22-2.418 15.129 15.129 0 0 1-.893-2.753c-.108-.576-.327-1.13-.484-1.7a2.77 2.77 0 0 1-.124-.676 3.3 3.3 0 0 0-.259-1.1.548.548 0 0 0-.552-.421.737.737 0 0 0-.2.647c.039.5.087 1.006.161 1.5a10.124 10.124 0 0 1-.118 3.946c-.182.755-.286 1.529-.4 2.3a10.807 10.807 0 0 1-.611 2.248 10.514 10.514 0 0 1-1.154 2.165c-.507.748-1 1.508-1.573 2.206a1.239 1.239 0 0 1-.321.3c-.746.431-1.491.867-2.255 1.266a5.346 5.346 0 0 1-1.071.385c-.546.151-1.1.281-1.655.4a7.761 7.761 0 0 1-3.563-.113 11.156 11.156 0 0 1-2.282-.9 2.178 2.178 0 0 1-.361-.251A7.344 7.344 0 0 1 13.3 52.4a5.007 5.007 0 0 1-.582-2.1.971.971 0 0 0-.052-.37.581.581 0 0 1 .034-.53.548.548 0 0 0 .056-.362 4.313 4.313 0 0 1-.042-1c-.011-.27.021-.555-.209-.768a.19.19 0 0 1-.063-.106c-.04-.723-.584-1.141-1.023-1.592-.571-.586-1.212-1.1-1.838-1.635a7.568 7.568 0 0 1-2.156-3.14 3.778 3.778 0 0 1-.137-2.113A4.19 4.19 0 0 1 8.417 36.4a4.38 4.38 0 0 1 2.042-1.309 3.179 3.179 0 0 0 .821-.313 1.647 1.647 0 0 1 .844-.2q1.294.015 2.589 0a3.556 3.556 0 0 0 .809-.108c.751-.191 1.5-.4 2.243-.613a2.6 2.6 0 0 0 .4-.2 1.6 1.6 0 0 0-.382-.169 9.992 9.992 0 0 0-2.2-.053c-.416.055-.845 0-1.261.053a6.2 6.2 0 0 1-1.382-.007 7.632 7.632 0 0 1-2.919-.954 22.47 22.47 0 0 1-2.089-1.297 12.983 12.983 0 0 1-2.11-1.694 7.1 7.1 0 0 1-1.3-1.86c-.253-.553-.514-1.1-.769-1.653-.061-.134-.108-.274-.167-.409a2.681 2.681 0 0 1 .014-2.082 4.25 4.25 0 0 0 .2-.855 1.24 1.24 0 0 1 .324-.669c.183-.2.35-.421.541-.615a1.414 1.414 0 0 1 .4-.3 16.689 16.689 0 0 1 2.335-.956c.564-.16 1.108-.394 1.661-.6a2.88 2.88 0 0 0 1.694-1.76 1.641 1.641 0 0 1 .061-.179 2.442 2.442 0 0 0 .14-1.533c.134-.292.257-.605.418-.9a2.784 2.784 0 0 1 .415-.551 3.127 3.127 0 0 1 2.493-1.147 4.1 4.1 0 0 1 2.737 1.12c.511.5 1.074.945 1.606 1.424.3.267.562.569.866.827a6.292 6.292 0 0 1 1.424 1.9c.03.055.069.106.1.161a5.387 5.387 0 0 1 .7 1.445c.234.03.327-.083.337-.242a1.05 1.05 0 0 0-.057-.43c-.209-.548-.441-1.088-.654-1.635a2.5 2.5 0 0 1-.152-.546q-.15-1.123-.278-2.251a1.629 1.629 0 0 1 .006-.441c.136-.809.272-1.617.426-2.423a6.167 6.167 0 0 1 .614-1.583c.122-.244.279-.472.389-.721a12.979 12.979 0 0 1 2.004-2.948 14.271 14.271 0 0 1 1.79-1.864 8.949 8.949 0 0 1 2.069-1.313 5.344 5.344 0 0 1 1.9-.4 1.106 1.106 0 0 1 .5.075z"/><path d="m33.788 35.331.006.016h.019v-.017z"/><path d="M27.946 20.148a1.789 1.789 0 0 0 .309.312c.1.079.209.152.318.22a8.183 8.183 0 0 1-.134 1.371c-.5.008-.933.189-1.422.16-.082-.148-.172-.288-.24-.438a14.42 14.42 0 0 1-.367-.87.314.314 0 0 1 .11-.392.687.687 0 0 0 .23-.626.5.5 0 0 0-.317-.5 1.47 1.47 0 0 0-1.587.429.5.5 0 0 0 .058.63 1.47 1.47 0 0 0 .916.451l.657 1.516-1.342.717-1.111-1.368c.113-.187.223-.342.3-.511.16-.33.1-.479-.173-.7a1.022 1.022 0 0 0-1.284-.013c-.187.133-.364.279-.54.416a.7.7 0 0 0 .139.716 1.216 1.216 0 0 0 1.145.408l1.092 1.5a2.551 2.551 0 0 1-1.093 1.016c-.68-.464-1.279-1.056-1.957-1.532a3.266 3.266 0 0 0 0-.464 2.246 2.246 0 0 0-.13-.482.42.42 0 0 0-.453-.273 1.481 1.481 0 0 0-1.3.867.489.489 0 0 0 .006.483 1.438 1.438 0 0 0 .3.4 1.488 1.488 0 0 0 .5.258.872.872 0 0 0 .493.02 1.429 1.429 0 0 0 .4-.288c.29.271.561.535.844.786s.57.482.864.73l-.68 1.458a11.6 11.6 0 0 0-2.336-.761c-.131-.37-.141-.776-.479-1.018-.191.03-.374.053-.554.089a1.109 1.109 0 0 0-.712.482.824.824 0 0 0-.127.722.915.915 0 0 0 1.168.555.847.847 0 0 0 .179-.087c.1-.066.2-.145.261-.192l2.35.808-.251 1.646c-.254.16-.565.078-.846.153a1.692 1.692 0 0 1-1.33-.107.437.437 0 0 0-.611.144 1.458 1.458 0 0 0-.094 1.491.475.475 0 0 0 .831.015c.168-.259.315-.532.474-.8l1.725-.256a4.677 4.677 0 0 1 .419 1.314c-.241.121-.471.223-.685.35s-.42.281-.627.425a.523.523 0 0 1-.359.066.654.654 0 0 0-.416.069.993.993 0 0 0-.348 1.382.629.629 0 0 0 .735.347c.416-.075.612-.234.662-.566.031-.2.034-.414.051-.645l1.385-.756a4.391 4.391 0 0 1 .71.922c-.249.349-.507.68-.729 1.033-.251.4-.532.707-1.058.616a.179.179 0 0 0-.121.027c-.064.049-.152.1-.17.171a1.471 1.471 0 0 0 .343 1.521c.434.421.851.3 1.168-.156a.79.79 0 0 0 .108-.419A1.856 1.856 0 0 0 23 34.133a12.7 12.7 0 0 1 1.115-1.193l1.4.942q-.5.953-.967 1.831c-.168.037-.293.057-.413.092-.342.1-.456.236-.449.588a1.358 1.358 0 0 0 .37.953 1.293 1.293 0 0 0 .82-.117.639.639 0 0 0 .449-.8c-.032-.227-.087-.45-.136-.7.179-.271.354-.558.551-.829a4.4 4.4 0 0 1 .583-.853c.359.19.79.058 1.155.294.017.473-.084.928-.109 1.387-.019.342-.1.624-.492.689a.2.2 0 0 0-.053.033.751.751 0 0 0-.42.721.9.9 0 0 0 .529.859 1.928 1.928 0 0 0 1.052.1.8.8 0 0 0 .7-.638.84.84 0 0 0-.335-.893c-.1-.076-.2-.139-.32-.215.138-.719 0-1.437.159-2.155.208-.02.4-.037.583-.056l.572-.057c.172.746.337 1.459.5 2.154a.7.7 0 0 1-.059.138 1.1 1.1 0 0 0 .437 1.61.587.587 0 0 0 .943-.345 6.937 6.937 0 0 0 .132-.76l-.752-.51c-.068-.293-.119-.56-.194-.82-.115-.405-.249-.8-.369-1.207a3.033 3.033 0 0 1-.065-.342 1.786 1.786 0 0 1 .962-.2c.108.207.213.411.322.614a6.3 6.3 0 0 0 .336.608 1.287 1.287 0 0 1 .2.953.84.84 0 0 0 .853 1.06.614.614 0 0 0 .548-.236 5.871 5.871 0 0 0 .6-.959.759.759 0 0 0 .076-.519h-.019l-.006-.016-1.387.039a2.609 2.609 0 0 1-.723-1.327c-.06-.191-.135-.378-.221-.618a3.236 3.236 0 0 1 .592-.474 2.055 2.055 0 0 1 .489.5c.338.423.694.833 1.009 1.272a2.535 2.535 0 0 1 .241.612h.023v.022a3.857 3.857 0 0 0 .656.118.85.85 0 0 0 .689-.956.357.357 0 0 0-.139-.2 1.24 1.24 0 0 0-.4-.154c-.265-.045-.535-.061-.752-.084l-1.265-1.505.448-.615 1.676.96a8.456 8.456 0 0 0 .345.8.711.711 0 0 0 1.13.171 1.451 1.451 0 0 0 .48-1.589.422.422 0 0 0-.349-.324 1.668 1.668 0 0 0-.564-.013c-.3.054-.6.15-.942.24l-1.186-.914c.191-.378.117-.818.459-1.14l1.79.57a.379.379 0 0 1 .3.291.614.614 0 0 0 .1.226.675.675 0 0 0 .725.253 1.012 1.012 0 0 0 .613-.678.668.668 0 0 0-.75-.876c-.31.044-.614.131-.96.208-.472-.282-1.068-.353-1.59-.648.145-.379.115-.778.368-1.083l2.025.232c.1.189.186.356.279.519a.579.579 0 0 0 .6.258.546.546 0 0 0 .545-.356 2.5 2.5 0 0 0 .127-.675.744.744 0 0 0-.532-.627 2 2 0 0 0-.436-.064c-.142 0-.347.007-.411.093-.193.264-.414.208-.671.167-.353-.056-.713-.064-1.068-.1-.143-.015-.282-.053-.464-.088.009-.369-.283-.642-.276-1l1.817-.477q.124.21.268.407a.543.543 0 0 0 .243.183.684.684 0 0 0 .853-.351 3.3 3.3 0 0 0 .222-.52.935.935 0 0 0 .018-.365c-.012-.124-.06-.244-.079-.368a.323.323 0 0 0-.3-.285 2.922 2.922 0 0 0-1.063.006l-.151.512c-.375.141-.706.275-1.043.389a4.446 4.446 0 0 1-.98.356 3.025 3.025 0 0 1-.475-1.161l1.87-1.153a4.436 4.436 0 0 0 .41.3.561.561 0 0 0 .819-.193 5.644 5.644 0 0 0 .3-.571c-.1-.289-.184-.524-.251-.715a1.335 1.335 0 0 0-1.217-.3.326.326 0 0 0-.329.322c-.029.2-.042.413-.066.65a16.681 16.681 0 0 0-1.978 1.236c-.275-.434-.714-.669-1.025-1.079l1.418-1.629a1.7 1.7 0 0 0 1.076.127.746.746 0 0 0 .6-.716.905.905 0 0 0-.5-.8 1.78 1.78 0 0 0-1.209 0 1.2 1.2 0 0 0-.145.808 10.89 10.89 0 0 0-1.754 1.74 1.733 1.733 0 0 1-.756-.61c.188-.234.386-.449.546-.69.173-.26.31-.543.456-.806l.838-.133.4-.64c-.105-.163-.188-.311-.289-.445a1.137 1.137 0 0 0-.784-.477 1.931 1.931 0 0 0-1.382.362c-.118.366.107.607.208.9-.371.506-.48 1.15-.866 1.675L28.988 22l.168-1.448c.182-.1.369-.19.547-.3a.668.668 0 0 0 .334-.639.35.35 0 0 0-.129-.265 2.357 2.357 0 0 0-1.587-.242c-.571.135-.715.558-.375 1.042zm.856 2.984a2.566 2.566 0 0 1 1.745.347 7.972 7.972 0 0 1 2.752 3.14 4.65 4.65 0 0 1 .474 1.816 1.278 1.278 0 0 1-.129.669c-.333.655-.638 1.326-1 1.964a4.076 4.076 0 0 1-2.045 1.8 9.168 9.168 0 0 1-2.833.48 3.78 3.78 0 0 1-2.438-.914 7.824 7.824 0 0 1-1.71-2.071 3.309 3.309 0 0 1-.43-1.887 6.178 6.178 0 0 1 .469-2.2 1.2 1.2 0 0 1 .129-.285 9.042 9.042 0 0 1 1.414-1.427c.554-.4 1.185-.614 1.734-1 .137-.1.286-.173.423-.269a.9.9 0 0 1 .768-.163 1.772 1.772 0 0 0 .677 0zm.108 19.654c-.065.251-.125.431-.158.615-.114.637-.157 1.284-.308 1.919-.159.672-.2 1.372-.363 2.042a12.65 12.65 0 0 1-1.048 2.764 13.546 13.546 0 0 1-1.482 2.115 2.755 2.755 0 0 1-.5.567 7.236 7.236 0 0 1-2.273 1.332c-.606.173-1.21.355-1.815.53a4.5 4.5 0 0 1-1.563.141c-.168-.01-.335-.045-.5-.043a1.359 1.359 0 0 0-.329.1 4.933 4.933 0 0 0 2.4.322 3.689 3.689 0 0 0 .486-.126c.465-.129.925-.283 1.4-.387a4.622 4.622 0 0 0 1.861-.89 8.886 8.886 0 0 1 .87-.611 2.453 2.453 0 0 0 .812-.776q.364-.6.786-1.152a7.193 7.193 0 0 0 1.2-2.058 13.039 13.039 0 0 0 .862-4.5c.007-.55-.114-1.084-.153-1.627-.007-.073-.095-.146-.185-.277zm9.378 5.781q-.708-.8-1.377-1.64a20.513 20.513 0 0 1-1.9-2.968 2.8 2.8 0 0 1-.212-.524 13.262 13.262 0 0 0-.9-2.347 4.89 4.89 0 0 1-.211-.526c-.1-.273-.194-.552-.3-.823-.149-.369-.31-.733-.465-1.1-.044-.1-.1-.187-.246-.141A5.574 5.574 0 0 0 33 40.53a22.646 22.646 0 0 1 .8 2.586 1.555 1.555 0 0 0 .12.358 12.856 12.856 0 0 0 1.28 2.306 5.5 5.5 0 0 1 .448.683 9.484 9.484 0 0 0 1.462 1.967 9.1 9.1 0 0 0 1.215.988 4.669 4.669 0 0 0 1.416.662.355.355 0 0 0 .439-.131 1.983 1.983 0 0 0-.289-.2 4.479 4.479 0 0 1-1.603-1.182zm5.993-26.211a9.879 9.879 0 0 0 2.051-4.2 5.477 5.477 0 0 0 .055-1.7.5.5 0 0 0-.377-.517 1.027 1.027 0 0 0-.344.775 11.105 11.105 0 0 1-.629 2.755 11.894 11.894 0 0 1-1.675 2.948c-.677.863-1.459 1.626-2.206 2.423a4.342 4.342 0 0 1-1.492 1.134 1 1 0 0 0-.523.526.98.98 0 0 0-.028.264 5.037 5.037 0 0 0 2.275-1.245 42.892 42.892 0 0 0 2.893-3.163zM24.12 19.359a1.221 1.221 0 0 0 .137-1.074 5.948 5.948 0 0 1-.118-2 10.038 10.038 0 0 1 1.23-3.94c.165-.268.307-.551.445-.835a1.945 1.945 0 0 0 .266-.78c-.129.05-.2.057-.241.1a6.821 6.821 0 0 0-2.046 3.686c-.059.309-.112.62-.176.928a6.121 6.121 0 0 0 .21 3.534c.061.146.094.322.293.381zM13.3 32.576a11.035 11.035 0 0 1-2.456-.972c-.614-.317-1.193-.7-1.776-1.079a8.579 8.579 0 0 1-2.082-1.617 1.251 1.251 0 0 0-.185-.171A4.231 4.231 0 0 1 5.738 27.5a1.486 1.486 0 0 0-.17-.185.716.716 0 0 0 .122.656 7.966 7.966 0 0 0 1.1 1.456 4.218 4.218 0 0 0 .8.71c.562.37 1.141.719 1.673 1.127a11.594 11.594 0 0 0 3.265 1.609 3.851 3.851 0 0 0 2.3.085 1 1 0 0 0 .648-.445 2.934 2.934 0 0 0-.308.046 3.474 3.474 0 0 1-1.868.017zm28.265-1.3a4.5 4.5 0 0 1 1.442.03 4.729 4.729 0 0 1 2.549 1c.3.257.583.546.875.818a1.643 1.643 0 0 0 .787.516c-.091-.288-.142-.491-.218-.684a3.159 3.159 0 0 0-.8-1.2 4.675 4.675 0 0 0-2.183-1.063 6.357 6.357 0 0 0-2.694.048l-.985.2a2.389 2.389 0 0 0 .3.242 1.436 1.436 0 0 0 .927.093zm-28.16 5.066a5.089 5.089 0 0 0-3.239 1.511c-.056.061-.131.106-.189.167a4.808 4.808 0 0 0-.99 1.7c.356.056.607.01.753-.326a1.582 1.582 0 0 1 .26-.349c.175-.209.378-.4.532-.622a2.134 2.134 0 0 1 1.162-.814c.359-.116.717-.237 1.071-.367a8.414 8.414 0 0 1 2.708-.523c.139 0 .278-.027.527-.053a.992.992 0 0 0-.651-.332 6.237 6.237 0 0 0-1.944.008z"/><path d="M9.635 30.03a4.688 4.688 0 0 0 3.487 1.17c.04 0 .076-.08.13-.14a3.914 3.914 0 0 0-.933-.413 11.549 11.549 0 0 1-2.574-1.161 3.126 3.126 0 0 0-.5-.19c.02.14.007.233.046.292a2.057 2.057 0 0 0 .344.442zm8.937-11.625a.26.26 0 0 0 .159-.163.868.868 0 0 0-.274-.911 74.38 74.38 0 0 0-1.707-1.663 1.6 1.6 0 0 0-.769-.4.536.536 0 0 0 .194.463c.416.5.835.993 1.275 1.469a7.172 7.172 0 0 1 .927 1.1.239.239 0 0 0 .195.105zm19.28 27.135a9.783 9.783 0 0 1-1.745-2.365 2.959 2.959 0 0 0-.3-.408 3.33 3.33 0 0 0 .511 1.47c.3.451.616.9.949 1.329a5.675 5.675 0 0 0 1.255 1.225 2 2 0 0 0 .86.36c.081.012.182 0 .181-.113a.181.181 0 0 0-.093-.141 2.728 2.728 0 0 1-1.053-.772c-.188-.193-.386-.381-.565-.585zm6.277-25.34c.082-.153.216-.314.083-.55a1.95 1.95 0 0 0-.3.233c-.228.273-.444.557-.66.84-.395.515-.784 1.034-1.18 1.548-.2.265-.422.521-.626.785-.055.07-.153.147-.057.253a6.775 6.775 0 0 0 2.74-3.109zm2.112 13.386a5.344 5.344 0 0 0-1.508-.754 3.482 3.482 0 0 0-1.17-.215.426.426 0 0 0 .279.333c.491.234.968.5 1.476.694a1.9 1.9 0 0 1 1.249 1.015c.212-.012.238-.129.219-.262a1.2 1.2 0 0 0-.545-.811zm-32.696 4.55a5.062 5.062 0 0 0-1.716.372 2.184 2.184 0 0 0-.44.24.991.991 0 0 0-.175.241 2.228 2.228 0 0 0 1.1-.14c.465-.186.922-.4 1.383-.594 0-.018.012-.055.005-.058a.364.364 0 0 0-.157-.061zM45.4 47.747a.526.526 0 0 0 .122.083l.043-.124-.132-.055c-.014.033-.045.083-.033.096zM31.859 28.64a2.622 2.622 0 0 0-.8.1c-.246.091-.561.212-.579.586 0 .069-.088.14-.147.2a1.766 1.766 0 0 0-.354.8.975.975 0 0 0 1.021 1.21c.557.078.78-.429 1.13-.736a2.736 2.736 0 0 0 .046-1.9c-.062-.144-.159-.267-.317-.26zm-2.809 1.198a2.544 2.544 0 0 0-.522-.921.511.511 0 0 0-.386-.183 1.151 1.151 0 0 0-1.142.529c-.021.246-.033.518-.071.787a1.2 1.2 0 0 0 .576 1.237.785.785 0 0 0 .885.048 1.345 1.345 0 0 0 .66-1.497zm-3.402-1.825a.838.838 0 0 0-.775-.844.619.619 0 0 0-.475.092c-.127.076-.25.156-.374.235a.743.743 0 0 0-.335 1.011c.084.216.165.433.265.641a2.134 2.134 0 0 0 .264.428.586.586 0 0 0 .888.08 1.582 1.582 0 0 0 .594-1.276 3.241 3.241 0 0 1-.052-.367zm2.593-4.224a1.674 1.674 0 0 0-.152 1.615.769.769 0 0 0 1.011.396.785.785 0 0 0 .1-.051 1.931 1.931 0 0 0 .81-.931 3.1 3.1 0 0 0 .106-.38 1 1 0 0 0-.6-.9c-.12-.031-.26 0-.369-.052a.661.661 0 0 0-.906.303zm.799 2.824c-.059.053-.171.051-.223.107-.082.086-.193.2-.186.3a1.9 1.9 0 0 0 .236 1.023 5.134 5.134 0 0 1 .279.482c.158.035.3.077.443.094a.472.472 0 0 0 .446-.184 7.642 7.642 0 0 0 .577-.819c.248-.431.2-.588-.213-.89-.034-.025-.07-.047-.1-.072a.91.91 0 0 0-1.259-.041zm-2.122-2.004a.882.882 0 0 0-1.08.152 1.762 1.762 0 0 0-.489 1.322 1.7 1.7 0 0 0 .122.48.244.244 0 0 0 .319.13.236.236 0 0 0 .051-.03 1.177 1.177 0 0 0 .3-.229c.19-.223.352-.469.543-.691a1.118 1.118 0 0 0 .234-1.134zm.782 3.261a2.293 2.293 0 0 0 .564-1.1c.052-.3-.082-.468-.388-.524a3.84 3.84 0 0 0-.373-.048.823.823 0 0 0-.809.728 2.221 2.221 0 0 0 .3 1.254c.264-.111.561-.144.706-.31zm4.268-1.437a1.041 1.041 0 0 0 .321-.723.716.716 0 0 0-.514-.759.963.963 0 0 0-.717.062c-.053.094-.1.19-.147.289a1.169 1.169 0 0 0 .076.967.584.584 0 0 0 .981.164zm-5.48 4.121a.789.789 0 0 0-.994-.319 1.374 1.374 0 0 0-.012 1.48.406.406 0 0 0 .545.169 1.162 1.162 0 0 0 .56-1.105.676.676 0 0 0-.099-.225zm5.423-3.542a4.363 4.363 0 0 0-.126.679.931.931 0 0 0 .077.426.567.567 0 0 0 1.01.122 4.161 4.161 0 0 0 .244-.371 1.793 1.793 0 0 0-.678-1.029.3.3 0 0 0-.527.173zm-2.56 4.713c-.269.026-.536.074-.8.116a.4.4 0 0 0-.333.32.581.581 0 0 0 .162.515.914.914 0 0 0 1.252.016.5.5 0 0 0 .233-.48.448.448 0 0 0-.514-.487z"/></svg>