<svg height="60" viewBox="0 0 60 60" width="60" xmlns="http://www.w3.org/2000/svg"><path d="M46.629 5.719a1.98 1.98 0 0 0-.458.246 19.387 19.387 0 0 1-2.258 1.829c-.349.264-.714.513-1.036.808-.924.847-1.829 1.715-2.744 2.572-.229.214-.473.413-.7.628-.248.232-.486.475-.75.734a2.215 2.215 0 0 0-.517-.266c-.565-.11-.737-.527-.844-1.006a2.7 2.7 0 0 1-.072-.464q-.135-2.629-.259-5.265a4.421 4.421 0 0 0-.046-.749c-.024-.108-.194-.184-.341-.311-.766 1.177-2.1 1.623-2.923 2.654A13.946 13.946 0 0 0 32.15 8.2a18.853 18.853 0 0 0-2.334 1.872c-.24.2-.438.445-.663.662a4.368 4.368 0 0 1-.621.556 1.218 1.218 0 0 1-1.678-.3 2.169 2.169 0 0 1-.322-.57A21.769 21.769 0 0 1 25.3 6.673a3.959 3.959 0 0 0-.188-.529c-.458.427-.452.427-.606.852a7.639 7.639 0 0 1-.579 1.486 5.152 5.152 0 0 0-.6 1.657c-.079.366-.2.723-.306 1.082-.044.149-.116.29-.148.441-.194.915-.377 1.834-.572 2.749a1.548 1.548 0 0 1-.147.342 18.635 18.635 0 0 0-.873 3.138 6.77 6.77 0 0 1-.347 1.948l-.669.419.332.6c-.037.578-.074 1.039-.1 1.5q-.058 1.265-.1 2.531a.664.664 0 0 0 .057.365 1.691 1.691 0 0 1 .12.82 4.626 4.626 0 0 0 .81 2.777.745.745 0 0 1 .219.409c-.008.522.391.834.6 1.24a6.276 6.276 0 0 0 2.182 2.271 10.862 10.862 0 0 0 4.375 1.857 8.878 8.878 0 0 0 2.15.161 26.541 26.541 0 0 0 5.145-1.063 5.628 5.628 0 0 0 2.425-1.535c.8-.8 1.487-1.7 2.235-2.543a11.91 11.91 0 0 0 1.954-2.863c.211-.454.485-.878.708-1.326a16.019 16.019 0 0 0 1.222-2.742 52.067 52.067 0 0 0 1.453-6.8c.2-1.4.276-2.808.4-4.214.1-1.156.163-2.316.3-3.467a8.019 8.019 0 0 0 .023-2.065 2.768 2.768 0 0 0-.146-.452z" fill="#ee7558"/><path d="M27.725 49.541V48.7c-.184.346-.286.531 0 .841z" fill="#11484e"/><path d="M21.151 45.178a10.367 10.367 0 0 0-4.226-2.346c-.9-.268-1.828-.407-2.743-.607a4.439 4.439 0 0 0-2.411.042 3.271 3.271 0 0 1-.74.123c-.843.077-1.688.135-2.531.214a5.012 5.012 0 0 0-.607.133 6.292 6.292 0 0 0 2.552 3.863 40.282 40.282 0 0 0 3.217 2.288 14.316 14.316 0 0 0 2.324 1.212 7.656 7.656 0 0 0 3.591.548c.655-.055 1.309-.128 1.964-.183.406-.033.814-.038 1.219-.074a.556.556 0 0 0 .573-.514c.047-.243.12-.5-.111-.7-4.891-1.071-10.176-3.249-12.713-5.114a2.6 2.6 0 0 1 1.513.027c.892.293 1.77.63 2.666.91q2.6.813 5.215 1.58c1.023.3 2.055.566 3.089.824.142.036.363.216.507-.121-.14-.132-.29-.281-.448-.422-.636-.561-1.281-1.107-1.9-1.683z" fill="#344a3d"/><path d="M28.161 36.342a4.057 4.057 0 0 0-.394.674c-.2.59-.368 1.193-.545 1.792-.275.93-.534 1.864-.823 2.79a13.769 13.769 0 0 0-.523 2.667c-.033.307-.121.608-.181.911a11.537 11.537 0 0 0-.4 2.015 6.507 6.507 0 0 1-.153 1.466 12.139 12.139 0 0 0-.308 3.811c.02.311.027.624.072.932a3.869 3.869 0 0 0 .36 1.874 3.587 3.587 0 0 0 2.164.448 1.694 1.694 0 0 0-.038-.369 7.391 7.391 0 0 1-.233-2.77c.055-.907 0-1.819.031-2.728a4.526 4.526 0 0 1 .42-2.373.668.668 0 0 0 .021-.354c-.013-.186-.062-.372-.059-.558a14.811 14.811 0 0 1 .456-3.624c.451-1.658.8-3.344 1.381-4.97a1.964 1.964 0 0 0 .2-1.227z" fill="#11484e"/><path d="M32.246 50.012c1.071-.236 2.126-.544 3.188-.818a12.633 12.633 0 0 0 2.628-1.248 25.07 25.07 0 0 0 5.1-3.68c.89-.8 1.581-1.781 2.394-2.651.028-.03 0-.11 0-.212-.184-.011-.364-.031-.545-.033a32.681 32.681 0 0 0-4.486.4c-.68.089-1.35.252-2.024.382-.363.388-1.059.11-1.336.669a3.2 3.2 0 0 1-.791.252c-.238.015-.3.328-.574.256-.068-.018-.188.212-.3.307a3.215 3.215 0 0 1-.528.378c-.468.249-.96.455-1.42.716a13.5 13.5 0 0 0-2.147 1.775c-.051.044-.049.149-.1.309 1.041-.467 2-.908 2.972-1.333a25.275 25.275 0 0 1 3.6-1.356 8.174 8.174 0 0 1 2.505-.336 1.593 1.593 0 0 1 .409.146 2.926 2.926 0 0 1-1.457 1.2c-1.5.546-3 1.1-4.5 1.637a18.729 18.729 0 0 0-3.307 1.778 15.679 15.679 0 0 0-1.55 1.219 3.471 3.471 0 0 0 2.269.243z" fill="#344a3d"/><path d="M48.5 6.816a2.845 2.845 0 0 0-.851-1.835 1.661 1.661 0 0 0-2.184-.335 22.788 22.788 0 0 0-1.948 1.48 43.86 43.86 0 0 0-4.2 3.909 2.012 2.012 0 0 1-.433.294c-.069-.1-.125-.147-.131-.2a12.321 12.321 0 0 1 .018-3.193 7.86 7.86 0 0 0-.248-2.684 1.043 1.043 0 0 0-.6-.8c-.633-.259-1.28-.575-1.94-.029a2.284 2.284 0 0 1-.5.255A9.647 9.647 0 0 0 33.2 5.171c-1.081.955-2.137 1.939-3.215 2.9-.514.457-1.052.887-1.581 1.326-.113.093-.237.171-.454.326a22.571 22.571 0 0 1-.55-2.252 81.514 81.514 0 0 0-.344-2.506 1.946 1.946 0 0 0-.575-1.158 7.29 7.29 0 0 1-.585-.693l-1.053-.179-.252.393A27.9 27.9 0 0 1 23.065 5.7a13.526 13.526 0 0 0-1.905 3.33c-.39.957-.855 1.885-1.234 2.846-.194.49-.4.976-.553 1.491-.22.752-.359 1.52-.561 2.274a40.993 40.993 0 0 0-.723 3.21c-.113.613-.086 1.251-.155 1.874A28.725 28.725 0 0 0 18 26.068a14.769 14.769 0 0 0 .249 1.675 10.407 10.407 0 0 0 .821 1.992 8.907 8.907 0 0 0 2.73 3.427 12.674 12.674 0 0 0 3.825 2.14 1.96 1.96 0 0 1 1.019.6 4.5 4.5 0 0 1-.153.669c-.345.909-.718 1.807-1.062 2.717a4.468 4.468 0 0 0-.306 1.08 9.325 9.325 0 0 1-.629 2.541 3.4 3.4 0 0 0-.1.456c-.075.3-.149.609-.237.909a2.225 2.225 0 0 1-.308.868 1.259 1.259 0 0 1-1.029-.612 7.061 7.061 0 0 0-1.761-1.648 14.28 14.28 0 0 0-5.122-2.022c-.982-.193-1.979-.312-2.965-.484a6.381 6.381 0 0 0-2.149.017 36.685 36.685 0 0 0-3.732.966 3.762 3.762 0 0 0-1.222.454 7.467 7.467 0 0 1 .368 1.087 7.24 7.24 0 0 0 1.787 3.37 19.629 19.629 0 0 0 4.007 3.543 20.508 20.508 0 0 0 3.1 1.785 8.819 8.819 0 0 0 4.287.868 8.565 8.565 0 0 0 3.316-.95c.161-.083.318-.218.538-.009.034.777.066 1.588.108 2.4a5.715 5.715 0 0 0 .079.652 1.739 1.739 0 0 0 1.176 1.52 7.381 7.381 0 0 0 2.451.565 5.887 5.887 0 0 1 .938.05 3.865 3.865 0 0 0 1.446-.11 2.076 2.076 0 0 0 .13-1.684 4.33 4.33 0 0 1-.161-1.391 2.643 2.643 0 0 0-.243-1.467.635.635 0 0 1 .041-.632c.1-.188.217-.372.316-.542a.591.591 0 0 1 .133 0c.118.039.236.082.353.127a6.013 6.013 0 0 0 3.243.326 15.5 15.5 0 0 0 5.626-1.71.256.256 0 0 1 .085-.04 5.559 5.559 0 0 0 1.882-1.038 9.639 9.639 0 0 0 3.206-3.072.983.983 0 0 1 .329-.325 7.732 7.732 0 0 0 1.867-1.968c.41-.553.849-1.084 1.273-1.626.116-.149.235-.3.335-.455a.46.46 0 0 0-.126-.664 4.235 4.235 0 0 0-1.8-.688 38.978 38.978 0 0 0-5.712.413 10.7 10.7 0 0 0-1.3.2 18.978 18.978 0 0 0-4.807 1.868 12.259 12.259 0 0 1-1.434.867 6.754 6.754 0 0 0-2.058 1.445c-.114.108-.147.376-.446.283a6.723 6.723 0 0 1 .221-1.835c.207-.751.287-1.538.5-2.288a11.5 11.5 0 0 0 .468-2.486 10.825 10.825 0 0 1 .189-1.149c.458-.006.863-.031 1.266-.012a4.713 4.713 0 0 0 1.934-.311 5.261 5.261 0 0 1 .538-.172 7.339 7.339 0 0 0 3.323-2.022 8.086 8.086 0 0 1 1.454-1.31 1.347 1.347 0 0 0 .356-.3c.528-.659 1.047-1.324 1.567-1.989.347-.445.693-.89 1.033-1.34a12.32 12.32 0 0 0 1.51-2.373c.242-.544.47-1.094.694-1.645a13.583 13.583 0 0 0 1-3.222 4.2 4.2 0 0 1 .366-1.255 2.834 2.834 0 0 0 .269-.791c.146-1.086.411-2.15.553-3.241.2-1.555.37-3.107.451-4.67a7.194 7.194 0 0 1 .106-.75c.033-.216.077-.431.095-.648a7.625 7.625 0 0 0 .087-1.494 8.037 8.037 0 0 1 .206-1.469c.026-.412.121-.819.112-1.223zM22.988 47.405a78.48 78.48 0 0 1-3.089-.824q-2.616-.767-5.215-1.58c-.9-.28-1.774-.617-2.666-.91a2.6 2.6 0 0 0-1.513-.027c2.541 1.865 7.826 4.043 12.717 5.112.231.2.158.459.111.7a.556.556 0 0 1-.573.514c-.4.036-.813.041-1.219.074-.655.055-1.309.128-1.964.183a7.656 7.656 0 0 1-3.591-.548 14.316 14.316 0 0 1-2.324-1.209 40.282 40.282 0 0 1-3.217-2.288 6.3 6.3 0 0 1-2.552-3.867A4.829 4.829 0 0 1 8.5 42.6c.843-.079 1.688-.137 2.531-.214a3.271 3.271 0 0 0 .74-.123 4.438 4.438 0 0 1 2.411-.042c.915.2 1.838.339 2.743.607a10.367 10.367 0 0 1 4.226 2.346c.619.576 1.264 1.122 1.9 1.684.158.141.308.29.448.422-.148.341-.369.161-.511.125zm4.737 2.136c-.286-.31-.184-.495 0-.837zm1.684-11.565c-.576 1.626-.93 3.312-1.381 4.97a14.811 14.811 0 0 0-.456 3.624c0 .186.046.372.059.558a.668.668 0 0 1-.021.354 4.486 4.486 0 0 0-.42 2.373c-.028.909.024 1.821-.031 2.728a7.391 7.391 0 0 0 .233 2.77 1.694 1.694 0 0 1 .038.369 3.585 3.585 0 0 1-2.164-.448 3.869 3.869 0 0 1-.36-1.874c-.045-.308-.052-.621-.072-.932a12.139 12.139 0 0 1 .308-3.811 6.507 6.507 0 0 0 .153-1.466 11.162 11.162 0 0 1 .4-2.015c.06-.3.148-.6.181-.911A13.769 13.769 0 0 1 26.4 41.6c.289-.926.548-1.86.823-2.79.177-.6.343-1.2.545-1.792a4.057 4.057 0 0 1 .394-.674l1.448.407a1.937 1.937 0 0 1-.201 1.225zm2.123 10.58a18.729 18.729 0 0 1 3.307-1.778c1.5-.534 3-1.091 4.5-1.637a2.947 2.947 0 0 0 1.457-1.2 1.593 1.593 0 0 0-.409-.146 8.174 8.174 0 0 0-2.505.336 25.275 25.275 0 0 0-3.6 1.356c-.969.425-1.931.866-2.972 1.333.047-.16.045-.265.1-.309a13.594 13.594 0 0 1 2.147-1.775c.46-.261.952-.467 1.42-.716a3.215 3.215 0 0 0 .528-.378c.114-.1.234-.325.3-.307.276.072.336-.241.574-.256a3.2 3.2 0 0 0 .791-.252c.277-.559.973-.281 1.336-.669.674-.13 1.344-.293 2.024-.382a32.119 32.119 0 0 1 4.486-.4c.181 0 .361.022.545.033 0 .1.024.182 0 .212-.813.87-1.5 1.849-2.394 2.651a24.868 24.868 0 0 1-5.1 3.68 12.633 12.633 0 0 1-2.633 1.248c-1.062.274-2.117.582-3.188.818a3.472 3.472 0 0 1-2.262-.247 16.31 16.31 0 0 1 1.55-1.215zM46.765 8.238c-.141 1.151-.2 2.311-.3 3.467-.125 1.406-.2 2.818-.4 4.214a52.067 52.067 0 0 1-1.453 6.8 15.882 15.882 0 0 1-1.222 2.742c-.223.448-.5.872-.708 1.326a11.871 11.871 0 0 1-1.954 2.863c-.748.845-1.435 1.744-2.235 2.543a5.628 5.628 0 0 1-2.425 1.535 26.246 26.246 0 0 1-5.145 1.063 8.878 8.878 0 0 1-2.15-.161 10.885 10.885 0 0 1-4.38-1.859 6.293 6.293 0 0 1-2.184-2.271c-.208-.406-.607-.718-.6-1.24a.752.752 0 0 0-.219-.409 4.573 4.573 0 0 1-.81-2.777 1.691 1.691 0 0 0-.12-.82.664.664 0 0 1-.057-.365q.042-1.266.1-2.531c.021-.462.058-.923.095-1.5l-.332-.6.669-.419a6.77 6.77 0 0 0 .347-1.948 18.635 18.635 0 0 1 .873-3.138 1.518 1.518 0 0 0 .154-.341c.2-.915.378-1.834.572-2.749a4.567 4.567 0 0 1 .148-.441c.107-.359.227-.716.306-1.082a5.105 5.105 0 0 1 .6-1.657A7.743 7.743 0 0 0 24.514 7c.154-.424.148-.426.606-.847a3.91 3.91 0 0 1 .188.529 21.854 21.854 0 0 0 1.229 3.751 2.169 2.169 0 0 0 .322.57 1.227 1.227 0 0 0 1.678.3 4.368 4.368 0 0 0 .621-.556c.225-.217.423-.464.663-.662a18.853 18.853 0 0 1 2.334-1.872 14.14 14.14 0 0 1 1.531-1.075c.814-1.038 2.152-1.486 2.923-2.667.147.127.317.2.341.311a4.434 4.434 0 0 1 .05.749l.257 5.265a2.7 2.7 0 0 0 .072.464c.107.479.279.9.844 1.006a2.178 2.178 0 0 1 .517.266c.264-.259.5-.5.75-.734.229-.215.473-.414.7-.628.915-.857 1.82-1.725 2.744-2.572a12.8 12.8 0 0 1 1.036-.808 19.918 19.918 0 0 0 2.258-1.829 2.073 2.073 0 0 1 .458-.246 2.708 2.708 0 0 1 .151.456 8.034 8.034 0 0 1-.022 2.067z"/></svg>