<svg height="60" viewBox="0 0 60 60" width="60" xmlns="http://www.w3.org/2000/svg"><path d="M27.877 24.647c-.228-.076-.675.262-.748.551a1.123 1.123 0 0 0-.038.331c.071 1.353.169 2.705.214 4.059.03.9-.012 1.8-.025 2.707-.011.768-.008 1.536-.045 2.3-.039.836-.156 1.669-.168 2.505-.019 1.268-.15 2.523-.271 3.783-.13 1.349-.176 2.707-.3 4.057a8.369 8.369 0 0 0-.01 2.068 2.126 2.126 0 0 1-.051.539c-.2 1.775-.412 3.548-.591 5.324-.1 1.032-.152 2.069-.225 3.1l-.107 1.547c.364-.047.522-.111.537-.381.033-.611.129-1.222.119-1.832a14.09 14.09 0 0 1 .54-3.687 10.228 10.228 0 0 0 .334-3.963 6.2 6.2 0 0 1 .025-1.154c.023-.452.062-.9.087-1.356q.126-2.271.247-4.541c.065-1.2.148-2.4.189-3.595.029-.836-.022-1.676 0-2.513.059-1.9.143-3.8.217-5.7.007-.181.014-.363.03-.543.092-.992.193-1.983.275-2.975.014-.231.088-.523-.235-.631z" fill="#2f472e"/><path d="M14.8 22.261a5.569 5.569 0 0 0 2.614-.224c.046.1.1.217.148.33.471-.092.471-.092.485-.389l-.435.106c.174-.374.448-.331.676-.385a3.754 3.754 0 0 0 1.527-.452 2.1 2.1 0 0 1 1.224-.289c.167 0 .323.416.486.642a.965.965 0 0 0 .091.1 1 1 0 0 1 .181 1.23.916.916 0 0 0-.092.7 1.472 1.472 0 0 1 .109.922 1.44 1.44 0 0 0 .462 1.082.64.64 0 0 0 .527.125 3.786 3.786 0 0 0 .866-.331 2.529 2.529 0 0 0 1.328-1.2c.144-.328.308-.649.433-.985a7.763 7.763 0 0 0 .918-3.394c.259.129.47.332.627.3.658-.152.906.35 1.038.746a6.835 6.835 0 0 0 1 1.482 1.959 1.959 0 0 0 .491.6 13.441 13.441 0 0 0 2.015 1.35 4.551 4.551 0 0 0 3.527-.034.855.855 0 0 0 .412-.331 9.122 9.122 0 0 0 1.3-2.442 2.293 2.293 0 0 0-.6-2.365 5.579 5.579 0 0 1-.58-.569 1.122 1.122 0 0 0-.863-.467 3.119 3.119 0 0 0-.945-.007 1.4 1.4 0 0 1-.886-.1 4.924 4.924 0 0 1-.1-2.782c.273-.031.586.028.73-.1a.814.814 0 0 1 1.048-.074c.4-.092.693-.161.986-.226.1-.022.283-.025.287-.056.045-.328.336-.271.527-.339s.456-.027.639-.124c.208-.11.345-.349.545-.484.486-.331.986-.641 1.488-.947a5.539 5.539 0 0 0 2.192-2.929 1.863 1.863 0 0 0-.323-1.986 2.835 2.835 0 0 0-1.978-.926q-.906-.051-1.813-.011a7.646 7.646 0 0 0-3.244.533c-.422.216-.854.412-1.288.6a6.093 6.093 0 0 0-2.434 1.467.881.881 0 0 1-.716-.907c-.02-.315-.1-.625-.12-.939a.477.477 0 0 1 .1-.368 6.023 6.023 0 0 0 1.5-1.977 6.327 6.327 0 0 0 .7-2.024 1.1 1.1 0 0 0-1.466-1.223c-.238.074-.486.114-.724.186a7.435 7.435 0 0 0-2.914 1.37 3.354 3.354 0 0 0-1.291 2.222 4.874 4.874 0 0 1-.4 1.132l-.764-.239A1.837 1.837 0 0 0 22.6 5.62a5.989 5.989 0 0 0-2.857-.19c-1.614.3-2.462.9-2.666 2.515a2.857 2.857 0 0 0 1.178 2.975.9.9 0 0 1 .3.344c.264.552.518 1.11.75 1.675a3.1 3.1 0 0 1 .119.63 4.227 4.227 0 0 1-.858.122 11.279 11.279 0 0 0-2.248.176 1.268 1.268 0 0 0-.382.129c-.547.269-1.107.518-1.629.831a3.19 3.19 0 0 0-.858.741 5.177 5.177 0 0 0-.99 3.58 3.413 3.413 0 0 0 2.341 3.113zm9.592-4.969c-.056-.162-.1-.33-.165-.568a3.389 3.389 0 0 1 1.719 1.088c-1.075.577-1.187.536-1.554-.522zm1.871-.956c-1.08-.288-.921-1.218-1.2-2.087a12.09 12.09 0 0 1 1.72 1.323zm1.489-.222c-.4-.409-.4-.623-.058-1.75.422.674.972 1.123 1.111 1.872-.413.11-.76.179-1.053-.124zm.907-3.233c.2-.447.372-.9.6-1.471.336.374.628.678.892 1.006a.5.5 0 0 1 .079.371 3.786 3.786 0 0 1-.23.774.75.75 0 0 1-.956.4.87.87 0 0 1-.385-1.082zm-.556.091-.787.71c-.488-.293-.881-.58-.9-1.233a9.267 9.267 0 0 0-.3-1.083 5.207 5.207 0 0 1 1.987 1.6zm-3.6-1.965a2.38 2.38 0 0 1 .463.361 6.808 6.808 0 0 1 .442.744c.243.422-.055.714-.243 1.041-.217.379-.507.381-.881.2a2.41 2.41 0 0 1 .215-2.348zm-1.587 1.975a2.928 2.928 0 0 0 .916 1.31 1.959 1.959 0 0 1 .706 1.23c-1.156.157-1.858-.473-1.776-1.535a6.76 6.76 0 0 0-.154-1.245c.189.145.284.179.3.238z" fill="#ee7558"/><path d="M23.689 35.848c.1-.357.094-.62-.238-.782-.124-.06-.182-.245-.285-.361a3.294 3.294 0 0 0-1.647-1.23 19.554 19.554 0 0 0-3.075-.432 5.58 5.58 0 0 1-1.277-.152c-1.451-.5-2.816-.051-4.187.315-.424.113-.528.4-.309.8a25.518 25.518 0 0 0 1.423 2.385 15.328 15.328 0 0 0 1.42 1.548 5.883 5.883 0 0 0 1.763 1.246 12.7 12.7 0 0 0 1.9.737 13.194 13.194 0 0 0 5.413.2l.4.372c.047-.155.025-.33-.044-.351-.589-.18-.787-.712-1.092-1.152a14.624 14.624 0 0 0-1.028-1.429c-.706-.793-1.469-1.535-2.2-2.31a2.661 2.661 0 0 0-1.734-.83c-1.046-.1-2.1-.124-3.144-.227-.306-.03-.7.014-.907-.437a1.965 1.965 0 0 1 1.131-.341 12.679 12.679 0 0 1 1.969.021 5.99 5.99 0 0 1 3.344 1.334c.788.707 1.488 1.512 2.217 2.283a8.435 8.435 0 0 1 .6.735c.362.481.715.969 1.123 1.524a9 9 0 0 1 .175-1.364 1.111 1.111 0 0 0-.3-1.175c-.41-.382-.553-1.135-1.411-.927zm6.168 8.225.034.309a1.688 1.688 0 0 1 .373-.327c.629-.276 1.276-.512 1.9-.79a8.193 8.193 0 0 0 2.8-2.021 59.443 59.443 0 0 0 2.252-2.681 19.372 19.372 0 0 0 1.6-2.187c.932-1.576 1.79-3.2 2.67-4.8a2.71 2.71 0 0 0 .156-.5c-5.184-.006-10 3.394-11.452 7.872.5-.543.88-1.037 1.338-1.447a6.639 6.639 0 0 1 1.908-1.563 4.245 4.245 0 0 0 1.3-.7 7.211 7.211 0 0 1 1.787-.934c.7-.343 1.244-.053 1.854.534-.833.422-1.551.83-2.3 1.158a6.5 6.5 0 0 0-2.777 1.98 20.271 20.271 0 0 1-1.785 2.043 10.679 10.679 0 0 0-1.739 2.242c-.154.272-.37.509-.544.771a2.31 2.31 0 0 0-.539 1.041z" fill="#2f472e"/><path d="M13.138 23.079a7.633 7.633 0 0 0 1.8 1.188 2.579 2.579 0 0 0 2.541.184 1.4 1.4 0 0 1 .322-.1c.569-.135 1.144-.253 1.708-.407.274-.075.434-.02.523.251.277.837.584 1.665.828 2.512a1.575 1.575 0 0 0 .682.969c1.162.725 2.354 1.157 3.674.371a3.886 3.886 0 0 1 .622-.237c.34 2.789-.29 5.487-.3 8.233a6.371 6.371 0 0 1-.907-1.173 4.74 4.74 0 0 1-.567-1.295 2.886 2.886 0 0 0-.354-.853 5.054 5.054 0 0 0-1.4-1.354 2.667 2.667 0 0 0-1.574-.59 3.775 3.775 0 0 1-1.785-.384c-.411-.24-.936-.442-1.318-.067-.22-.135-.383-.312-.563-.331a7.865 7.865 0 0 0-1.751-.072c-1.009.122-2.006.348-3.008.533a1.438 1.438 0 0 0-1.284 1.366 3.4 3.4 0 0 0 .159 1.673c.208.547.455 1.08.659 1.628a10.774 10.774 0 0 0 3.922 4.83 5.754 5.754 0 0 0 1.885.991c.729.2 1.4.6 2.122.85a4.628 4.628 0 0 0 1.177.193c.347.026.7-.035 1.05-.019a5.867 5.867 0 0 0 3.03-.585c0 .722.031 1.415-.008 2.1a63.11 63.11 0 0 1-.255 3.04c-.248 2.373-.515 4.744-.77 7.116-.091.848-.176 1.7-.25 2.546a8.38 8.38 0 0 0-.034 1.086 1.319 1.319 0 0 0 1.337 1.391.853.853 0 0 1 .318.077 1.424 1.424 0 0 0 1.113.077 7.777 7.777 0 0 1 1.212-.15 2.04 2.04 0 0 0 .217-1.079c.1-1.214.155-2.433.218-3.65.058-1.1.113-2.2.155-3.3.034-.868.049-1.738.065-2.607.012-.644.012-1.289.018-1.971a9.833 9.833 0 0 0 1.031.053 8.815 8.815 0 0 0 2.132-.213 10.338 10.338 0 0 0 2.212-1.148 10.381 10.381 0 0 0 2.335-1.924c.533-.611 1.069-1.219 1.577-1.85q.7-.865 1.334-1.781c.385-.553.751-1.121 1.08-1.708.3-.545.52-1.139.824-1.684.538-.965 1.076-1.934 1.689-2.851a3.513 3.513 0 0 0 .487-1.455.691.691 0 0 0-.26-.652 2.949 2.949 0 0 0-1.958-.92 9.3 9.3 0 0 0-3.29.3 16.672 16.672 0 0 0-2.476 1.021 4.358 4.358 0 0 0-1.143.8c-.273.266-.43.649-.915.536a.207.207 0 0 0-.178.079c-.137.328-.454.467-.684.7a11.153 11.153 0 0 0-.9 1.169c-.539.7-1.073 1.392-1.551 2.137a2.2 2.2 0 0 0-.526 1.683l-.45.042c.162-4.31-.193-8.6.1-13.051.291.331.426.593.64.707a4.273 4.273 0 0 0 2.679.916.189.189 0 0 1 .067.012 5.578 5.578 0 0 0 2.629-.329c1.2-.225 1.763-1.265 2.415-2.13a7.4 7.4 0 0 0 1.055-2.175 3.264 3.264 0 0 0-.015-2.375 12.83 12.83 0 0 0-1.35-2.022 7.997 7.997 0 0 0-.519-.6c.668-.406 1.323-.752 1.921-1.179A10.9 10.9 0 0 0 40.82 14.2c.263-.336.521-.678.753-1.036a4.961 4.961 0 0 0 1.008-3.3 5.032 5.032 0 0 0-4.528-4.177c-1.214-.062-2.432-.012-3.712-.012-.052.472-.468.517-.761.424a1.985 1.985 0 0 0-1.161.156c-.14.032-.282.056-.495.1.166-.558.278-1.044.457-1.5a2.147 2.147 0 0 0 .035-1.573 3.649 3.649 0 0 0-2.3-2.326 1.98 1.98 0 0 0-1.513.067 22.719 22.719 0 0 1-2.753.827 9.73 9.73 0 0 0-1.494.761c-.064.035-.094.149-.121.233-.087.267-.147.545-.255.8-.046.11-.193.262-.278.253a.554.554 0 0 0-.508.247.658.658 0 0 1-.469.17c-.559-.035-1.117-.1-1.673-.175a4.18 4.18 0 0 0-3.086.452.957.957 0 0 1-.312.128 2.084 2.084 0 0 0-1.06.785 4.447 4.447 0 0 0-.757 2.75 5.37 5.37 0 0 0 .722 2.635c-.768.334-1.467.617-2.147.939-.649.308-1.4.48-1.731 1.251-.043.1-.217.14-.321.22a1.446 1.446 0 0 0-.385.336 7.772 7.772 0 0 0-1.228 3.08 7.113 7.113 0 0 0 2.391 6.364zM25.392 37.95a9 9 0 0 0-.165 1.364c-.408-.555-.761-1.043-1.123-1.524a8.435 8.435 0 0 0-.6-.735c-.729-.771-1.429-1.576-2.217-2.283a5.99 5.99 0 0 0-3.344-1.334 12.679 12.679 0 0 0-1.969-.021 1.968 1.968 0 0 0-1.131.344c.205.451.6.407.907.437 1.045.1 2.1.124 3.144.227a2.661 2.661 0 0 1 1.734.83c.726.775 1.489 1.517 2.2 2.31a14.624 14.624 0 0 1 1.028 1.429c.3.44.5.972 1.092 1.152.069.021.091.2.044.351l-.4-.372a13.126 13.126 0 0 1-5.413-.2 12.7 12.7 0 0 1-1.9-.737 5.889 5.889 0 0 1-1.765-1.249 15.446 15.446 0 0 1-1.42-1.548 25.518 25.518 0 0 1-1.423-2.385c-.219-.4-.115-.684.309-.8a6.929 6.929 0 0 1 4.187-.315 5.607 5.607 0 0 0 1.277.152 19.554 19.554 0 0 1 3.075.432 3.294 3.294 0 0 1 1.647 1.23c.1.116.161.3.285.361.332.162.338.425.238.782.858-.208 1 .545 1.4.927a1.1 1.1 0 0 1 .303 1.175zm2.715-12.668c-.082.992-.183 1.983-.275 2.975-.016.18-.023.362-.03.543-.074 1.9-.158 3.8-.217 5.7-.026.837.025 1.677 0 2.513-.041 1.2-.124 2.4-.189 3.595l-.247 4.541c-.025.452-.064.9-.087 1.356a6.2 6.2 0 0 0-.025 1.154 10.233 10.233 0 0 1-.334 3.963 14.259 14.259 0 0 0-.54 3.687c.01.61-.086 1.221-.119 1.832-.015.27-.173.334-.537.381l.107-1.547c.073-1.035.121-2.072.225-3.1.179-1.776.393-3.549.591-5.324a2.126 2.126 0 0 0 .051-.539 8.369 8.369 0 0 1 .01-2.068c.129-1.35.175-2.708.3-4.057.121-1.26.252-2.515.271-3.783.012-.836.129-1.669.168-2.505.037-.766.034-1.534.045-2.3.013-.9.055-1.806.025-2.707-.045-1.354-.143-2.706-.214-4.059a1.123 1.123 0 0 1 .038-.331c.073-.289.52-.627.748-.551.328.104.254.396.235.631zm1.121 17.75c.174-.262.39-.5.544-.771a10.679 10.679 0 0 1 1.742-2.244 20.271 20.271 0 0 0 1.786-2.043A6.5 6.5 0 0 1 36.08 36c.753-.328 1.471-.736 2.3-1.158-.61-.587-1.154-.877-1.854-.534a7.246 7.246 0 0 0-1.787.934 4.245 4.245 0 0 1-1.3.7 6.6 6.6 0 0 0-1.908 1.558c-.458.41-.842.9-1.338 1.447 1.456-4.478 6.268-7.878 11.452-7.872a2.71 2.71 0 0 1-.156.5c-.88 1.607-1.738 3.228-2.67 4.8a19.621 19.621 0 0 1-1.6 2.187 59.443 59.443 0 0 1-2.252 2.681 8.193 8.193 0 0 1-2.8 2.021c-.629.278-1.276.514-1.905.79a1.688 1.688 0 0 0-.373.327l-.034-.309h-1.166a2.294 2.294 0 0 1 .539-1.039zM13.447 15.569a3.19 3.19 0 0 1 .858-.741c.522-.313 1.082-.562 1.629-.831a1.268 1.268 0 0 1 .382-.129 11.268 11.268 0 0 1 2.248-.176 4.227 4.227 0 0 0 .858-.122 3.1 3.1 0 0 0-.119-.63 32.531 32.531 0 0 0-.75-1.675.9.9 0 0 0-.3-.344 2.855 2.855 0 0 1-1.178-2.975c.2-1.616 1.052-2.219 2.666-2.515a5.989 5.989 0 0 1 2.857.19 1.837 1.837 0 0 1 1.451 1.241l.759.234a4.531 4.531 0 0 0 .4-1.132A3.338 3.338 0 0 1 26.5 3.742a7.435 7.435 0 0 1 2.914-1.37c.238-.072.486-.112.724-.186a1.1 1.1 0 0 1 1.468 1.223 6.535 6.535 0 0 1-.7 2.024 6.051 6.051 0 0 1-1.5 1.977.493.493 0 0 0-.1.368c.024.314.1.624.12.939a.881.881 0 0 0 .716.907 6.081 6.081 0 0 1 2.436-1.463c.434-.189.866-.385 1.288-.6a7.646 7.646 0 0 1 3.244-.533q.906-.039 1.813.011a2.831 2.831 0 0 1 1.981.922 1.863 1.863 0 0 1 .323 1.986 5.539 5.539 0 0 1-2.192 2.929c-.5.306-1 .616-1.488.947-.2.135-.337.374-.545.484-.183.1-.436.053-.639.124s-.482.011-.527.339c0 .031-.188.034-.287.056-.293.065-.586.134-.986.226a.812.812 0 0 0-1.048.074c-.144.129-.457.07-.73.1a4.924 4.924 0 0 0 .1 2.782 1.4 1.4 0 0 0 .886.1 3.119 3.119 0 0 1 .945.007 1.122 1.122 0 0 1 .863.467 5.89 5.89 0 0 0 .58.569 2.3 2.3 0 0 1 .6 2.365 9.236 9.236 0 0 1-1.3 2.442.855.855 0 0 1-.412.331 4.551 4.551 0 0 1-3.527.034 13.833 13.833 0 0 1-2.015-1.35 2.084 2.084 0 0 1-.491-.6 7.133 7.133 0 0 1-1-1.482c-.132-.4-.38-.9-1.038-.746-.157.036-.368-.167-.627-.3a7.764 7.764 0 0 1-.918 3.394c-.125.336-.289.657-.433.985a2.517 2.517 0 0 1-1.328 1.2 3.786 3.786 0 0 1-.866.331.638.638 0 0 1-.527-.125 1.449 1.449 0 0 1-.462-1.082 1.475 1.475 0 0 0-.109-.922.894.894 0 0 1 .092-.7 1 1 0 0 0-.181-1.23.965.965 0 0 1-.091-.1c-.163-.226-.319-.638-.486-.642a2.1 2.1 0 0 0-1.224.289 3.817 3.817 0 0 1-1.527.452c-.228.054-.5.011-.676.385l.435-.106c-.014.3-.014.3-.485.389-.05-.113-.1-.228-.148-.33a5.569 5.569 0 0 1-2.614.224 3.412 3.412 0 0 1-2.34-3.11 5.186 5.186 0 0 1 .986-3.578z"/><path d="M29.041 13.961a.748.748 0 0 0 .956-.4 3.842 3.842 0 0 0 .234-.772.5.5 0 0 0-.079-.371c-.264-.328-.556-.632-.892-1.006-.232.568-.407 1.024-.6 1.471a.87.87 0 0 0 .381 1.078zm-3.883-.81c.188-.327.486-.619.243-1.041a6.808 6.808 0 0 0-.442-.744 2.38 2.38 0 0 0-.463-.361 2.418 2.418 0 0 0-.219 2.346c.374.181.664.179.881-.2zm-.627 2.369a1.959 1.959 0 0 0-.706-1.23 2.928 2.928 0 0 1-.916-1.31c-.02-.059-.115-.093-.308-.24a6.76 6.76 0 0 1 .154 1.245c-.078 1.062.622 1.692 1.776 1.535zm2.782-1.84.787-.71a5.2 5.2 0 0 0-1.991-1.606 8.085 8.085 0 0 1 .3 1.083c.023.653.416.94.904 1.233zm-1.053 2.654.52-.764a12.262 12.262 0 0 0-1.72-1.323c.279.869.117 1.799 1.2 2.087zm1.489-.222c.293.3.64.234 1.053.122-.139-.749-.689-1.2-1.111-1.872-.346 1.127-.338 1.338.058 1.75zm-3.525.61c.068.238.109.406.165.568.367 1.058.479 1.1 1.554.52a3.389 3.389 0 0 0-1.719-1.088z"/></svg>