<svg xmlns="http://www.w3.org/2000/svg" viewBox="0 0 1800 1800" width="1800" height="1800"><g transform="translate(820.0 528.0) rotate(-42.54150862456303 101.5 49.0) scale(1.074779220229145 1.0984084286034521)"><svg width="188.876" height="89.22" viewBox="0 0 188.876 89.22"><path d="m37.938 54.022-6.605-47.31a1.25 1.25 0 0 0-1.316-1.075L2.175 7.355a1.25 1.25 0 0 0-.92 2.002l34.448 45.592c.777 1.029 2.414.35 2.235-.927z" fill="#ffe993"/><path d="M36.685 56.451a2.22 2.22 0 0 1-1.781-.899L.457 9.959a2.249 2.249 0 0 1 1.656-3.603l27.843-1.719c1.164-.081 2.206.778 2.367 1.935l6.604 47.311a2.224 2.224 0 0 1-1.367 2.391 2.276 2.276 0 0 1-.875.177zm-6.59-49.817h-.015L2.237 8.353a.237.237 0 0 0-.212.146.236.236 0 0 0 .028.255L36.5 54.346c.029.038.117.154.296.08s.159-.219.152-.266L30.344 6.85a.253.253 0 0 0-.249-.216z" fill="#112c41"/><path d="M85.953 58.999 102.1 1.649a.891.891 0 0 1 1.578-.283l17.355 23.837a.89.89 0 0 1-.09 1.154L87.44 59.871c-.649.648-1.736.011-1.487-.872z" fill="#ffe993"/><path d="M86.817 61.137c-.328 0-.659-.087-.962-.266a1.866 1.866 0 0 1-.864-2.143v-.001l16.146-57.35a1.879 1.879 0 0 1 1.487-1.349 1.866 1.866 0 0 1 1.861.749l17.355 23.837a1.88 1.88 0 0 1-.192 2.45L88.147 60.578a1.877 1.877 0 0 1-1.33.559zM85.953 59l.962.271zm17.048-56.863-15.972 56.73 33.139-33.15z" fill="#112c41"/><path d="m161.594 57.481-30.559 29.171c-.678.648-.049 1.773.858 1.535l55.306-14.529c.78-.205.926-1.249.232-1.66l-24.746-14.642a.91.91 0 0 0-1.091.125z" fill="#ffe993"/><path d="M131.647 89.219a1.882 1.882 0 0 1-1.651-.979 1.886 1.886 0 0 1 .348-2.312l30.56-29.171-.001.001a1.915 1.915 0 0 1 2.29-.263l24.747 14.642a1.903 1.903 0 0 1 .918 1.906 1.9 1.9 0 0 1-1.404 1.581l-55.306 14.529a1.944 1.944 0 0 1-.501.066zm30.587-30.967-30.251 28.877 54.749-14.383zm.052-.048c-.001 0-.001 0 0 0zm-.692-.723h.01z" fill="#112c41"/></svg></g><g transform="translate(1217.0 968.0) rotate(0.0 151.0 153.5) scale(0.9967950727957461 0.999183078330095)"><svg width="302.971" height="307.251" viewBox="0 0 302.971 307.251"><rect fill="#ffd169" height="76.313" rx="18.894" width="300.971" x="1" y="1"/><path d="M283.077 78.313H19.894C8.924 78.313 0 69.389 0 58.419V19.894C0 8.924 8.924 0 19.894 0h263.183c10.969 0 19.894 8.924 19.894 19.894v38.525c0 10.97-8.924 19.894-19.894 19.894zM19.894 2C10.027 2 2 10.027 2 19.894v38.525c0 9.867 8.027 17.894 17.894 17.894h263.183c9.867 0 17.894-8.027 17.894-17.894V19.894c0-9.867-8.027-17.894-17.894-17.894z" fill="#112c41"/><g fill="#ffe993"><path d="M22.893 73.956a7 7 0 0 1-7-7V11.357a7 7 0 1 1 14 0v55.599a7 7 0 0 1-7 7zm25.708 0a7 7 0 0 1-7-7V11.357a7 7 0 1 1 14 0v55.599a7 7 0 0 1-7 7zm25.708 0a7 7 0 0 1-7-7V11.357a7 7 0 1 1 14 0v55.599a7 7 0 0 1-7 7zm25.708 0a7 7 0 0 1-7-7V11.357a7 7 0 1 1 14 0v55.599a7 7 0 0 1-7 7zm25.708 0a7 7 0 0 1-7-7V11.357a7 7 0 1 1 14 0v55.599a7 7 0 0 1-7 7zm25.708 0a7 7 0 0 1-7-7V11.357a7 7 0 1 1 14 0v55.599a7 7 0 0 1-7 7zm25.708 0a7 7 0 0 1-7-7V11.357a7 7 0 1 1 14 0v55.599a7 7 0 0 1-7 7zm25.708 0a7 7 0 0 1-7-7V11.357a7 7 0 1 1 14 0v55.599a7 7 0 0 1-7 7zm25.708 0a7 7 0 0 1-7-7V11.357a7 7 0 1 1 14 0v55.599a7 7 0 0 1-7 7zm25.708 0a7 7 0 0 1-7-7V11.357a7 7 0 1 1 14 0v55.599a7 7 0 0 1-7 7zm25.708 0a7 7 0 0 1-7-7V11.357a7 7 0 1 1 14 0v55.599a7 7 0 0 1-7 7z"/></g><rect fill="#ffd169" height="76.313" rx="18.894" width="300.971" x="1" y="77.313"/><path d="M283.077 154.625H19.894C8.924 154.625 0 145.701 0 134.732V96.207c0-10.97 8.924-19.894 19.894-19.894h263.183c10.969 0 19.894 8.924 19.894 19.894v38.525c0 10.969-8.924 19.894-19.894 19.894zM19.894 78.313C10.028 78.313 2 86.34 2 96.207v38.525c0 9.867 8.027 17.894 17.894 17.894h263.183c9.867 0 17.894-8.027 17.894-17.894V96.207c0-9.867-8.027-17.894-17.894-17.894z" fill="#112c41"/><path d="M22.893 150.269a7 7 0 0 1-7-7v-55.6a7 7 0 1 1 14 0v55.6a7 7 0 0 1-7 7zm25.708 0a7 7 0 0 1-7-7v-55.6a7 7 0 1 1 14 0v55.6a7 7 0 0 1-7 7zm25.708 0a7 7 0 0 1-7-7v-55.6a7 7 0 1 1 14 0v55.6a7 7 0 0 1-7 7zm25.708 0a7 7 0 0 1-7-7v-55.6a7 7 0 1 1 14 0v55.6a7 7 0 0 1-7 7zm25.708 0a7 7 0 0 1-7-7v-55.6a7 7 0 1 1 14 0v55.6a7 7 0 0 1-7 7zm25.708 0a7 7 0 0 1-7-7v-55.6a7 7 0 1 1 14 0v55.6a7 7 0 0 1-7 7zm25.708 0a7 7 0 0 1-7-7v-55.6a7 7 0 1 1 14 0v55.6a7 7 0 0 1-7 7zm25.708 0a7 7 0 0 1-7-7v-55.6a7 7 0 1 1 14 0v55.6a7 7 0 0 1-7 7zm25.708 0a7 7 0 0 1-7-7v-55.6a7 7 0 1 1 14 0v55.6a7 7 0 0 1-7 7zm25.708 0a7 7 0 0 1-7-7v-55.6a7 7 0 1 1 14 0v55.6a7 7 0 0 1-7 7zm25.708 0a7 7 0 0 1-7-7v-55.6a7 7 0 1 1 14 0v55.6a7 7 0 0 1-7 7z" fill="#ffe993"/><rect fill="#ffd169" height="76.313" rx="18.894" width="300.971" x="1" y="153.626"/><path d="M283.077 230.938H19.894C8.924 230.938 0 222.014 0 211.045v-38.526c0-10.969 8.924-19.894 19.894-19.894h263.183c10.969 0 19.894 8.924 19.894 19.894v38.526c0 10.969-8.924 19.894-19.894 19.894zM19.894 154.625C10.028 154.625 2 162.652 2 172.519v38.526c0 9.867 8.027 17.894 17.894 17.894h263.183c9.867 0 17.894-8.027 17.894-17.894v-38.526c0-9.867-8.027-17.894-17.894-17.894z" fill="#112c41"/><path d="M22.893 226.582a7 7 0 0 1-7-7v-55.599a7 7 0 1 1 14 0v55.599a7 7 0 0 1-7 7zm25.708 0a7 7 0 0 1-7-7v-55.599a7 7 0 1 1 14 0v55.599a7 7 0 0 1-7 7zm25.708 0a7 7 0 0 1-7-7v-55.599a7 7 0 1 1 14 0v55.599a7 7 0 0 1-7 7zm25.708 0a7 7 0 0 1-7-7v-55.599a7 7 0 1 1 14 0v55.599a7 7 0 0 1-7 7zm25.708 0a7 7 0 0 1-7-7v-55.599a7 7 0 1 1 14 0v55.599a7 7 0 0 1-7 7zm25.708 0a7 7 0 0 1-7-7v-55.599a7 7 0 1 1 14 0v55.599a7 7 0 0 1-7 7zm25.708 0a7 7 0 0 1-7-7v-55.599a7 7 0 1 1 14 0v55.599a7 7 0 0 1-7 7zm25.708 0a7 7 0 0 1-7-7v-55.599a7 7 0 1 1 14 0v55.599a7 7 0 0 1-7 7zm25.708 0a7 7 0 0 1-7-7v-55.599a7 7 0 1 1 14 0v55.599a7 7 0 0 1-7 7zm25.708 0a7 7 0 0 1-7-7v-55.599a7 7 0 1 1 14 0v55.599a7 7 0 0 1-7 7zm25.708 0a7 7 0 0 1-7-7v-55.599a7 7 0 1 1 14 0v55.599a7 7 0 0 1-7 7z" fill="#ffe993"/><rect fill="#ffd169" height="76.313" rx="18.894" width="300.971" x="1" y="229.938"/><path d="M283.077 307.251H19.894C8.924 307.251 0 298.327 0 287.357v-38.525c0-10.969 8.924-19.894 19.894-19.894h263.183c10.969 0 19.894 8.924 19.894 19.894v38.525c0 10.969-8.924 19.894-19.894 19.894zM19.894 230.938C10.028 230.938 2 238.965 2 248.832v38.525c0 9.867 8.027 17.894 17.894 17.894h263.183c9.867 0 17.894-8.027 17.894-17.894v-38.525c0-9.867-8.027-17.894-17.894-17.894z" fill="#112c41"/><path d="M22.893 302.895a7 7 0 0 1-7-7v-55.6a7 7 0 1 1 14 0v55.6a7 7 0 0 1-7 7zm25.708 0a7 7 0 0 1-7-7v-55.6a7 7 0 1 1 14 0v55.6a7 7 0 0 1-7 7zm25.708 0a7 7 0 0 1-7-7v-55.6a7 7 0 1 1 14 0v55.6a7 7 0 0 1-7 7zm25.708 0a7 7 0 0 1-7-7v-55.6a7 7 0 1 1 14 0v55.6a7 7 0 0 1-7 7zm25.708 0a7 7 0 0 1-7-7v-55.6a7 7 0 1 1 14 0v55.6a7 7 0 0 1-7 7zm25.708 0a7 7 0 0 1-7-7v-55.6a7 7 0 1 1 14 0v55.6a7 7 0 0 1-7 7zm25.708 0a7 7 0 0 1-7-7v-55.6a7 7 0 1 1 14 0v55.6a7 7 0 0 1-7 7zm25.708 0a7 7 0 0 1-7-7v-55.6a7 7 0 1 1 14 0v55.6a7 7 0 0 1-7 7zm25.708 0a7 7 0 0 1-7-7v-55.6a7 7 0 1 1 14 0v55.6a7 7 0 0 1-7 7zm25.708 0a7 7 0 0 1-7-7v-55.6a7 7 0 1 1 14 0v55.6a7 7 0 0 1-7 7zm25.708 0a7 7 0 0 1-7-7v-55.6a7 7 0 1 1 14 0v55.6a7 7 0 0 1-7 7z" fill="#ffe993"/></svg></g><g transform="translate(952.0 1179.0) rotate(0.0 325.0 131.5) scale(0.9988137166319386 0.9982236931999331)"><svg width="650.772" height="263.468" viewBox="0 0 650.772 263.468"><path d="M50.021 262.468h599.751a142.396 142.396 0 0 1-4.651-119.557l4.651-11.166H50.021z" fill="#7bdaac"/><path d="M50.021 263.468a.997.997 0 0 1-1-1V131.745a1 1 0 0 1 1-1h599.751a1.001 1.001 0 0 1 .923 1.384l-4.651 11.166c-15.997 38.403-14.313 81.674 4.618 118.718a1 1 0 0 1-.89 1.455zm1-2h597.127c-18.507-37.243-19.964-80.498-3.95-118.942l4.074-9.782H51.021z" fill="#112c41"/><path d="M283.383 131.745h133.028v130.723H283.383z" fill="#fff"/><path d="M416.41 263.468H283.383a1 1 0 0 1-1-1V131.745a1 1 0 0 1 1-1H416.41a1 1 0 0 1 1 1v130.724a1 1 0 0 1-1 1zm-132.027-2H415.41V132.745H284.383v128.724z" fill="#112c41"/><path d="M1 131.723h599.751l-.471-.938a142.401 142.401 0 0 1-3.938-119.347L600.751 1H1z" fill="#7bdaac"/><path d="M600.751 132.723H1a1 1 0 0 1-1-1V1a1 1 0 0 1 1-1h599.751a1 1 0 0 1 .921 1.389l-4.409 10.438c-16.149 38.231-14.724 81.426 3.91 118.509l.471.938a1 1 0 0 1-.893 1.449zM2 130.723h597.13c-18.655-37.494-20.013-81.077-3.709-119.674L599.244 2H2z" fill="#112c41"/><path d="M234.362 1H367.39v130.723H234.362z" fill="#fff"/><g fill="#112c41"><path d="M367.389 132.723H234.362a1 1 0 0 1-1-1V1a1 1 0 0 1 1-1H367.39a1 1 0 0 1 1 1v130.723a1 1 0 0 1-1 1zm-132.028-2h131.028V2H235.362v128.723zM584.538 79.66H530.41a1 1 0 0 1 0-2h54.128a1 1 0 0 1 0 2zm0-29.617H467.091a1 1 0 0 1 0-2h117.447a1 1 0 0 1 0 2zm3.064 130.723H487.517a1 1 0 0 1 0-2h100.085a1 1 0 0 1 0 2z"/></g></svg></g><g transform="translate(300.0 891.0) rotate(0.0 582.5 275.0) scale(0.9994518028308937 0.9991516294346438)"><svg width="1165.639" height="550.467" viewBox="0 0 1165.639 550.467"><path d="M849.675 549.466H123.136c-6.501 0-12.16-4.709-13.65-11.375l-6.631-29.576L3.501 65.517C-6.561 21.606 14.578 1.275 51.839 1.178c154.29-.401 617.162 0 617.162 0 17.775 0 34.406 6.188 47.841 16.835 14.536 11.466 25.314 28.143 29.719 47.822l5.746 25.595c.151.728.302 1.456.475 2.184l93.069 414.901 6.631 29.576 1.317 5.893c.627 2.797-1.381 5.481-4.124 5.481z" fill="#dedffe"/><path d="M849.675 550.466H123.136c-7.011 0-13.026-4.999-14.626-12.157l-6.631-29.576L2.525 65.736C-2.328 44.558-.218 28.065 8.797 16.721 17.357 5.95 32.24.229 51.837.178c152.528-.396 612.537-.003 617.166 0 17.628 0 34.386 5.896 48.461 17.052 15.068 11.886 25.75 29.071 30.074 48.387l5.746 25.594c.152.736.302 1.454.472 2.173l93.072 414.913 7.948 35.469a5.588 5.588 0 0 1-1.078 4.742c-.996 1.245-2.462 1.958-4.022 1.958zM279.987 2.001c-91.437 0-177.045.044-228.145.177-18.968.049-33.311 5.508-41.479 15.788C1.745 28.81-.236 44.733 4.476 65.293l99.355 443.003 6.631 29.576c1.395 6.238 6.607 10.594 12.675 10.594h726.538c.949 0 1.846-.44 2.461-1.208a3.598 3.598 0 0 0 .688-3.055l-7.948-35.469-93.069-414.901a76.548 76.548 0 0 1-.478-2.201l-5.742-25.578c-4.225-18.87-14.653-35.652-29.363-47.256-13.72-10.874-30.048-16.621-47.222-16.621C665.923 2.175 461.478 2 279.987 2z" fill="#112c41"/><path d="m828.987 538.672-691.318.708c-6.1 0-11.41-4.46-12.807-10.772-8.577-38.606 6.563 29.707-101.109-456.352-9.442-41.579 7.891-51.971 42.853-52.062q153.946-.403 591.563 0c42.508.036 65.354 28.439 71.469 55.928 107.793 484.611 106.6 462.55 99.349 462.55z" fill="#fff"/><path d="M137.669 540.38c-6.61 0-12.278-4.752-13.785-11.556l-2.145-9.651q-3.41-15.339-42.504-191.825L22.776 72.473c-4.321-19.032-3.165-32.377 3.537-40.794C33.144 23.1 45.57 19.25 66.603 19.195c145.328-.381 152.389-.375 522.067-.059l69.499.059c19.646.017 36.953 6.214 50.048 17.923 11.083 9.91 19.037 23.685 22.396 38.787 37.093 166.759 60.962 272.116 76.756 341.833 24.935 110.064 26.972 119.055 24.734 121.486-.694.754-1.641.621-2.333.523-.246-.035-.51-.075-.784-.075zm113.54-519.478c-70.987 0-109.162.094-184.6.292-20.368.053-32.313 3.671-38.73 11.73-6.299 7.911-7.33 20.705-3.151 39.111l56.461 254.881q39.094 176.484 42.504 191.823l2.145 9.652c1.303 5.881 6.168 9.989 11.832 9.989l691.317-.708c.393 0 .749.05 1.063.094.193.027.47.072.61.059 1.347-2.288-3.859-25.266-25.241-119.646-15.795-69.718-39.664-175.078-76.758-341.84-5.654-25.416-27.508-55.108-70.493-55.145l-69.5-.059c-177.774-.152-271.698-.232-337.46-.232z" fill="#112c41"/><path d="M1152.126 508.515c6.91 0 12.513 5.602 12.513 12.513v15.926c0 6.91-5.602 12.513-12.513 12.513H129.643a14.766 14.766 0 0 1-14.372-11.375l-6.984-29.576h1043.839z" fill="#b2b0f7"/><path d="M1152.126 550.467H129.643a15.707 15.707 0 0 1-15.345-12.146l-6.984-29.576a.998.998 0 0 1 .973-1.23h1043.839c7.451 0 13.513 6.061 13.513 13.512v15.926c0 7.451-6.062 13.513-13.513 13.513zM109.551 509.516l6.694 28.346a13.714 13.714 0 0 0 13.399 10.605h1022.483c6.348 0 11.513-5.165 11.513-11.513v-15.926c0-6.349-5.165-11.513-11.513-11.513H109.551z" fill="#112c41"/><path d="M404.862 538.009c1.396 5.808-3.092 11.375-9.17 11.375H124.804c-6.974 0-13.586-4.027-15.185-10.693l-6.65-30.353 294.779.095 7.115 29.576z" fill="#cbc8ff"/><path d="M395.692 550.384H124.804c-7.895 0-14.539-4.712-16.157-11.46l-6.655-30.372a.999.999 0 0 1 .977-1.214l294.779.095a1 1 0 0 1 .972.766l7.115 29.576c.728 3.03.034 6.178-1.905 8.638-1.989 2.524-4.991 3.971-8.237 3.971zm-291.481-41.045 6.384 29.138c1.397 5.825 7.241 9.907 14.208 9.907h270.889c2.629 0 5.059-1.17 6.667-3.209a8.085 8.085 0 0 0 1.531-6.932l-6.93-28.81-292.748-.094z" fill="#112c41"/></svg></g><g transform="translate(455.0 379.0) rotate(0.0 408.0 511.0) scale(0.9998713400849155 0.9996762301055138)"><svg width="816.105" height="1022.331" viewBox="0 0 816.105 1022.331"><path d="m815.102 145.872-2.963-135.066c-.169-7.704-8.615-12.336-15.202-8.338l-115.49 70.099c-7.983 4.846-5.57 17.016 3.658 18.449l29.534 4.587-304.295 592.533-195.426-26.448a36.925 36.925 0 0 0-37.744 19.608L1 1021.331h83.188l146.603-282.959 195.533 26.463c15.515 2.096 30.664-5.809 37.811-19.736l314.988-613.373 18.455 20.978c6.168 7.011 17.729 2.505 17.524-6.832z" fill="#ffa9dc"/><path d="M84.188 1022.331H1a1 1 0 0 1-.887-1.459l176.174-340.035c7.351-14.189 22.933-22.276 38.766-20.14l194.725 26.354 303.34-590.673-28.165-4.374c-4.624-.718-8.2-4.148-9.111-8.739-.91-4.59 1.087-9.125 5.087-11.553l115.49-70.1c3.402-2.065 7.517-2.156 11.007-.241 3.49 1.914 5.626 5.433 5.713 9.412l2.963 135.066c.103 4.679-2.648 8.8-7.009 10.5-4.36 1.7-9.175.528-12.266-2.985l-17.486-19.876-314.318 612.067c-7.324 14.273-22.931 22.418-38.834 20.271l-194.835-26.369-146.278 282.334a1 1 0 0 1-.888.54zm-81.543-2H83.58l146.323-282.418a.993.993 0 0 1 1.022-.531l195.533 26.462c15.064 2.036 29.848-5.682 36.787-19.202l314.988-613.373a1.001 1.001 0 0 1 1.64-.204l18.456 20.978c3.07 3.49 7.198 3.55 10.038 2.443s5.838-3.946 5.736-8.593L811.14 10.827c-.071-3.257-1.819-6.136-4.675-7.703-2.856-1.566-6.223-1.492-9.008.198l-115.49 70.099c-3.973 2.412-4.756 6.465-4.163 9.455s2.863 6.438 7.456 7.151l29.534 4.586a1 1 0 0 1 .737 1.445L411.234 688.593a.996.996 0 0 1-1.024.534l-195.426-26.448c-15.003-2.033-29.76 5.637-36.722 19.077L2.644 1020.331z" fill="#112c41"/></svg></g><g transform="translate(786.0 634.0) rotate(0.0 222.0 208.5) scale(0.9984259051045649 0.9999136765171353)"><svg width="444.7" height="417.036" viewBox="0 0 444.7 417.036"><ellipse cx="216.23" cy="210.145" fill="#ffd169" rx="215.349" ry="205.722" transform="matrix(.99253764 -.12193864 .12193864 .99253764 -24.012 27.936)"/><path d="M213.693 417.029c-107.047.008-199.392-76.273-212.198-180.5-6.734-54.814 9.277-109.09 45.083-152.829 35.795-43.723 87.098-71.685 144.443-78.733 57.35-7.044 113.889 7.666 159.206 41.426 45.33 33.771 74.003 82.556 80.737 137.37 6.735 54.814-9.276 109.089-45.083 152.829-35.796 43.726-87.094 71.687-144.443 78.733a227.896 227.896 0 0 1-27.745 1.704zm5.359-411.785c-9.212 0-18.487.565-27.787 1.708-56.836 6.982-107.67 34.688-143.139 78.015C12.669 128.279-3.187 182.018 3.48 236.284 16.16 339.49 107.655 415.022 213.694 415.028c9.078 0 18.25-.552 27.5-1.689 56.836-6.983 107.67-34.689 143.139-78.015 35.458-43.313 51.313-97.051 44.646-151.317-6.667-54.267-35.06-102.569-79.947-136.01-37.554-27.978-82.896-42.753-129.98-42.753z" fill="#112c41"/><ellipse cx="238.769" cy="206.316" fill="#ffe993" rx="205.297" ry="204.845" transform="matrix(.27340525 -.96189894 .96189894 .27340525 -24.968 379.578)"/><path d="M238.836 412.673c-18.862 0-37.831-2.622-56.47-7.92-52.889-15.033-96.745-49.807-123.489-97.917-26.744-48.109-33.176-103.795-18.11-156.799l.962.273-.962-.273c15.065-53.004 49.825-96.982 97.875-123.832C186.693-.646 242.283-7.153 295.172 7.879c52.889 15.033 96.745 49.807 123.489 97.917 26.744 48.109 33.176 103.795 18.11 156.799-15.065 53.004-49.825 96.982-97.875 123.832-31.117 17.388-65.4 26.245-100.059 26.246zM238.704 1.96c-34.325 0-68.269 8.771-99.087 25.991C92.032 54.541 57.61 98.093 42.69 150.584s-8.551 107.637 17.934 155.28 69.914 82.079 122.288 96.965 107.423 8.44 155.007-18.148c47.585-26.59 82.007-70.142 96.927-122.633s8.551-107.637-17.934-155.28-69.914-82.079-122.288-96.965c-18.454-5.245-37.245-7.843-55.92-7.843z" fill="#112c41"/><ellipse cx="238.769" cy="206.316" fill="#ffe993" rx="158.942" ry="158.593" transform="matrix(.27340525 -.96189894 .96189894 .27340525 -24.968 379.579)"/><path d="M238.527 366.249c-14.384.001-28.985-1.963-43.487-6.085-84.647-24.06-133.895-112.65-109.783-197.482l.962.273-.962-.273c11.68-41.094 38.629-75.189 75.883-96.006s80.353-25.863 121.358-14.208 75.007 38.616 95.742 75.916c20.735 37.299 25.721 80.472 14.041 121.566-19.981 70.298-84.179 116.294-153.754 116.3zm.191-317.921c-26.537 0-52.779 6.78-76.604 20.094-36.788 20.557-63.4 54.227-74.934 94.807C63.369 247 112 334.482 195.586 358.24c83.585 23.756 170.96-25.067 194.77-108.838 11.535-40.581 6.61-83.214-13.865-120.047S322.44 65.9 281.95 54.392c-14.267-4.055-28.795-6.063-43.232-6.063z" fill="#112c41"/><path d="M365.832 249.433a7.001 7.001 0 0 1-6.737-8.916c9.157-32.218 5.249-66.064-11.006-95.305-16.252-29.236-42.902-50.367-75.039-59.501a7.001 7.001 0 0 1 3.827-13.467c35.74 10.159 65.376 33.657 83.448 66.166 18.069 32.504 22.415 70.126 12.237 105.936a7.003 7.003 0 0 1-6.73 5.088z" fill="#fff"/><g fill="#112c41"><path d="M229.494 207.683c-11.71 0-22.867-4.341-31.62-12.348-9.279-8.487-14.694-20.033-15.249-32.509-1.151-25.859 18.951-47.833 44.81-48.984l40.35-1.795a.999.999 0 1 1 .088 1.998l-40.35 1.795c-24.757 1.102-44.003 22.14-42.901 46.897.531 11.942 5.717 22.995 14.601 31.122s20.351 12.313 32.296 11.779l11.279-.502c.563-.007 1.019.403 1.043.955a1 1 0 0 1-.955 1.043l-11.279.502c-.707.031-1.412.047-2.115.047z"/><path d="M209.713 300.718a1 1 0 0 1-.043-1.999l40.35-1.796c11.942-.531 22.995-5.717 31.122-14.601s12.311-20.354 11.779-32.296-5.717-22.995-14.601-31.123c-8.884-8.127-20.348-12.318-32.296-11.779l-9.747.434a1 1 0 1 1-.088-1.998l9.747-.434c12.475-.553 24.457 3.813 33.735 12.301s14.694 20.033 15.249 32.509-3.813 24.457-12.301 33.735-20.033 14.694-32.509 15.249l-40.35 1.796h-.045z"/><path d="M243.601 315.914a1 1 0 0 1-.998-.956l-9.666-217.195a.999.999 0 1 1 1.998-.088l9.666 217.195a.999.999 0 0 1-.955 1.043h-.045z"/></g></svg></g><g transform="translate(191.0 1135.0) rotate(0.0 151.0 153.5) scale(0.9967950727957461 0.999183078330095)"><svg width="302.971" height="307.251" viewBox="0 0 302.971 307.251"><rect fill="#ffd169" height="76.313" rx="18.894" width="300.971" x="1" y="1"/><path d="M283.077 78.313H19.894C8.924 78.313 0 69.389 0 58.419V19.894C0 8.924 8.924 0 19.894 0h263.183c10.969 0 19.894 8.924 19.894 19.894v38.525c0 10.97-8.924 19.894-19.894 19.894zM19.894 2C10.027 2 2 10.027 2 19.894v38.525c0 9.867 8.027 17.894 17.894 17.894h263.183c9.867 0 17.894-8.027 17.894-17.894V19.894c0-9.867-8.027-17.894-17.894-17.894z" fill="#112c41"/><g fill="#ffe993"><path d="M22.893 73.956a7 7 0 0 1-7-7V11.357a7 7 0 1 1 14 0v55.599a7 7 0 0 1-7 7zm25.708 0a7 7 0 0 1-7-7V11.357a7 7 0 1 1 14 0v55.599a7 7 0 0 1-7 7zm25.708 0a7 7 0 0 1-7-7V11.357a7 7 0 1 1 14 0v55.599a7 7 0 0 1-7 7zm25.708 0a7 7 0 0 1-7-7V11.357a7 7 0 1 1 14 0v55.599a7 7 0 0 1-7 7zm25.708 0a7 7 0 0 1-7-7V11.357a7 7 0 1 1 14 0v55.599a7 7 0 0 1-7 7zm25.708 0a7 7 0 0 1-7-7V11.357a7 7 0 1 1 14 0v55.599a7 7 0 0 1-7 7zm25.708 0a7 7 0 0 1-7-7V11.357a7 7 0 1 1 14 0v55.599a7 7 0 0 1-7 7zm25.708 0a7 7 0 0 1-7-7V11.357a7 7 0 1 1 14 0v55.599a7 7 0 0 1-7 7zm25.708 0a7 7 0 0 1-7-7V11.357a7 7 0 1 1 14 0v55.599a7 7 0 0 1-7 7zm25.708 0a7 7 0 0 1-7-7V11.357a7 7 0 1 1 14 0v55.599a7 7 0 0 1-7 7zm25.708 0a7 7 0 0 1-7-7V11.357a7 7 0 1 1 14 0v55.599a7 7 0 0 1-7 7z"/></g><rect fill="#ffd169" height="76.313" rx="18.894" width="300.971" x="1" y="77.313"/><path d="M283.077 154.625H19.894C8.924 154.625 0 145.701 0 134.732V96.207c0-10.97 8.924-19.894 19.894-19.894h263.183c10.969 0 19.894 8.924 19.894 19.894v38.525c0 10.969-8.924 19.894-19.894 19.894zM19.894 78.313C10.028 78.313 2 86.34 2 96.207v38.525c0 9.867 8.027 17.894 17.894 17.894h263.183c9.867 0 17.894-8.027 17.894-17.894V96.207c0-9.867-8.027-17.894-17.894-17.894z" fill="#112c41"/><path d="M22.893 150.269a7 7 0 0 1-7-7v-55.6a7 7 0 1 1 14 0v55.6a7 7 0 0 1-7 7zm25.708 0a7 7 0 0 1-7-7v-55.6a7 7 0 1 1 14 0v55.6a7 7 0 0 1-7 7zm25.708 0a7 7 0 0 1-7-7v-55.6a7 7 0 1 1 14 0v55.6a7 7 0 0 1-7 7zm25.708 0a7 7 0 0 1-7-7v-55.6a7 7 0 1 1 14 0v55.6a7 7 0 0 1-7 7zm25.708 0a7 7 0 0 1-7-7v-55.6a7 7 0 1 1 14 0v55.6a7 7 0 0 1-7 7zm25.708 0a7 7 0 0 1-7-7v-55.6a7 7 0 1 1 14 0v55.6a7 7 0 0 1-7 7zm25.708 0a7 7 0 0 1-7-7v-55.6a7 7 0 1 1 14 0v55.6a7 7 0 0 1-7 7zm25.708 0a7 7 0 0 1-7-7v-55.6a7 7 0 1 1 14 0v55.6a7 7 0 0 1-7 7zm25.708 0a7 7 0 0 1-7-7v-55.6a7 7 0 1 1 14 0v55.6a7 7 0 0 1-7 7zm25.708 0a7 7 0 0 1-7-7v-55.6a7 7 0 1 1 14 0v55.6a7 7 0 0 1-7 7zm25.708 0a7 7 0 0 1-7-7v-55.6a7 7 0 1 1 14 0v55.6a7 7 0 0 1-7 7z" fill="#ffe993"/><rect fill="#ffd169" height="76.313" rx="18.894" width="300.971" x="1" y="153.626"/><path d="M283.077 230.938H19.894C8.924 230.938 0 222.014 0 211.045v-38.526c0-10.969 8.924-19.894 19.894-19.894h263.183c10.969 0 19.894 8.924 19.894 19.894v38.526c0 10.969-8.924 19.894-19.894 19.894zM19.894 154.625C10.028 154.625 2 162.652 2 172.519v38.526c0 9.867 8.027 17.894 17.894 17.894h263.183c9.867 0 17.894-8.027 17.894-17.894v-38.526c0-9.867-8.027-17.894-17.894-17.894z" fill="#112c41"/><path d="M22.893 226.582a7 7 0 0 1-7-7v-55.599a7 7 0 1 1 14 0v55.599a7 7 0 0 1-7 7zm25.708 0a7 7 0 0 1-7-7v-55.599a7 7 0 1 1 14 0v55.599a7 7 0 0 1-7 7zm25.708 0a7 7 0 0 1-7-7v-55.599a7 7 0 1 1 14 0v55.599a7 7 0 0 1-7 7zm25.708 0a7 7 0 0 1-7-7v-55.599a7 7 0 1 1 14 0v55.599a7 7 0 0 1-7 7zm25.708 0a7 7 0 0 1-7-7v-55.599a7 7 0 1 1 14 0v55.599a7 7 0 0 1-7 7zm25.708 0a7 7 0 0 1-7-7v-55.599a7 7 0 1 1 14 0v55.599a7 7 0 0 1-7 7zm25.708 0a7 7 0 0 1-7-7v-55.599a7 7 0 1 1 14 0v55.599a7 7 0 0 1-7 7zm25.708 0a7 7 0 0 1-7-7v-55.599a7 7 0 1 1 14 0v55.599a7 7 0 0 1-7 7zm25.708 0a7 7 0 0 1-7-7v-55.599a7 7 0 1 1 14 0v55.599a7 7 0 0 1-7 7zm25.708 0a7 7 0 0 1-7-7v-55.599a7 7 0 1 1 14 0v55.599a7 7 0 0 1-7 7zm25.708 0a7 7 0 0 1-7-7v-55.599a7 7 0 1 1 14 0v55.599a7 7 0 0 1-7 7z" fill="#ffe993"/><rect fill="#ffd169" height="76.313" rx="18.894" width="300.971" x="1" y="229.938"/><path d="M283.077 307.251H19.894C8.924 307.251 0 298.327 0 287.357v-38.525c0-10.969 8.924-19.894 19.894-19.894h263.183c10.969 0 19.894 8.924 19.894 19.894v38.525c0 10.969-8.924 19.894-19.894 19.894zM19.894 230.938C10.028 230.938 2 238.965 2 248.832v38.525c0 9.867 8.027 17.894 17.894 17.894h263.183c9.867 0 17.894-8.027 17.894-17.894v-38.525c0-9.867-8.027-17.894-17.894-17.894z" fill="#112c41"/><path d="M22.893 302.895a7 7 0 0 1-7-7v-55.6a7 7 0 1 1 14 0v55.6a7 7 0 0 1-7 7zm25.708 0a7 7 0 0 1-7-7v-55.6a7 7 0 1 1 14 0v55.6a7 7 0 0 1-7 7zm25.708 0a7 7 0 0 1-7-7v-55.6a7 7 0 1 1 14 0v55.6a7 7 0 0 1-7 7zm25.708 0a7 7 0 0 1-7-7v-55.6a7 7 0 1 1 14 0v55.6a7 7 0 0 1-7 7zm25.708 0a7 7 0 0 1-7-7v-55.6a7 7 0 1 1 14 0v55.6a7 7 0 0 1-7 7zm25.708 0a7 7 0 0 1-7-7v-55.6a7 7 0 1 1 14 0v55.6a7 7 0 0 1-7 7zm25.708 0a7 7 0 0 1-7-7v-55.6a7 7 0 1 1 14 0v55.6a7 7 0 0 1-7 7zm25.708 0a7 7 0 0 1-7-7v-55.6a7 7 0 1 1 14 0v55.6a7 7 0 0 1-7 7zm25.708 0a7 7 0 0 1-7-7v-55.6a7 7 0 1 1 14 0v55.6a7 7 0 0 1-7 7zm25.708 0a7 7 0 0 1-7-7v-55.6a7 7 0 1 1 14 0v55.6a7 7 0 0 1-7 7zm25.708 0a7 7 0 0 1-7-7v-55.6a7 7 0 1 1 14 0v55.6a7 7 0 0 1-7 7z" fill="#ffe993"/></svg></g></svg>