<svg height="60" viewBox="0 0 60 60" width="60" xmlns="http://www.w3.org/2000/svg"><path d="M54.284 27.987c-.2-4.662-4.826-7.986-9.061-8.694-4.156-.693-8.015.679-11.411 2.88a68.708 68.708 0 0 0 .5-10.7c-.118-3.265.007-8.7-4.278-9.355-3.552-.539-5.31 3.552-6.329 6.236A21.051 21.051 0 0 0 22.7 19.046a18.16 18.16 0 0 0-11.124 1.4c-3.837 1.91-6.671 6.077-6.033 10.454a8.168 8.168 0 0 0 8.332 7.025 25.592 25.592 0 0 0 5.33-.546c-.469 4.863-.652 9.836 1.19 14.454 1.531 3.841 5.025 8.054 9.647 6.341 4.578-1.7 5.342-7.609 5.319-11.827a52.622 52.622 0 0 0-1.4-10.5 2.823 2.823 0 0 0 1.563.379 2.637 2.637 0 0 0 1.2-.322 25.457 25.457 0 0 0 7.369.328c4.377-.406 10.421-2.98 10.191-8.245z" fill="#f5e2ce"/><path d="M36.035 20.77c.411-.23.642-.375.887-.491a30.045 30.045 0 0 1 3.891-1.779 12.783 12.783 0 0 1 6.82-.037 9.431 9.431 0 0 1 4.053 1.75A3.418 3.418 0 0 1 52.9 21.98c.281 1.049.715 2.055 1.009 3.1a7.983 7.983 0 0 1-1.752 7.84A8.267 8.267 0 0 1 50 34.353c-.849.484-1.737.9-2.612 1.342a7.969 7.969 0 0 1-3.871.973 12.964 12.964 0 0 0-4 .407 8.916 8.916 0 0 1-4.109.067 2.525 2.525 0 0 0-.137.507c-.035 1.234-.071 2.469-.077 3.7-.01 1.842.045 3.684 0 5.526A14.37 14.37 0 0 1 32.45 54.8a7.608 7.608 0 0 1-1.12 1.245 2.706 2.706 0 0 1-1.675.7 11.2 11.2 0 0 1-7.933-2.427 10.71 10.71 0 0 1-3.943-6.129 5.845 5.845 0 0 1 .178-3.476 2.285 2.285 0 0 0-.067-1.948 1.886 1.886 0 0 1-.142-.812c-.019-.939 0-1.88-.019-2.822-.01-.582-.063-.59-.642-.517a13.762 13.762 0 0 1-5.906-.5 16.376 16.376 0 0 1-3.44-1.546 5.536 5.536 0 0 1-2.318-2.889 16.343 16.343 0 0 1-.706-2.314 7.439 7.439 0 0 1-.058-1.405c-.01-.413-.041-.827-.02-1.237a14.644 14.644 0 0 1 .91-4.758 3.93 3.93 0 0 1 1.622-1.887 1.759 1.759 0 0 0 .551-.471 4.306 4.306 0 0 1 1.7-1.294 7.881 7.881 0 0 0 .81-.447 10.652 10.652 0 0 1 3.573-1.614 27.294 27.294 0 0 0 2.724-.841 8.344 8.344 0 0 1 2.746-.245c.5-.009 1.142.119 1.454-.139s.237-.915.365-1.391c.6-2.217 1.14-4.451 1.835-6.637a11.342 11.342 0 0 1 1.45-2.838 13.538 13.538 0 0 1 2.926-3.306 6.5 6.5 0 0 1 1.463-.816 6.47 6.47 0 0 1 2.415-.605 3.436 3.436 0 0 1 2.539 1.1 8.467 8.467 0 0 1 2.258 5.307c.143 1.252.193 2.517.236 3.778.016.467-.153.94-.155 1.413-.005 1.035.065 2.07.065 3.106 0 .838-.068 1.676-.088 2.513-.016.641-.003 1.284-.003 2.119zm-.618 2.566a7.169 7.169 0 0 0-.839-.465c-.811-.328-.874-.446-.8-1.287.11-1.284.244-2.572.251-3.86.01-1.767-.073-3.535-.145-5.3a22.641 22.641 0 0 0-.518-5.095 6.661 6.661 0 0 0-2.031-3.783 1.445 1.445 0 0 0-2.059-.067 9.739 9.739 0 0 0-1.764 1.779 13.484 13.484 0 0 0-1.967 4.069q-.746 2.539-1.391 5.105a9.127 9.127 0 0 0-.272 1.993 4.67 4.67 0 0 0 .375 2.54c.315.557.092.987-.492 1.266-.15.071-.3.146-.438.213-.72-.613-1.394.035-2.118.061a1.47 1.47 0 0 0-1.341-1.1 14.038 14.038 0 0 0-1.916-.233 4.1 4.1 0 0 0-1.25.091c-1.055.268-2.086.637-3.146.882a6.762 6.762 0 0 0-2.947 1.689c-.241.213-.42.427-.776.382a.873.873 0 0 0-.9.483A11 11 0 0 0 7.1 26.5a13.661 13.661 0 0 0-.067 4.842 5.762 5.762 0 0 0 1.384 3.192 8.8 8.8 0 0 0 7.717 2.48l4.836-.53a.742.742 0 0 1 .878.529 6.989 6.989 0 0 0-.734 3.376 4.779 4.779 0 0 1-.117.83 13.458 13.458 0 0 0-.173 1.58c0 .615.076 1.232.132 1.846a39.17 39.17 0 0 0 .406 4.007 8.279 8.279 0 0 0 1.034 3 8.043 8.043 0 0 0 3.262 2.832 8.5 8.5 0 0 0 3.6 1.012 1.766 1.766 0 0 0 1.357-.536 9.172 9.172 0 0 0 1.467-2.136 9.5 9.5 0 0 0 1.176-5 83.114 83.114 0 0 0-.3-5.668 11.476 11.476 0 0 1 .847-5.667 1.555 1.555 0 0 1 1.921-.848 13.024 13.024 0 0 0 3.854.773 34.479 34.479 0 0 0 4.7-.358 9.64 9.64 0 0 0 2.928-.993 12.733 12.733 0 0 0 3.63-2.963 6.262 6.262 0 0 0 1.567-3.992 9.582 9.582 0 0 0-1.95-5.964 4.237 4.237 0 0 0-2.677-1.773c-1.1-.225-2.212-.379-3.32-.558a9.805 9.805 0 0 0-6.8 1.636 18.151 18.151 0 0 0-2.241 1.887z"/><path d="M21.714 29.535a5.578 5.578 0 0 1 .9-3.031 2.747 2.747 0 0 1 1.354-1.4c.432-.188.786-.552 1.217-.743.662-.294 1.357-.516 2.042-.757.582-.2 1.169-.393 1.753-.59.747-.253 1.023-.087 1.33.661.22.537.581 1.017.8 1.553.377.9.729 1.823 1.017 2.759a2.732 2.732 0 0 1 0 1.153 7.723 7.723 0 0 1-2.48 4.657 14.3 14.3 0 0 1-1.17.942c-.076.058-.209.04-.315.055a7.241 7.241 0 0 1-5.233-1.384 2.561 2.561 0 0 1-1-1.786c-.129-.685-.145-1.389-.215-2.089z"/></svg>