<svg height="213.536" viewBox="0 0 264.702 213.536" width="264.702" xmlns="http://www.w3.org/2000/svg"><path d="m246.866 148.256s-23.743 28.468-40.91 64.28c0 0-28.41-15.31-77.39-22.55-7.99-1.18-16.52-2.14-25.57-2.79a368.28 368.28 0 0 0 -69 1.645 1.106 1.106 0 0 1 -1.236-1.088l-.133-26.937 211.15-39.01a140.091 140.091 0 0 0 3.089 26.45z" fill="#7bdaac"/><path d="m205.956 213.536a1 1 0 0 1 -.474-.119c-.283-.152-28.847-15.315-77.062-22.441-8.315-1.229-16.893-2.164-25.5-2.782a368.314 368.314 0 0 0 -68.813 1.64 2.1 2.1 0 0 1 -2.351-2.076l-.134-26.936a1 1 0 0 1 .818-.989l211.15-39.01a1 1 0 0 1 1.181.959 140.347 140.347 0 0 0 3.063 26.241 1 1 0 0 1 -.2.874c-.237.283-23.864 28.791-40.776 64.072a1 1 0 0 1 -.593.519 1.022 1.022 0 0 1 -.309.048zm-128.456-28.243q12.883 0 25.57.906c8.653.621 17.281 1.562 25.645 2.8a303.516 303.516 0 0 1 57.253 14.037 180.19 180.19 0 0 1 19.535 8.144c15.912-32.865 37.425-59.68 40.279-63.18a144.979 144.979 0 0 1 -2.973-25l-209.179 38.648.13 26.1.235 1.093-.116-.993a376.754 376.754 0 0 1 43.621-2.555z" fill="#112c41"/><path d="m243.776 121.806c-26.015 27.728-41.88 58.9-41.88 58.9a441.807 441.807 0 0 0 -74.02-16.66c-8.89-1.23-17.39-2.15-25.39-2.82-41.66-3.5-69.86-.41-69.86-.41 11.8-22.67 32.07-44.41 35.84-48.35a2.2 2.2 0 0 1 1.48-.7c22.04-1.55 50.23-1.24 77.85.11.56.03 1.13.05 1.68.08 7.91.4 15.76.89 23.4 1.43l1.64.12c29.64 2.18 55.84 5.33 69.26 8.3z" fill="#ddfeee"/><path d="m201.9 181.706a.976.976 0 0 1 -.3-.048 441.082 441.082 0 0 0 -73.852-16.622c-8.406-1.162-16.931-2.109-25.337-2.814-41.071-3.45-69.387-.441-69.667-.411a1 1 0 0 1 -1-1.456c11.9-22.854 32.079-44.478 36-48.58a3.2 3.2 0 0 1 2.132-1.006c25.666-1.8 56.567-.937 77.97.108l1.686.081c7.421.375 15.3.857 23.415 1.431l1.644.12c29.385 2.162 55.979 5.35 69.4 8.32a1 1 0 0 1 .513 1.662c-25.621 27.307-41.56 58.359-41.718 58.668a1 1 0 0 1 -.886.547zm-138.516-23.138c10.882 0 24.187.4 39.185 1.662 8.442.708 17 1.658 25.444 2.826a443.352 443.352 0 0 1 73.387 16.444c2.573-4.861 17.54-32.28 40.443-57.082-13.81-2.845-39.311-5.846-67.4-7.913l-1.567-.114c-8.172-.578-16.038-1.059-23.45-1.434l-1.684-.08c-21.343-1.043-52.16-1.908-77.725-.112a1.209 1.209 0 0 0 -.818.384c-3.809 3.98-22.961 24.5-34.822 46.5 4.003-.349 14.286-1.081 29.007-1.081z" fill="#112c41"/><ellipse cx="191.25" cy="162.099" fill="#7bdaac" rx="5.503" ry="8.845" transform="matrix(.21637146 -.97631112 .97631112 .21637146 -8.39 313.746)"/><path d="m193.058 168.881a14.982 14.982 0 0 1 -3.231-.363 13.061 13.061 0 0 1 -6.274-3.207 5.761 5.761 0 0 1 -1.984-5.357c.8-3.6 5.673-5.477 11.1-4.273a13.065 13.065 0 0 1 6.275 3.207 5.761 5.761 0 0 1 1.983 5.356c-.627 2.864-3.847 4.637-7.869 4.637zm-3.579-11.412c-2.985 0-5.417 1.135-5.819 2.948a3.739 3.739 0 0 0 1.391 3.363 10.915 10.915 0 0 0 5.24 2.646c4.112.909 8.028-.3 8.549-2.644a3.742 3.742 0 0 0 -1.391-3.363 10.911 10.911 0 0 0 -5.24-2.646 12.707 12.707 0 0 0 -2.73-.304z" fill="#112c41"/><ellipse cx="79.815" cy="121.806" fill="#7bdaac" rx="8.845" ry="5.503" transform="matrix(.99411699 -.10831167 .10831167 .99411699 -12.723 9.361)"/><path d="m78.871 128.433a12.378 12.378 0 0 1 -5.316-1.115 5.765 5.765 0 0 1 -3.6-4.438c-.4-3.665 3.618-7.008 9.146-7.61s10.171 1.8 10.57 5.462-3.618 7.008-9.145 7.61a15.247 15.247 0 0 1 -1.655.091zm1.866-11.109a12.869 12.869 0 0 0 -1.4.077c-4.189.456-7.508 2.859-7.248 5.247a3.737 3.737 0 0 0 2.4 2.738 10.886 10.886 0 0 0 5.812.825c4.189-.456 7.508-2.859 7.248-5.247-.237-2.117-3.219-3.64-6.812-3.64z" fill="#112c41"/><path d="m128.566 189.986c-7.99-1.18-16.52-2.14-25.57-2.79l-.51-25.97c8 .67 16.5 1.59 25.39 2.82z" fill="#fff"/><path d="m128.566 190.987a1.014 1.014 0 0 1 -.146-.011c-8.315-1.229-16.892-2.164-25.5-2.782a1 1 0 0 1 -.928-.978l-.51-25.971a1 1 0 0 1 1.083-1.015c8.442.708 17 1.658 25.444 2.826a1 1 0 0 1 .862.964l.69 25.94a1 1 0 0 1 -1 1.027zm-24.588-4.721c7.941.591 15.856 1.45 23.556 2.559l-.635-23.9c-7.764-1.059-15.625-1.934-23.392-2.6z" fill="#112c41"/><path d="m135.388 151.51c13.027.769 28.576-4.521 30.385-13.878s-11.2-14.616-24.228-15.329c-14.726-.806-28.765 5.293-29.772 13.82-.92 7.79 9.442 14.55 23.615 15.387z" fill="#7bdaac"/><path d="m137.913 152.583q-1.3 0-2.584-.075c-9.66-.57-17.874-3.832-21.972-8.726a10.147 10.147 0 0 1 -2.577-7.776c1.042-8.827 15.163-15.555 30.819-14.7 8.3.453 18.757 2.981 23.232 8.717a9.332 9.332 0 0 1 1.924 7.8c-1.773 9.169-15.844 14.76-28.842 14.76zm-2.465-2.071c12.538.742 27.676-4.445 29.343-13.069a7.409 7.409 0 0 0 -1.537-6.191c-3.4-4.355-11.738-7.4-21.764-7.951-14.389-.783-27.817 5.258-28.724 12.94a8.093 8.093 0 0 0 2.124 6.256c3.695 4.413 11.573 7.485 20.558 8.015z" fill="#112c41"/><path d="m172.876 113.386-45 50.66c-8.89-1.23-17.39-2.15-25.39-2.82l45.31-49.35c.56.03 1.13.05 1.68.08 7.91.4 15.76.89 23.4 1.43z" fill="#fff"/><path d="m127.876 165.046a.893.893 0 0 1 -.137-.01c-8.406-1.162-16.931-2.109-25.337-2.814a1 1 0 0 1 -.653-1.673l45.31-49.35a1.015 1.015 0 0 1 .791-.322l1.681.081c7.421.375 15.3.857 23.415 1.431a1 1 0 0 1 .677 1.661l-45 50.66a1 1 0 0 1 -.747.336zm-23.276-4.646c7.605.671 15.291 1.538 22.885 2.579l43.295-48.742c-7.387-.509-14.56-.942-21.353-1.286l-1.209-.057z" fill="#112c41"/><path d="m201.75 194.722a236.61 236.61 0 0 0 -32.469-9.756" fill="#7bdaac"/><path d="m201.75 195.722a1.026 1.026 0 0 1 -.359-.066 234.967 234.967 0 0 0 -32.317-9.711 1 1 0 1 1 .416-1.957 237.4 237.4 0 0 1 32.618 9.8 1 1 0 0 1 -.358 1.934z" fill="#112c41"/><path d="m205.922 213.227a1 1 0 0 1 -.951-.69c-.051-.158-5.145-15.977-4.072-31.9a1.011 1.011 0 0 1 1.065-.931 1 1 0 0 1 .93 1.066c-1.045 15.526 3.929 30.991 3.979 31.145a1 1 0 0 1 -.641 1.261.985.985 0 0 1 -.31.049z" fill="#112c41"/><path d="m1 91.525c.254.467 29.612 36.135 43.454 62.594 0 0 27.773-16.437 76.423-25.636 7.937-1.5 16.421-2.8 25.438-3.813a368.258 368.258 0 0 1 69.255-1.105.886.886 0 0 0 .955-.911l-.955-27.165-212.545-30.51a140.327 140.327 0 0 1 -2.025 26.546z" fill="#7bdaac"/><path d="m44.454 155.119a.985.985 0 0 1 -.274-.038 1 1 0 0 1 -.612-.5c-8-15.3-22.6-36.392-42.216-60.994a16.9 16.9 0 0 1 -1.23-1.587 1 1 0 0 1 -.1-.671 138.591 138.591 0 0 0 2.004-26.329 1 1 0 0 1 1.142-1.006l212.544 30.506a1 1 0 0 1 .858.955l.955 27.165a1.888 1.888 0 0 1 -2.031 1.944 368.618 368.618 0 0 0 -69.068 1.1c-8.578.963-17.111 2.243-25.363 3.8-47.891 9.055-75.823 25.351-76.1 25.514a.992.992 0 0 1 -.509.141zm-42.389-63.847c.186.237.474.6.851 1.07 19.306 24.216 33.784 45.069 41.942 60.4a180.1 180.1 0 0 1 19.19-8.918 303.415 303.415 0 0 1 56.643-16.324c8.3-1.569 16.884-2.855 25.512-3.825a370.511 370.511 0 0 1 69.318-1.118l-.921-26.2-210.56-30.222a143.023 143.023 0 0 1 -1.975 25.137z" fill="#112c41"/><path d="m3.025 64.979c30.523 32.3 44.209 57.173 44.209 57.173a441.816 441.816 0 0 1 73.292-19.615c8.834-1.586 17.29-2.846 25.257-3.836 41.486-5.169 69.787-3.212 69.787-3.212-12.7-22.178-33.825-43.088-37.75-46.874a2.2 2.2 0 0 0 -1.507-.64c-22.085-.665-50.24.776-77.783 3.233-.558.052-1.127.095-1.676.147-7.887.717-15.711 1.521-23.323 2.367l-1.634.186c-29.529 3.367-55.582 7.565-68.872 11.071z" fill="#ddfeee"/><path d="m47.235 123.152a1 1 0 0 1 -.877-.518c-.137-.248-13.99-25.15-44.059-56.969a1 1 0 0 1 .472-1.653c13.3-3.508 39.74-7.76 69.012-11.1l1.634-.185c8.134-.905 15.988-1.7 23.347-2.37l1.672-.147c21.347-1.9 52.184-4.008 77.907-3.237a3.216 3.216 0 0 1 2.182.932c4.074 3.928 25.1 24.713 37.913 47.084a1 1 0 0 1 -.021 1.029 1.027 1.027 0 0 1 -.916.467c-.282-.02-28.694-1.888-69.594 3.206-8.357 1.039-16.837 2.327-25.2 3.828a440.759 440.759 0 0 0 -73.126 19.57 1 1 0 0 1 -.346.063zm-42.32-57.624c26.587 28.366 40.258 51.06 42.77 55.4a443.363 443.363 0 0 1 72.664-19.371c8.4-1.508 16.918-2.8 25.31-3.844 35.138-4.378 61.131-3.637 68.115-3.316-12.741-21.524-32.695-41.244-36.649-45.057a1.222 1.222 0 0 0 -.843-.36c-25.62-.772-56.375 1.33-77.663 3.228l-1.671.147c-7.349.668-15.19 1.464-23.307 2.366l-1.63.185c-28.027 3.194-53.425 7.22-67.096 10.622z" fill="#112c41"/><ellipse cx="57.068" cy="103.256" fill="#7bdaac" rx="8.845" ry="5.503" transform="matrix(.95641185 -.29202118 .29202118 .95641185 -27.665 21.166)"/><path d="m54.788 110.192a11.1 11.1 0 0 1 -2.841-.353 5.27 5.27 0 0 1 -2.8-9.183 14 14 0 0 1 13.046-3.984 5.271 5.271 0 0 1 2.8 9.184 13.057 13.057 0 0 1 -6 3.687 14.451 14.451 0 0 1 -4.205.649zm4.557-11.732a12.32 12.32 0 0 0 -3.571.557 10.908 10.908 0 0 0 -5.017 3.049 3.174 3.174 0 0 0 1.741 5.7 10.929 10.929 0 0 0 5.864-.275 10.9 10.9 0 0 0 5.017-3.048 3.175 3.175 0 0 0 -1.742-5.7 8.968 8.968 0 0 0 -2.292-.283z" fill="#112c41"/><ellipse cx="166.854" cy="58.403" fill="#7bdaac" rx="5.503" ry="8.845" transform="matrix(.06834613 -.99766167 .99766167 .06834613 97.183 220.875)"/><path d="m167.481 65q-.531 0-1.076-.037c-5.548-.381-9.7-3.559-9.444-7.237a5.76 5.76 0 0 1 3.417-4.578 14 14 0 0 1 13.609.932 5.765 5.765 0 0 1 2.76 5c-.236 3.438-4.219 5.92-9.266 5.92zm-1.241-11.05a10.467 10.467 0 0 0 -4.857 1.089 3.738 3.738 0 0 0 -2.285 2.832c-.164 2.4 3.249 4.664 7.453 4.953s7.894-1.494 8.059-3.89a3.735 3.735 0 0 0 -1.877-3.116 10.9 10.9 0 0 0 -5.576-1.835q-.457-.033-.917-.033z" fill="#112c41"/><path d="m120.877 128.483c7.937-1.5 16.421-2.8 25.438-3.813l-.532-25.97c-7.967.99-16.423 2.25-25.257 3.836z" fill="#fff"/><path d="m120.877 129.484a1 1 0 0 1 -1-.987l-.351-25.947a1 1 0 0 1 .823-1c8.4-1.508 16.918-2.8 25.31-3.844a1 1 0 0 1 1.124.972l.532 25.97a1 1 0 0 1 -.888 1.014c-8.579.963-17.112 2.243-25.364 3.8a.977.977 0 0 1 -.186.022zm.66-26.113.324 23.911c7.645-1.416 15.518-2.592 23.435-3.5l-.49-23.949c-7.722.977-15.54 2.167-23.269 3.538z" fill="#112c41"/><path d="m112.517 90.312c-12.985 1.288-28.734-3.372-30.917-12.648s10.6-15.054 23.594-16.289c14.682-1.4 28.954 4.135 30.3 12.615 1.234 7.747-8.848 14.917-22.977 16.322z" fill="#7bdaac"/><path d="m108.185 91.523c-12.462 0-25.521-4.968-27.559-13.63a9.335 9.335 0 0 1 1.61-7.872c4.241-5.909 14.591-8.856 22.863-9.642 15.613-1.487 29.99 4.677 31.385 13.454a10.145 10.145 0 0 1 -2.263 7.873c-3.9 5.055-11.976 8.644-21.605 9.6-1.455.145-2.939.217-4.431.217zm1.5-29.362c-1.451 0-2.92.068-4.4.208-10 .952-18.207 4.33-21.428 8.818a7.407 7.407 0 0 0 -1.287 6.247c2.011 8.551 17.344 13.126 29.844 11.883 8.956-.891 16.7-4.275 20.219-8.832a8.1 8.1 0 0 0 1.872-6.337c-1.085-6.848-12.186-11.987-24.818-11.987z" fill="#112c41"/><path d="m73.531 53.722 46.995 48.815c8.834-1.586 17.29-2.846 25.257-3.836l-47.253-47.493c-.558.052-1.127.095-1.676.147-7.887.717-15.711 1.521-23.323 2.367z" fill="#fff"/><path d="m120.526 103.536a1 1 0 0 1 -.72-.306l-47-48.815a1 1 0 0 1 .61-1.687c8.131-.9 15.985-1.7 23.344-2.369l1.672-.147a.965.965 0 0 1 .8.29l47.26 47.498a1 1 0 0 1 -.585 1.7c-8.357 1.039-16.837 2.327-25.2 3.828a.962.962 0 0 1 -.181.008zm-44.865-49.043 45.215 46.965c7.558-1.347 15.2-2.52 22.763-3.494l-45.488-45.72-1.2.106c-6.741.613-13.892 1.333-21.29 2.143z" fill="#112c41"/><path d="m47.942 136.151a256.537 256.537 0 0 1 32.051-11.051" fill="#7bdaac"/><path d="m47.943 137.151a1 1 0 0 1 -.393-1.92 258.872 258.872 0 0 1 32.2-11.1 1 1 0 0 1 .494 1.938 256.568 256.568 0 0 0 -31.9 11 1.007 1.007 0 0 1 -.401.082z" fill="#112c41"/><path d="m44.476 154.809a1 1 0 0 1 -.963-1.272c.044-.156 4.394-15.808 2.726-31.281a1 1 0 0 1 1.988-.215c1.71 15.869-2.744 31.88-2.789 32.04a1 1 0 0 1 -.962.728z" fill="#112c41"/><path d="m16.017 97.392c6.128 8.17 16.556 21.64 22.341 31.532" fill="#fff"/><path d="m38.359 129.923a1 1 0 0 1 -.865-.5c-4.982-8.519-13.437-19.719-19.61-27.9-.952-1.261-1.848-2.448-2.666-3.541a1 1 0 1 1 1.6-1.2c.819 1.09 1.713 2.276 2.663 3.534 6.2 8.217 14.7 19.472 19.741 28.092a1 1 0 0 1 -.862 1.5z" fill="#112c41"/><path d="m259.664 97.033a1.272 1.272 0 0 1 -1.422 1.011c-18.779-1.911-84.14-8.3-151.45 7.145-22.692-21.699-52.792-46.881-61.539-54.438a2.6 2.6 0 0 1 -.827-2.5 196.832 196.832 0 0 0 3.774-30.051l58.874 52.949 156.626-12.149a307.626 307.626 0 0 1 -4.036 38.033z" fill="#7bdaac"/><path d="m106.792 106.189a1 1 0 0 1 -.691-.278c-18.83-18.006-42.593-38.266-55.36-49.15-2.566-2.188-4.66-3.974-6.142-5.253a3.614 3.614 0 0 1 -1.153-3.457 193.932 193.932 0 0 0 3.754-29.889 1 1 0 0 1 1.668-.71l58.556 52.662 156.2-12.107a1 1 0 0 1 1.077 1.034 311.2 311.2 0 0 1 -4.054 38.173 2.267 2.267 0 0 1 -2.506 1.825c-68.749-7-120.129.013-151.125 7.124a1.007 1.007 0 0 1 -.224.026zm-57.682-85.83a200.918 200.918 0 0 1 -3.7 28.09 1.609 1.609 0 0 0 .5 1.545c1.479 1.278 3.57 3.06 6.132 5.245 12.694 10.822 36.247 30.9 55.055 48.855 31.2-7.1 82.62-14.029 151.25-7.045a.277.277 0 0 0 .336-.2 305.27 305.27 0 0 0 3.973-36.763l-155.5 12.053a1.008 1.008 0 0 1 -.746-.254z" fill="#112c41"/><path d="m106.841 105.892a1.069 1.069 0 0 1 -.113-.006 1 1 0 0 1 -.883-1.1 196.615 196.615 0 0 0 .233-33.55 1 1 0 1 1 1.993-.164 198.886 198.886 0 0 1 -.238 33.928 1 1 0 0 1 -.992.892z" fill="#112c41"/><path d="m263.7 59.008c-16.321 4.825-40.049 8.542-65.074 10.858-32.923 3.05-68.09 3.688-91.553 1.283l-.1-.082-8.257-7.43-50.516-45.437c6.18 1.048 13.18 2.05 20.807 2.953 41.5 4.963 101.617 7.08 150.61-3.123 6.419 10.034 21.113 29.605 44.083 40.978z" fill="#ddfeee"/><path d="m141.159 73.607c-12.893 0-24.622-.483-34.187-1.463a1 1 0 0 1 -.548-.237l-.1-.082-58.8-52.883a1 1 0 0 1 -.232-1.179 1.016 1.016 0 0 1 1.067-.551c6.332 1.074 13.315 2.066 20.758 2.946 20.173 2.412 90.626 9.315 150.288-3.109a1 1 0 0 1 1.046.441c6.64 10.38 21.145 29.461 43.687 40.622a1 1 0 0 1 -.16 1.855c-15.414 4.557-38.592 8.426-65.266 10.9-19.612 1.812-39.695 2.74-57.553 2.74zm-33.659-3.42c22.7 2.289 57.54 1.787 91.04-1.317 25.18-2.33 47.206-5.908 62.457-10.128-21.278-11.28-35.166-29.284-41.844-39.595-59.816 12.3-130.087 5.409-150.26 3-6.175-.732-12.039-1.539-17.479-2.405z" fill="#112c41"/><path d="m263.7 59c-15.34 4.548-37.241 8.1-60.6 10.435l-.182.015c-1.426.138-2.861.274-4.3.411-6.994.647-14.089 1.186-21.145 1.607h-.01q-3.522.216-7.033.393c-23.708 1.173-46.547 1.01-63.363-.72l-.094-.078c-.59-.454-34.529-34.185-45.3-69.537a.41.41 0 0 1 .6-.469c20.254 12.146 44.735 20.576 66.656 21.827.489.029.978.058 1.468.077.11.009.22.007.32.015q3.072.155 6.094.2a250.558 250.558 0 0 0 26.388-1.07c.031-.008.07 0 .1-.012.4-.028.8-.067 1.2-.105.121-.01.232-.012.343-.023 24.832-2.31 37.9-6.076 49.963-9.938a1.541 1.541 0 0 1 1.727.57 202.354 202.354 0 0 0 47.168 46.402z" fill="#ddfeee"/><path d="m141.183 73.619c-12.969 0-24.648-.5-34.211-1.48a1.01 1.01 0 0 1 -.531-.222l-.094-.077c-.295-.226-34.757-34.353-45.622-70.02a1.411 1.411 0 0 1 2.075-1.62c20.977 12.58 45.105 20.484 66.2 21.688.485.028.968.057 1.451.076l.358.018c1.906.094 3.945.16 6.031.191a250.117 250.117 0 0 0 26.279-1.065l.048-.006a.694.694 0 0 1 .077-.008c.363-.026.719-.06 1.081-.094l.1-.01.327-.021c24.527-2.282 37.534-5.982 49.763-9.9a2.534 2.534 0 0 1 2.843.938 201.684 201.684 0 0 0 46.924 46.183 1 1 0 0 1 -.3 1.773c-14.635 4.339-35.654 7.96-60.784 10.471l-.1.009-4.378.417c-6.959.644-14.084 1.186-21.18 1.61h-.054q-3.507.216-7 .392c-10.219.506-20.086.757-29.303.757zm-33.683-3.437c16.235 1.643 38.549 1.887 62.889.684 2.332-.116 4.677-.249 7.021-.393h.058c7.059-.423 14.147-.962 21.065-1.6l4.491-.426c23.525-2.351 44.153-5.825 58.425-9.828a203.037 203.037 0 0 1 -45.712-45.439.535.535 0 0 0 -.608-.2c-12.34 3.948-25.461 7.682-50.177 9.981-.065.007-.142.011-.22.016l-.127.008c-.46.043-.826.078-1.2.1l-.059.006a.393.393 0 0 1 -.048.006 251.285 251.285 0 0 1 -26.493 1.074c-2.108-.032-4.17-.1-6.127-.2l-.35-.018c-.456-.017-.952-.046-1.448-.076-20.96-1.2-44.853-8.9-65.784-21.181 10.937 33.879 42.194 65.323 44.404 67.486z" fill="#112c41"/><path d="m202.921 69.454-2.021 25.446c-1.355 0-2.7.016-4.046.039-7.081.108-14.235.382-21.288.773l1.934-24.319c10.857-.45 14.556-.928 25.421-1.939z" fill="#fff"/><path d="m175.56 96.716a1 1 0 0 1 -1-1.079l1.94-24.323a1 1 0 0 1 .955-.92c8.926-.369 12.942-.753 20.232-1.449 1.544-.148 3.232-.309 5.141-.487a1 1 0 0 1 1.09 1.075l-2.026 25.45a1 1 0 0 1 -1 .921c-1.349 0-2.69.015-4.031.039-6.729.1-13.878.362-21.25.771zm2.864-24.361-1.776 22.3c7-.375 13.78-.615 20.186-.713q1.565-.027 3.137-.036l1.858-23.346-3.952.375c-7.077.677-11.085 1.059-19.453 1.42z" fill="#112c41"/><path d="m170.263 61.012c-13.046-.279-28.121-6.8-29.173-16.271-1.05-9.457 12.336-13.671 25.38-13.336 14.744.379 28.248 7.585 28.567 16.165.292 7.839-10.579 13.746-24.774 13.442z" fill="#7bdaac"/><path d="m171.316 62.024c-.357 0-.714 0-1.075-.012-13.669-.292-29.041-7.257-30.141-17.161a9.332 9.332 0 0 1 2.543-7.62c4.921-5.358 15.555-7.028 23.857-6.825 15.682.4 29.21 8.246 29.54 17.127a10.146 10.146 0 0 1 -3.192 7.544c-4.316 4.38-12.309 6.946-21.532 6.947zm-6.351-29.638c-9.394 0-17.3 2.33-20.852 6.2a7.411 7.411 0 0 0 -2.03 6.047c.97 8.732 15.641 15.114 28.2 15.382 9 .214 17.1-2.236 21.134-6.338a8.1 8.1 0 0 0 2.619-6.066c-.287-7.73-13.18-14.833-27.592-15.2q-.744-.025-1.479-.025z" fill="#112c41"/><path d="m202.921 69.454c-1.426.138-2.861.274-4.3.411-6.994.647-14.089 1.186-21.145 1.607h-.01l-40.645-48.3a250.558 250.558 0 0 0 26.388-1.07c.031-.008.07 0 .1-.012z" fill="#fff"/><path d="m177.48 72.472c-.033 0-.066 0-.1 0a1.027 1.027 0 0 1 -.676-.352l-40.645-48.3a1 1 0 0 1 -.138-1.074 1.033 1.033 0 0 1 .92-.57 249.49 249.49 0 0 0 26.276-1.065l.049-.006a1.011 1.011 0 0 1 .914.347l39.607 47.363a1 1 0 0 1 -.671 1.636l-4.3.411c-6.959.644-14.084 1.186-21.18 1.61zm-38.48-48.272 38.918 46.245c6.912-.418 13.847-.949 20.619-1.576l2.4-.228-38.052-45.5c-8.721.759-16.558 1.116-23.885 1.059z" fill="#112c41"/><ellipse cx="87.718" cy="24.834" fill="#7bdaac" rx="4.794" ry="8.517" transform="matrix(.43337598 -.90121321 .90121321 .43337598 27.323 93.124)"/><path d="m91.117 31.516a13.96 13.96 0 0 1 -5.91-1.461 13.527 13.527 0 0 1 -5.2-4.2c-1.273-1.822-1.579-3.649-.861-5.143s2.336-2.394 4.555-2.538a13.459 13.459 0 0 1 6.533 1.442c4.809 2.312 7.474 6.417 6.067 9.345-.719 1.493-2.336 2.4-4.555 2.538-.209.011-.418.017-.629.017zm-6.789-11.365c-.171 0-.338.006-.5.016-1.444.093-2.494.607-2.88 1.409s-.132 1.943.7 3.129a11.483 11.483 0 0 0 4.432 3.547 11.513 11.513 0 0 0 5.533 1.248c1.444-.093 2.494-.606 2.88-1.409.778-1.617-1.138-4.757-5.13-6.676a11.918 11.918 0 0 0 -5.035-1.264z" fill="#112c41"/><path d="m71.2 51.42c-9.038-8.7-23.575-21.362-23.575-21.362" fill="#7bdaac"/><path d="m71.2 52.42a1 1 0 0 1 -.693-.279c-8.917-8.584-23.393-21.2-23.538-21.329a1 1 0 1 1 1.31-1.512c.146.127 14.66 12.778 23.611 21.4a1 1 0 0 1 -.69 1.72z" fill="#112c41"/><path d="m112.825 88.11a323.724 323.724 0 0 1 43.126-4.468" fill="#7bdaac"/><path d="m112.824 89.11a1 1 0 0 1 -.176-1.985 327.139 327.139 0 0 1 43.285-4.483 1 1 0 0 1 .037 2 324.414 324.414 0 0 0 -42.97 4.452.982.982 0 0 1 -.176.016z" fill="#112c41"/><path d="m262.724 73.577c-7.424.832-17.488 1.668-25.644 2.245" fill="#7bdaac"/><path d="m237.079 76.823a1 1 0 0 1 -.069-2c9.547-.676 19.119-1.514 25.6-2.242a1 1 0 0 1 .222 1.989c-6.509.729-16.111 1.57-25.684 2.248q-.033.005-.069.005z" fill="#112c41"/><ellipse cx="236.042" cy="53.956" fill="#7bdaac" rx="8.845" ry="4.794" transform="matrix(.99411699 -.10831167 .10831167 .99411699 -4.455 25.882)"/><path d="m234.8 59.819c-4.624 0-8.234-1.942-8.545-4.8-.352-3.23 3.672-6.228 9.159-6.826a14.356 14.356 0 0 1 6.857.787c2.114.864 3.378 2.252 3.558 3.906.351 3.229-3.672 6.227-9.16 6.826a17.378 17.378 0 0 1 -1.869.107zm2.49-9.729a15.146 15.146 0 0 0 -1.659.092c-4.6.5-7.582 2.838-7.388 4.621s3.615 3.429 8.209 2.922 7.583-2.838 7.389-4.621c-.1-.878-.944-1.706-2.327-2.273a11.314 11.314 0 0 0 -4.224-.738z" fill="#112c41"/></svg>