<svg height="60" viewBox="0 0 60 60" width="60" xmlns="http://www.w3.org/2000/svg"><path d="M28.259 41.036c-.157.277-.317.512-.43.767a8.2 8.2 0 0 1-.784 1.8c-.767.97-.787 2.149-1.1 3.239a7.361 7.361 0 0 0-.174 2.827 14.921 14.921 0 0 0 .96 4.346 6.27 6.27 0 0 0 .4.67l.245-.485a24.836 24.836 0 0 0 1.473-4.843 14.309 14.309 0 0 0 .331-1.562 17.131 17.131 0 0 0-.251-5.518 1.7 1.7 0 0 0-.67-1.241zM7.061 24.11a2.7 2.7 0 0 0 1.46 1.011A6.508 6.508 0 0 0 12.85 24c-2.059-1.161-3.881-.5-5.789.11z" fill="#345449"/><path d="M41.982 29.6a9.843 9.843 0 0 1-.756-.632c-.682-.525-1.358-1.06-2.062-1.553-.911-.632-1.851-1.232-2.767-1.852a6.6 6.6 0 0 0-1.063-.735c-.746-.33-1.384-.9-2.107-1.291a1.161 1.161 0 0 1-.72-1.4 2.224 2.224 0 0 0 .654-.3c.606-.566 1.178-1.169 1.767-1.754.826-.821 1.644-1.65 2.488-2.452.489-.464 1.02-.885 1.533-1.323.357-.3.732-.591 1.071-.915.518-.5 1.016-1.012 1.514-1.528a6.2 6.2 0 0 0 1.293-1.443A5.736 5.736 0 0 1 43.693 11a3.365 3.365 0 0 0 .363-.79 13.243 13.243 0 0 0-4.062 1.443 1.55 1.55 0 0 1-2.232-.347c-.3-.326-.595-.656-.819-.9a10.384 10.384 0 0 1 1.6-3.8c-.051-.034-.1-.068-.152-.1a2.332 2.332 0 0 0-.409.266c-.5.514-.981 1.041-1.469 1.563C35.2 9.75 33.8 11.1 32.6 12.6c-.576.719-1.217 1.376-1.788 2.094-.459.578-1.149 1.033-1.428 1.676a3.325 3.325 0 0 1-1.364 1.45 1.536 1.536 0 0 0-.377.485 1.475 1.475 0 0 1-1.655.716c-.714-.181-.782-.3-.6-1.063.012-.052-.016-.114-.012-.09a5.523 5.523 0 0 1-.613-.824 5.318 5.318 0 0 0-1.468-2.1c-.192-.146-.15-.58-.335-.76-.2-.2-.638-.173-.8-.38a10.528 10.528 0 0 1-.86-1.118c-.95-1.719-2.662-2.422-4.226-3.33a.952.952 0 0 0-.433-.1c-.412-.01-.709.161-.738.606a3.989 3.989 0 0 0 .375 2.519c.5.819.859 1.745 1.339 2.75-.413.069-.752.241-.949.139a8.188 8.188 0 0 0-3.327-.484c-.532-.043-1.1-.021-1.345.493-.252.539.116 1.009.449 1.458a10.86 10.86 0 0 0 2 1.767c1.016.833 2.043 1.653 3.045 2.5.91.772 1.81 1.558 2.68 2.374.486.455.473.839.186 1.446a6.635 6.635 0 0 1-1.665 1.97c-1.4 1.29-2.848 2.536-4.265 3.812a6 6 0 0 0-1.106 1.141c-.355.553-.932 1.01-.971 1.749a2.677 2.677 0 0 0 3.185-1.539 7.5 7.5 0 0 1 3.455.667c.226.087.351.434.541.685a11.791 11.791 0 0 0-2.068 2.291c-.982 1.455-2.109 2.812-3.129 4.243a5.221 5.221 0 0 0-.932 2.3 1.066 1.066 0 0 0 .412 1.117c.357.233.713.012 1-.194.655-.472 1.307-.955 1.913-1.488 1.231-1.083 2.434-2.2 3.643-3.308a3.774 3.774 0 0 0 .339-.418c.723-.87 1.4-1.781 2.185-2.6.559-.584 1.161-1.118 1.7-1.736a24.915 24.915 0 0 1 2.65-2.4c.785-.672 2.652-.725 3.267-.045a16.256 16.256 0 0 1 2.4 2.512c.238.405.679.692.91 1.1a16.54 16.54 0 0 0 2.4 3.541c.6.612 1.026 1.416 1.917 1.711.634.209.9.134 1.114-.479a1.957 1.957 0 0 0 .067-.867c-.042-.353-.281-.712-.237-1.042a3.492 3.492 0 0 0-.74-2.123 1.805 1.805 0 0 1-.1-1.988 9.082 9.082 0 0 1 1.221-.224 1.225 1.225 0 0 1 .747.184 10.418 10.418 0 0 0 3.039 1.468 2.232 2.232 0 0 0 1.658.078c.374-1.064-.265-1.947-.679-2.712a6.726 6.726 0 0 0-2.245-2.63zm-14.074-1.416a3.031 3.031 0 0 1-3.582-.119 4.959 4.959 0 0 1-1.458-2.521.243.243 0 0 1 0-.176c.254-.491.484-1 .781-1.46a5.483 5.483 0 0 0 1.236-2.208c.049-.4.3-.507.637-.413.745.21 1.567-.154 2.277.31a.193.193 0 0 0 .172-.006 1.2 1.2 0 0 1 1.482.256 1.911 1.911 0 0 1 .831 1.7 2.155 2.155 0 0 0 .019.359 4.908 4.908 0 0 1-2.395 4.278z" fill="#ee7558"/><path d="M25.172 25.852c-.226.423-.1 1.144.171 1.238a.992.992 0 0 0 1.1-.4 10.252 10.252 0 0 0 .84-1.355 2.044 2.044 0 0 0-.395-2.47c-.631 1.09-1.2 2.024-1.716 2.987z" fill="#d88c1f"/><path d="M48.34 33.027a5.112 5.112 0 0 0-1.883-3.168 48.191 48.191 0 0 0-3.768-3.425c-1.338-.892-2.592-1.912-3.869-2.894a9.006 9.006 0 0 1-1.883-1.51 7.337 7.337 0 0 1 .689-.786c1.9-1.628 3.834-3.209 5.7-4.874 1.11-.991 2.114-2.1 3.156-3.168.208-.212.326-.578.566-.678.642-.269.691-.932 1.043-1.385a.638.638 0 0 0 .079-.509 2.529 2.529 0 0 0-.986-1.546 5.3 5.3 0 0 0-3.784-.757c-.694.1-1.379.268-2.146.42a3.043 3.043 0 0 1 .132-.594c.232-.483.5-.949.735-1.432a4.678 4.678 0 0 0 .586-2.5 1.342 1.342 0 0 0-.49-.885 3.449 3.449 0 0 0-4.432.7c-.277.3-.524.649-.892.476a10.648 10.648 0 0 1-.972.948c-.28.213-.687.273-.938.508a6.072 6.072 0 0 0-.883 1.3 2.752 2.752 0 0 1-1 1.057 2.325 2.325 0 0 0-.514.471c-.194.212-.352.458-.552.664-.457.467-.972.882-1.386 1.382-1 1.2-2.012 2.4-2.891 3.691A5.085 5.085 0 0 1 26.43 15.8c-.21-.289-.388-.525-.556-.769A48.909 48.909 0 0 0 23.067 11a17.573 17.573 0 0 0-4.634-4.055 2.462 2.462 0 0 0-2.068-.279c-.779.279-1.625-.176-2.342.331-.647-.447-.932.235-1.416.4l.645 3.823c-.152.184-.323.575-.608.7a9.882 9.882 0 0 1-2.048.608c-1.055.2-1.273.365-1.335 1.411a4.068 4.068 0 0 0 .09.966 4.879 4.879 0 0 0 1.549 2.779c1.555 1.4 3.158 2.752 4.743 4.121a6.076 6.076 0 0 1 1.457 1.424 10.679 10.679 0 0 0-1.046.976c-.278.335-.291.865-.851 1.284.3-.863.244-1.412-.464-1.791-.23-.123-.326-.483-.508-.716a1.766 1.766 0 0 0-.545-.57 6.964 6.964 0 0 0-4.086-.729 21.911 21.911 0 0 0-5.635 2c1.045.936 2 1.885 3.05 2.709a4.462 4.462 0 0 0 4.157.76c1.013-.289 2.016-.61 3.024-.917a3.511 3.511 0 0 1-.99 1.255 4.035 4.035 0 0 0-1.769 2 .8.8 0 0 1-.363.346c-.984.586-1.071 1.7-1.515 2.594-.04.08.039.229.082.338a3.362 3.362 0 0 0 1.264 1.7c.647.418 1.314.8 2.009 1.224a3.428 3.428 0 0 0-.269 1.144.879.879 0 0 1-.479.952c-.276.165-.5.358-.464.7.046.491.041.923-.519 1.155-.119.049-.156.3-.222.469-.247.622.108 1.211.127 1.822a2.525 2.525 0 0 0 .451 1.143 4.474 4.474 0 0 0 2.814 1.785 2.9 2.9 0 0 0 2.994-.685c.407-.391.85-.744 1.266-1.126q.885-.81 1.754-1.639c.818-.784 1.642-1.562 2.439-2.368.554-.561 1.061-1.169 1.6-1.747.628-.675 1.258-1.349 1.9-2.009.888-.909 1.791-1.8 2.728-2.747.3.273.52.474.743.664 1.374 1.166 1.922 2.942 3.142 4.231.8.842 1.452 1.818 2.239 2.67a5.893 5.893 0 0 0 3.164 1.768 3.084 3.084 0 0 0 3.737-4.042c-.136-.443-.224-.9-.37-1.5a8.063 8.063 0 0 1 1.352.27 11.139 11.139 0 0 0 4.256.491 3.632 3.632 0 0 0 1.461-.37 1.143 1.143 0 0 0 .4-1.973 2.7 2.7 0 0 1-.818-1.723zM8.521 25.121a2.671 2.671 0 0 1-1.46-1.011c1.908-.612 3.73-1.271 5.789-.11a6.525 6.525 0 0 1-4.329 1.121zm36.394 9.824a2.232 2.232 0 0 1-1.658-.078 10.418 10.418 0 0 1-3.039-1.467 1.219 1.219 0 0 0-.747-.184 9.58 9.58 0 0 0-1.221.224 1.82 1.82 0 0 0 .1 1.988 3.473 3.473 0 0 1 .74 2.123c-.044.33.195.689.237 1.042a1.957 1.957 0 0 1-.067.867c-.218.613-.48.688-1.114.479-.891-.3-1.317-1.1-1.917-1.711a16.182 16.182 0 0 1-2.4-3.541c-.231-.408-.672-.7-.91-1.1a16.741 16.741 0 0 0-2.4-2.512c-.615-.68-2.482-.627-3.267.045a24.915 24.915 0 0 0-2.65 2.4c-.54.618-1.142 1.152-1.7 1.736-.781.814-1.462 1.725-2.185 2.6a3.774 3.774 0 0 1-.339.418c-1.209 1.109-2.412 2.225-3.643 3.308-.606.533-1.258 1.016-1.913 1.488-.285.206-.641.427-1 .194a1.066 1.066 0 0 1-.412-1.117 5.221 5.221 0 0 1 .932-2.3c1.02-1.431 2.147-2.788 3.129-4.243a11.791 11.791 0 0 1 2.065-2.294c-.19-.251-.315-.6-.541-.685a7.5 7.5 0 0 0-3.455-.667 2.674 2.674 0 0 1-3.185 1.542c.039-.739.616-1.2.971-1.749a6.085 6.085 0 0 1 1.106-1.141c1.417-1.276 2.861-2.522 4.265-3.812a6.635 6.635 0 0 0 1.665-1.97c.287-.607.3-.991-.186-1.446-.87-.816-1.77-1.6-2.68-2.374-1-.849-2.029-1.669-3.045-2.5a10.537 10.537 0 0 1-2-1.767c-.333-.449-.7-.919-.449-1.458.24-.514.813-.536 1.345-.493a8.188 8.188 0 0 1 3.327.484c.2.1.536-.07.949-.139-.48-1.005-.834-1.924-1.339-2.75a3.963 3.963 0 0 1-.375-2.519c.029-.445.326-.616.738-.606a.952.952 0 0 1 .433.1c1.564.908 3.276 1.611 4.226 3.33a10.528 10.528 0 0 0 .86 1.118c.157.207.6.185.8.38.185.18.143.614.335.76a5.318 5.318 0 0 1 1.468 2.1 5.523 5.523 0 0 0 .613.824c0-.024.024.038.012.09-.178.759-.11.882.6 1.063a1.468 1.468 0 0 0 1.655-.716 1.536 1.536 0 0 1 .377-.485 3.367 3.367 0 0 0 1.356-1.456c.279-.643.969-1.1 1.428-1.676.571-.718 1.212-1.375 1.788-2.094 1.2-1.5 2.6-2.849 3.916-4.26.488-.522.972-1.049 1.469-1.563a2.324 2.324 0 0 1 .406-.269c.05.035.1.069.152.1a10.418 10.418 0 0 0-1.6 3.8c.224.246.519.576.819.9a1.551 1.551 0 0 0 2.232.347 13.243 13.243 0 0 1 4.062-1.443 3.365 3.365 0 0 1-.363.79 5.773 5.773 0 0 0-.866 1.419 6.2 6.2 0 0 1-1.293 1.443c-.5.516-1 1.032-1.514 1.528-.339.324-.714.61-1.071.915-.513.438-1.044.859-1.533 1.323-.844.8-1.662 1.631-2.488 2.452-.589.585-1.161 1.188-1.767 1.754a2.3 2.3 0 0 1-.654.3 1.159 1.159 0 0 0 .72 1.4c.723.394 1.361.961 2.107 1.291a6.6 6.6 0 0 1 1.063.735c.916.624 1.856 1.216 2.765 1.852.7.493 1.38 1.028 2.062 1.553.26.2.481.459.756.632a6.787 6.787 0 0 1 2.256 2.632c.416.768 1.055 1.654.681 2.715z"/><path d="M31.9 45.832h-.038a1.5 1.5 0 0 0 0-.354 20.819 20.819 0 0 0-2-5.923 2.707 2.707 0 0 0-1.653-1.3 1.13 1.13 0 0 0-1.372.7 13.669 13.669 0 0 1-.708 1.715 17.284 17.284 0 0 1-1.852 2.93 2.748 2.748 0 0 0-.7 1.666 34.877 34.877 0 0 0-.136 1.964c-.013.4.087.81.047 1.206-.048.481-.155.938.249 1.336a.472.472 0 0 1 .068.407 4.7 4.7 0 0 0 .178 2.368 3.679 3.679 0 0 0 .509 1.214 19.108 19.108 0 0 0 1.422 2.258 2.491 2.491 0 0 0 1.869 1.081c.326.012.65.061.976.084a.717.717 0 0 0 .813-.41c.54-1.348 1.441-2.556 1.539-4.077a3.583 3.583 0 0 1 .288-1.123 7.777 7.777 0 0 0 .5-3.24c-.017-.834.001-1.67.001-2.502zm-2.725 1.958a14.309 14.309 0 0 1-.331 1.562 24.564 24.564 0 0 1-1.473 4.848l-.245.485a6.56 6.56 0 0 1-.4-.67 14.921 14.921 0 0 1-.96-4.346 7.361 7.361 0 0 1 .174-2.827c.316-1.09.336-2.269 1.1-3.239a8.3 8.3 0 0 0 .784-1.8c.113-.255.273-.49.43-.767a1.672 1.672 0 0 1 .665 1.236 16.992 16.992 0 0 1 .256 5.518zm.274-25.951a1.2 1.2 0 0 0-1.482-.256.193.193 0 0 1-.172.006c-.71-.464-1.532-.1-2.277-.31-.336-.094-.588.011-.637.413a5.47 5.47 0 0 1-1.236 2.208c-.3.464-.527.969-.781 1.46a.243.243 0 0 0 0 .176 4.975 4.975 0 0 0 1.458 2.521 3.034 3.034 0 0 0 3.582.119A4.89 4.89 0 0 0 30.3 23.9a2.149 2.149 0 0 1-.019-.359 1.9 1.9 0 0 0-.832-1.702zm-2.167 3.494a9.467 9.467 0 0 1-.84 1.355.988.988 0 0 1-1.1.4c-.268-.094-.4-.815-.171-1.238.516-.963 1.085-1.9 1.718-2.989a2.041 2.041 0 0 1 .393 2.472z"/></svg>