<svg height="60" viewBox="0 0 60 60" width="60" xmlns="http://www.w3.org/2000/svg"><path d="M53.489 19.475a2.6 2.6 0 0 0-1.031.269c-1.334.452-2.662.926-4.014 1.32-1.7.5-1.5.064-3.5 1.438-.188.129-.408.21-.606.326a6.031 6.031 0 0 0-1.962 1.754c-.224.324-.477.627-.7.953a5.083 5.083 0 0 0-.973 2.127c-.067.486-.2.964-.242 1.451a3.571 3.571 0 0 1-.769 1.783c-.212.292-.423.584-.643.869a7.616 7.616 0 0 1-1.465 1.586 16.338 16.338 0 0 0-2.248 2.049 4.322 4.322 0 0 0-.968 1.455c-.34.953-.532 1.958-.777 2.943a1.591 1.591 0 0 0 .02.4 1.8 1.8 0 0 0 .3-.222 16.368 16.368 0 0 1 5.265-4.368 10.517 10.517 0 0 0 3.259-2.332c.192-.222.446-.388.654-.6.532-.535 1.086-1.051 1.571-1.626a4.15 4.15 0 0 0 1.179-2.54c0-.133.121-.262.222-.464a2.069 2.069 0 0 1 .208 1.5 17.854 17.854 0 0 0-.431 2.3 3.873 3.873 0 0 1-1.933 2.926c-.883.561-1.819 1.041-2.738 1.547-.573.316-1.181.576-1.73.928a29.636 29.636 0 0 0-3 2.053c-1.084.9-2.05 1.938-3.069 2.913a2.285 2.285 0 0 0-.609.817 1.864 1.864 0 0 0 .936-.349 16.627 16.627 0 0 1 4.425-1.571 25.758 25.758 0 0 0 5.769-1.9 5.425 5.425 0 0 0 1.581-1.14 12.533 12.533 0 0 0 2.252-3.2c.461-.863.778-1.8 1.184-2.7a4.893 4.893 0 0 0 .4-2c0-.228.03-.456.048-.684.059-.782.084-1.568.189-2.344a5.414 5.414 0 0 1 .426-2.1.629.629 0 0 0 .11-.272 2.947 2.947 0 0 1 .716-1.59c.568-.8 1.179-1.575 1.76-2.368.307-.393.586-.828.934-1.337z" fill="#344a3d"/><path d="M33.239 28.162a14.612 14.612 0 0 1 .37-2.916 8.926 8.926 0 0 1 .861-2.4q.98-1.59 1.942-3.191a1.754 1.754 0 0 0 .112-.4 2.867 2.867 0 0 0-.535-.024c-.938.14-1.882.271-2.809.447a20.029 20.029 0 0 0-4.026 1.245c-1.479.621-2.972 1.207-4.46 1.8-.456.183-.917.352-1.546.592a5.843 5.843 0 0 0 .943.206 6.951 6.951 0 0 1 2.38.545c.64.24 1.284.469 1.963.717l.33-.443a2.756 2.756 0 0 0 1.318 1.737c.662.479.806 1.241 1.2 1.86a2.484 2.484 0 0 1 .289 1.133 2.977 2.977 0 0 1 .1.867 26.788 26.788 0 0 1-.723 3.664 13.89 13.89 0 0 0-.521 1.891 23.99 23.99 0 0 1-.984 3.5c-.442 1.2-.831 2.42-1.257 3.62q-.735 2.081-1.489 4.155a45.843 45.843 0 0 1-2.066 4.447 10.336 10.336 0 0 1-.829 1.557 10.257 10.257 0 0 0-1.186 2.581 3.9 3.9 0 0 0-.118.708c.41.3.79.613 1.2.88a.775.775 0 0 0 .9.01 1.819 1.819 0 0 1 .146-1.549 1.358 1.358 0 0 0 .165-.456 5.272 5.272 0 0 1 .791-1.891 15.741 15.741 0 0 0 1.084-2.194 30.947 30.947 0 0 1 1.47-3c.264-.489.51-.987.764-1.481.206-.4.237-.9.684-1.165a.392.392 0 0 0 .119-.259 9.7 9.7 0 0 1 .871-2.381c.2-.479.414-.954.567-1.448.192-.624.291-1.278.5-1.9a29.777 29.777 0 0 0 .994-4.8c.125-.808.093-1.643.248-2.443a33.173 33.173 0 0 0 .238-3.821z" fill="#11484e"/><path d="M35.8 13.2c.263-.279.493-.506.7-.75.3-.347.554-.732.874-1.055a5.827 5.827 0 0 0 .951-1.357c.3-.545.573-1.1.9-1.626a4.684 4.684 0 0 0 .59-2.335c.034-.631-.23-.806-.87-.646-.378.1-.736.267-1.111.374a5.571 5.571 0 0 0-2.517 1.441c-.866.889-1.733 1.778-2.587 2.679a2.058 2.058 0 0 0-.555 1.111c2.266.576 2.266.576 3.625 2.164zm2-.266c-.194.261-.457.468-.678.71s-.43.493-.638.746a1.546 1.546 0 0 0-.342 1c-.008.421-.1.839-.144 1.26s-.08.847-.093 1.271c0 .095.107.192.165.29.109-.066.187-.086.213-.133a5.314 5.314 0 0 1 2.529-2.238 8.732 8.732 0 0 0 1.516-.891 22.363 22.363 0 0 0 1.938-1.661 5.664 5.664 0 0 0 1.442-2.855.394.394 0 0 0-.3-.434 2.05 2.05 0 0 0-.292-.03 4.54 4.54 0 0 0-2.777.823 9.493 9.493 0 0 0-2.539 2.142zm-8.251 1.996a7.475 7.475 0 0 0-.875 3.962c.006.176-.065.4.221.561a26.9 26.9 0 0 1 5.722-1.265 2.681 2.681 0 0 0 .1-.45c.019-1.112.031-2.224.043-3.336a2.368 2.368 0 0 0-.466-1.373 2.1 2.1 0 0 0-1.761-.9 1.02 1.02 0 0 0-.635.2 9.518 9.518 0 0 0-2.349 2.601z" fill="#f5e2ce"/><path d="m26.617 16.235.029.025-.028-.024h.021c-.147-.417-.278-.842-.452-1.248a.774.774 0 0 0-.357-.286 5.136 5.136 0 0 0-.57-.223c.332-.448.841-.433 1.156-.717.356.3.356.3.1.926a8.365 8.365 0 0 1 .723.442.408.408 0 0 1 .1.6c-.157.271-.28.607-.7.5l.007.021-.011-.008c.227.187.334.544.744.544l.475-1.759c-.165-.316-.314-.566-.428-.831a1.716 1.716 0 0 1-.287-.822.716.716 0 0 1 .836.406c.074.15-.04.388.218.486a4.8 4.8 0 0 0 .892-1.517 6.139 6.139 0 0 0-4.3 1.219c-.165.1-.236.356-.349.537l2.2 1.737c-.01.004-.019-.003-.019-.008z" fill="#d88c1f"/><path d="M28.469 11.727c.381.09.771.139 1.158.2a.973.973 0 0 0 .962-.36 1.186 1.186 0 0 0 .224-.834c-.014-.589-.013-1.18.007-1.769.018-.556.1-1.112.1-1.668a6.336 6.336 0 0 0-.711-3.031 1.2 1.2 0 0 0-.916-.653 2.265 2.265 0 0 0-2.875 1.567 14.3 14.3 0 0 0-.559 1.773c-.307 1.237-.4 2.517-.759 3.748a8.83 8.83 0 0 0-.158 1.513c.332-.113.48-.168.631-.215a5.394 5.394 0 0 1 2.896-.271zm-8.325 7.21a11.732 11.732 0 0 0-.274-1.486 7.531 7.531 0 0 0-3.245-.589 4.251 4.251 0 0 0-1.708.358 13.581 13.581 0 0 1-1.687.772 2.074 2.074 0 0 0-1.048.992 1.5 1.5 0 0 0 .539 2.2 2.861 2.861 0 0 0 1.082.431 24.579 24.579 0 0 1 2.586.581 34.954 34.954 0 0 0 3.849.785c.279.049.557.11.858.17a1.358 1.358 0 0 0-.153-.991 11.77 11.77 0 0 1-.799-3.223zm2.473-4.793.456-.773c-.156-.159-.321-.31-.466-.48a2.4 2.4 0 0 1-.457-.616 3.157 3.157 0 0 0-1.473-1.645 4.432 4.432 0 0 1-.584-.361 4.923 4.923 0 0 0-2.8-.973c-.286.441-.522.833-.784 1.2a3.337 3.337 0 0 0-.493 2.8 2.181 2.181 0 0 0 1.927 1.918 2.146 2.146 0 0 1 1.672 1.2c.048.095.171.152.308.268a6.108 6.108 0 0 0 .406-.736 2.489 2.489 0 0 1 2.1-1.689c.057-.003.108-.057.188-.113z" fill="#f5e2ce"/><path d="M12.056 32.212a7.908 7.908 0 0 0 1.386 2.018 8.528 8.528 0 0 0 2.66 2.151 3.475 3.475 0 0 0 1.3.421c.912.092 1.825.185 2.728.331a11.683 11.683 0 0 1 6.02 2.714l.239-.1a11.941 11.941 0 0 1-1.258-2.424 12.806 12.806 0 0 0-.567-1.25 6.3 6.3 0 0 0-3.031-2.962c-.3-.123-.58-.3-.873-.45a1.356 1.356 0 0 0-.538-.22 4.9 4.9 0 0 1-1.677-.486 6.382 6.382 0 0 1-1.9-.759c-.6-.451-1.384-.323-2.021-.653-.174-.09-.358-.162-.53-.256a11.233 11.233 0 0 1-3.624-2.793c-.1-.133-.194-.36-.449-.264a.784.784 0 0 0-.082.179 6.585 6.585 0 0 1-1 3.005c-.059.117-.1.24-.154.36A16.277 16.277 0 0 0 7.6 34.538a5.959 5.959 0 0 0-.084 1.762 7.438 7.438 0 0 0 2.709 4.949 6.83 6.83 0 0 0 3.234 1.566c.907.137 1.809.313 2.718.436a4.607 4.607 0 0 0 .979-.04c.261-.021.52-.088.781-.1a8.911 8.911 0 0 0 2.585-.552 8.049 8.049 0 0 1 2.506-.463c.843-.017 1.688.019 2.587.032a5.823 5.823 0 0 0-1.883-2.08 9.114 9.114 0 0 0-4.292-1.581c-.588-.038-1.175-.1-1.761-.155a4.312 4.312 0 0 1-.779-.112 8.38 8.38 0 0 1-4.567-3.226 4.809 4.809 0 0 1-.951-2.24 1.058 1.058 0 0 1 .215-.979c.163.157.387.278.459.457z" fill="#344a3d"/><path d="M27.482 19.9c-.111-.112-.258-.2-.316-.334a3.046 3.046 0 0 1-.113-.55 1.113 1.113 0 0 0-.116-.267 8.1 8.1 0 0 0-2.952-3.2c-1.009-.583-1.6-.21-1.833.766a3.111 3.111 0 0 0-.084 1.45c.17.76.259 1.538.4 2.305.087.479.193.956.315 1.427a.755.755 0 0 0 .626.559 23.979 23.979 0 0 0 4.073-2.156z" fill="#f5e2ce"/><path d="M56.183 15.159a.635.635 0 0 0-.816.2 10.605 10.605 0 0 1-3.727 2.506 55.993 55.993 0 0 1-5.9 2.154 6.346 6.346 0 0 0-2.256 1.173 23.968 23.968 0 0 0-2.72 2.553 2.827 2.827 0 0 0-.411.55q-.423.776-.807 1.573a9.989 9.989 0 0 0-1.024 3.466 4.44 4.44 0 0 1-.816 2.167 26.67 26.67 0 0 1-2.964 3.147c-.029.031-.112.013-.207.02a1.974 1.974 0 0 1-.025-1.043 27.911 27.911 0 0 0 .176-4.42 11.95 11.95 0 0 1 1.224-6.192 3.41 3.41 0 0 0 .245-.536 5.014 5.014 0 0 1 .8-1.344 13.68 13.68 0 0 0 1.736-2.5 1.876 1.876 0 0 1 .554-.674 77.984 77.984 0 0 1 2.924-2.166 8.616 8.616 0 0 0 2.71-3.777 2.406 2.406 0 0 0 .01-1.91.926.926 0 0 0-.585-.614 4.905 4.905 0 0 0-3.458-.144c-.179.072-.383.3-.635.082a1.608 1.608 0 0 1 .123-.37 7.4 7.4 0 0 0 .844-2.4 1.873 1.873 0 0 0-.942-1.985 3.7 3.7 0 0 0-2.68-.258c-.614.222-1.232.439-1.837.687a6.659 6.659 0 0 0-2.7 2.061c-.237.3-.458.6-.678.9-.221-.1-.148-.245-.15-.36a8.495 8.495 0 0 0-1.04-3.753 1.526 1.526 0 0 0-1.1-.9c-.48-.1-.948-.272-1.431-.334a3.457 3.457 0 0 0-3.028.789 4.873 4.873 0 0 0-1.087 1.621 16.618 16.618 0 0 0-.819 3.435 12.966 12.966 0 0 1-.523 2.545 5.481 5.481 0 0 1-.553-.594 4.277 4.277 0 0 0-1.323-1.142 19.425 19.425 0 0 0-3.276-1.323 1.106 1.106 0 0 0-.769 0 3.94 3.94 0 0 0-2.2 1.853 5.187 5.187 0 0 0-.069 4.194 5.5 5.5 0 0 0 .553.928c-.452.217-.852.447-1.279.606-.644.239-1.3.449-1.963.633a2.5 2.5 0 0 0-1.355 1.074c-.132.185-.2.411-.329.6a2.065 2.065 0 0 0-.016 2.244 3.92 3.92 0 0 0 2.21 1.995c1.092.344 2.2.664 3.314.912 1.566.347 3.158.567 4.7 1a2.955 2.955 0 0 0 .488.047 16.693 16.693 0 0 1 3.581.557 12.077 12.077 0 0 1 2.3.847c.486.274.966.56 1.441.851a3 3 0 0 1 1.575 2.851c-.035.752-.1 1.505-.187 2.252a10.048 10.048 0 0 1-.3 1.437c-.22.789-.491 1.564-.71 2.353A13.959 13.959 0 0 1 27.856 38c-.035.068-.117.11-.181.168a7.77 7.77 0 0 0-.337-1.552c-.2-.465-.153-1.048-.649-1.38a.43.43 0 0 1-.094-.365.443.443 0 0 0-.22-.49.993.993 0 0 1-.29-.388 4.9 4.9 0 0 0-1.9-2.073 15.352 15.352 0 0 0-4.018-2.034 52.166 52.166 0 0 1-5.5-2.118 10.227 10.227 0 0 1-2.857-2.056 21.745 21.745 0 0 1-2.736-3.825 4.3 4.3 0 0 0-1.178-1.3.537.537 0 0 0-.813.15 2.3 2.3 0 0 0 .146.714 3.265 3.265 0 0 1 .309 1.623c0 .328.034.656.035.984a6.63 6.63 0 0 1-.4 2.8A33.016 33.016 0 0 0 5.9 30.582a12.915 12.915 0 0 0-.476 1.5 19.35 19.35 0 0 0-.23 4.418 2.824 2.824 0 0 0 .07.484 9.458 9.458 0 0 0 1.6 3.459 8.485 8.485 0 0 0 5.08 3.478c.985.231 1.965.488 2.958.673a10.286 10.286 0 0 0 3.611.175 6.825 6.825 0 0 1 1.64-.163 4.411 4.411 0 0 0 2.157-.524 3.975 3.975 0 0 1 2.837-.41 3.463 3.463 0 0 1 .507.251c-.17.454-.328.85-.467 1.251a6.2 6.2 0 0 0-.313 1.032 4.607 4.607 0 0 1-.669 1.732 8.9 8.9 0 0 0-.666 1.309 12.021 12.021 0 0 1-1.017 2.009 7.153 7.153 0 0 0-.639 1.208c-.24.573-.4 1.18-.615 1.764a2.863 2.863 0 0 0-.141 1.355 1.576 1.576 0 0 0 .532 1.018 4.285 4.285 0 0 0 2.246 1.132 1.835 1.835 0 0 0 2.1-1.2c.375-.69.737-1.388 1.109-2.08a10.9 10.9 0 0 0 .66-1.208 31.333 31.333 0 0 1 1.722-3.2 16.684 16.684 0 0 0 1.192-2.467 9.717 9.717 0 0 1 .569-1.362 2.132 2.132 0 0 1 .53-.691 12.891 12.891 0 0 1 7.184-2.9 20.724 20.724 0 0 0 2.044-.275 20.135 20.135 0 0 0 4.272-1.431 11.067 11.067 0 0 0 5.106-4.866A26.242 26.242 0 0 0 52.2 31.3a12.983 12.983 0 0 0 .166-2.927 9.666 9.666 0 0 1-.023-2.936 4.384 4.384 0 0 1 .46-1.491 9.963 9.963 0 0 1 1.617-2.219 7.433 7.433 0 0 0 1.146-1.807 5.954 5.954 0 0 0 .492-1.481c.1-.509.075-1.045.165-1.559a7.038 7.038 0 0 0-.04-1.721zm-15.846-4.37a4.54 4.54 0 0 1 2.777-.823 2.05 2.05 0 0 1 .292.03.4.4 0 0 1 .3.434 5.664 5.664 0 0 1-1.442 2.855 22.363 22.363 0 0 1-1.938 1.661 8.715 8.715 0 0 1-1.514.891 5.314 5.314 0 0 0-2.529 2.238c-.026.047-.1.067-.213.133-.058-.1-.168-.2-.165-.29.013-.424.05-.848.093-1.271s.136-.839.144-1.26a1.546 1.546 0 0 1 .342-1c.208-.253.418-.5.638-.746s.484-.449.678-.71a9.564 9.564 0 0 1 2.537-2.142zm-7.6-.868c.854-.9 1.721-1.79 2.587-2.679A5.555 5.555 0 0 1 37.841 5.8c.375-.108.733-.28 1.111-.375.64-.16.9.015.87.646a4.684 4.684 0 0 1-.59 2.335c-.33.524-.606 1.081-.9 1.626a5.827 5.827 0 0 1-.951 1.357c-.32.323-.577.708-.874 1.055-.209.244-.439.471-.7.75-1.366-1.584-1.366-1.584-3.623-2.164a2.058 2.058 0 0 1 .555-1.111zm-.839 2.4a1.02 1.02 0 0 1 .635-.2 2.109 2.109 0 0 1 1.761.9 2.368 2.368 0 0 1 .466 1.373c-.012 1.112-.024 2.224-.043 3.336a2.681 2.681 0 0 1-.1.45 26.723 26.723 0 0 0-5.717 1.265c-.286-.164-.215-.385-.221-.561a7.475 7.475 0 0 1 .875-3.962 9.652 9.652 0 0 1 2.35-2.6zm-6.8-1.628c.36-1.231.452-2.511.759-3.748a14.206 14.206 0 0 1 .56-1.77 2.264 2.264 0 0 1 2.876-1.563 1.2 1.2 0 0 1 .912.659 6.333 6.333 0 0 1 .712 3.029c0 .556-.078 1.112-.1 1.668-.02.589-.021 1.18-.007 1.769a1.2 1.2 0 0 1-.224.834.973.973 0 0 1-.962.36c-.387-.063-.777-.112-1.158-.2a5.45 5.45 0 0 0-2.9.267c-.151.047-.3.1-.631.215A9.624 9.624 0 0 1 25.1 10.7zm-.317 3.282a6.136 6.136 0 0 1 4.3-1.219 4.8 4.8 0 0 1-.892 1.517c-.258-.1-.144-.336-.218-.486a.716.716 0 0 0-.836-.406 1.724 1.724 0 0 0 .287.822c.109.253.263.515.428.831l-.475 1.759c-.41 0-.517-.357-.744-.544l-2.2-1.737c.116-.178.186-.43.352-.534zm-3.687 9.177c-.3-.06-.579-.121-.858-.17a34.954 34.954 0 0 1-3.849-.785 24.579 24.579 0 0 0-2.586-.581 2.872 2.872 0 0 1-1.084-.428 1.5 1.5 0 0 1-.539-2.2A2.078 2.078 0 0 1 13.226 18a13.591 13.591 0 0 0 1.691-.776 4.251 4.251 0 0 1 1.708-.358 7.531 7.531 0 0 1 3.245.589 11.7 11.7 0 0 1 .274 1.486 11.79 11.79 0 0 0 .8 3.227 1.364 1.364 0 0 1 .152.991zm-.765-7.2a5.96 5.96 0 0 1-.406.736c-.137-.116-.26-.173-.308-.268a2.146 2.146 0 0 0-1.672-1.2 2.177 2.177 0 0 1-1.927-1.92 3.327 3.327 0 0 1 .493-2.8c.262-.372.5-.764.784-1.2a4.951 4.951 0 0 1 2.8.973 4.432 4.432 0 0 0 .584.361 3.185 3.185 0 0 1 1.473 1.645 2.335 2.335 0 0 0 .457.616c.145.17.31.321.466.48l-.456.767c-.079.052-.13.11-.188.119a2.488 2.488 0 0 0-2.1 1.689zm2.452 5.548a19.835 19.835 0 0 1-.315-1.427c-.141-.767-.23-1.545-.4-2.3a3.169 3.169 0 0 1 .084-1.45c.235-.976.824-1.349 1.833-.766a8.125 8.125 0 0 1 2.952 3.2 1.131 1.131 0 0 1 .116.267 3.046 3.046 0 0 0 .113.55c.058.131.2.222.316.334a23.783 23.783 0 0 1-4.073 2.153.747.747 0 0 1-.624-.556zm-11.4 11.238a4.8 4.8 0 0 0 .951 2.24A8.377 8.377 0 0 0 16.9 38.2a4.312 4.312 0 0 0 .775.113c.586.058 1.173.117 1.761.155a9.115 9.115 0 0 1 4.292 1.581 5.786 5.786 0 0 1 1.883 2.08c-.9-.013-1.744-.049-2.587-.032a8.049 8.049 0 0 0-2.506.463 8.782 8.782 0 0 1-2.585.552c-.261.011-.52.078-.781.1a4.607 4.607 0 0 1-.979.04c-.909-.123-1.811-.3-2.718-.436a6.829 6.829 0 0 1-3.234-1.568 7.459 7.459 0 0 1-2.7-4.95 5.959 5.959 0 0 1 .079-1.76 16.322 16.322 0 0 1 1.077-3.758c.05-.12.1-.243.154-.36a6.405 6.405 0 0 0 1-3.005.784.784 0 0 1 .082-.179c.255-.1.345.131.449.264a11.233 11.233 0 0 0 3.624 2.793c.172.094.356.166.53.256.637.33 1.418.2 2.021.653a6.4 6.4 0 0 0 1.9.759 4.9 4.9 0 0 0 1.677.486 1.4 1.4 0 0 1 .538.22c.293.146.571.327.873.45a6.318 6.318 0 0 1 3.031 2.962 13.252 13.252 0 0 1 .567 1.25 11.941 11.941 0 0 0 1.258 2.424l-.239.1a11.683 11.683 0 0 0-6.02-2.714c-.9-.146-1.816-.239-2.728-.331a3.475 3.475 0 0 1-1.3-.421 8.528 8.528 0 0 1-2.66-2.151 7.908 7.908 0 0 1-1.386-2.018c-.072-.183-.3-.306-.455-.462a1.071 1.071 0 0 0-.207.977zm20.371 6.5c-.2.619-.3 1.273-.495 1.9-.153.494-.368.969-.567 1.448a9.7 9.7 0 0 0-.871 2.381.392.392 0 0 1-.119.259c-.447.265-.478.765-.684 1.165-.254.494-.5.992-.764 1.481a30.947 30.947 0 0 0-1.47 3 15.741 15.741 0 0 1-1.082 2.189 5.3 5.3 0 0 0-.791 1.891 1.35 1.35 0 0 1-.165.456 1.819 1.819 0 0 0-.146 1.549.775.775 0 0 1-.9-.01c-.408-.267-.788-.576-1.2-.88a4.028 4.028 0 0 1 .118-.708 10.257 10.257 0 0 1 1.184-2.581 10.336 10.336 0 0 0 .829-1.557 45.843 45.843 0 0 0 2.071-4.447q.753-2.075 1.489-4.155c.425-1.2.815-2.42 1.26-3.615a23.99 23.99 0 0 0 .984-3.5 13.93 13.93 0 0 1 .528-1.892 26.788 26.788 0 0 0 .723-3.664 3.189 3.189 0 0 0-.1-.867 2.484 2.484 0 0 0-.289-1.133c-.4-.619-.543-1.381-1.2-1.86a2.756 2.756 0 0 1-1.318-1.737l-.33.443c-.679-.248-1.323-.477-1.963-.717a6.951 6.951 0 0 0-2.38-.545 5.324 5.324 0 0 1-.943-.206c.629-.24 1.09-.409 1.546-.592 1.488-.6 2.981-1.183 4.46-1.8a20.029 20.029 0 0 1 4.026-1.245c.927-.176 1.871-.307 2.809-.447a2.992 2.992 0 0 1 .535.024 1.8 1.8 0 0 1-.112.4q-.963 1.6-1.942 3.191a9.039 9.039 0 0 0-.861 2.4 14.986 14.986 0 0 0-.37 2.916A33.623 33.623 0 0 1 33 32c-.155.8-.123 1.635-.248 2.443a30.2 30.2 0 0 1-1 4.792zm20.8-18.4c-.581.793-1.192 1.565-1.76 2.368a2.947 2.947 0 0 0-.716 1.59.629.629 0 0 1-.11.272 5.292 5.292 0 0 0-.426 2.1c-.1.776-.13 1.562-.189 2.344-.018.228-.046.456-.048.684a4.893 4.893 0 0 1-.4 2c-.406.894-.723 1.833-1.184 2.7a12.533 12.533 0 0 1-2.252 3.2 5.347 5.347 0 0 1-1.581 1.149 26.241 26.241 0 0 1-5.769 1.9A16.249 16.249 0 0 0 33.7 42.7a1.861 1.861 0 0 1-.936.349 2.285 2.285 0 0 1 .609-.817c1.019-.975 1.986-2.015 3.069-2.913a29.354 29.354 0 0 1 3-2.053c.549-.352 1.157-.612 1.73-.928.919-.506 1.855-.986 2.738-1.547a3.873 3.873 0 0 0 1.933-2.926 17.854 17.854 0 0 1 .431-2.3 2.064 2.064 0 0 0-.208-1.5c-.1.2-.218.331-.222.464a4.15 4.15 0 0 1-1.179 2.54c-.485.575-1.039 1.092-1.571 1.626-.208.209-.462.375-.654.6a10.54 10.54 0 0 1-3.259 2.332 16.368 16.368 0 0 0-5.265 4.364 1.8 1.8 0 0 1-.3.222 1.577 1.577 0 0 1-.02-.4c.245-.985.437-1.99.777-2.943a4.382 4.382 0 0 1 .968-1.455 16.639 16.639 0 0 1 2.248-2.053 7.616 7.616 0 0 0 1.465-1.586c.22-.285.431-.578.643-.869a3.614 3.614 0 0 0 .769-1.783c.047-.487.175-.965.242-1.451a5.083 5.083 0 0 1 .973-2.127c.22-.326.473-.629.7-.953a6.042 6.042 0 0 1 1.962-1.754c.2-.116.418-.2.606-.326 2-1.374 1.8-.941 3.5-1.438 1.352-.394 2.68-.868 4.014-1.32a2.622 2.622 0 0 1 1.031-.269c-.35.505-.629.94-.934 1.356z"/><path d="M26.617 16.235c.007 0 .012.012.018.017l.011.008zm.72-.5a.414.414 0 0 0-.1-.6 8.622 8.622 0 0 0-.723-.442c.259-.623.259-.623-.1-.926-.315.284-.824.269-1.156.717a5.136 5.136 0 0 1 .57.223.789.789 0 0 1 .357.286c.174.406.3.831.452 1.248.42.101.543-.235.7-.506z"/><path d="m26.617 16.236.028.024-.007-.021z"/></svg>