<svg height="60" viewBox="0 0 60 60" width="60" xmlns="http://www.w3.org/2000/svg"><path d="M43.885 41.168a9.819 9.819 0 0 1-3.935-2.82c-.687-.772-1.334-1.58-2-2.374H35.3c-.041 0-.082.035-.132.057a.576.576 0 0 0 0 .211 15.079 15.079 0 0 0 1.174 2.636c.16.248.27.527.415.785a9.563 9.563 0 0 0 1.923 2.7 22.759 22.759 0 0 0 2.065 1.565 1.393 1.393 0 0 0 .968.316 12.714 12.714 0 0 0 1.31-.238 6.98 6.98 0 0 0 2.962-1.941 2.721 2.721 0 0 0-.31-.177c-.598-.244-1.188-.498-1.79-.72zm4.306-5.568a7.947 7.947 0 0 1-.952-.4c-.744-.375-1.479-.769-2.251-1.173l-2.269.8a13.405 13.405 0 0 0 6.733 3.349 5.537 5.537 0 0 0 .1-1.442.816.816 0 0 1 .134-.556c.046-.064.022-.177.034-.3a2.515 2.515 0 0 0-.456-.063 2.94 2.94 0 0 1-1.073-.215z" fill="#778e76"/><path d="M46.383 38.247c-.793-.339-1.558-.747-2.318-1.158a7.81 7.81 0 0 1-1.956-1.458 6.327 6.327 0 0 0-.571-.477c-.833.2-1.646.393-2.458.59-.016 0-.023.042-.035.064a.355.355 0 0 0 .038.134c.679.819 1.418 1.581 2.171 2.332a9.683 9.683 0 0 0 3.333 2.162q1 .393 2 .78a1.852 1.852 0 0 0 .323.067 10.87 10.87 0 0 0 2.21-2.483c-.134-.015-.246-.035-.359-.039a6.637 6.637 0 0 1-2.378-.514zm1.556-5.541c-.443.207-.887.413-1.328.624a.856.856 0 0 0-.17.141 8.255 8.255 0 0 0 2.691 1.365 1.609 1.609 0 0 0 .8.054c.038-.264.071-.5.107-.741.04-.263.083-.525.124-.786-.641-.258-1.187-.471-1.728-.7a.56.56 0 0 0-.496.043zm1.18-.549a3.759 3.759 0 0 0 1.281.491c.02-.15.09-.3.043-.382a2.214 2.214 0 0 1-.087-1.33c-.447.373-.763.635-1.076.9-.08.075-.218.127-.161.321z" fill="#344a3d"/><path d="M26.1 28.253a1.972 1.972 0 0 0 .247 1.038 5.926 5.926 0 0 1 .452 1.78 11.519 11.519 0 0 0 .18 1.614 2.959 2.959 0 0 1-.106 1.739c-.015.039.008.093.019.188.331.2.685.414 1.042.624a1.094 1.094 0 0 0 .194.07 20.748 20.748 0 0 0 .121-4.473c-.381-.416-.757-.8-1.107-1.214a8.362 8.362 0 0 0-1.042-1.366zm8.4 6.353c.012-.265.022-.509.035-.754a13.438 13.438 0 0 1 .523-2.985 36.442 36.442 0 0 1 1.864-4.761c.079-.18.176-.353.254-.535s.278-.277.251-.515a13.056 13.056 0 0 0-2.955 3.749 14.528 14.528 0 0 0-1.8 5.486 6.128 6.128 0 0 0 .81.331 1.359 1.359 0 0 0 1.018-.016z" fill="#778e76"/><path d="M21.155 24.981a6.632 6.632 0 0 1 1.128 1.9c.279.711.6 1.4.933 2.088a7.473 7.473 0 0 1 .821 3.857c-.015.191 0 .384 0 .59l1.568.626c-.015-.19-.026-.308-.033-.427a4.056 4.056 0 0 1-.046-1.105 4.563 4.563 0 0 0 0-1.466 12.836 12.836 0 0 0-.959-3.79 2.1 2.1 0 0 0-.512-.8 9.947 9.947 0 0 0-2.181-1.524 1.519 1.519 0 0 0-.828-.235.386.386 0 0 0 0 .1.871.871 0 0 0 .109.186zm12.374 16.132a2.889 2.889 0 0 0 1.52 1.537c.39.145.756.357 1.142.516a15.768 15.768 0 0 0 2.463.761c.2.048.206.041.54-.09-.356-.317-.711-.615-1.044-.935a10.211 10.211 0 0 1-1.13-1.159 11.438 11.438 0 0 1-1.411-2.422 8.006 8.006 0 0 0-.332-.74 12.786 12.786 0 0 1-.907-2.1 4.08 4.08 0 0 0-.253-.519l-1.578-.256a2.99 2.99 0 0 0-.07.471c.007.468.006.938.051 1.4a9.682 9.682 0 0 0 1.009 3.536z" fill="#344a3d"/><path d="M16.356 24.867a10.121 10.121 0 0 1 1.481 1.733c.388.535.658 1.153 1 1.72a10.669 10.669 0 0 1 1.263 3.219c.055.239.13.475.191.713a.535.535 0 0 0 .465.414c.484.1.966.2 1.45.293.116.023.236.023.429.04-.057-.556-.087-1.022-.155-1.481a9.964 9.964 0 0 0-.523-2.3 31.017 31.017 0 0 0-1.536-3.277 14.95 14.95 0 0 0-.946-1.41.722.722 0 0 0-.483-.31 13.082 13.082 0 0 0-3.1-.135c-.039 0-.076.048-.151.1a.853.853 0 0 0 .12.232c.158.157.328.303.495.449z" fill="#778e76"/><path d="M15.543 31.159a1.365 1.365 0 0 0 .274.739c2.232.218 2.7.234 3.232.1l-.191-.63a12.219 12.219 0 0 0-1.106-2.726c-.291-.486-.564-.982-.854-1.469a3.956 3.956 0 0 0-.376-.547c-.319-.376-.652-.74-.984-1.1-.266-.291-.537-.577-.807-.865a.448.448 0 0 0-.526-.167 10.6 10.6 0 0 0-1.888.945 17.075 17.075 0 0 1 1.891 2.467 8.524 8.524 0 0 1 1.335 3.253z" fill="#344a3d"/><path d="M39.935 29.07a59.128 59.128 0 0 0-.91 2.97c-.19.681-.322 1.38-.495 2.136a5.8 5.8 0 0 0 1.915-.393.433.433 0 0 0 .237-.254 3.373 3.373 0 0 0 .093-.507 10.775 10.775 0 0 1 .233-1.081c.194-.634.44-1.253.632-1.887a16.08 16.08 0 0 1 1.488-3.378 14.556 14.556 0 0 1 3.107-3.828c.03-.026.027-.088.039-.133a2.829 2.829 0 0 0-2.15-.666c-.346.425-.721.823-1.023 1.271a39.082 39.082 0 0 0-2.494 4.191 11.8 11.8 0 0 0-.672 1.559z" fill="#778e76"/><path d="M43.751 27.944c-.533 1.193-.979 2.424-1.458 3.641a4 4 0 0 0-.167.567 7.275 7.275 0 0 0-.126.655c-.027.184-.182.345-.116.593a20.565 20.565 0 0 0 2.53-.829.779.779 0 0 0 .533-.631 10.846 10.846 0 0 1 .956-2.791 10.313 10.313 0 0 1 2.6-3.2 3.539 3.539 0 0 0 .3-.3 16.466 16.466 0 0 0-1.775-2.266 5.349 5.349 0 0 0-.81.789 17.144 17.144 0 0 0-2.467 3.772zM29.063 22a.229.229 0 0 1 0 .074l.229 2.57c.013.135.063.231.264.194-.2-2.146-.631-4.26-.847-6.437l-.608.151a2.244 2.244 0 0 0 .168.633c.579.85.461 1.893.794 2.815z" fill="#344a3d"/><path d="M46.119 31.554a2.009 2.009 0 0 0-.034.379c.82-.313 1.594-.566 2.33-.9a5.156 5.156 0 0 0 1.876-1.123 14.192 14.192 0 0 0-.782-3.21c-.039-.079-.134-.13-.268-.256-.25.277-.441.5-.643.711a10.73 10.73 0 0 0-2.479 4.399zm-33.331-.32a.849.849 0 0 0 .859.435.879.879 0 0 0 .681-.382 16.937 16.937 0 0 0-3.149-4.982 5.569 5.569 0 0 0-1.6 2.216 9.363 9.363 0 0 1 1.436.843 8 8 0 0 1 1.773 1.87z" fill="#778e76"/><path d="M36.8 28.767a17.905 17.905 0 0 0-.6 1.823c-.2.739-.361 1.488-.514 2.238a4.062 4.062 0 0 0-.2 1.722 4.6 4.6 0 0 0 1.876-.115c.157-.9.265-1.808.479-2.686a21.214 21.214 0 0 1 .82-2.609c.318-.826.743-1.61 1.1-2.421a14.3 14.3 0 0 1 1.421-2.335c.521-.75 1.064-1.467 1.61-2.214a1.145 1.145 0 0 0-.219 0 10.277 10.277 0 0 0-2.16.744 1.883 1.883 0 0 0-.816.615c-.381.515-.794 1.007-1.154 1.535a7.631 7.631 0 0 0-1.075 2.1c-.161.551-.368 1.074-.568 1.603zm-10.4 6.914c-.112.172-.2.29-.271.418a13.158 13.158 0 0 1-2.208 3.045c-.507.5-1.049.979-1.506 1.526a6.2 6.2 0 0 1-1.6 1.3c-.525.324-1.042.663-1.571.98-.443.266-.9.512-1.351.762-.2.112-.413.211-.723.369.311.059.5.1.693.128a21.02 21.02 0 0 0 3.251-.127.813.813 0 0 0 .143-.037 7.551 7.551 0 0 0 2.324-.928c.247-.162.525-.277.769-.443a4.513 4.513 0 0 0 1.055-.8c.683-.873 1.38-1.737 1.983-2.675a6.533 6.533 0 0 0 .733-3.045zm3.477-7.519a.388.388 0 0 0-.182-.286.967.967 0 0 1 .08.558c0 .665.031 1.329.038 1.994.007.565.019 1.131-.011 1.695-.036.665-.138 1.326-.169 1.991a14.585 14.585 0 0 1-.122 1.548c-.1.633-.135 1.275-.2 1.914-.039.392-.054.788-.119 1.176-.132.779-.326 1.549-.427 2.332a10.789 10.789 0 0 1-.382 1.655c-.286.97-.6 1.935-.825 2.919-.313 1.352-.887 2.615-1.273 3.94a1.622 1.622 0 0 1-.1.2 4.889 4.889 0 0 0-.444 2.083 6.669 6.669 0 0 1-.212 1.608 2.746 2.746 0 0 0-.074.652 2.561 2.561 0 0 0 .436 1.316 3.1 3.1 0 0 0 1.667 1.3 2.817 2.817 0 0 0 .282-.306 4.03 4.03 0 0 0 .654-1.716c.287-2.13.791-4.219 1.193-6.328.1-.533.2-1.069.255-1.608.079-.712.1-1.431.179-2.144.236-2.09.283-4.192.385-6.29a34.8 34.8 0 0 0-.02-3.929c-.112-1.724-.336-3.441-.511-5.161-.033-.369-.075-.743-.098-1.113zm-.285-1.101c.034.275.065.535.1.8.147-.502.141-.55-.1-.8zm-.057-1.578.034.011-.007-.066z" fill="#344a3d"/><path d="M29.067 16.221a3.708 3.708 0 0 0 1.045-2.543 6.852 6.852 0 0 1 .117-1.472 10.492 10.492 0 0 0 0-1.842c-.31-.99-.34-2.04-.71-3.022-.319-.849-.519-1.748-.772-2.623a1.9 1.9 0 0 0-1.406-1.384.95.95 0 0 0-.51-.016 1.929 1.929 0 0 0-1.423 1.272c-.139.452-.2.912-.3 1.366a2.485 2.485 0 0 0-.1 1.5 1.09 1.09 0 0 1-.233.113 3.159 3.159 0 0 1-1.375-.237.534.534 0 0 1-.38-.5 3.685 3.685 0 0 0-1.3-2.4 1.535 1.535 0 0 0-.437-.249 1.067 1.067 0 0 0-.658 1.147c.015.566.078 1.131.127 1.7a3.6 3.6 0 0 0 .76 2.189c.151.171.068.368-.155.472a1.751 1.751 0 0 1-.865.15c-.874-.058-.874-.055-1.3-.876-.314-.062-.577-.128-.844-.164a4.01 4.01 0 0 0-.666-.029c-.442.013-.637.17-.692.606a3.124 3.124 0 0 0 .022.808c.032.243.124.478.178.719a3.791 3.791 0 0 1 .147.792 11.69 11.69 0 0 0 .576 2.591.538.538 0 0 0 .108.192 13.586 13.586 0 0 0 2.1 2.374 6.284 6.284 0 0 0 3.2 1.41 2.447 2.447 0 0 0 1.171-.08c.743-.265 1.5-.484 2.248-.744a13.91 13.91 0 0 0 1.508-.605 2.723 2.723 0 0 0 .819-.615z" fill="#ee7558"/><path d="M14.924 40.006a44.009 44.009 0 0 0 4.089-2.935c.7-.542 1.333-1.172 1.983-1.777a13.188 13.188 0 0 0 1.128-1.188 1.356 1.356 0 0 0-.231-.11c-.966-.2-1.933-.39-2.9-.593a.588.588 0 0 0-.593.207q-.381.4-.781.785c-.5.479-1.027.929-1.5 1.435a9.379 9.379 0 0 1-2.631 2.008 12 12 0 0 1-3.32 1.224 3 3 0 0 0-.312.088 4.493 4.493 0 0 0 .68 1.556 6.636 6.636 0 0 0 .473.56.588.588 0 0 0 .738.142c.819-.342 1.641-.676 2.457-1.024a6.169 6.169 0 0 0 .72-.378z" fill="#344a3d"/><path d="M14.906 35.537c.154-.159.327-.3.49-.451l2.112-1.961c-.91-.1-1.695-.167-2.476-.267-.6-.076-1.184-.152-1.632.385a27.708 27.708 0 0 1-3.726 1.788 7.1 7.1 0 0 0-1.183.532A5.686 5.686 0 0 0 9.548 38.5l1.153-.425a10.827 10.827 0 0 0 4.205-2.538zm10.399-.278a6.942 6.942 0 0 0-2.03-.8 21.8 21.8 0 0 1-2.244 2.6 15.856 15.856 0 0 1-2.643 2.14A26.573 26.573 0 0 1 15.416 41c-.992.5-2.059.855-3.129 1.288a1.875 1.875 0 0 0 .368.3c.827.375 1.661.735 2.491 1.1a20.676 20.676 0 0 0 10.159-8.429z" fill="#778e76"/><path d="M11.908 32.761c.067-.037.106-.125.211-.256l-3.848-.7a4.62 4.62 0 0 0-.19 2.188.7.7 0 0 0 .258.639 6.109 6.109 0 0 0 .722-.284 164.22 164.22 0 0 0 2.847-1.587zm-.121-1.392a6.958 6.958 0 0 0-2.521-2.247 5.658 5.658 0 0 0-.929 2.069 15.113 15.113 0 0 0 3.45.178zm17.901-3.513v.012l.01.008a.016.016 0 0 0-.006-.012z" fill="#344a3d"/><path d="m28.008 28.69-.269-.406a3.022 3.022 0 0 0-.414-.607c-.758-.667-1.335-1.513-2.141-2.131a3.287 3.287 0 0 1-.62-.517 7.808 7.808 0 0 0-2.22-1.533 1.689 1.689 0 0 0-.416-.152c-.258-.077-.523-.134-.778-.222a11.476 11.476 0 0 0-4.35-.7c-.2.009-.4 0-.593.012a11.247 11.247 0 0 0-3.257.649 13.915 13.915 0 0 0-2.019 1.07 7.084 7.084 0 0 0-2.269 2.4 11.657 11.657 0 0 0-1.075 2.586c-.245.748-.392 1.526-.675 2.264a8.13 8.13 0 0 0-.271 3.807 4.014 4.014 0 0 0 .114.427c.106.532.238 1.062.3 1.6a5.91 5.91 0 0 0 .287 1.216c.078.234.162.465.239.7.177.535.254 1.095.444 1.628a1.135 1.135 0 0 0 .4.605.719.719 0 0 1 .382.588.442.442 0 0 0 .375.406c.115.032.226.081.357.129.019.242.059.467.287.58.549.275.992.72 1.57.953.433.175.844.405 1.271.6a7.5 7.5 0 0 0 2.279.845 2.03 2.03 0 0 0 1.206.257 1.488 1.488 0 0 1 .286.068c.265.052.529.111.8.146a13.354 13.354 0 0 0 2.726-.029 6.439 6.439 0 0 0 2.055-.543 13.247 13.247 0 0 0 2.491-1.458A10.837 10.837 0 0 0 27 41.617c.106-.141.225-.273.414-.5-.008.14-.022.279-.043.418-.283 1.2-.589 2.4-.85 3.6a47.271 47.271 0 0 1-1.42 4.824 10.809 10.809 0 0 0-.609 2.212 9.265 9.265 0 0 0-.2 1.763c.03.368.1.731.135 1.1a2.873 2.873 0 0 0 1.5 2.335 2.055 2.055 0 0 0 2.414-.169 3.468 3.468 0 0 0 .86-1.2 19.441 19.441 0 0 0 .658-1.965c.205-.787.338-1.592.5-2.39a7.1 7.1 0 0 1 .227-1.161 25.681 25.681 0 0 0 .537-2.606c.1-.38.2-.761.282-1.147a10.438 10.438 0 0 0 .23-2.047c.007-1.057.142-2.114.225-3.17.007-.093 0-.2.173-.21.057.089.13.186.186.293a4.939 4.939 0 0 0 1 1.282 10.776 10.776 0 0 0 2.3 1.61 10.93 10.93 0 0 0 4.345 1.381 10.036 10.036 0 0 0 4.5-.678 7.653 7.653 0 0 0 1.1-.588c.231-.134.441-.3.666-.451.206-.134.418-.259.631-.382.5-.287.822-.777 1.286-1.1a3.726 3.726 0 0 0 1.1-1.267 6.4 6.4 0 0 1 .828-1.205 2.313 2.313 0 0 0 .5-.707c.23-.569.452-1.141.733-1.687-.055-.219.2-.239.25-.4.19-.635.415-1.262.575-1.905a1.631 1.631 0 0 0-.032-1.022 1.992 1.992 0 0 1-.06-.553c.1-.064.165-.109.231-.14.156-.072.246-.192.178-.352-.1-.233-.2-.451.029-.663 0-.466.008-.934-.016-1.4a8.883 8.883 0 0 0-.236-1.648c-.14-.573-.176-1.171-.266-1.757a5.281 5.281 0 0 0-.188-.941 4.014 4.014 0 0 0-.39-.615 7.121 7.121 0 0 1-.628-1.159c-.086-.239-.362-.189-.415-.433a1.426 1.426 0 0 0-.508-.948c-.14-.1-.139-.426-.278-.493-.306-.15-.374-.45-.543-.679a5 5 0 0 0-1.131-1.127 12.429 12.429 0 0 0-1.2-.675 6.435 6.435 0 0 0-1.109-.381 10.935 10.935 0 0 0-1.986-.167 9.985 9.985 0 0 0-3.385.724 9.529 9.529 0 0 0-2.772 1.689 33.205 33.205 0 0 0-1.987 1.781 9.507 9.507 0 0 0-1.041 1.25 20.322 20.322 0 0 0-2.059 3.68c-.077.172-.182.332-.337.612a7.213 7.213 0 0 1-.13-1.136 8.629 8.629 0 0 0-.071-1.325c-.086-.759-.2-1.516-.3-2.274-.042-.318-.086-.637-.108-.957a15.533 15.533 0 0 0-.476-3.445 2.614 2.614 0 0 1-.089-.436 12.841 12.841 0 0 0-.446-2.014 4.669 4.669 0 0 1-.157-.648.9.9 0 0 1 .1-.641c.328-.549.6-1.134.945-1.671a2.96 2.96 0 0 0 .369-1.037 19.34 19.34 0 0 0 .173-2.866 6.591 6.591 0 0 0-.142-.947 23.742 23.742 0 0 0-.7-3.777 3.569 3.569 0 0 0-.49-1.306.846.846 0 0 1-.142-.339 3.4 3.4 0 0 0-1.071-1.812 2.937 2.937 0 0 0-2.405-.913 3.059 3.059 0 0 0-1.983.891 2.629 2.629 0 0 0-.667.876 3.658 3.658 0 0 1-.363.588c-.266-.261-.5-.512-.757-.738a6.771 6.771 0 0 0-.866-.683.807.807 0 0 0-.841-.091 4.307 4.307 0 0 1-.715.186 2.122 2.122 0 0 0-1.514 1.39 4.64 4.64 0 0 0-.272 1.6c0 .267-.011.534-.017.819a3.5 3.5 0 0 1-.839.118 1.782 1.782 0 0 0-.65.123 6.658 6.658 0 0 0-1.1.6 1.11 1.11 0 0 0-.6.79 7.223 7.223 0 0 0 .069 3.221.644.644 0 0 1 .022.146 6.7 6.7 0 0 0 1.882 3.783c.477.5 1.007.949 1.5 1.432a7.3 7.3 0 0 0 2.782 1.653 4.786 4.786 0 0 0 1.821.293 7.683 7.683 0 0 0 2.253-.419c.32-.118.651-.209.965-.309.049.067.1.1.1.145.243 1.534.541 3.061.7 4.6.151 1.422.3 2.845.433 4.27.024.268 0 .541 0 .812-.03.018-.065.036-.099.055zm23.711 6.682.032.484c-.227-.179-.119-.333-.032-.484zm-8.7 8.634a12.654 12.654 0 0 1-1.307.237 1.388 1.388 0 0 1-.968-.316 22.759 22.759 0 0 1-2.065-1.565 9.506 9.506 0 0 1-1.923-2.7c-.145-.258-.255-.537-.415-.785a15.079 15.079 0 0 1-1.174-2.636.576.576 0 0 1 0-.211c.05-.022.091-.057.132-.057h2.654c.668.794 1.315 1.6 2 2.374a9.84 9.84 0 0 0 3.935 2.82c.6.222 1.192.476 1.785.721a2.721 2.721 0 0 1 .31.177 6.991 6.991 0 0 1-2.964 1.941zm3.891-2.724a1.852 1.852 0 0 1-.323-.067q-1-.384-2-.78a9.683 9.683 0 0 1-3.333-2.162c-.753-.751-1.492-1.513-2.171-2.332a.355.355 0 0 1-.038-.134c.012-.022.019-.06.035-.064.812-.2 1.625-.391 2.458-.59a6.327 6.327 0 0 1 .571.477 7.81 7.81 0 0 0 1.956 1.458c.76.411 1.525.819 2.318 1.158a6.627 6.627 0 0 0 2.377.516 3.433 3.433 0 0 1 .359.039 10.85 10.85 0 0 1-2.21 2.482zm2.79-5.108a.816.816 0 0 0-.134.556 5.537 5.537 0 0 1-.1 1.442 13.4 13.4 0 0 1-6.733-3.349l2.265-.8c.772.4 1.507.8 2.251 1.173a7.947 7.947 0 0 0 .952.4 2.931 2.931 0 0 0 1.076.2 2.515 2.515 0 0 1 .456.063c-.01.129.012.242-.034.306zm.34-2.029c-.036.238-.069.477-.107.741a1.609 1.609 0 0 1-.8-.054 8.255 8.255 0 0 1-2.691-1.365.856.856 0 0 1 .17-.141c.441-.211.885-.417 1.328-.624a.561.561 0 0 1 .492-.041c.541.227 1.087.44 1.728.7-.037.26-.081.522-.121.785zm.325-3.21a2.214 2.214 0 0 0 .087 1.33c.047.083-.023.232-.043.382a3.788 3.788 0 0 1-1.281-.491c-.061-.194.074-.246.161-.32.312-.265.628-.53 1.075-.9zm-1.117-4.493c.134.126.229.177.268.256a14.192 14.192 0 0 1 .782 3.21 5.172 5.172 0 0 1-1.876 1.123c-.736.335-1.51.588-2.33.9a2.009 2.009 0 0 1 .034-.379 10.7 10.7 0 0 1 2.479-4.4c.2-.211.392-.432.642-.709zm-2.213-3.056a16.543 16.543 0 0 1 1.775 2.266 3.539 3.539 0 0 1-.3.3 10.273 10.273 0 0 0-2.6 3.2 10.884 10.884 0 0 0-.956 2.791.786.786 0 0 1-.533.631 21.577 21.577 0 0 1-2.53.829c-.066-.248.089-.409.116-.593.032-.22.074-.439.126-.655a4 4 0 0 1 .167-.567c.479-1.217.925-2.448 1.458-3.641a16.962 16.962 0 0 1 2.47-3.769 5.348 5.348 0 0 1 .803-.792zm-2.907-1.337a2.829 2.829 0 0 1 2.15.666c-.012.045-.009.107-.039.133a14.556 14.556 0 0 0-3.107 3.828 16.08 16.08 0 0 0-1.488 3.378c-.192.634-.438 1.253-.632 1.887a10.775 10.775 0 0 0-.233 1.081 3.373 3.373 0 0 1-.093.507.433.433 0 0 1-.237.254 5.8 5.8 0 0 1-1.915.393c.173-.756.3-1.455.495-2.136.279-1 .579-1.989.91-2.97a11.8 11.8 0 0 1 .672-1.559A39.082 39.082 0 0 1 43.1 23.32c.3-.448.677-.846 1.023-1.271zM39.6 23.531a1.883 1.883 0 0 1 .816-.615 10.446 10.446 0 0 1 2.16-.744 1.145 1.145 0 0 1 .219 0c-.546.747-1.1 1.468-1.61 2.214a14.92 14.92 0 0 0-1.421 2.335c-.36.811-.785 1.595-1.1 2.421a21.214 21.214 0 0 0-.82 2.609c-.214.878-.322 1.783-.479 2.686a4.6 4.6 0 0 1-1.876.115 4.062 4.062 0 0 1 .2-1.722c.153-.75.315-1.5.514-2.238a17.905 17.905 0 0 1 .6-1.823c.206-.529.412-1.052.572-1.6a7.576 7.576 0 0 1 1.075-2.1c.35-.531.769-1.023 1.15-1.538zm-5.13 5.275a12.994 12.994 0 0 1 2.955-3.749c.027.238-.179.346-.251.515s-.175.355-.254.535a36.279 36.279 0 0 0-1.861 4.754 13.438 13.438 0 0 0-.523 2.985c-.013.245-.023.489-.035.754a1.385 1.385 0 0 1-1.019.023 6.128 6.128 0 0 1-.81-.331 14.569 14.569 0 0 1 1.794-5.486zm-1.927 6.9 1.58.257a4.08 4.08 0 0 1 .253.519 12.786 12.786 0 0 0 .907 2.1c.127.238.226.491.332.74a11.419 11.419 0 0 0 1.408 2.421 10.211 10.211 0 0 0 1.13 1.159c.333.32.688.618 1.044.935-.334.131-.336.138-.54.09a15.768 15.768 0 0 1-2.463-.761c-.386-.159-.752-.371-1.142-.516a2.889 2.889 0 0 1-1.52-1.537 9.667 9.667 0 0 1-1.009-3.533c-.045-.465-.044-.935-.051-1.4a3.029 3.029 0 0 1 .067-.474zM21.045 24.692a1.519 1.519 0 0 1 .828.235 9.947 9.947 0 0 1 2.181 1.524 2.1 2.1 0 0 1 .512.8 12.714 12.714 0 0 1 .959 3.79 4.621 4.621 0 0 1 0 1.466 4.056 4.056 0 0 0 .046 1.105c.007.119.018.237.033.427l-1.568-.626c0-.206-.013-.4 0-.59a7.483 7.483 0 0 0-.821-3.857 29.977 29.977 0 0 1-.933-2.088 6.632 6.632 0 0 0-1.128-1.9.892.892 0 0 1-.109-.189c-.008-.015 0-.042 0-.097zm-5.145-.606a13.082 13.082 0 0 1 3.1.135.722.722 0 0 1 .483.31 14.95 14.95 0 0 1 .946 1.41 31.017 31.017 0 0 1 1.536 3.277 9.811 9.811 0 0 1 .523 2.3c.068.459.1.925.155 1.481-.193-.017-.313-.017-.429-.04-.484-.094-.966-.2-1.45-.293a.535.535 0 0 1-.465-.414c-.061-.238-.136-.474-.191-.713a10.669 10.669 0 0 0-1.261-3.216c-.345-.567-.615-1.185-1-1.72a10.033 10.033 0 0 0-1.481-1.736c-.167-.146-.336-.292-.491-.45a.853.853 0 0 1-.12-.232c.068-.051.106-.1.145-.1zm-1.691.406a.448.448 0 0 1 .526.167c.27.288.541.574.807.865.332.364.665.728.984 1.1a3.956 3.956 0 0 1 .376.547c.29.487.563.983.854 1.469a12.219 12.219 0 0 1 1.106 2.726q.1.315.191.63a10.022 10.022 0 0 1-3.232-.1 1.354 1.354 0 0 1-.274-.739 8.523 8.523 0 0 0-1.339-3.257 17.061 17.061 0 0 0-1.889-2.465 10.656 10.656 0 0 1 1.886-.945zm-3.026 1.814a16.925 16.925 0 0 1 3.149 4.982.873.873 0 0 1-.681.382.849.849 0 0 1-.859-.435 7.931 7.931 0 0 0-1.777-1.87 9.036 9.036 0 0 0-1.436-.843 5.562 5.562 0 0 1 1.6-2.216zm-1.917 2.817a6.958 6.958 0 0 1 2.521 2.247 15.113 15.113 0 0 1-3.45-.178 5.655 5.655 0 0 1 .929-2.07zm-.927 5.507a.7.7 0 0 1-.258-.639 4.62 4.62 0 0 1 .19-2.188l3.848.7c-.105.131-.144.219-.211.256-.946.534-1.893 1.066-2.847 1.584a5.936 5.936 0 0 1-.722.283zm1.209 3.87a5.69 5.69 0 0 1-1.057-2.935 7.1 7.1 0 0 1 1.183-.532 27.42 27.42 0 0 0 3.726-1.789c.448-.537 1.034-.461 1.632-.385.781.1 1.566.17 2.476.267l-2.108 1.96c-.163.151-.336.292-.49.451a10.827 10.827 0 0 1-4.2 2.536zm1.461 2.771a6.636 6.636 0 0 1-.473-.56 4.5 4.5 0 0 1-.675-1.557 3 3 0 0 1 .312-.088 12 12 0 0 0 3.32-1.224 9.379 9.379 0 0 0 2.631-2.008c.469-.506 1-.956 1.5-1.435q.4-.384.781-.785a.588.588 0 0 1 .595-.208c.966.2 1.933.394 2.9.593a1.356 1.356 0 0 1 .231.11A13.188 13.188 0 0 1 21 35.3c-.65.605-1.283 1.235-1.983 1.777a44.009 44.009 0 0 1-4.089 2.935 6.176 6.176 0 0 1-.72.379c-.816.348-1.638.682-2.457 1.024a.6.6 0 0 1-.743-.143zm4.137 2.411c-.83-.365-1.664-.725-2.491-1.1a2.032 2.032 0 0 1-.368-.3c1.07-.433 2.137-.786 3.129-1.288a26.724 26.724 0 0 0 2.972-1.8 15.981 15.981 0 0 0 2.643-2.14 21.169 21.169 0 0 0 2.244-2.6 7.232 7.232 0 0 1 2.03.8 20.606 20.606 0 0 1-10.159 8.426zm12.246-4.475c-.6.938-1.3 1.8-1.983 2.675a4.459 4.459 0 0 1-1.055.8c-.244.166-.522.281-.769.443a7.551 7.551 0 0 1-2.324.928.813.813 0 0 1-.143.037 20.534 20.534 0 0 1-3.251.127c-.193-.024-.382-.069-.693-.128.31-.158.52-.257.723-.369.453-.25.908-.5 1.351-.762.529-.317 1.046-.656 1.571-.98a6.44 6.44 0 0 0 1.6-1.3c.458-.542 1-1.022 1.506-1.526a13.1 13.1 0 0 0 2.2-3.045c.07-.128.159-.246.271-.418l1.718.466a6.516 6.516 0 0 1-.722 3.051zm3.1-4.77a34.8 34.8 0 0 1 .02 3.929c-.1 2.1-.149 4.2-.385 6.29-.081.713-.1 1.432-.179 2.144a20.836 20.836 0 0 1-.255 1.608c-.4 2.109-.906 4.2-1.193 6.328a4.03 4.03 0 0 1-.654 1.716 2.817 2.817 0 0 1-.282.306 3.1 3.1 0 0 1-1.667-1.3 2.528 2.528 0 0 1-.436-1.316 2.746 2.746 0 0 1 .074-.652 6.669 6.669 0 0 0 .212-1.608 4.889 4.889 0 0 1 .444-2.083 1.622 1.622 0 0 0 .1-.2c.386-1.325.96-2.588 1.273-3.94.228-.984.539-1.949.825-2.919a10.789 10.789 0 0 0 .382-1.655c.1-.783.295-1.553.427-2.332.065-.388.08-.784.119-1.176.062-.639.1-1.281.2-1.914a14.585 14.585 0 0 0 .122-1.548c.031-.665.133-1.326.169-1.991.03-.564.018-1.13.011-1.695-.007-.665-.04-1.329-.038-1.994a.97.97 0 0 0-.08-.558l-.01-.008v-.012c-.031-.26-.062-.52-.1-.8.241.25.247.3.1.8v.008a.016.016 0 0 0 .006.012.388.388 0 0 1 .182.286c.026.37.065.739.1 1.108.176 1.72.4 3.436.512 5.161zm-.956-8.948.027-.055.007.066zm-2.8-8.05c-.745.26-1.5.479-2.248.744a2.447 2.447 0 0 1-1.171.08 6.284 6.284 0 0 1-3.2-1.41 13.19 13.19 0 0 1-2.1-2.374.538.538 0 0 1-.108-.192 11.8 11.8 0 0 1-.576-2.591 3.727 3.727 0 0 0-.147-.792c-.054-.241-.146-.476-.178-.719a3.123 3.123 0 0 1-.022-.808c.055-.436.25-.593.692-.606a4.01 4.01 0 0 1 .666.029c.267.036.53.1.844.164.431.821.431.818 1.3.876a1.751 1.751 0 0 0 .865-.15c.223-.1.306-.3.155-.472a3.613 3.613 0 0 1-.76-2.189c-.049-.565-.112-1.13-.127-1.7a1.067 1.067 0 0 1 .658-1.147 1.535 1.535 0 0 1 .437.249 3.683 3.683 0 0 1 1.3 2.4.534.534 0 0 0 .38.5 3.159 3.159 0 0 0 1.376.237 1.09 1.09 0 0 0 .233-.113 2.472 2.472 0 0 1 .1-1.5c.1-.454.161-.914.3-1.366a1.931 1.931 0 0 1 1.423-1.272.95.95 0 0 1 .51.016 1.9 1.9 0 0 1 1.406 1.384c.255.875.448 1.774.772 2.623.374.982.4 2.032.712 3.021a10.119 10.119 0 0 1 0 1.842 6.862 6.862 0 0 0-.117 1.473 3.709 3.709 0 0 1-1.045 2.543 2.731 2.731 0 0 1-.827.607 13.993 13.993 0 0 1-1.512.608zm1.369 1.115.608-.151c.216 2.177.648 4.291.847 6.437-.2.037-.251-.059-.264-.194q-.117-1.284-.229-2.57a.229.229 0 0 0 0-.074c-.333-.918-.215-1.961-.794-2.815a2.187 2.187 0 0 1-.172-.638zm.147 12.285a20.742 20.742 0 0 1-.121 4.473 1.021 1.021 0 0 1-.194-.07c-.357-.21-.711-.426-1.042-.624-.011-.095-.034-.149-.019-.188a2.959 2.959 0 0 0 .106-1.739 11.519 11.519 0 0 1-.18-1.614 5.918 5.918 0 0 0-.452-1.78 1.962 1.962 0 0 1-.247-1.038 8.545 8.545 0 0 1 1.042 1.366c.36.423.722.793 1.1 1.209z"/></svg>