<svg height="60" viewBox="0 0 60 60" width="60" xmlns="http://www.w3.org/2000/svg"><path d="M30.59 25.116c-.393-.508-1.137-.251-1.712-.392a1.518 1.518 0 0 0-.543-.077 1.041 1.041 0 0 0-.9.555c-.282.581-.636 1.128-.894 1.719a3.176 3.176 0 0 0-.344 1.308 13.447 13.447 0 0 0 .317 2.471 2.7 2.7 0 0 0 1.176 1.823c1.369.756 2.52.664 3.4-.892a7.184 7.184 0 0 0 .74-2.919c-.031-.426-.054-.7-.071-.98a4.824 4.824 0 0 0-1.169-2.616z" fill="#d88c1f"/><path d="M47.106 29.179a7.336 7.336 0 0 0 .421-1.736 2.392 2.392 0 0 0-.329-1.989 6.59 6.59 0 0 0-5.085-3.462c-.23-.031-.461-.055-.687-.1a6.479 6.479 0 0 0-4.47.39c-.286.148-.611.218-.909.347a2.83 2.83 0 0 1-1.978.088 3.3 3.3 0 0 0-.125-1.015 8.443 8.443 0 0 1-.72-3.237 52.122 52.122 0 0 1-.107-2.5 3.734 3.734 0 0 0-.369-1.612c-.41-.829-.778-1.679-1.206-2.5a13.345 13.345 0 0 0-1.073-1.776A2.793 2.793 0 0 0 29.048 9c-.495-.15-1.073-.285-1.46.1-1.041 1.029-2.29 1.941-2.419 3.6-.028.363-.153.724-.146 1.084.028 1.529.069 3.057.144 4.584a6.221 6.221 0 0 0 .608 2.83 1.18 1.18 0 0 1-.423 1.469 6.561 6.561 0 0 1-2.38 1.082 25.648 25.648 0 0 0-5.172 1.585 4.858 4.858 0 0 0-2.07 1.364c-.467.573-.86 1.208-1.286 1.815a2.223 2.223 0 0 0-.052 2.829 5.713 5.713 0 0 1 .744 1.621 2.326 2.326 0 0 0 .738 1.135 7.6 7.6 0 0 0 2.3 1.235 10.04 10.04 0 0 0 3.7.434 6.272 6.272 0 0 1 1.654.1 3.969 3.969 0 0 0 1.922-.068 1.619 1.619 0 0 1 1.252.046 2.487 2.487 0 0 1 .446 2.074 2.5 2.5 0 0 0-.014.828c.12 1.336.264 2.669.376 4.006a6.384 6.384 0 0 0 1.07 2.976 13.479 13.479 0 0 1 1.033 1.8 3.617 3.617 0 0 0 1.5 1.594 2.61 2.61 0 0 0 1.88.2c.15-.026.291-.207.4-.345.457-.58.881-1.186 1.354-1.752a4.607 4.607 0 0 0 1.1-1.9 14.806 14.806 0 0 0 .61-3.108 12.623 12.623 0 0 1 .174-1.8 14.376 14.376 0 0 0-.544-6.454 2.575 2.575 0 0 0-1.23-1.787 3.469 3.469 0 0 1 1.264-1.212c.641.078 1.276-.049 1.7.542a.812.812 0 0 0 .5.211 6.585 6.585 0 0 0 2.35.121c1.225-.243 2.462-.437 3.677-.726a4.064 4.064 0 0 0 2.758-1.934zm-16.57 4.96a1.556 1.556 0 0 1-.539.109 9.392 9.392 0 0 1-3.9-.782 2.311 2.311 0 0 1-.913-.816 19.573 19.573 0 0 1-.994-1.967 1.333 1.333 0 0 1-.171-.523c-.03-1.7-.184-3.433.59-5.021a4.05 4.05 0 0 1 1.219-1.48 4.078 4.078 0 0 1 1.566-.427c.267-.054.559.009.823-.051a2.643 2.643 0 0 0 .611-.322 7.751 7.751 0 0 0 1.755.79 4.481 4.481 0 0 1 2.331 1.387 3.368 3.368 0 0 1 .923 2.228c.067.544.043 1.1.079 1.645a5.343 5.343 0 0 1-3.38 5.23z" fill="#5d7eb7"/><path d="M44.767 33.385a2.173 2.173 0 0 0 .331-.118l.975.486c.43-.232.8-.406 1.15-.625a5.608 5.608 0 0 0 1.706-1.608c1.381-2.06 1.063-4.218.338-6.392a4.766 4.766 0 0 0-1.22-1.675 8.934 8.934 0 0 0-5.184-3.008c-.595-.09-1.212-.053-1.8-.173a8.061 8.061 0 0 0-4.643.335c-.224.087-.511.252-.821-.075 0-.212-.01-.486 0-.76a12.177 12.177 0 0 0-.684-4.767 23.263 23.263 0 0 0-2.441-4.971 5.383 5.383 0 0 0-3.459-2.359 4.447 4.447 0 0 0-4.294.907 9.244 9.244 0 0 0-2.238 3.146c-.406.971-.943 1.934-.5 3.05a10.682 10.682 0 0 0 .274 2.583 13.007 13.007 0 0 0 .48 2.587 1.833 1.833 0 0 1-.023 1.353 4.467 4.467 0 0 1-2.714.808 10.978 10.978 0 0 0-2.841.589c-.75.223-1.449.611-2.18.9a4.955 4.955 0 0 0-2.285 1.757c-.583.834-1.074 1.731-1.65 2.57a5.888 5.888 0 0 0-.856 3.973 5.009 5.009 0 0 0 .648 1.957 9.293 9.293 0 0 0 3.088 2.89 9.818 9.818 0 0 0 4.262 1.6c2.135.381 4.309.545 6.526.809.1.63.267 1.309.322 2a16.662 16.662 0 0 0 2.856 7.6 6.482 6.482 0 0 0 3.117 2.461 4.248 4.248 0 0 0 2.166.4 1.389 1.389 0 0 0 .654-.169 28.311 28.311 0 0 0 2.7-2.169 5.546 5.546 0 0 0 1.708-3.405 19.923 19.923 0 0 1 .609-2.841 11.965 11.965 0 0 0 .324-3.7 20.907 20.907 0 0 0-.955-5.176 2.805 2.805 0 0 1-.008-.726 9.662 9.662 0 0 0 3.629.559l-.02.021a.729.729 0 0 1 .234-.084 1.655 1.655 0 0 1 .679-.176 7.355 7.355 0 0 0 2.04-.364zm-4.088-1.547a6.672 6.672 0 0 1-2.35-.121.817.817 0 0 1-.5-.211c-.428-.591-1.063-.464-1.7-.542a3.469 3.469 0 0 0-1.264 1.212 2.579 2.579 0 0 1 1.23 1.787 14.381 14.381 0 0 1 .544 6.454 12.623 12.623 0 0 0-.174 1.8 14.68 14.68 0 0 1-.61 3.108 4.687 4.687 0 0 1-1.1 1.9c-.475.575-.9 1.172-1.354 1.752-.109.138-.25.319-.4.345a2.61 2.61 0 0 1-1.88-.2 3.618 3.618 0 0 1-1.5-1.594 13.479 13.479 0 0 0-1.033-1.8 6.359 6.359 0 0 1-1.076-2.983c-.112-1.337-.256-2.67-.376-4.006a2.5 2.5 0 0 1 .014-.828 2.5 2.5 0 0 0-.446-2.074 1.621 1.621 0 0 0-1.249-.05 3.933 3.933 0 0 1-1.922.068 6.358 6.358 0 0 0-1.654-.1 10.068 10.068 0 0 1-3.7-.434 7.616 7.616 0 0 1-2.3-1.235 2.306 2.306 0 0 1-.738-1.135 5.713 5.713 0 0 0-.741-1.621 2.227 2.227 0 0 1 .052-2.829c.426-.607.819-1.242 1.286-1.815a4.876 4.876 0 0 1 2.07-1.364 25.95 25.95 0 0 1 5.17-1.577 6.561 6.561 0 0 0 2.38-1.082 1.181 1.181 0 0 0 .423-1.469 6.182 6.182 0 0 1-.608-2.83 149.059 149.059 0 0 1-.144-4.584c-.007-.36.118-.721.146-1.084.134-1.651 1.378-2.567 2.419-3.6.387-.382.965-.247 1.46-.1a2.793 2.793 0 0 1 1.421 1.074 13.345 13.345 0 0 1 1.073 1.776c.428.819.8 1.669 1.206 2.5a3.734 3.734 0 0 1 .369 1.612c.018.834.049 1.668.107 2.5a8.443 8.443 0 0 0 .72 3.237 3.3 3.3 0 0 1 .125 1.015 2.841 2.841 0 0 0 1.978-.088c.3-.129.623-.2.909-.347a6.479 6.479 0 0 1 4.47-.39c.226.047.457.071.687.1a6.58 6.58 0 0 1 5.081 3.466 2.392 2.392 0 0 1 .329 1.989 7.336 7.336 0 0 1-.421 1.736 4.078 4.078 0 0 1-2.753 1.933c-1.215.292-2.45.486-3.677.729z"/><path d="M21.806 40.394a1.457 1.457 0 0 0-.41.059 29.158 29.158 0 0 0-4.01 1.491 6.324 6.324 0 0 0-3.536 3.863 3.737 3.737 0 0 0 .508 3.626c.788-.054 1.38-.1 1.973-.134a4.59 4.59 0 0 0 2.623-.756 6.066 6.066 0 0 0 2.4-3.466c.246-1.036.5-2.07.717-3.112a2.483 2.483 0 0 0 .038-1.457 1.032 1.032 0 0 0-.303-.114zm16.018-22.249a.825.825 0 0 0 .272 0c.459-.213.919-.427 1.365-.665 1.342-.718 2.648-1.513 4.027-2.152a5.993 5.993 0 0 0 2.457-2.17 3.005 3.005 0 0 0 .533-2.968 1.6 1.6 0 0 1-.059-.4 3.174 3.174 0 0 0-2.64-.519 4.956 4.956 0 0 0-2.815 1.378 14.509 14.509 0 0 0-2.212 2.837 7.326 7.326 0 0 0-1.178 3.932c.009.251-.052.557.25.727zM14.6 10.677a2.531 2.531 0 0 0-2.748-.009 1.653 1.653 0 0 0-.412.53c-.156.279-.258.587-.411.868a1.381 1.381 0 0 0 .056 1.45q.555.96 1.063 1.951a4.111 4.111 0 0 0 3.223 2.355 2.468 2.468 0 0 1 1.16.407 4.417 4.417 0 0 0 2.9.846c.1-.286.2-.584.316-.9-.522-.87-.983-1.621-1.426-2.382a126.764 126.764 0 0 1-1.649-2.9 7.727 7.727 0 0 0-2.072-2.216zm25.922 24.735a.668.668 0 0 0 .057 1 6.765 6.765 0 0 1 1.337 2.388 12.026 12.026 0 0 0 1.608 2.9 5.474 5.474 0 0 0 2.645 1.936c.788.281 1.734.154 2.021-.417.416-.829 1.1-1.617.752-2.7a3.946 3.946 0 0 1-.848-.809 10.171 10.171 0 0 0-3.694-3.467 2.556 2.556 0 0 1-1.357-1.478 1.69 1.69 0 0 0-.481-.664.547.547 0 0 0-.517-.165 3.336 3.336 0 0 1-.235.085c-.434.457-.89.9-1.288 1.391zm1.311-1.42-.034.028.032-.026zm-.027.024c.078-.024.156-.054.235-.085a.729.729 0 0 0-.234.084z"/><path d="m41.831 33.994-.032.026.012-.005zm-7.996-6.73a3.364 3.364 0 0 0-.923-2.228 4.481 4.481 0 0 0-2.331-1.387 7.693 7.693 0 0 1-1.755-.79 2.566 2.566 0 0 1-.611.322c-.264.06-.556 0-.823.051a4.15 4.15 0 0 0-1.566.427 4.063 4.063 0 0 0-1.22 1.48c-.774 1.588-.62 3.32-.59 5.021a1.333 1.333 0 0 0 .171.523 20.009 20.009 0 0 0 .994 1.967 2.311 2.311 0 0 0 .913.816 9.357 9.357 0 0 0 3.9.782 1.556 1.556 0 0 0 .539-.109 5.338 5.338 0 0 0 3.378-5.23c-.033-.548-.005-1.101-.076-1.645zm-2.749 4.367c-.876 1.556-2.027 1.648-3.4.892A2.7 2.7 0 0 1 26.51 30.7a13.447 13.447 0 0 1-.317-2.471 3.164 3.164 0 0 1 .344-1.308c.258-.591.612-1.138.894-1.719a1.051 1.051 0 0 1 .9-.555 1.518 1.518 0 0 1 .543.077c.575.141 1.319-.116 1.712.392a4.814 4.814 0 0 1 1.165 2.616c.017.277.04.554.071.98a7.113 7.113 0 0 1-.736 2.919z"/></svg>