<svg height="60" viewBox="0 0 60 60" width="60" xmlns="http://www.w3.org/2000/svg"><path d="M52.772 18.8c-5.925-2.518-13.632-3.251-19.588-.412-.419-2.527-.906-5.042-1.554-7.522-.79-3.027-1.63-7.931-5.22-8.812-7.217-1.771-6.854 10.664-6.029 17.14a18.779 18.779 0 0 0-6.794 2.036 13.715 13.715 0 0 0-5.306 2.046 9.132 9.132 0 0 0-3.959 10.158 2.829 2.829 0 0 0 .51.99c.92 3.064 4.365 4.493 7.527 4.921a20.341 20.341 0 0 0 3.4.165 2.378 2.378 0 0 0 1.778.484c.331-.03 2.489-.129 3.9-.229v.149q.018 1.191.138 2.375a26.887 26.887 0 0 0 2 8.1c1.869 4.29 6.776 9.034 11.826 6.551 5.213-2.564 4.24-10.28 3.543-14.928-.057-.378-.126-.753-.19-1.13a55.555 55.555 0 0 0-.455-7.188 39.255 39.255 0 0 0 10.463-1.181c3.18-.765 7.824-2.336 8.967-5.8 1.178-3.597-1.948-6.638-4.957-7.913z" fill="#e88b7f"/><path d="M33.362 15.914c.588-.211.957-.337 1.321-.477a12.609 12.609 0 0 1 3.769-.843c1.225-.073 2.449-.158 3.671-.271a16.242 16.242 0 0 1 8.021 1.477c.487.21.966.437 1.449.656a12.421 12.421 0 0 1 5.83 5.75 6.762 6.762 0 0 1 .814 5.075 4.528 4.528 0 0 1-2.028 2.994 45.9 45.9 0 0 0-4.179 3.156 4.644 4.644 0 0 1-3.072 1.211 3.039 3.039 0 0 0-1.137.29 3.942 3.942 0 0 1-2.61.3.922.922 0 0 0-.3-.036c-1.188.044-2.386.01-3.559.165a3.273 3.273 0 0 1-2.159-.491c-.71-.407-1.414-.824-2.171-1.265a1.009 1.009 0 0 1 .988-.5c1.782-.044 3.571-.234 5.34-.111 1.181.082 2.208-.52 3.357-.421.255.021.534-.194.8-.313 1.133-.515 2.3-.974 3.38-1.58a5.52 5.52 0 0 0 1.342-1.319c.664-.778 1.3-1.582 1.922-2.4a4.194 4.194 0 0 0 .482-4.236c-1.03-2.912-3.267-4.426-5.976-5.525a16.919 16.919 0 0 0-8.607-.8 16.5 16.5 0 0 0-3.6.677 3.952 3.952 0 0 0-1.783 1.194c-.862 1.02-1.087.991-2.407.587-1.348-.412-1.685-1.407-1.877-2.609-.2-1.272-.488-2.531-.722-3.8-.113-.614-.169-1.239-.289-1.851-.1-.507-.28-1-.378-1.5a14.4 14.4 0 0 0-1.713-5.257 10.475 10.475 0 0 0-.781-1.017c-.33-.395-.664-.342-1.013 0a6.857 6.857 0 0 0-1.642 2.806 42.923 42.923 0 0 0-1.3 5.307c-.235 1.263-.241 2.568-.357 3.853-.045.5-.086.992-.172 1.48a4.076 4.076 0 0 0 .1 2.8c.26.488-.181.885-.378 1.276s-.567.46-1.078.407a9.662 9.662 0 0 0-4.206.226 30.594 30.594 0 0 0-3.012.9.941.941 0 0 1-.468.153c-1.171-.179-2.092.462-3.074.907a2.154 2.154 0 0 1-.453.2c-1.26.248-1.775 1.231-2.313 2.233a7.466 7.466 0 0 1-.977 1.37 5.457 5.457 0 0 0-1.335 3.028 5.415 5.415 0 0 0 .289 1.839c.15.6.391 1.194.586 1.792a8.741 8.741 0 0 0 7.086 5.764 35.774 35.774 0 0 0 5.737-.405c1.023-.078 2.044-.2 3.068-.248a1.749 1.749 0 0 1 1.743 1.18.84.84 0 0 1 .131.371c-.21 1.97.41 3.861.51 5.807a22.676 22.676 0 0 0 1.243 6.387 10.922 10.922 0 0 0 1.3 2.56c1.572 2.285 4.268 2.427 6.408 1.026 2.445-1.6 3.545-4.052 4.069-6.8a13.4 13.4 0 0 0 .064-4.951A8.01 8.01 0 0 1 37 42.5a40.306 40.306 0 0 1 .181-6.754 1.627 1.627 0 0 1 .38-.851.781.781 0 0 1 1.145.18 3.872 3.872 0 0 1 .558 1.361q.5 3.486.9 6.985a17.881 17.881 0 0 1-.115 6.329 13.716 13.716 0 0 1-2.879 6.225c-2.35 2.6-5.207 3.121-8.4 2.6a9.293 9.293 0 0 1-6.5-4.773c-1.4-2.3-1.732-4.9-2.2-7.461-.24-1.3-.407-2.623-.625-3.932-.175-1.05-.3-1.1-1.38-1.028s-2.178.072-3.268.1a10.645 10.645 0 0 1-4.167-.831q-1.851-.723-3.666-1.547a4.7 4.7 0 0 1-2.23-2.049c-.489-.9-1-1.774-1.427-2.718A20.018 20.018 0 0 1 2.4 32.29c-.2-.636-.528-1.264.089-1.921a1.223 1.223 0 0 0 .032-1.044 2.867 2.867 0 0 1 .321-2.468 9.892 9.892 0 0 1 2.778-3.593 9.223 9.223 0 0 1 3.168-2.074c1.555-.43 3.015-1.2 4.56-1.674a36.145 36.145 0 0 1 3.785-.806c.674-.132 1.356-.22 2.156-.346-.094-1.054-.156-2.006-.269-2.952a12.82 12.82 0 0 1-.014-3.857 20.939 20.939 0 0 0 .294-2.369 14.424 14.424 0 0 1 1.922-5.806 6.7 6.7 0 0 1 1.348-1.7 4.471 4.471 0 0 1 5.115-.218 8.325 8.325 0 0 1 3.039 3.6c.386.913.786 1.82 1.186 2.726a12.755 12.755 0 0 1 .685 3.781c.163 1.396.483 2.777.767 4.345z"/><path d="M33.739 29.824a6.261 6.261 0 0 1-3.783 6.07 6.132 6.132 0 0 1-4.933-.233A4.511 4.511 0 0 1 22.6 31.1a22.872 22.872 0 0 1 1.014-4.135c.078-.272.4-.5.656-.689 1.453-1.064 3.226-1.447 4.809-2.236a3.887 3.887 0 0 1 2.059-.039.491.491 0 0 1 .341.18 9.415 9.415 0 0 1 1.621 2.472 7.442 7.442 0 0 1 .639 3.171z"/></svg>